<?xml version="1.0" encoding="utf-8"?>
<!-- Generator: Adobe Illustrator 16.0.0, SVG Export Plug-In . SVG Version: 6.00 Build 0)  -->
<!DOCTYPE svg PUBLIC "-//W3C//DTD SVG 1.1//EN" "http://www.w3.org/Graphics/SVG/1.1/DTD/svg11.dtd">
<svg version="1.1" id="Layer_1" xmlns="http://www.w3.org/2000/svg" xmlns:xlink="http://www.w3.org/1999/xlink" x="0px" y="0px"
	 width="200px" height="200px" viewBox="0 0 200 200" enable-background="new 0 0 200 200" xml:space="preserve">
<g id="Layer_1_1_">
	<g>
		<rect x="10.922" y="10.53" fill="#FB4725" width="54.112" height="54.147"/>
		<rect x="72.038" y="10.53" fill="#FF7B39" width="55.925" height="54.147"/>
		<rect x="134.932" y="10.53" fill="#FC9B3A" width="54.146" height="54.147"/>
		<rect x="10.922" y="72.215" fill="#22B45C" width="54.112" height="55.925"/>
		<rect x="72.038" y="72.215" fill="#91CA06" width="55.925" height="55.925"/>
		<rect x="134.932" y="72.215" fill="#D6D230" width="54.146" height="55.925"/>
		<rect x="10.922" y="135.322" fill="#0066B6" width="54.112" height="54.147"/>
		<rect x="72.038" y="135.322" fill="#429ACC" width="55.925" height="54.147"/>
		<rect x="134.932" y="135.322" fill="#6CBADD" width="54.146" height="54.147"/>
	</g>
	<g>
		<polygon fill="#FFFFFF" points="34.031,55.221 43.275,55.221 43.275,27.845 53.585,27.845 53.585,20.023 23.366,20.023 
			23.366,27.845 34.031,27.845 		"/>
		<rect x="95.538" y="20.023" fill="#FFFFFF" width="9.245" height="35.198"/>
		<polygon fill="#FFFFFF" points="154.558,31.258 165.365,55.221 177.666,55.221 177.666,20.023 169.134,20.023 169.134,44.235 
			158.468,20.023 146.024,20.023 146.024,55.221 154.558,55.221 		"/>
		<polygon fill="#FFFFFF" points="54.083,82.241 42.884,82.241 32.254,95.183 32.254,82.241 23.01,82.241 23.01,117.438 
			32.254,117.438 32.254,103.182 43.595,117.438 55.221,117.438 39.187,98.809 		"/>
		<polygon fill="#FFFFFF" points="111.182,110.684 96.25,110.684 96.25,102.862 110.115,102.862 110.115,96.107 96.25,96.107 
			96.25,89.352 110.471,89.352 110.471,82.241 87.005,82.241 87.005,117.438 111.182,117.438 		"/>
		<path fill="#FFFFFF" d="M174.111,91.947c0-6.044-4.729-9.706-12.657-9.706h-14.008v35.197h8.888v-13.865h1.85
			c3.058,0,3.697,0.96,5.154,4.87l3.2,8.995h9.955l-4.729-11.981c-0.996-2.453-1.956-4.124-3.556-5.19
			C172.014,98.845,174.111,95.894,174.111,91.947z M164.867,92.658c0,3.484-3.307,4.195-6.079,4.195h-2.454v-7.822h2.667
			C163.231,88.996,164.867,90.027,164.867,92.658z"/>
		<path fill="#FFFFFF" d="M48.537,171.692c-1.956,0.89-4.231,1.316-6.791,1.316c-6.649,0-10.631-4.089-10.631-10.915
			c0-6.542,4.338-10.914,10.773-10.914c2.169,0,4.622,0.461,6.542,1.279l1.173,0.498l0.392-7.502l-0.676-0.214
			c-2.63-0.782-5.83-1.244-8.604-1.244c-11.093,0-19.163,7.608-19.163,18.097c0.036,5.582,1.884,10.203,5.439,13.403
			c3.377,3.058,8.142,4.693,13.759,4.693c3.235,0,6.364-0.534,8.782-1.458l0.604-0.249l-0.426-7.323L48.537,171.692z"/>
		<path fill="#FFFFFF" d="M94.792,144.459l-13.403,35.197h9.208l3.021-8.532h12.942l2.951,8.532h9.634l-13.438-35.197H94.792z
			 M104.391,164.369h-8.604l4.374-11.769L104.391,164.369z"/>
		<path fill="#FFFFFF" d="M159.036,144.459h-12.657v35.197h11.732c12.16,0,19.447-6.754,19.447-18.061
			C177.559,150.575,170.982,144.459,159.036,144.459z M168.032,161.596c0,7.289-3.805,11.307-10.986,11.307h-1.423v-21.688h2.275
			C164.44,151.214,168.032,155.019,168.032,161.596z"/>
	</g>
</g>
</svg>
