<?xml version="1.0" encoding="utf-8"?>
<!-- Generator: Adobe Illustrator 16.0.0, SVG Export Plug-In . SVG Version: 6.00 Build 0)  -->
<!DOCTYPE svg PUBLIC "-//W3C//DTD SVG 1.1//EN" "http://www.w3.org/Graphics/SVG/1.1/DTD/svg11.dtd">
<svg version="1.1" xmlns="http://www.w3.org/2000/svg" xmlns:xlink="http://www.w3.org/1999/xlink" x="0px" y="0px" width="335px"
	 height="393.75px" viewBox="0 0 335 393.75" enable-background="new 0 0 335 393.75" xml:space="preserve">
<g id="Layer_2">
	<g>
		<g>
			<path fill-rule="evenodd" clip-rule="evenodd" fill="#90D1F3" d="M300.013,177.749c1.158-8.358,3.319-16.72,3.259-25.068
				c-0.136-20.482-0.663-40.977-8.377-60.544c-9.688-24.583-27.039-42.171-49.367-55.265
				c-28.628-16.787-59.949-23.267-92.432-18.713C112.176,23.891,75.909,39.74,52.852,76.657
				c-14.841,23.765-19.371,50.099-16.448,77.744c1.01,9.556,2.815,19.028,4.254,28.538"/>
			<path fill="#FFFFFF" d="M300.013,177.749c0,0,0.063-0.473,0.184-1.39c0.114-0.917,0.301-2.276,0.575-4.045
				c0.27-1.768,0.603-3.949,0.994-6.514c0.351-2.565,0.788-5.515,0.956-8.831c0.204-3.303,0.014-6.993-0.079-11.023
				c-0.156-4.019-0.284-8.36-0.641-12.985c-0.083-1.156-0.146-2.333-0.249-3.523c-0.124-1.188-0.249-2.394-0.376-3.618
				c-0.129-1.222-0.259-2.462-0.391-3.72c-0.189-1.248-0.381-2.513-0.575-3.795c-0.192-1.281-0.349-2.584-0.562-3.895
				c-0.253-1.302-0.509-2.62-0.768-3.954c-0.277-1.329-0.454-2.698-0.823-4.037c-0.355-1.341-0.715-2.698-1.078-4.068
				c-0.629-2.772-1.729-5.456-2.66-8.251c-0.254-0.684-0.461-1.424-0.755-2.069c-0.291-0.693-0.584-1.388-0.878-2.087
				c-0.297-0.697-0.594-1.397-0.893-2.1c-0.325-0.68-0.651-1.364-0.979-2.05c-2.619-5.496-5.846-10.976-9.684-16.21
				c-3.836-5.24-8.289-10.249-13.28-14.907c-4.984-4.667-10.542-8.933-16.471-12.845c-11.894-7.765-25.246-14.266-39.564-18.49
				c-14.313-4.22-29.549-6.108-44.693-5.45c-7.588,0.291-15.076,1.315-22.576,2.621c-7.428,1.319-14.769,3.11-21.917,5.253
				c-7.146,2.178-14.037,4.929-20.638,8.059c-6.603,3.147-12.756,6.96-18.537,11.062c-1.41,1.075-2.814,2.146-4.213,3.212
				c-1.402,1.062-2.667,2.277-3.998,3.4l-1.967,1.71c-0.652,0.571-1.238,1.209-1.858,1.808c-1.224,1.215-2.441,2.424-3.652,3.626
				c-1.13,1.279-2.254,2.551-3.372,3.815c-0.558,0.633-1.115,1.264-1.67,1.894c-0.513,0.664-1.025,1.326-1.535,1.986
				c-1.018,1.322-2.029,2.636-3.035,3.941c-0.955,1.342-1.839,2.722-2.753,4.067c-0.453,0.676-0.904,1.349-1.354,2.02
				c-0.215,0.33-0.471,0.681-0.652,0.993l-0.62,1.044c-0.804,1.396-1.693,2.76-2.41,4.152c-0.729,1.395-1.499,2.749-2.179,4.145
				c-0.666,1.405-1.327,2.798-1.981,4.18c-2.499,5.584-4.412,11.196-5.867,16.677c-2.854,10.987-3.982,21.405-4.21,30.648
				c-0.07,4.625,0.034,8.963,0.336,12.963c0.073,1,0.145,1.98,0.215,2.939c0.09,0.933,0.223,1.888,0.329,2.798
				c0.223,1.832,0.436,3.578,0.637,5.235c0.762,6.637,1.547,11.821,2.042,15.364c0.501,3.542,0.769,5.431,0.769,5.431
				s-0.337-1.879-0.97-5.402c-0.618-3.525-1.628-8.684-2.582-15.295c-0.253-1.65-0.521-3.39-0.801-5.213
				c-0.136-0.918-0.293-1.83-0.42-2.814c-0.101-0.962-0.204-1.946-0.309-2.951c-0.43-4.017-0.673-8.386-0.748-13.062
				c-0.059-4.678,0.166-9.661,0.675-14.896c0.55-5.233,1.647-10.674,3.102-16.259c1.481-5.579,3.43-11.293,5.974-16.979
				c0.667-1.407,1.339-2.825,2.017-4.255c0.694-1.423,1.487-2.821,2.236-4.25c0.745-1.44,1.614-2.77,2.424-4.176l0.62-1.045
				c0.228-0.389,0.456-0.693,0.684-1.045c0.457-0.682,0.916-1.366,1.376-2.053c0.929-1.367,1.828-2.769,2.799-4.133
				c1.022-1.328,2.051-2.665,3.085-4.009c0.52-0.671,1.04-1.344,1.562-2.019c0.564-0.641,1.13-1.283,1.698-1.927
				c1.138-1.287,2.282-2.581,3.432-3.882c1.232-1.224,2.472-2.455,3.717-3.692c0.631-0.609,1.229-1.258,1.892-1.839L74.124,50
				c1.354-1.143,2.643-2.379,4.069-3.46c1.422-1.084,2.852-2.174,4.287-3.268c5.88-4.174,12.139-8.049,18.841-11.245
				c6.701-3.178,13.689-5.966,20.922-8.171c7.242-2.17,14.636-3.976,22.183-5.315c7.476-1.302,15.143-2.354,22.816-2.645
				c15.358-0.667,30.823,1.249,45.341,5.53c14.529,4.288,28.046,10.869,40.101,18.739c6.013,3.967,11.659,8.301,16.732,13.051
				c5.08,4.74,9.62,9.844,13.531,15.188c3.918,5.346,7.195,10.908,9.885,16.551c0.337,0.707,0.672,1.41,1.005,2.111
				c0.3,0.705,0.598,1.406,0.895,2.104c0.294,0.699,0.587,1.395,0.879,2.087c0.326,0.725,0.52,1.433,0.784,2.145
				c0.952,2.852,2.072,5.596,2.714,8.417c0.37,1.396,0.736,2.778,1.098,4.145c0.376,1.364,0.576,2.749,0.867,4.099
				c0.264,1.356,0.523,2.696,0.781,4.02c0.202,1.332,0.359,2.653,0.53,3.955c0.155,1.304,0.31,2.59,0.461,3.86
				c0.093,1.274,0.185,2.53,0.275,3.769c0.09,1.238,0.178,2.458,0.265,3.66c0.065,1.203,0.092,2.388,0.139,3.553
				c0.212,4.662,0.203,9.028,0.232,13.056c-0.035,4.017,0.041,7.73-0.271,11.09c-0.274,3.35-0.807,6.296-1.264,8.852
				c-0.489,2.548-0.905,4.716-1.242,6.473c-0.342,1.755-0.58,3.106-0.729,4.019C300.093,177.279,300.013,177.749,300.013,177.749z"
				/>
		</g>
		<path fill-rule="evenodd" clip-rule="evenodd" fill="#90D1F3" stroke="#FFFFFF" stroke-width="2" stroke-miterlimit="10" d="
			M38.064,178.614c-3.375-1.349-6.76-2.703-10.042-4.015c-8.381,5.538-7.361,13.129-5.424,20.417
			c4.612,17.37,9.342,34.724,14.817,51.826c1.691,5.283,5.952,9.739,8.936,14.422c3.225-1.143,5.199-1.839,7.649-2.703
			c3.681,22.94,8.809,44.799,24.565,62.816c11.917,13.628,26.847,23.032,41.687,32.651c10.609,6.872,20.322,15.174,33.625,17.581
			c17.867,3.229,35.412,3.106,50.877-6.524c16.588-10.337,32.769-24.313,48.615-35.84l0,0c10.225-9.848,18.766-21.501,23.269-35.659
			c3.727-11.734,7.117-23.571,10.68-35.425c1.824,0.643,3.888,1.371,7.714,2.722c2.285-4.213,5.904-8.81,7.405-14.022
			c5.344-18.602,10.074-37.384,14.764-56.17c0.747-2.98,0.701-6.454-0.013-9.453c-1.532-6.431-1.684-10.638-14.578-7.808"/>
		<path fill-rule="evenodd" clip-rule="evenodd" fill="#90D1F3" stroke="#FFFFFF" stroke-width="2" stroke-miterlimit="10" d="
			M89.071,334.228"/>
		<g>
			<path fill-rule="evenodd" clip-rule="evenodd" fill="#90D1F3" d="M33.744,191.583c5.481,10.313,8.371,21.441,10.374,32.855"/>
			<path fill="#FFFFFF" d="M33.833,191.539c0,0,0.266,0.472,0.73,1.297c0.23,0.414,0.51,0.917,0.831,1.493
				c0.325,0.574,0.681,1.227,1.023,1.968c0.356,0.735,0.743,1.532,1.151,2.376c0.431,0.837,0.754,1.766,1.161,2.703
				c0.386,0.944,0.813,1.912,1.16,2.927c0.366,1.008,0.737,2.032,1.109,3.058c0.339,1.036,0.678,2.071,1.011,3.092
				c0.359,1.015,0.631,2.034,0.884,3.024c0.231,0.994,0.476,1.953,0.606,2.881c0.154,0.924,0.282,1.8,0.384,2.61
				c0.219,1.62,0.274,2.988,0.314,3.944c0.035,0.957,0.019,1.509,0.019,1.509l-0.197,0.035c0,0-0.214-0.512-0.527-1.414
				c-0.331-0.899-0.696-2.203-1.176-3.751c-0.235-0.775-0.472-1.618-0.705-2.513c-0.235-0.894-0.509-1.827-0.741-2.806
				c-0.217-0.982-0.441-1.998-0.669-3.03c-0.243-1.029-0.489-2.074-0.735-3.12c-0.295-1.032-0.591-2.064-0.881-3.081
				c-0.272-1.024-0.626-2.002-0.941-2.96c-0.331-0.95-0.606-1.893-0.948-2.746c-0.327-0.863-0.637-1.68-0.923-2.434
				c-0.272-0.76-0.568-1.443-0.842-2.043c-0.265-0.604-0.496-1.131-0.686-1.564c-0.377-0.87-0.592-1.366-0.592-1.366L33.833,191.539
				z"/>
		</g>
		<g>
			<path fill-rule="evenodd" clip-rule="evenodd" fill="#90D1F3" d="M305.203,193.313c-2.83,5.793-5.66,11.585-8.545,17.492
				c2.466,4.123,2.43,8.382-0.058,12.793c-1.387,2.457-2.35,5.16-3.502,7.754"/>
			<path fill="#FFFFFF" d="M305.293,193.356l-3.935,8.911l-4.014,8.872l-0.031-0.727l0.705,1.266
				c0.261,0.41,0.396,0.888,0.593,1.335l0.271,0.684l0.181,0.718c0.115,0.48,0.271,0.956,0.296,1.455
				c0.036,0.494,0.143,0.993,0.108,1.49l-0.088,1.495c-0.09,0.487-0.197,0.973-0.31,1.456c-0.095,0.49-0.321,0.931-0.483,1.394
				c-0.092,0.228-0.172,0.46-0.272,0.682l-0.35,0.64l-0.666,1.215c-0.442,0.802-0.888,1.604-1.35,2.397
				c-0.476,0.789-0.913,1.587-1.351,2.387c-0.466,0.787-0.904,1.59-1.407,2.367l-0.184-0.082c0.211-0.909,0.487-1.793,0.735-2.693
				l0.411-1.332c0.152-0.438,0.325-0.861,0.487-1.293c0.332-0.857,0.68-1.707,1.03-2.555l0.55-1.249
				c0.185-0.393,0.347-0.79,0.464-1.198c0.117-0.407,0.301-0.8,0.378-1.212c0.085-0.411,0.174-0.82,0.28-1.228l0.126-1.244
				c0.044-0.415-0.012-0.831-0.006-1.25c0.021-0.423-0.086-0.832-0.15-1.249l-0.108-0.626l-0.197-0.607
				c-0.147-0.399-0.228-0.826-0.441-1.206l-0.563-1.172l-0.197-0.41l0.166-0.316l4.531-8.62l4.61-8.581L305.293,193.356z"/>
		</g>
	</g>
</g>
<g id="Layer_1">
	<g>
		<path fill="#FFFFFF" d="M145.959,272.168c-2.947,0.157-5.894,0.298-8.841,0.413l-8.841,0.319l-8.841,0.246l-8.84,0.188
			c-5.894,0.139-11.788,0.169-17.682,0.25l-17.682,0.083l-1.506,0.007l0.007-1.506l0.079-17.682
			c0.083-5.894,0.11-11.787,0.25-17.682l0.188-8.84l0.247-8.841c0.206-5.895,0.403-11.788,0.736-17.682
			c0.333,5.894,0.53,11.787,0.736,17.682l0.247,8.841l0.188,8.84c0.14,5.895,0.167,11.788,0.25,17.682l0.079,17.682l-1.499-1.499
			l17.682,0.083c5.894,0.081,11.788,0.111,17.682,0.25l8.84,0.188l8.841,0.246l8.841,0.319
			C140.065,271.87,143.012,272.011,145.959,272.168z"/>
	</g>
	<g>
		<path fill="#FFFFFF" d="M265.094,201.399c0.157,2.948,0.298,5.897,0.413,8.846l0.319,8.847l0.246,8.846l0.188,8.846
			c0.139,5.897,0.169,11.795,0.25,17.692l0.083,17.692l0.007,1.506l-1.506-0.007l-17.692-0.079
			c-5.897-0.083-11.796-0.109-17.693-0.249l-8.846-0.188l-8.847-0.247c-5.897-0.206-11.795-0.403-17.692-0.736
			c5.897-0.333,11.795-0.53,17.692-0.736l8.847-0.247l8.846-0.188c5.897-0.14,11.796-0.166,17.693-0.249l17.692-0.079l-1.499,1.499
			l0.083-17.692c0.081-5.897,0.111-11.795,0.25-17.692l0.188-8.846l0.246-8.846l0.319-8.847
			C264.796,207.297,264.937,204.348,265.094,201.399z"/>
	</g>
	<g>
		<path fill="#FFFFFF" d="M194.165,82.311c2.955-0.157,5.911-0.298,8.866-0.414l8.866-0.319l8.866-0.246l8.865-0.188
			c5.911-0.138,11.822-0.169,17.732-0.25l17.732-0.083l1.506-0.007l-0.007,1.506l-0.079,17.731
			c-0.083,5.911-0.109,11.821-0.249,17.732l-0.188,8.866l-0.247,8.866c-0.206,5.911-0.403,11.821-0.736,17.731
			c-0.333-5.911-0.53-11.821-0.736-17.731l-0.247-8.866l-0.188-8.866c-0.14-5.911-0.166-11.821-0.249-17.732l-0.079-17.731
			l1.499,1.499l-17.732-0.083c-5.91-0.082-11.821-0.112-17.732-0.25l-8.865-0.188l-8.866-0.246l-8.866-0.319
			C200.076,82.608,197.12,82.468,194.165,82.311z"/>
	</g>
	<g>
		<path fill="#FFFFFF" d="M75.233,152.869c-0.157-2.94-0.298-5.88-0.414-8.82l-0.319-8.82l-0.246-8.82l-0.188-8.819
			c-0.138-5.88-0.169-11.76-0.25-17.64l-0.083-17.64l-0.007-1.506l1.506,0.007l17.64,0.079c5.88,0.083,11.76,0.11,17.64,0.25
			l8.82,0.188l8.82,0.247c5.88,0.206,11.76,0.403,17.64,0.736c-5.88,0.333-11.76,0.53-17.64,0.736l-8.82,0.247l-8.82,0.188
			c-5.88,0.14-11.76,0.167-17.64,0.25l-17.64,0.079l1.499-1.499l-0.083,17.64c-0.082,5.88-0.112,11.76-0.25,17.64l-0.188,8.819
			l-0.246,8.82l-0.319,8.82C75.531,146.989,75.39,149.929,75.233,152.869z"/>
	</g>
	<g display="none">
		<path display="inline" fill="#8FD0F2" d="M171.497,233.725c0,0-0.07-0.286-0.2-0.821c-0.11-0.536-0.315-1.322-0.492-2.322
			c-0.402-2.001-0.895-4.858-1.327-8.288c-0.437-3.43-0.819-7.431-1.076-11.718c-0.131-2.144-0.237-4.358-0.295-6.609
			c-0.078-2.25-0.089-4.536-0.109-6.823c0.019-2.286,0.025-4.572,0.104-6.823c0.051-2.25,0.166-4.465,0.291-6.609
			c0.254-4.287,0.637-8.288,1.075-11.718c0.434-3.429,0.927-6.287,1.333-8.288c0.179-1,0.383-1.786,0.495-2.322
			c0.131-0.536,0.201-0.822,0.201-0.822s0.07,0.286,0.201,0.822c0.112,0.536,0.316,1.322,0.495,2.322
			c0.406,2.001,0.899,4.859,1.333,8.288c0.438,3.43,0.82,7.431,1.075,11.718c0.125,2.144,0.24,4.358,0.291,6.609
			c0.079,2.251,0.085,4.537,0.104,6.823c-0.02,2.287-0.03,4.573-0.108,6.823c-0.059,2.251-0.164,4.466-0.295,6.609
			c-0.257,4.287-0.64,8.288-1.076,11.718c-0.433,3.43-0.924,6.287-1.327,8.288c-0.177,1-0.382,1.786-0.492,2.322
			C171.566,233.438,171.497,233.725,171.497,233.725z"/>
	</g>
	<g display="none">
		<path display="inline" fill="#8FD0F2" d="M208.078,197.141c0,0-0.286,0.069-0.821,0.2c-0.536,0.11-1.322,0.314-2.322,0.492
			c-2.001,0.402-4.858,0.895-8.288,1.326c-3.43,0.438-7.431,0.819-11.717,1.076c-2.144,0.132-4.358,0.236-6.609,0.295
			c-2.25,0.079-4.536,0.09-6.823,0.109c-2.286-0.02-4.573-0.025-6.823-0.104c-2.25-0.052-4.465-0.166-6.609-0.291
			c-4.287-0.255-8.288-0.638-11.717-1.076c-3.43-0.434-6.288-0.927-8.288-1.332c-1-0.179-1.786-0.383-2.322-0.495
			c-0.536-0.131-0.822-0.201-0.822-0.201s0.286-0.07,0.822-0.201c0.536-0.112,1.322-0.316,2.322-0.495
			c2-0.405,4.858-0.898,8.288-1.333c3.429-0.438,7.43-0.821,11.717-1.075c2.144-0.125,4.358-0.24,6.609-0.291
			c2.25-0.079,4.537-0.085,6.823-0.104c2.287,0.02,4.573,0.031,6.823,0.109c2.251,0.059,4.466,0.164,6.609,0.295
			c4.286,0.256,8.287,0.639,11.717,1.076c3.43,0.432,6.287,0.924,8.288,1.327c1,0.178,1.786,0.382,2.322,0.492
			C207.792,197.071,208.078,197.141,208.078,197.141z"/>
	</g>
</g>
<g id="Layer_3">
	<path fill="none" stroke="#FFFFFF" stroke-width="2" stroke-miterlimit="10" d="M148.552,199.588
		c0.674-4.876,5.171-8.277,10.044-7.604c4.869,0.673,8.274,5.168,7.6,10.043c-0.674,4.87-5.171,8.272-10.041,7.599
		C151.284,208.952,147.879,204.457,148.552,199.588z"/>
	<circle fill="none" stroke="#FFFFFF" stroke-width="2" stroke-miterlimit="10" cx="116.535" cy="176.292" r="3.797"/>
	<circle fill="none" stroke="#FFFFFF" stroke-width="2" stroke-miterlimit="10" cx="134.582" cy="250.346" r="7.468"/>
	<circle fill="none" stroke="#FFFFFF" stroke-width="2" stroke-miterlimit="10" cx="191.444" cy="108.848" r="4.56"/>
	<g>
		<polygon fill="#FFFFFF" points="113.095,177.226 88.318,188.442 112.667,176.323 		"/>
	</g>
	<line fill="none" stroke="#FFFFFF" stroke-miterlimit="10" x1="120.032" y1="177.763" x2="149.202" y2="197.263"/>
	<line fill="none" stroke="#FFFFFF" stroke-miterlimit="10" x1="153.128" y1="208.633" x2="138.004" y2="243.714"/>
	<circle fill="none" stroke="#FFFFFF" stroke-width="2" stroke-miterlimit="10" cx="153.631" cy="142.252" r="6.002"/>
	<line fill="none" stroke="#FFFFFF" stroke-miterlimit="10" x1="159.081" y1="192.066" x2="152.808" y2="148.196"/>
	<path fill="none" stroke="#FFFFFF" stroke-width="0.75" stroke-miterlimit="10" d="M87.503,91.744
		c0.209-1.509,1.6-2.563,3.109-2.354c1.512,0.207,2.564,1.6,2.354,3.11c-0.209,1.51-1.601,2.562-3.111,2.354
		C88.347,94.646,87.292,93.254,87.503,91.744z"/>
	<path fill="none" stroke="#FFFFFF" stroke-miterlimit="10" d="M103.18,227.996c0.237-1.714,1.822-2.914,3.537-2.676
		c1.715,0.238,2.914,1.82,2.675,3.535c-0.237,1.716-1.819,2.917-3.535,2.677C104.143,231.298,102.942,229.714,103.18,227.996z"/>
	<path fill="none" stroke="#FFFFFF" stroke-miterlimit="10" d="M148.919,263.303c0.137-0.99,1.053-1.683,2.044-1.544
		c0.991,0.134,1.685,1.05,1.548,2.041c-0.138,0.993-1.053,1.683-2.045,1.547C149.476,265.211,148.782,264.296,148.919,263.303z"/>
	<circle fill="none" stroke="#FFFFFF" stroke-miterlimit="10" cx="146.66" cy="181.441" r="1.812"/>
	<circle fill="none" stroke="#FFFFFF" stroke-miterlimit="10" cx="157.452" cy="200.913" r="1.812"/>
	<circle fill="none" stroke="#FFFFFF" stroke-width="0.75" stroke-miterlimit="10" cx="118.367" cy="191.012" r="1.812"/>
	<circle fill="none" stroke="#FFFFFF" stroke-width="0.75" stroke-miterlimit="10" cx="158.832" cy="228.073" r="1.812"/>
	<circle fill="none" stroke="#FFFFFF" stroke-width="0.75" stroke-miterlimit="10" cx="164.356" cy="155.634" r="1.813"/>
	
		<line fill="none" stroke="#FFFFFF" stroke-width="0.75" stroke-miterlimit="10" x1="157.167" y1="147.096" x2="163.18" y2="154.266"/>
	<g>
		<polygon fill="#FFFFFF" points="159.146,139.62 170.651,137.961 159.33,140.602 		"/>
	</g>
	<circle fill="none" stroke="#FFFFFF" stroke-width="0.75" stroke-miterlimit="10" cx="153.667" cy="142.292" r="1.382"/>
	
		<line fill="none" stroke="#FFFFFF" stroke-width="0.75" stroke-miterlimit="10" x1="159.081" y1="226.277" x2="159.581" y2="209.434"/>
	
		<line fill="none" stroke="#FFFFFF" stroke-width="0.75" stroke-miterlimit="10" x1="116.857" y1="179.879" x2="117.985" y2="189.13"/>
	<line fill="none" stroke="#FFFFFF" stroke-miterlimit="10" x1="147.532" y1="183.023" x2="152.634" y2="193.268"/>
	
		<line fill="none" stroke="#FFFFFF" stroke-width="0.75" stroke-miterlimit="10" x1="140.844" y1="254.408" x2="149.309" y2="262.42"/>
	<g>
		<polygon fill="#FFFFFF" points="104.893,231.328 86.521,251.923 104.135,230.676 		"/>
	</g>
	<line fill="none" stroke="#FFFFFF" stroke-miterlimit="10" x1="129.243" y1="246.128" x2="108.479" y2="230.652"/>
	<path fill="none" stroke="#FFFFFF" stroke-width="2" stroke-miterlimit="10" d="M222.693,139.104
		c-2.506,2.559-6.604,2.602-9.162,0.098c-2.555-2.501-2.602-6.603-0.096-9.161c2.5-2.556,6.602-2.599,9.157-0.098
		C225.149,132.447,225.195,136.549,222.693,139.104z"/>
	<circle fill="none" stroke="#FFFFFF" stroke-width="2" stroke-miterlimit="10" cx="231.33" cy="166.582" r="2.762"/>
	<circle fill="none" stroke="#FFFFFF" stroke-width="2" stroke-miterlimit="10" cx="252.831" cy="115.474" r="5.432"/>
	<g>
		<polygon fill="#FFFFFF" points="233.772,167.392 253.086,171.692 233.579,168.374 		"/>
	</g>
	<line fill="none" stroke="#FFFFFF" stroke-miterlimit="10" x1="229.922" y1="164.208" x2="221.309" y2="140.182"/>
	<line fill="none" stroke="#FFFFFF" stroke-miterlimit="10" x1="223.934" y1="131.834" x2="247.959" y2="117.872"/>
	<circle fill="none" stroke="#FFFFFF" stroke-width="2" stroke-miterlimit="10" cx="194.908" cy="170.427" r="4.365"/>
	<line fill="none" stroke="#FFFFFF" stroke-miterlimit="10" x1="213.283" y1="138.945" x2="197.962" y2="167.309"/>
	<line fill="none" stroke="#FFFFFF" stroke-miterlimit="10" x1="191.854" y1="173.547" x2="164.356" y2="195.408"/>
	<circle fill="none" stroke="#FFFFFF" stroke-miterlimit="10" cx="249.114" cy="100.771" r="1.318"/>
	<circle fill="none" stroke="#FFFFFF" stroke-miterlimit="10" cx="215.946" cy="150.533" r="1.319"/>
	<circle fill="none" stroke="#FFFFFF" stroke-miterlimit="10" cx="218.064" cy="134.477" r="1.317"/>
	<circle fill="none" stroke="#FFFFFF" stroke-width="0.75" stroke-miterlimit="10" cx="236.63" cy="157.183" r="1.318"/>
	<circle fill="none" stroke="#FFFFFF" stroke-width="0.75" stroke-miterlimit="10" cx="229.012" cy="118" r="1.318"/>
	<circle fill="none" stroke="#FFFFFF" stroke-width="0.75" stroke-miterlimit="10" cx="194.429" cy="157.961" r="1.318"/>
	
		<line fill="none" stroke="#FFFFFF" stroke-width="0.75" stroke-miterlimit="10" x1="194.938" y1="166.065" x2="194.525" y2="159.271"/>
	<g>
		<polygon fill="#FFFFFF" points="190.486,169.704 183.1,165.57 190.922,168.804 		"/>
	</g>
	<circle fill="none" stroke="#FFFFFF" stroke-width="0.75" stroke-miterlimit="10" cx="194.903" cy="170.389" r="1.006"/>
	
		<line fill="none" stroke="#FFFFFF" stroke-width="0.75" stroke-miterlimit="10" x1="228.091" y1="118.943" x2="220.507" y2="128.573"/>
	
		<line fill="none" stroke="#FFFFFF" stroke-width="0.75" stroke-miterlimit="10" x1="232.693" y1="164.346" x2="236.039" y2="158.45"/>
	<line fill="none" stroke="#FFFFFF" stroke-miterlimit="10" x1="216.122" y1="149.231" x2="217.57" y2="141.032"/>
	
		<line fill="none" stroke="#FFFFFF" stroke-width="0.75" stroke-miterlimit="10" x1="250.93" y1="110.391" x2="249.448" y2="102.042"/>
	<circle fill="none" stroke="#FFFFFF" stroke-width="2" stroke-miterlimit="10" cx="220.286" cy="229.005" r="4.15"/>
	<g>
		<polygon fill="#FFFFFF" points="253.361,225.64 224.431,228.864 224.337,227.868 		"/>
	</g>
	<g>
		<polygon fill="#FFFFFF" points="217.333,232.139 187.955,259.133 216.647,231.41 		"/>
	</g>
	<path fill="none" stroke="#FFFFFF" stroke-miterlimit="10" d="M220.884,253.73c0.485,1.05,0.024,2.289-1.025,2.774
		c-1.046,0.483-2.286,0.025-2.769-1.025c-0.484-1.047-0.027-2.29,1.021-2.773C219.16,252.226,220.402,252.679,220.884,253.73z"/>
	<g>
		<polygon fill="#FFFFFF" points="223.84,231.171 242.131,245.324 223.244,231.976 		"/>
	</g>
	<line fill="none" stroke="#FFFFFF" stroke-miterlimit="10" x1="220.125" y1="233.147" x2="218.947" y2="252.519"/>
	<circle fill="none" stroke="#FFFFFF" stroke-width="2" stroke-miterlimit="10" cx="101.954" cy="113.772" r="5.315"/>
	<circle fill="none" stroke="#FFFFFF" stroke-width="2" stroke-miterlimit="10" cx="128.409" cy="123.731" r="2.176"/>
	<line fill="none" stroke="#FFFFFF" stroke-miterlimit="10" x1="148.625" y1="138.945" x2="129.766" y2="125.432"/>
	<line fill="none" stroke="#FFFFFF" stroke-miterlimit="10" x1="126.29" y1="122.953" x2="106.281" y2="116.858"/>
	<g>
		<polygon fill="#FFFFFF" points="87.852,116.724 96.635,114.311 96.847,115.289 		"/>
	</g>
	<circle fill="none" stroke="#FFFFFF" stroke-miterlimit="10" cx="116.418" cy="129.804" r="1.097"/>
	<circle fill="none" stroke="#FFFFFF" stroke-miterlimit="10" cx="101.867" cy="113.756" r="1.096"/>
	<g>
		<polygon fill="#FFFFFF" points="128.583,125.941 126.666,137.923 127.59,125.824 		"/>
	</g>
	<line fill="none" stroke="#FFFFFF" stroke-miterlimit="10" x1="126.48" y1="124.736" x2="117.357" y2="129.241"/>
	<line fill="none" stroke="#FFFFFF" stroke-miterlimit="10" x1="155.944" y1="136.722" x2="187.955" y2="111.776"/>
	<g>
		<polygon fill="#FFFFFF" points="187.608,106.278 173.636,92.123 188.302,105.558 		"/>
	</g>
	<line fill="none" stroke="#FFFFFF" stroke-miterlimit="10" x1="91.088" y1="94.74" x2="99.365" y2="109.136"/>
	<g>
		<polygon fill="#FFFFFF" points="113.502,173.829 96.638,148.196 114.329,173.265 		"/>
	</g>
	<path fill="none" stroke="#FFFFFF" stroke-width="2" stroke-miterlimit="10" d="M196.185,209.323
		c0.565-4.087,4.335-6.938,8.418-6.374c4.087,0.565,6.941,4.334,6.378,8.42c-0.566,4.085-4.338,6.938-8.424,6.373
		C198.473,217.179,195.619,213.407,196.185,209.323z"/>
	<circle fill="none" stroke="#FFFFFF" stroke-width="0.75" stroke-miterlimit="10" cx="203.667" cy="210.292" r="1.381"/>
	
		<line fill="none" stroke="#FFFFFF" stroke-width="0.75" stroke-miterlimit="10" x1="196.005" y1="174.793" x2="202.285" y2="202.994"/>
	
		<line fill="none" stroke="#FFFFFF" stroke-width="0.75" stroke-miterlimit="10" x1="208.824" y1="215.652" x2="218.549" y2="225.234"/>
</g>
</svg>
