<?xml version="1.0" encoding="utf-8"?>
<!-- Generator: Adobe Illustrator 16.0.0, SVG Export Plug-In . SVG Version: 6.00 Build 0)  -->
<!DOCTYPE svg PUBLIC "-//W3C//DTD SVG 1.1//EN" "http://www.w3.org/Graphics/SVG/1.1/DTD/svg11.dtd">
<svg version="1.1" xmlns="http://www.w3.org/2000/svg" xmlns:xlink="http://www.w3.org/1999/xlink" x="0px" y="0px"
	 width="691.333px" height="600px" viewBox="0 0 691.333 600" enable-background="new 0 0 691.333 600" xml:space="preserve">
<pattern  x="-141.333" y="20" width="446.64" height="259.185" patternUnits="userSpaceOnUse" id="Foliage" viewBox="146.558 -378.063 446.64 259.185" overflow="visible">
	<g>
		<polygon fill="none" points="146.558,-378.063 593.197,-378.063 593.197,-118.878 146.558,-118.878 		"/>
		<g>
			<path fill="#2C973E" d="M525.396-187.373c5.52,4.577,10.662,12.461,11.443,22.75c1.076-10.23,3.197-18.133,8.211-23.961
				c0,0-6.328,3.096-8.615,9.153C533.475-184.681,525.396-187.373,525.396-187.373z"/>
			<path fill="#2C973E" d="M511.396-238.256c1.219,5.969,6.307,11.177,12.924,13.731c-2.711-6.993-1.703-13.798,2.154-19.789
				c-0.898,7.766,1.469,13.21,5.787,18.039c-1.359-4.829-1.242-9.267,1.078-13.865c-0.943,8.48,6.168,12.787,15.615,18.442
				c12.66,7.579,17.277,16.042,19.248,27.227c-3.451-6.867-9.902-13.138-27.859-17.292
				C518.046-216.923,509.952-224.18,511.396-238.256z"/>
			
				<linearGradient id="SVGID_1_" gradientUnits="userSpaceOnUse" x1="-69963.3828" y1="-79039.1563" x2="-69986.6797" y2="-79031.2188" gradientTransform="matrix(1 0 0 -1 70478.0547 -79188.4688)">
				<stop  offset="0.2331" style="stop-color:#FAA61A"/>
				<stop  offset="0.7607" style="stop-color:#FFC20E"/>
			</linearGradient>
			<path fill="url(#SVGID_1_)" d="M511.666-146.047c-4.688-4.596-6.91-12.185-7.27-21.721c-0.471-12.527-5.409-17.657-13.326-18.528
				c11.802,4.579,4.444,17.117,7.942,25.846c-6.441-4.785-4.382-20.678-17.635-21.403c9.78,3.196,2.835,16.677,9.288,24.499
				c-7.808-0.107-11.396,6.127-21.539,3.231c4.715,3.636,9.965,5.923,18.846,5.923c-6.254,3.861-8.999,8.628-11.308,15.346
				C486.794-143.447,501.519-147.519,511.666-146.047z"/>
			
				<radialGradient id="SVGID_2_" cx="-69884.8594" cy="-79069.5938" r="133.4388" gradientTransform="matrix(1 0 0 -1 70478.0547 -79188.4688)" gradientUnits="userSpaceOnUse">
				<stop  offset="0.3479" style="stop-color:#58AB40"/>
				<stop  offset="0.7607" style="stop-color:#80C342"/>
			</radialGradient>
			<path fill="url(#SVGID_2_)" d="M629.039-111.603c29.438,4.023,46.232,20.791,49.148,36.552
				c-3.924-9.251-12.984-15.224-23.6-18.632c10.615,14.013,7.193,31.866,21.115,41.697c-10.365-11.039-7.211-24.462-14.904-36.729
				c12.258,6.896,14.123,16.671,17.023,27.147c4.385,15.845,11.545,20.089,17.221,22.178c-11.699,0.45-28.66-4.531-36.781-20.102
				c-8.611-16.509-1.449-34.408-22.48-43.772c9.602,8.056,14.727,19.517,8.693,34.421c2.256-21.923-20.627-25.505-24.309-40.453
				c-0.629,11.53,7.18,21.223,14.549,25.904c-10.289-3.372-19.215-8.989-23.42-21.824c-6.924,21.393,5.314,38.455,12.9,38.455
				c2.627,0,4.535-1.672,4.535-4.164c0-6.449-11.641-6.449-14.596-18.854c5.322,10.823,25.549,8.872,25.549,20.76
				c0,9.738-13.639,14.037-22.355,7.984c6.387,8.34,21.258,8.619,25.551-1.42c0.662,4.308-1.309,10.757-7.453,13.129
				c-6.986,2.699-13.484-2.484-13.484-2.484c7.641,11.014,20.939,3.673,34.066,3.904c10.867,0.193,18.105,5.82,21.291,11.179
				c-2.967-1.486-4.639-1.886-7.629-1.951c6.293,3.878,10.848,12.796,9.049,21.469c-1.297-6.249-8.572-10.679-22.355-11.634
				c-15.557-1.077-23.809-3.569-29.1-9.303c11.201,4.957,28.936-1.908,40.986,6.032c-7.453-8.538-23.934-6.089-35.715-7.98
				c-20.707-3.323-33.324-38.287-31.707-53.633c-5.656,23.423,9.461,36.2,12.787,49.134c3.635,14.135-3.365,23.826-9.949,28.803
				c10.281-15.398-7.416-24.63-4.613-44.356c-5.227,19.188,4.436,24.661,4.436,34.598c0,9.759-8.584,12.994-10.291,25.549
				c-1.705-12.555-10.291-15.79-10.291-25.549c0-9.937,9.662-15.409,4.436-34.598c2.805,19.727-14.893,28.958-4.613,44.356
				c-6.582-4.977-13.582-14.668-9.947-28.803c3.324-12.934,18.441-25.711,12.787-49.134c1.615,15.346-11,50.31-31.707,53.633
				c-11.783,1.892-28.262-0.558-35.716,7.98c12.05-7.94,29.784-1.075,40.985-6.032c-5.289,5.733-13.541,8.226-29.098,9.303
				c-13.785,0.955-21.06,5.385-22.356,11.634c-1.799-8.673,2.755-17.591,9.049-21.469c-2.991,0.065-4.661,0.465-7.629,1.951
				c3.186-5.358,10.423-10.985,21.292-11.179c13.127-0.231,26.424,7.109,34.066-3.904c0,0-6.5,5.184-13.484,2.484
				c-6.146-2.372-8.115-8.821-7.453-13.129c4.293,10.039,19.162,9.76,25.549,1.42c-8.717,6.053-22.355,1.754-22.355-7.984
				c0-11.888,20.229-9.937,25.551-20.76c-2.955,12.405-14.596,12.405-14.596,18.854c0,2.492,1.908,4.164,4.535,4.164
				c7.584,0,19.824-17.063,12.898-38.455c-4.203,12.835-13.129,18.452-23.42,21.824c7.371-4.682,15.178-14.374,14.549-25.904
				c-3.682,14.948-26.563,18.53-24.309,40.453c-6.031-14.904-0.908-26.365,8.695-34.421c-21.033,9.364-13.871,27.264-22.482,43.772
				c-8.121,15.57-25.082,20.552-36.78,20.102c5.675-2.089,12.836-6.333,17.221-22.178c2.898-10.477,4.766-20.251,17.024-27.147
				c-7.694,12.267-4.539,25.689-14.904,36.729c13.922-9.831,10.498-27.685,21.113-41.697c-10.615,3.408-19.677,9.381-23.598,18.632
				c2.914-15.761,19.711-32.528,49.148-36.552c-30.326-1.289-36.174,15.554-51.456,16.162c-9.682,0.385-18.136-8.391-28.033-13.678
				c12.113,3.072,31.107,11.328,41.164-2.129c0,0-6.194,5.261-18.275,3.728c-12.272-1.559-23.462-9.4-54.117-11.356
				c30.655-1.958,41.844-9.797,54.117-11.355c12.081-1.536,18.275,3.725,18.275,3.725c-10.057-13.457-29.051-5.199-41.164-2.129
				c9.897-5.287,18.352-14.061,28.033-13.676c15.282,0.606,21.13,17.451,51.456,16.16c-29.438-4.021-46.234-20.791-49.148-36.55
				c3.921,9.249,12.982,15.222,23.598,18.63c-10.615-14.013-7.191-31.866-21.113-41.695c10.365,11.037,7.21,24.462,14.904,36.727
				c-12.259-6.895-14.126-16.669-17.024-27.146c-4.385-15.847-11.546-20.089-17.221-22.179c11.698-0.45,28.659,4.531,36.78,20.101
				c8.611,16.512,1.449,34.411,22.482,43.772c-9.604-8.056-14.727-19.517-8.695-34.421c-2.254,21.923,20.627,25.505,24.309,40.453
				c0.629-11.53-7.178-21.223-14.549-25.904c10.291,3.372,19.217,8.989,23.42,21.824c6.926-21.391-5.314-38.455-12.898-38.455
				c-2.627,0-4.535,1.673-4.535,4.164c0,6.451,11.641,6.451,14.596,18.854c-5.322-10.821-25.551-8.869-25.551-20.758
				c0-9.738,13.639-14.037,22.355-7.985c-6.387-8.339-21.256-8.62-25.549,1.42c-0.662-4.308,1.307-10.757,7.453-13.13
				c6.984-2.698,13.484,2.484,13.484,2.484c-7.643-11.014-20.939-3.671-34.066-3.904c-10.869-0.191-18.106-5.82-21.292-11.177
				c2.968,1.485,4.638,1.884,7.629,1.952c-6.294-3.879-10.848-12.798-9.049-21.469c1.297,6.248,8.571,10.678,22.356,11.632
				c15.557,1.077,23.809,3.569,29.098,9.305c-11.201-4.959-28.936,1.908-40.985-6.033c7.454,8.537,23.933,6.09,35.716,7.981
				c20.707,3.322,33.322,38.285,31.707,53.631c5.654-23.423-9.463-36.2-12.787-49.134c-3.635-14.134,3.365-23.826,9.947-28.802
				c-10.279,15.398,7.418,24.628,4.613,44.357c5.227-19.19-4.436-24.663-4.436-34.599c0-9.759,8.586-12.995,10.291-25.55
				c1.707,12.555,10.291,15.791,10.291,25.55c0,9.936-9.662,15.408-4.436,34.599c-2.803-19.729,14.895-28.959,4.613-44.357
				c6.584,4.976,13.584,14.668,9.949,28.802c-3.326,12.934-18.443,25.711-12.787,49.134c-1.617-15.346,11-50.309,31.707-53.631
				c11.781-1.891,28.262,0.556,35.715-7.981c-12.051,7.941-29.785,1.074-40.986,6.033c5.291-5.736,13.543-8.228,29.1-9.305
				c13.783-0.954,21.059-5.384,22.355-11.632c1.799,8.671-2.756,17.59-9.049,21.469c2.99-0.067,4.662-0.467,7.629-1.952
				c-3.186,5.356-10.424,10.985-21.291,11.177c-13.127,0.233-26.426-7.109-34.066,3.904c0,0,6.498-5.183,13.484-2.484
				c6.145,2.373,8.115,8.822,7.453,13.13c-4.293-10.04-19.164-9.759-25.551-1.42c8.717-6.052,22.355-1.753,22.355,7.985
				c0,11.889-20.227,9.937-25.549,20.758c2.955-12.403,14.596-12.403,14.596-18.854c0-2.491-1.908-4.164-4.535-4.164
				c-7.586,0-19.824,17.064-12.9,38.455c4.205-12.835,13.131-18.452,23.42-21.824c-7.369,4.682-15.178,14.374-14.549,25.904
				c3.682-14.948,26.564-18.53,24.309-40.453c6.033,14.904,0.908,26.365-8.693,34.421c21.031-9.361,13.869-27.261,22.48-43.772
				c8.121-15.57,25.082-20.551,36.781-20.101c-5.676,2.09-12.836,6.333-17.221,22.179c-2.9,10.477-4.766,20.251-17.023,27.146
				c7.693-12.265,4.539-25.689,14.904-36.727c-13.922,9.829-10.5,27.683-21.115,41.695c10.615-3.408,19.676-9.381,23.6-18.63
				c-2.916,15.759-19.711,32.528-49.148,36.55c30.326,1.291,36.172-15.554,51.453-16.16c9.684-0.385,18.137,8.389,28.035,13.676
				c-12.113-3.07-31.107-11.328-41.164,2.129c0,0,6.193-5.261,18.275-3.725c12.271,1.559,23.461,9.397,54.115,11.355
				c-30.654,1.956-41.844,9.798-54.115,11.356c-12.082,1.533-18.275-3.728-18.275-3.728c10.057,13.457,29.051,5.201,41.164,2.129
				c-9.898,5.287-18.352,14.063-28.035,13.678C665.211-96.049,659.365-112.892,629.039-111.603z M662.395-118.876
				c4.613,1.241,8.633,3.77,14.488,3.77c7.113,0,11.074-2.751,16.74-3.77c-5.666-1.018-9.627-3.77-16.74-3.77
				C671.027-122.646,667.008-120.119,662.395-118.876z M590.182-209.188c0,5.123,3.016,8.397,3.016,12.123
				c0-3.725,3.018-7,3.018-12.123c0-4.569-2.25-6.652-3.018-11.435C592.43-215.84,590.182-213.756,590.182-209.188z M524-118.876
				c-4.613-1.243-8.634-3.77-14.488-3.77c-7.113,0-11.073,2.752-16.739,3.77c5.666,1.019,9.626,3.77,16.739,3.77
				C515.366-115.106,519.387-117.635,524-118.876z M596.215-28.565c0-5.123-3.018-8.398-3.018-12.123c0,3.725-3.016,7-3.016,12.123
				c0,4.568,2.248,6.653,3.016,11.434C593.965-21.912,596.215-23.997,596.215-28.565z M638.266-118.876
				c-9.938,0-24.088-4.982-34.953-3.016c3.449-2.1,4.982-3.673,7.451-6.744c-4.406,0.434-6.758,0.796-10.113,2.308
				c2.662-6.018,3.193-9.399,3.725-15.437c-3.068,3.565-4.639,5.74-6.564,10.646c0.709-12.42-4.258-15.247-4.613-31.761
				c-0.355,16.514-5.322,19.341-4.613,31.761c-1.924-4.905-3.494-7.08-6.564-10.646c0.531,6.037,1.064,9.419,3.727,15.437
				c-3.355-1.512-5.709-1.874-10.115-2.308c2.471,3.071,4.004,4.645,7.453,6.744c-10.865-1.967-25.018,3.016-34.953,3.016
				c9.936,0,24.088,4.98,34.953,3.017c-3.449,2.097-4.982,3.67-7.453,6.741c4.406-0.432,6.76-0.796,10.115-2.306
				c-2.662,6.016-3.195,9.397-3.727,15.437c3.07-3.565,4.641-5.742,6.564-10.647c-0.709,12.421,4.258,15.247,4.613,31.761
				c0.355-16.514,5.322-19.34,4.613-31.761c1.926,4.905,3.496,7.082,6.564,10.647c-0.531-6.039-1.063-9.421-3.725-15.437
				c3.355,1.51,5.707,1.874,10.113,2.306c-2.469-3.071-4.002-4.645-7.451-6.741C614.178-113.896,628.328-118.876,638.266-118.876z"
				/>
			
				<linearGradient id="SVGID_3_" gradientUnits="userSpaceOnUse" x1="86338.25" y1="-78983.3359" x2="86338.25" y2="-78955.2266" gradientTransform="matrix(-1 0 0 -1 86902.4844 -79188.4688)">
				<stop  offset="0.2331" style="stop-color:#FAA61A"/>
				<stop  offset="0.7607" style="stop-color:#FFC20E"/>
			</linearGradient>
			<path fill="url(#SVGID_3_)" d="M538.32-240.141c2.641,13.831,25.365,16.256,30.287,34.057
				c3.77-19.115,21.295-19.872,21.539-33.115c-3.18,7.802-10.838,5.786-15.885,12.115c0.846-6.151,4.635-11.892,12.385-15.077
				c-7.674-1.077-15.627,1.832-19.115,9.558c-2.559-4.173-2.813-8.449-0.674-13.865c-4.711,3.635-7.492,9.3-5.654,16.558
				C553.936-237.179,543.301-233.141,538.32-240.141z"/>
			<path fill="#FFC20E" d="M611.418-118.876c-4.258-0.664-9.389-3.201-14.131-1.22c2.322-1.805,1.145-3.515,2.529-5.197
				c-1.916,1.388-3.51,0.503-4.986,2.745c1.535-5.31-0.529-8.143-1.633-14.118c-1.104,5.976-3.168,8.809-1.633,14.118
				c-1.475-2.242-3.068-1.357-4.984-2.745c1.385,1.683,0.205,3.393,2.529,5.197c-4.742-1.981-9.875,0.556-14.131,1.22
				c4.256,0.665,9.389,3.199,14.131,1.218c-2.324,1.805-1.145,3.517-2.529,5.197c1.916-1.386,3.51-0.5,4.984-2.742
				c-1.535,5.309,0.529,8.14,1.633,14.117c1.104-5.978,3.168-8.809,1.633-14.117c1.477,2.242,3.07,1.356,4.986,2.742
				c-1.385-1.681-0.207-3.393-2.529-5.197C602.029-115.677,607.16-118.211,611.418-118.876z"/>
		</g>
		<g>
			
				<linearGradient id="SVGID_4_" gradientUnits="userSpaceOnUse" x1="86677.4063" y1="-79039.1563" x2="86654.1094" y2="-79031.2188" gradientTransform="matrix(-1 0 0 -1 86902.4844 -79188.4688)">
				<stop  offset="0.2331" style="stop-color:#FAA61A"/>
				<stop  offset="0.7607" style="stop-color:#FFC20E"/>
			</linearGradient>
			<path fill="url(#SVGID_4_)" d="M228.088-146.047c4.688-4.596,6.912-12.185,7.27-21.721c0.471-12.527,5.41-17.657,13.326-18.528
				c-11.801,4.579-4.443,17.117-7.941,25.846c6.439-4.785,4.381-20.678,17.635-21.403c-9.781,3.196-2.836,16.677-9.289,24.499
				c7.809-0.107,11.398,6.127,21.539,3.231c-4.717,3.636-9.965,5.923-18.846,5.923c6.254,3.861,9,8.628,11.307,15.346
				C252.961-143.447,238.236-147.519,228.088-146.047z"/>
			<path fill="#2C973E" d="M214.357-187.373c-5.52,4.577-10.66,12.461-11.441,22.75c-1.076-10.23-3.199-18.133-8.211-23.961
				c0,0,6.326,3.096,8.615,9.153C206.281-184.681,214.357-187.373,214.357-187.373z"/>
			<path fill="#2C973E" d="M228.357-238.256c-1.217,5.969-6.307,11.177-12.922,13.731c2.709-6.993,1.703-13.798-2.154-19.789
				c0.898,7.766-1.469,13.21-5.789,18.039c1.361-4.829,1.242-9.267-1.076-13.865c0.941,8.48-6.168,12.787-15.615,18.442
				c-12.66,7.579-17.277,16.042-19.25,27.227c3.451-6.867,9.902-13.138,27.859-17.292
				C221.709-216.923,229.803-224.18,228.357-238.256z"/>
			
				<linearGradient id="SVGID_5_" gradientUnits="userSpaceOnUse" x1="-70302.5313" y1="-78983.3359" x2="-70302.5313" y2="-78955.2266" gradientTransform="matrix(1 0 0 -1 70478.0547 -79188.4688)">
				<stop  offset="0.2331" style="stop-color:#FAA61A"/>
				<stop  offset="0.7607" style="stop-color:#FFC20E"/>
			</linearGradient>
			<path fill="url(#SVGID_5_)" d="M201.436-240.141c-2.643,13.831-25.367,16.256-30.289,34.057
				c-3.768-19.115-21.295-19.872-21.537-33.115c3.178,7.802,10.836,5.786,15.885,12.115c-0.848-6.151-4.635-11.892-12.385-15.077
				c7.672-1.077,15.625,1.832,19.115,9.558c2.557-4.173,2.813-8.449,0.672-13.865c4.713,3.635,7.492,9.3,5.654,16.558
				C185.82-237.179,196.455-233.141,201.436-240.141z"/>
			
				<radialGradient id="SVGID_6_" cx="-70331.5" cy="-79069.5938" r="133.4388" gradientTransform="matrix(1 0 0 -1 70478.0547 -79188.4688)" gradientUnits="userSpaceOnUse">
				<stop  offset="0.3479" style="stop-color:#58AB40"/>
				<stop  offset="0.7607" style="stop-color:#80C342"/>
			</radialGradient>
			<path fill="url(#SVGID_6_)" d="M182.398-111.603c29.438,4.023,46.232,20.791,49.148,36.552
				c-3.924-9.251-12.984-15.224-23.6-18.632c10.615,14.013,7.193,31.866,21.115,41.697c-10.365-11.039-7.211-24.462-14.904-36.729
				c12.258,6.896,14.123,16.671,17.023,27.147c4.385,15.845,11.545,20.089,17.221,22.178c-11.699,0.45-28.66-4.531-36.781-20.102
				c-8.611-16.509-1.449-34.408-22.48-43.772c9.602,8.056,14.727,19.517,8.693,34.421c2.256-21.923-20.627-25.505-24.309-40.453
				c-0.629,11.53,7.18,21.223,14.549,25.904c-10.289-3.372-19.215-8.989-23.42-21.824c-6.924,21.393,5.314,38.455,12.9,38.455
				c2.627,0,4.535-1.672,4.535-4.164c0-6.449-11.641-6.449-14.596-18.854c5.322,10.823,25.549,8.872,25.549,20.76
				c0,9.738-13.639,14.037-22.355,7.984c6.387,8.34,21.258,8.619,25.551-1.42c0.662,4.308-1.309,10.757-7.453,13.129
				c-6.986,2.699-13.484-2.484-13.484-2.484c7.641,11.014,20.939,3.673,34.066,3.904c10.867,0.193,18.105,5.82,21.291,11.179
				c-2.967-1.486-4.639-1.886-7.629-1.951c6.293,3.878,10.848,12.796,9.049,21.469c-1.297-6.249-8.572-10.679-22.355-11.634
				c-15.557-1.077-23.809-3.569-29.1-9.303c11.201,4.957,28.936-1.908,40.986,6.032c-7.453-8.538-23.934-6.089-35.715-7.98
				c-20.707-3.323-33.324-38.287-31.707-53.633c-5.656,23.423,9.461,36.2,12.787,49.134c3.635,14.135-3.365,23.826-9.949,28.803
				c10.281-15.398-7.416-24.63-4.613-44.356c-5.227,19.188,4.436,24.661,4.436,34.598c0,9.759-8.584,12.994-10.291,25.549
				c-1.705-12.555-10.291-15.79-10.291-25.549c0-9.937,9.662-15.409,4.436-34.598c2.805,19.727-14.893,28.958-4.613,44.356
				c-6.582-4.977-13.582-14.668-9.947-28.803c3.324-12.934,18.441-25.711,12.787-49.134c1.615,15.346-11,50.31-31.707,53.633
				c-11.783,1.892-28.262-0.558-35.716,7.98c12.05-7.94,29.784-1.075,40.985-6.032c-5.289,5.733-13.541,8.226-29.098,9.303
				c-13.785,0.955-21.06,5.385-22.356,11.634c-1.799-8.673,2.755-17.591,9.049-21.469c-2.991,0.065-4.661,0.465-7.629,1.951
				c3.186-5.358,10.423-10.985,21.292-11.179c13.127-0.231,26.424,7.109,34.066-3.904c0,0-6.5,5.184-13.484,2.484
				c-6.146-2.372-8.115-8.821-7.453-13.129c4.293,10.039,19.162,9.76,25.549,1.42c-8.717,6.053-22.355,1.754-22.355-7.984
				c0-11.888,20.229-9.937,25.551-20.76c-2.955,12.405-14.596,12.405-14.596,18.854c0,2.492,1.908,4.164,4.535,4.164
				c7.584,0,19.824-17.063,12.898-38.455c-4.203,12.835-13.129,18.452-23.42,21.824c7.371-4.682,15.178-14.374,14.549-25.904
				c-3.682,14.948-26.563,18.53-24.309,40.453c-6.031-14.904-0.908-26.365,8.695-34.421C82.941-93.898,90.104-75.999,81.492-59.49
				c-8.121,15.57-25.082,20.552-36.78,20.102c5.675-2.089,12.836-6.333,17.221-22.178c2.898-10.477,4.766-20.251,17.024-27.147
				c-7.694,12.267-4.539,25.689-14.904,36.729c13.922-9.831,10.498-27.685,21.113-41.697c-10.615,3.408-19.677,9.381-23.598,18.632
				c2.914-15.761,19.711-32.528,49.148-36.552c-30.326-1.289-36.174,15.554-51.456,16.162c-9.682,0.385-18.136-8.391-28.033-13.678
				c12.113,3.072,31.107,11.328,41.164-2.129c0,0-6.194,5.261-18.275,3.728c-12.272-1.559-23.462-9.4-54.116-11.356
				c30.654-1.958,41.844-9.797,54.116-11.355c12.081-1.536,18.275,3.725,18.275,3.725c-10.057-13.457-29.051-5.199-41.164-2.129
				c9.897-5.287,18.352-14.061,28.033-13.676c15.282,0.606,21.13,17.451,51.456,16.16c-29.438-4.021-46.234-20.791-49.148-36.55
				c3.921,9.249,12.982,15.222,23.598,18.63c-10.615-14.013-7.191-31.866-21.113-41.695c10.365,11.037,7.21,24.462,14.904,36.727
				c-12.259-6.895-14.126-16.669-17.024-27.146c-4.385-15.847-11.546-20.089-17.221-22.179c11.698-0.45,28.659,4.531,36.78,20.101
				c8.611,16.512,1.449,34.411,22.482,43.772c-9.604-8.056-14.727-19.517-8.695-34.421c-2.254,21.923,20.627,25.505,24.309,40.453
				c0.629-11.53-7.178-21.223-14.549-25.904c10.291,3.372,19.217,8.989,23.42,21.824c6.926-21.391-5.314-38.455-12.898-38.455
				c-2.627,0-4.535,1.673-4.535,4.164c0,6.451,11.641,6.451,14.596,18.854c-5.322-10.821-25.551-8.869-25.551-20.758
				c0-9.738,13.639-14.037,22.355-7.985c-6.387-8.339-21.256-8.62-25.549,1.42c-0.662-4.308,1.307-10.757,7.453-13.13
				c6.984-2.698,13.484,2.484,13.484,2.484c-7.643-11.014-20.939-3.671-34.066-3.904c-10.869-0.191-18.106-5.82-21.292-11.177
				c2.968,1.485,4.638,1.884,7.629,1.952c-6.294-3.879-10.848-12.798-9.049-21.469c1.297,6.248,8.571,10.678,22.356,11.632
				c15.557,1.077,23.809,3.569,29.098,9.305c-11.201-4.959-28.936,1.908-40.985-6.033c7.454,8.537,23.933,6.09,35.716,7.981
				c20.707,3.322,33.322,38.285,31.707,53.631c5.654-23.423-9.463-36.2-12.787-49.134c-3.635-14.134,3.365-23.826,9.947-28.802
				c-10.279,15.398,7.418,24.628,4.613,44.357c5.227-19.19-4.436-24.663-4.436-34.599c0-9.759,8.586-12.995,10.291-25.55
				c1.707,12.555,10.291,15.791,10.291,25.55c0,9.936-9.662,15.408-4.436,34.599c-2.803-19.729,14.895-28.959,4.613-44.357
				c6.584,4.976,13.584,14.668,9.949,28.802c-3.326,12.934-18.443,25.711-12.787,49.134c-1.617-15.346,11-50.309,31.707-53.631
				c11.781-1.891,28.262,0.556,35.715-7.981c-12.051,7.941-29.785,1.074-40.986,6.033c5.291-5.736,13.543-8.228,29.1-9.305
				c13.783-0.954,21.059-5.384,22.355-11.632c1.799,8.671-2.756,17.59-9.049,21.469c2.99-0.067,4.662-0.467,7.629-1.952
				c-3.186,5.356-10.424,10.985-21.291,11.177c-13.127,0.233-26.426-7.109-34.066,3.904c0,0,6.498-5.183,13.484-2.484
				c6.145,2.373,8.115,8.822,7.453,13.13c-4.293-10.04-19.164-9.759-25.551-1.42c8.717-6.052,22.355-1.753,22.355,7.985
				c0,11.889-20.227,9.937-25.549,20.758c2.955-12.403,14.596-12.403,14.596-18.854c0-2.491-1.908-4.164-4.535-4.164
				c-7.586,0-19.824,17.064-12.9,38.455c4.205-12.835,13.131-18.452,23.42-21.824c-7.369,4.682-15.178,14.374-14.549,25.904
				c3.682-14.948,26.564-18.53,24.309-40.453c6.033,14.904,0.908,26.365-8.693,34.421c21.031-9.361,13.869-27.261,22.48-43.772
				c8.121-15.57,25.082-20.551,36.781-20.101c-5.676,2.09-12.836,6.333-17.221,22.179c-2.9,10.477-4.766,20.251-17.023,27.146
				c7.693-12.265,4.539-25.689,14.904-36.727c-13.922,9.829-10.5,27.683-21.115,41.695c10.615-3.408,19.676-9.381,23.6-18.63
				c-2.916,15.759-19.711,32.528-49.148,36.55c30.326,1.291,36.172-15.554,51.453-16.16c9.684-0.385,18.137,8.389,28.035,13.676
				c-12.113-3.07-31.107-11.328-41.164,2.129c0,0,6.193-5.261,18.275-3.725c12.271,1.559,23.461,9.397,54.115,11.355
				c-30.654,1.956-41.844,9.798-54.115,11.356c-12.082,1.533-18.275-3.728-18.275-3.728c10.057,13.457,29.051,5.201,41.164,2.129
				c-9.898,5.287-18.352,14.063-28.035,13.678C218.57-96.049,212.725-112.892,182.398-111.603z M215.754-118.876
				c4.613,1.241,8.633,3.77,14.488,3.77c7.113,0,11.074-2.751,16.74-3.77c-5.666-1.018-9.627-3.77-16.74-3.77
				C224.387-122.646,220.367-120.119,215.754-118.876z M143.541-209.188c0,5.123,3.016,8.397,3.016,12.123
				c0-3.725,3.018-7,3.018-12.123c0-4.569-2.25-6.652-3.018-11.435C145.789-215.84,143.541-213.756,143.541-209.188z
				 M77.359-118.876c-4.613-1.243-8.634-3.77-14.488-3.77c-7.113,0-11.073,2.752-16.739,3.77c5.666,1.019,9.626,3.77,16.739,3.77
				C68.726-115.106,72.746-117.635,77.359-118.876z M149.574-28.565c0-5.123-3.018-8.398-3.018-12.123c0,3.725-3.016,7-3.016,12.123
				c0,4.568,2.248,6.653,3.016,11.434C147.324-21.912,149.574-23.997,149.574-28.565z M191.625-118.876
				c-9.938,0-24.088-4.982-34.953-3.016c3.449-2.1,4.982-3.673,7.451-6.744c-4.406,0.434-6.758,0.796-10.113,2.308
				c2.662-6.018,3.193-9.399,3.725-15.437c-3.068,3.565-4.639,5.74-6.564,10.646c0.709-12.42-4.258-15.247-4.613-31.761
				c-0.355,16.514-5.322,19.341-4.613,31.761c-1.924-4.905-3.494-7.08-6.564-10.646c0.531,6.037,1.064,9.419,3.727,15.437
				c-3.355-1.512-5.709-1.874-10.115-2.308c2.471,3.071,4.004,4.645,7.453,6.744c-10.865-1.967-25.018,3.016-34.953,3.016
				c9.936,0,24.088,4.98,34.953,3.017c-3.449,2.097-4.982,3.67-7.453,6.741c4.406-0.432,6.76-0.796,10.115-2.306
				c-2.662,6.016-3.195,9.397-3.727,15.437c3.07-3.565,4.641-5.742,6.564-10.647c-0.709,12.421,4.258,15.247,4.613,31.761
				c0.355-16.514,5.322-19.34,4.613-31.761c1.926,4.905,3.496,7.082,6.564,10.647c-0.531-6.039-1.063-9.421-3.725-15.437
				c3.355,1.51,5.707,1.874,10.113,2.306c-2.469-3.071-4.002-4.645-7.451-6.741C167.537-113.896,181.688-118.876,191.625-118.876z"
				/>
			<path fill="#FFC20E" d="M164.777-118.876c-4.258-0.664-9.389-3.201-14.131-1.22c2.322-1.805,1.145-3.515,2.529-5.197
				c-1.916,1.388-3.51,0.503-4.986,2.745c1.535-5.31-0.529-8.143-1.633-14.118c-1.104,5.976-3.168,8.809-1.633,14.118
				c-1.475-2.242-3.068-1.357-4.984-2.745c1.385,1.683,0.205,3.393,2.529,5.197c-4.742-1.981-9.875,0.556-14.131,1.22
				c4.256,0.665,9.389,3.199,14.131,1.218c-2.324,1.805-1.145,3.517-2.529,5.197c1.916-1.386,3.51-0.5,4.984-2.742
				c-1.535,5.309,0.529,8.14,1.633,14.117c1.104-5.978,3.168-8.809,1.633-14.117c1.477,2.242,3.07,1.356,4.986,2.742
				c-1.385-1.681-0.207-3.393-2.529-5.197C155.389-115.677,160.52-118.211,164.777-118.876z"/>
		</g>
		<g>
			
				<linearGradient id="SVGID_7_" gradientUnits="userSpaceOnUse" x1="86274.25" y1="62410.9063" x2="86274.25" y2="62439.0117" gradientTransform="matrix(-1 0 0 1 86838.4844 -62702.7109)">
				<stop  offset="0.2331" style="stop-color:#FAA61A"/>
				<stop  offset="0.7607" style="stop-color:#FFC20E"/>
			</linearGradient>
			<path fill="url(#SVGID_7_)" d="M538.32-256.797c2.641-13.83,25.365-16.257,30.287-34.058
				c3.77,19.115,21.295,19.872,21.539,33.115c-3.18-7.802-10.838-5.786-15.885-12.115c0.846,6.152,4.635,11.892,12.385,15.076
				c-7.674,1.077-15.627-1.832-19.115-9.558c-2.559,4.174-2.813,8.449-0.674,13.865c-4.711-3.635-7.492-9.299-5.654-16.557
				C553.936-259.759,543.301-263.797,538.32-256.797z"/>
			<path fill="#2C973E" d="M525.396-309.566c5.52-4.577,10.662-12.46,11.443-22.75c1.076,10.23,3.197,18.136,8.211,23.962
				c0,0-6.328-3.097-8.615-9.154C533.475-312.258,525.396-309.566,525.396-309.566z"/>
			<path fill="#2C973E" d="M511.396-258.682c1.219-5.97,6.307-11.178,12.924-13.73c-2.711,6.993-1.703,13.798,2.154,19.788
				c-0.898-7.766,1.469-13.209,5.787-18.038c-1.359,4.829-1.242,9.268,1.078,13.865c-0.943-8.48,6.168-12.786,15.615-18.442
				c12.66-7.578,17.277-16.042,19.248-27.226c-3.451,6.865-9.902,13.138-27.859,17.292
				C518.046-280.014,509.952-272.757,511.396-258.682z"/>
			
				<radialGradient id="SVGID_8_" cx="-69884.8594" cy="-78810.4063" r="133.4388" gradientTransform="matrix(1 0 0 -1 70478.0547 -79188.4688)" gradientUnits="userSpaceOnUse">
				<stop  offset="0.3479" style="stop-color:#58AB40"/>
				<stop  offset="0.7607" style="stop-color:#80C342"/>
			</radialGradient>
			<path fill="url(#SVGID_8_)" d="M629.039-370.788c29.438,4.023,46.232,20.791,49.148,36.552
				c-3.924-9.251-12.984-15.224-23.6-18.632c10.615,14.013,7.193,31.866,21.115,41.697c-10.365-11.039-7.211-24.462-14.904-36.729
				c12.258,6.896,14.123,16.671,17.023,27.147c4.385,15.845,11.545,20.089,17.221,22.178c-11.699,0.45-28.66-4.531-36.781-20.102
				c-8.611-16.509-1.449-34.408-22.48-43.772c9.602,8.056,14.727,19.517,8.693,34.421c2.256-21.923-20.627-25.505-24.309-40.453
				c-0.629,11.53,7.18,21.223,14.549,25.904c-10.289-3.372-19.215-8.989-23.42-21.824c-6.924,21.393,5.314,38.455,12.9,38.455
				c2.627,0,4.535-1.672,4.535-4.164c0-6.449-11.641-6.449-14.596-18.854c5.322,10.823,25.549,8.872,25.549,20.76
				c0,9.738-13.639,14.037-22.355,7.984c6.387,8.34,21.258,8.619,25.551-1.42c0.662,4.308-1.309,10.757-7.453,13.129
				c-6.986,2.699-13.484-2.484-13.484-2.484c7.641,11.014,20.939,3.673,34.066,3.904c10.867,0.193,18.105,5.82,21.291,11.179
				c-2.967-1.486-4.639-1.886-7.629-1.951c6.293,3.878,10.848,12.796,9.049,21.469c-1.297-6.249-8.572-10.679-22.355-11.634
				c-15.557-1.077-23.809-3.569-29.1-9.303c11.201,4.957,28.936-1.908,40.986,6.032c-7.453-8.538-23.934-6.089-35.715-7.98
				c-20.707-3.323-33.324-38.287-31.707-53.633c-5.656,23.423,9.461,36.2,12.787,49.134c3.635,14.135-3.365,23.826-9.949,28.803
				c10.281-15.398-7.416-24.63-4.613-44.356c-5.227,19.188,4.436,24.661,4.436,34.598c0,9.759-8.584,12.994-10.291,25.549
				c-1.705-12.555-10.291-15.79-10.291-25.549c0-9.937,9.662-15.409,4.436-34.598c2.805,19.727-14.893,28.958-4.613,44.356
				c-6.582-4.977-13.582-14.668-9.947-28.803c3.324-12.934,18.441-25.711,12.787-49.134c1.615,15.346-11,50.31-31.707,53.633
				c-11.783,1.892-28.262-0.558-35.716,7.98c12.05-7.94,29.784-1.075,40.985-6.032c-5.289,5.733-13.541,8.226-29.098,9.303
				c-13.785,0.955-21.06,5.385-22.356,11.634c-1.799-8.673,2.755-17.591,9.049-21.469c-2.991,0.065-4.661,0.465-7.629,1.951
				c3.186-5.358,10.423-10.985,21.292-11.179c13.127-0.231,26.424,7.109,34.066-3.904c0,0-6.5,5.184-13.484,2.484
				c-6.146-2.372-8.115-8.821-7.453-13.129c4.293,10.039,19.162,9.76,25.549,1.42c-8.717,6.053-22.355,1.754-22.355-7.984
				c0-11.888,20.229-9.937,25.551-20.76c-2.955,12.405-14.596,12.405-14.596,18.854c0,2.492,1.908,4.164,4.535,4.164
				c7.584,0,19.824-17.063,12.898-38.455c-4.203,12.835-13.129,18.452-23.42,21.824c7.371-4.682,15.178-14.374,14.549-25.904
				c-3.682,14.948-26.563,18.53-24.309,40.453c-6.031-14.904-0.908-26.365,8.695-34.421c-21.033,9.364-13.871,27.264-22.482,43.772
				c-8.121,15.57-25.082,20.552-36.78,20.102c5.675-2.089,12.836-6.333,17.221-22.178c2.898-10.477,4.766-20.251,17.024-27.147
				c-7.694,12.267-4.539,25.689-14.904,36.729c13.922-9.831,10.498-27.685,21.113-41.697c-10.615,3.408-19.677,9.381-23.598,18.632
				c2.914-15.761,19.711-32.528,49.148-36.552c-30.326-1.289-36.174,15.554-51.456,16.162c-9.682,0.385-18.136-8.391-28.033-13.678
				c12.113,3.072,31.107,11.328,41.164-2.129c0,0-6.194,5.261-18.275,3.728c-12.272-1.559-23.462-9.4-54.117-11.356
				c30.655-1.958,41.844-9.797,54.117-11.355c12.081-1.536,18.275,3.725,18.275,3.725c-10.057-13.457-29.051-5.199-41.164-2.129
				c9.897-5.287,18.352-14.061,28.033-13.676c15.282,0.606,21.13,17.451,51.456,16.16c-29.438-4.021-46.234-20.791-49.148-36.55
				c3.921,9.249,12.982,15.222,23.598,18.63c-10.615-14.013-7.191-31.866-21.113-41.695c10.365,11.037,7.21,24.462,14.904,36.727
				c-12.259-6.895-14.126-16.669-17.024-27.146c-4.385-15.847-11.546-20.089-17.221-22.179c11.698-0.45,28.659,4.531,36.78,20.101
				c8.611,16.512,1.449,34.411,22.482,43.772c-9.604-8.056-14.727-19.517-8.695-34.421c-2.254,21.923,20.627,25.505,24.309,40.453
				c0.629-11.53-7.178-21.223-14.549-25.904c10.291,3.372,19.217,8.989,23.42,21.824c6.926-21.391-5.314-38.455-12.898-38.455
				c-2.627,0-4.535,1.673-4.535,4.164c0,6.451,11.641,6.451,14.596,18.854c-5.322-10.821-25.551-8.869-25.551-20.758
				c0-9.738,13.639-14.037,22.355-7.985c-6.387-8.339-21.256-8.62-25.549,1.42c-0.662-4.308,1.307-10.757,7.453-13.13
				c6.984-2.698,13.484,2.484,13.484,2.484c-7.643-11.014-20.939-3.671-34.066-3.904c-10.869-0.191-18.106-5.82-21.292-11.177
				c2.968,1.485,4.638,1.884,7.629,1.952c-6.294-3.879-10.848-12.798-9.049-21.469c1.297,6.248,8.571,10.678,22.356,11.632
				c15.557,1.077,23.809,3.569,29.098,9.305c-11.201-4.959-28.936,1.908-40.985-6.033c7.454,8.537,23.933,6.09,35.716,7.981
				c20.707,3.322,33.322,38.285,31.707,53.631c5.654-23.423-9.463-36.2-12.787-49.134c-3.635-14.134,3.365-23.826,9.947-28.802
				c-10.279,15.398,7.418,24.628,4.613,44.357c5.227-19.19-4.436-24.663-4.436-34.599c0-9.759,8.586-12.995,10.291-25.55
				c1.707,12.555,10.291,15.791,10.291,25.55c0,9.936-9.662,15.408-4.436,34.599c-2.803-19.729,14.895-28.959,4.613-44.357
				c6.584,4.976,13.584,14.668,9.949,28.802c-3.326,12.934-18.443,25.711-12.787,49.134c-1.617-15.346,11-50.309,31.707-53.631
				c11.781-1.891,28.262,0.556,35.715-7.981c-12.051,7.941-29.785,1.074-40.986,6.033c5.291-5.736,13.543-8.228,29.1-9.305
				c13.783-0.954,21.059-5.384,22.355-11.632c1.799,8.671-2.756,17.59-9.049,21.469c2.99-0.067,4.662-0.467,7.629-1.952
				c-3.186,5.356-10.424,10.985-21.291,11.177c-13.127,0.233-26.426-7.109-34.066,3.904c0,0,6.498-5.183,13.484-2.484
				c6.145,2.373,8.115,8.822,7.453,13.13c-4.293-10.04-19.164-9.759-25.551-1.42c8.717-6.052,22.355-1.753,22.355,7.985
				c0,11.889-20.227,9.937-25.549,20.758c2.955-12.403,14.596-12.403,14.596-18.854c0-2.491-1.908-4.164-4.535-4.164
				c-7.586,0-19.824,17.064-12.9,38.455c4.205-12.835,13.131-18.452,23.42-21.824c-7.369,4.682-15.178,14.374-14.549,25.904
				c3.682-14.948,26.564-18.53,24.309-40.453c6.033,14.904,0.908,26.365-8.693,34.421c21.031-9.361,13.869-27.261,22.48-43.772
				c8.121-15.57,25.082-20.551,36.781-20.101c-5.676,2.09-12.836,6.333-17.221,22.179c-2.9,10.477-4.766,20.251-17.023,27.146
				c7.693-12.265,4.539-25.689,14.904-36.727c-13.922,9.829-10.5,27.683-21.115,41.695c10.615-3.408,19.676-9.381,23.6-18.63
				c-2.916,15.759-19.711,32.528-49.148,36.55c30.326,1.291,36.172-15.554,51.453-16.16c9.684-0.385,18.137,8.389,28.035,13.676
				c-12.113-3.07-31.107-11.328-41.164,2.129c0,0,6.193-5.261,18.275-3.725c12.271,1.559,23.461,9.397,54.115,11.355
				c-30.654,1.956-41.844,9.798-54.115,11.356c-12.082,1.533-18.275-3.728-18.275-3.728c10.057,13.457,29.051,5.201,41.164,2.129
				c-9.898,5.287-18.352,14.063-28.035,13.678C665.211-355.234,659.365-372.077,629.039-370.788z M662.395-378.061
				c4.613,1.241,8.633,3.77,14.488,3.77c7.113,0,11.074-2.751,16.74-3.77c-5.666-1.018-9.627-3.77-16.74-3.77
				C671.027-381.831,667.008-379.304,662.395-378.061z M590.182-468.373c0,5.123,3.016,8.397,3.016,12.123
				c0-3.725,3.018-7,3.018-12.123c0-4.569-2.25-6.652-3.018-11.435C592.43-475.025,590.182-472.941,590.182-468.373z M524-378.061
				c-4.613-1.243-8.634-3.77-14.488-3.77c-7.113,0-11.073,2.752-16.739,3.77c5.666,1.019,9.626,3.77,16.739,3.77
				C515.366-374.292,519.387-376.82,524-378.061z M596.215-287.75c0-5.123-3.018-8.398-3.018-12.123c0,3.725-3.016,7-3.016,12.123
				c0,4.568,2.248,6.653,3.016,11.434C593.965-281.097,596.215-283.182,596.215-287.75z M638.266-378.061
				c-9.938,0-24.088-4.982-34.953-3.016c3.449-2.1,4.982-3.673,7.451-6.744c-4.406,0.434-6.758,0.796-10.113,2.308
				c2.662-6.018,3.193-9.399,3.725-15.437c-3.068,3.565-4.639,5.74-6.564,10.646c0.709-12.42-4.258-15.247-4.613-31.761
				c-0.355,16.514-5.322,19.341-4.613,31.761c-1.924-4.905-3.494-7.08-6.564-10.646c0.531,6.037,1.064,9.419,3.727,15.437
				c-3.355-1.512-5.709-1.874-10.115-2.308c2.471,3.071,4.004,4.645,7.453,6.744c-10.865-1.967-25.018,3.016-34.953,3.016
				c9.936,0,24.088,4.98,34.953,3.017c-3.449,2.097-4.982,3.67-7.453,6.741c4.406-0.432,6.76-0.796,10.115-2.306
				c-2.662,6.016-3.195,9.397-3.727,15.437c3.07-3.565,4.641-5.742,6.564-10.647c-0.709,12.421,4.258,15.247,4.613,31.761
				c0.355-16.514,5.322-19.34,4.613-31.761c1.926,4.905,3.496,7.082,6.564,10.647c-0.531-6.039-1.063-9.421-3.725-15.437
				c3.355,1.51,5.707,1.874,10.113,2.306c-2.469-3.071-4.002-4.645-7.451-6.741C614.178-373.081,628.328-378.061,638.266-378.061z"
				/>
			
				<linearGradient id="SVGID_9_" gradientUnits="userSpaceOnUse" x1="-69963.3906" y1="62369.625" x2="-69986.6875" y2="62377.5625" gradientTransform="matrix(1 0 0 1 70478.0547 -62717.25)">
				<stop  offset="0.2331" style="stop-color:#FAA61A"/>
				<stop  offset="0.7607" style="stop-color:#FFC20E"/>
			</linearGradient>
			<path fill="url(#SVGID_9_)" d="M511.666-350.892c-4.688,4.596-6.91,12.187-7.27,21.721c-0.471,12.527-5.409,17.657-13.326,18.528
				c11.802-4.579,4.444-17.114,7.942-25.846c-6.441,4.787-4.382,20.678-17.635,21.403c9.78-3.196,2.835-16.675,9.288-24.499
				c-7.808,0.107-11.396-6.125-21.539-3.231c4.715-3.634,9.965-5.923,18.846-5.923c-6.254-3.859-8.999-8.625-11.308-15.346
				C486.794-353.492,501.519-349.417,511.666-350.892z"/>
			<path fill="#FFC20E" d="M611.418-378.061c-4.258-0.664-9.389-3.201-14.131-1.22c2.322-1.805,1.145-3.515,2.529-5.197
				c-1.916,1.388-3.51,0.503-4.986,2.745c1.535-5.31-0.529-8.143-1.633-14.118c-1.104,5.976-3.168,8.809-1.633,14.118
				c-1.475-2.242-3.068-1.357-4.984-2.745c1.385,1.683,0.205,3.393,2.529,5.197c-4.742-1.981-9.875,0.556-14.131,1.22
				c4.256,0.665,9.389,3.199,14.131,1.218c-2.324,1.805-1.145,3.517-2.529,5.197c1.916-1.386,3.51-0.5,4.984-2.742
				c-1.535,5.309,0.529,8.14,1.633,14.117c1.104-5.978,3.168-8.809,1.633-14.117c1.477,2.242,3.07,1.356,4.986,2.742
				c-1.385-1.681-0.207-3.393-2.529-5.197C602.029-374.862,607.16-377.396,611.418-378.061z"/>
		</g>
		<g>
			
				<linearGradient id="SVGID_10_" gradientUnits="userSpaceOnUse" x1="86497.5703" y1="62540.5" x2="86497.5703" y2="62568.6055" gradientTransform="matrix(-1 0 0 1 86838.4844 -62702.7109)">
				<stop  offset="0.2331" style="stop-color:#FAA61A"/>
				<stop  offset="0.7607" style="stop-color:#FFC20E"/>
			</linearGradient>
			<path fill="url(#SVGID_10_)" d="M315-127.205c2.641-13.83,25.365-16.257,30.287-34.058c3.77,19.115,21.295,19.872,21.539,33.115
				c-3.18-7.802-10.838-5.786-15.885-12.115c0.846,6.152,4.635,11.892,12.385,15.076c-7.674,1.077-15.627-1.832-19.115-9.558
				c-2.559,4.174-2.813,8.449-0.674,13.865c-4.711-3.635-7.492-9.299-5.654-16.557C330.615-130.167,319.98-134.205,315-127.205z"/>
			
				<linearGradient id="SVGID_11_" gradientUnits="userSpaceOnUse" x1="-70015.2109" y1="62540.5" x2="-70015.2109" y2="62568.6055" gradientTransform="matrix(1 0 0 1 70414.0547 -62702.7109)">
				<stop  offset="0.2331" style="stop-color:#FAA61A"/>
				<stop  offset="0.7607" style="stop-color:#FFC20E"/>
			</linearGradient>
			<path fill="url(#SVGID_11_)" d="M424.756-127.205c-2.643-13.83-25.367-16.257-30.289-34.058
				c-3.768,19.115-21.295,19.872-21.537,33.115c3.178-7.802,10.836-5.786,15.885-12.115c-0.848,6.152-4.635,11.892-12.385,15.076
				c7.672,1.077,15.625-1.832,19.115-9.558c2.557,4.174,2.813,8.449,0.672,13.865c4.713-3.635,7.492-9.299,5.654-16.557
				C409.141-130.167,419.775-134.205,424.756-127.205z"/>
			
				<linearGradient id="SVGID_12_" gradientUnits="userSpaceOnUse" x1="86454.0781" y1="-78909.5625" x2="86430.7813" y2="-78901.625" gradientTransform="matrix(-1 0 0 -1 86902.4844 -79188.4688)">
				<stop  offset="0.2331" style="stop-color:#FAA61A"/>
				<stop  offset="0.7607" style="stop-color:#FFC20E"/>
			</linearGradient>
			<path fill="url(#SVGID_12_)" d="M451.408-275.64c4.688-4.596,6.912-12.185,7.27-21.721c0.471-12.527,5.41-17.657,13.326-18.528
				c-11.801,4.579-4.443,17.117-7.941,25.846c6.439-4.785,4.381-20.678,17.635-21.403c-9.781,3.196-2.836,16.677-9.289,24.499
				c7.809-0.107,11.398,6.127,21.539,3.231c-4.717,3.636-9.965,5.923-18.846,5.923c6.254,3.861,9,8.628,11.307,15.346
				C476.281-273.04,461.557-277.111,451.408-275.64z"/>
			<path fill="#2C973E" d="M302.076-316.966c5.52,4.577,10.662,12.461,11.443,22.75c1.076-10.23,3.197-18.133,8.211-23.961
				c0,0-6.328,3.096-8.615,9.153C310.154-314.273,302.076-316.966,302.076-316.966z"/>
			<path fill="#2C973E" d="M288.076-367.849c1.219,5.969,6.307,11.177,12.924,13.731c-2.711-6.993-1.703-13.798,2.154-19.789
				c-0.898,7.766,1.469,13.21,5.787,18.039c-1.359-4.829-1.242-9.267,1.078-13.865c-0.943,8.48,6.168,12.787,15.615,18.442
				c12.66,7.579,17.277,16.042,19.248,27.227c-3.451-6.867-9.902-13.138-27.859-17.292
				C294.726-346.516,286.632-353.772,288.076-367.849z"/>
			
				<linearGradient id="SVGID_13_" gradientUnits="userSpaceOnUse" x1="-70186.7109" y1="-78909.5781" x2="-70210.0078" y2="-78901.6406" gradientTransform="matrix(1 0 0 -1 70478.0547 -79188.4688)">
				<stop  offset="0.2331" style="stop-color:#FAA61A"/>
				<stop  offset="0.7607" style="stop-color:#FFC20E"/>
			</linearGradient>
			<path fill="url(#SVGID_13_)" d="M288.346-275.64c-4.688-4.596-6.91-12.185-7.27-21.721c-0.471-12.527-5.409-17.657-13.326-18.528
				c11.802,4.579,4.444,17.117,7.942,25.846c-6.441-4.785-4.382-20.678-17.635-21.403c9.78,3.196,2.835,16.677,9.288,24.499
				c-7.808-0.107-11.396,6.127-21.538,3.231c4.715,3.636,9.965,5.923,18.846,5.923c-6.254,3.861-8.999,8.628-11.308,15.346
				C263.474-273.04,278.198-277.111,288.346-275.64z"/>
			<path fill="#2C973E" d="M437.678-316.966c-5.52,4.577-10.66,12.461-11.441,22.75c-1.076-10.23-3.199-18.133-8.211-23.961
				c0,0,6.326,3.096,8.615,9.153C429.602-314.273,437.678-316.966,437.678-316.966z"/>
			<path fill="#2C973E" d="M451.678-367.849c-1.217,5.969-6.307,11.177-12.922,13.731c2.709-6.993,1.703-13.798-2.154-19.789
				c0.898,7.766-1.469,13.21-5.789,18.039c1.361-4.829,1.242-9.267-1.076-13.865c0.941,8.48-6.168,12.787-15.615,18.442
				c-12.66,7.579-17.277,16.042-19.25,27.227c3.451-6.867,9.902-13.138,27.859-17.292
				C445.029-346.516,453.123-353.772,451.678-367.849z"/>
			
				<linearGradient id="SVGID_14_" gradientUnits="userSpaceOnUse" x1="-70079.2109" y1="-78853.7422" x2="-70079.2109" y2="-78825.6328" gradientTransform="matrix(1 0 0 -1 70478.0547 -79188.4688)">
				<stop  offset="0.2331" style="stop-color:#FAA61A"/>
				<stop  offset="0.7607" style="stop-color:#FFC20E"/>
			</linearGradient>
			<path fill="url(#SVGID_14_)" d="M424.756-369.733c-2.643,13.831-25.367,16.256-30.289,34.057
				c-3.768-19.115-21.295-19.872-21.537-33.115c3.178,7.802,10.836,5.786,15.885,12.115c-0.848-6.151-4.635-11.892-12.385-15.077
				c7.672-1.077,15.625,1.832,19.115,9.558c2.557-4.173,2.813-8.449,0.672-13.865c4.713,3.635,7.492,9.3,5.654,16.558
				C409.141-366.772,419.775-362.733,424.756-369.733z"/>
			<path fill="#2C973E" d="M302.076-179.974c5.52-4.577,10.662-12.46,11.443-22.75c1.076,10.23,3.197,18.136,8.211,23.962
				c0,0-6.328-3.097-8.615-9.154C310.154-182.666,302.076-179.974,302.076-179.974z"/>
			<path fill="#2C973E" d="M288.076-129.09c1.219-5.97,6.307-11.178,12.924-13.73c-2.711,6.993-1.703,13.798,2.154,19.788
				c-0.898-7.766,1.469-13.209,5.787-18.038c-1.359,4.829-1.242,9.268,1.078,13.865c-0.943-8.48,6.168-12.786,15.615-18.442
				c12.66-7.578,17.277-16.042,19.248-27.226c-3.451,6.865-9.902,13.138-27.859,17.292
				C294.726-150.422,286.632-143.165,288.076-129.09z"/>
			
				<radialGradient id="SVGID_15_" cx="-70108.1797" cy="-78940" r="133.4345" gradientTransform="matrix(1 0 0 -1 70478.0547 -79188.4688)" gradientUnits="userSpaceOnUse">
				<stop  offset="0.3479" style="stop-color:#58AB40"/>
				<stop  offset="0.7607" style="stop-color:#80C342"/>
			</radialGradient>
			<path fill="url(#SVGID_15_)" d="M405.719-241.195c29.438,4.023,46.232,20.791,49.148,36.552
				c-3.924-9.251-12.984-15.224-23.6-18.632c10.615,14.013,7.193,31.866,21.115,41.697c-10.365-11.039-7.211-24.462-14.904-36.729
				c12.258,6.896,14.123,16.671,17.023,27.147c4.385,15.845,11.545,20.089,17.221,22.178c-11.699,0.45-28.66-4.531-36.781-20.102
				c-8.611-16.509-1.449-34.408-22.48-43.772c9.602,8.056,14.727,19.517,8.693,34.421c2.256-21.923-20.627-25.505-24.309-40.453
				c-0.629,11.53,7.18,21.223,14.549,25.904c-10.289-3.372-19.215-8.989-23.42-21.824c-6.924,21.393,5.314,38.455,12.9,38.455
				c2.627,0,4.535-1.672,4.535-4.164c0-6.449-11.641-6.449-14.596-18.854c5.322,10.823,25.549,8.872,25.549,20.76
				c0,9.738-13.639,14.037-22.355,7.984c6.387,8.34,21.258,8.619,25.551-1.42c0.662,4.308-1.309,10.757-7.453,13.129
				c-6.986,2.699-13.484-2.484-13.484-2.484c7.641,11.014,20.939,3.673,34.066,3.904c10.867,0.193,18.105,5.82,21.291,11.179
				c-2.967-1.486-4.639-1.886-7.629-1.951c6.293,3.878,10.848,12.796,9.049,21.469c-1.297-6.249-8.572-10.679-22.355-11.634
				c-15.557-1.077-23.809-3.569-29.1-9.303c11.201,4.957,28.936-1.908,40.986,6.032c-7.453-8.538-23.934-6.089-35.715-7.98
				c-20.707-3.323-33.324-38.287-31.707-53.633c-5.656,23.423,9.461,36.2,12.787,49.134c3.635,14.135-3.365,23.826-9.949,28.803
				c10.281-15.398-7.416-24.63-4.613-44.356c-5.227,19.188,4.436,24.661,4.436,34.598c0,9.759-8.584,12.994-10.291,25.549
				c-1.705-12.555-10.291-15.79-10.291-25.549c0-9.937,9.662-15.409,4.436-34.598c2.805,19.727-14.893,28.958-4.613,44.356
				c-6.582-4.977-13.582-14.668-9.947-28.803c3.324-12.934,18.441-25.711,12.787-49.134c1.615,15.346-11,50.31-31.707,53.633
				c-11.783,1.892-28.262-0.558-35.716,7.98c12.05-7.94,29.784-1.075,40.985-6.032c-5.289,5.733-13.541,8.226-29.098,9.303
				c-13.785,0.955-21.06,5.385-22.356,11.634c-1.799-8.673,2.755-17.591,9.049-21.469c-2.991,0.065-4.661,0.465-7.629,1.951
				c3.186-5.358,10.423-10.985,21.292-11.179c13.127-0.231,26.424,7.109,34.066-3.904c0,0-6.5,5.184-13.484,2.484
				c-6.146-2.372-8.115-8.821-7.453-13.129c4.293,10.039,19.162,9.76,25.549,1.42c-8.717,6.053-22.355,1.754-22.355-7.984
				c0-11.888,20.229-9.937,25.551-20.76c-2.955,12.405-14.596,12.405-14.596,18.854c0,2.492,1.908,4.164,4.535,4.164
				c7.584,0,19.824-17.063,12.898-38.455c-4.203,12.835-13.129,18.452-23.42,21.824c7.371-4.682,15.178-14.374,14.549-25.904
				c-3.682,14.948-26.563,18.53-24.309,40.453c-6.031-14.904-0.908-26.365,8.695-34.421c-21.033,9.364-13.871,27.264-22.482,43.772
				c-8.121,15.57-25.082,20.552-36.78,20.102c5.675-2.089,12.836-6.333,17.221-22.178c2.898-10.477,4.766-20.251,17.024-27.147
				c-7.694,12.267-4.539,25.689-14.904,36.729c13.922-9.831,10.498-27.685,21.113-41.697c-10.615,3.408-19.677,9.381-23.598,18.632
				c2.914-15.761,19.711-32.528,49.148-36.552c-30.326-1.289-36.174,15.554-51.456,16.162c-9.682,0.385-18.136-8.391-28.033-13.678
				c12.113,3.072,31.107,11.328,41.164-2.129c0,0-6.194,5.261-18.275,3.728c-12.272-1.559-23.462-9.4-54.116-11.356
				c30.654-1.958,41.844-9.797,54.116-11.355c12.081-1.536,18.275,3.725,18.275,3.725c-10.057-13.457-29.051-5.199-41.164-2.129
				c9.897-5.287,18.352-14.061,28.033-13.676c15.282,0.606,21.13,17.451,51.456,16.16c-29.438-4.021-46.234-20.791-49.148-36.55
				c3.921,9.249,12.982,15.222,23.598,18.63c-10.615-14.013-7.191-31.866-21.113-41.695c10.365,11.037,7.21,24.462,14.904,36.727
				c-12.259-6.895-14.126-16.669-17.024-27.146c-4.385-15.847-11.546-20.089-17.221-22.179c11.698-0.45,28.659,4.531,36.78,20.101
				c8.611,16.512,1.449,34.411,22.482,43.772c-9.604-8.056-14.727-19.517-8.695-34.421c-2.254,21.923,20.627,25.505,24.309,40.453
				c0.629-11.53-7.178-21.223-14.549-25.904c10.291,3.372,19.217,8.989,23.42,21.824c6.926-21.391-5.314-38.455-12.898-38.455
				c-2.627,0-4.535,1.673-4.535,4.164c0,6.451,11.641,6.451,14.596,18.854c-5.322-10.821-25.551-8.869-25.551-20.758
				c0-9.738,13.639-14.037,22.355-7.985c-6.387-8.339-21.256-8.62-25.549,1.42c-0.662-4.308,1.307-10.757,7.453-13.13
				c6.984-2.698,13.484,2.484,13.484,2.484c-7.643-11.014-20.939-3.671-34.066-3.904c-10.869-0.191-18.106-5.82-21.292-11.177
				c2.968,1.485,4.638,1.884,7.629,1.952c-6.294-3.879-10.848-12.798-9.049-21.469c1.297,6.248,8.571,10.678,22.356,11.632
				c15.557,1.077,23.809,3.569,29.098,9.305c-11.201-4.959-28.936,1.908-40.985-6.033c7.454,8.537,23.933,6.09,35.716,7.981
				c20.707,3.322,33.322,38.285,31.707,53.631c5.654-23.423-9.463-36.2-12.787-49.134c-3.635-14.134,3.365-23.826,9.947-28.802
				c-10.279,15.398,7.418,24.628,4.613,44.357c5.227-19.19-4.436-24.663-4.436-34.599c0-9.759,8.586-12.995,10.291-25.55
				c1.707,12.555,10.291,15.791,10.291,25.55c0,9.936-9.662,15.408-4.436,34.599c-2.803-19.729,14.895-28.959,4.613-44.357
				c6.584,4.976,13.584,14.668,9.949,28.802c-3.326,12.934-18.443,25.711-12.787,49.134c-1.617-15.346,11-50.309,31.707-53.631
				c11.781-1.891,28.262,0.556,35.715-7.981c-12.051,7.941-29.785,1.074-40.986,6.033c5.291-5.736,13.543-8.228,29.1-9.305
				c13.783-0.954,21.059-5.384,22.355-11.632c1.799,8.671-2.756,17.59-9.049,21.469c2.99-0.067,4.662-0.467,7.629-1.952
				c-3.186,5.356-10.424,10.985-21.291,11.177c-13.127,0.233-26.426-7.109-34.066,3.904c0,0,6.498-5.183,13.484-2.484
				c6.145,2.373,8.115,8.822,7.453,13.13c-4.293-10.04-19.164-9.759-25.551-1.42c8.717-6.052,22.355-1.753,22.355,7.985
				c0,11.889-20.227,9.937-25.549,20.758c2.955-12.403,14.596-12.403,14.596-18.854c0-2.491-1.908-4.164-4.535-4.164
				c-7.586,0-19.824,17.064-12.9,38.455c4.205-12.835,13.131-18.452,23.42-21.824c-7.369,4.682-15.178,14.374-14.549,25.904
				c3.682-14.948,26.564-18.53,24.309-40.453c6.033,14.904,0.908,26.365-8.693,34.421c21.031-9.361,13.869-27.261,22.48-43.772
				c8.121-15.57,25.082-20.551,36.781-20.101c-5.676,2.09-12.836,6.333-17.221,22.179c-2.9,10.477-4.766,20.251-17.023,27.146
				c7.693-12.265,4.539-25.689,14.904-36.727c-13.922,9.829-10.5,27.683-21.115,41.695c10.615-3.408,19.676-9.381,23.6-18.63
				c-2.916,15.759-19.711,32.528-49.148,36.55c30.326,1.291,36.172-15.554,51.453-16.16c9.684-0.385,18.137,8.389,28.035,13.676
				c-12.113-3.07-31.107-11.328-41.164,2.129c0,0,6.193-5.261,18.275-3.725c12.271,1.559,23.461,9.397,54.115,11.355
				c-30.654,1.956-41.844,9.798-54.115,11.356c-12.082,1.533-18.275-3.728-18.275-3.728c10.057,13.457,29.051,5.201,41.164,2.129
				c-9.898,5.287-18.352,14.063-28.035,13.678C441.891-225.642,436.045-242.484,405.719-241.195z M439.074-248.469
				c4.613,1.241,8.633,3.77,14.488,3.77c7.113,0,11.074-2.751,16.74-3.77c-5.666-1.018-9.627-3.77-16.74-3.77
				C447.707-252.238,443.688-249.712,439.074-248.469z M366.861-338.78c0,5.123,3.016,8.397,3.016,12.123
				c0-3.725,3.018-7,3.018-12.123c0-4.569-2.25-6.652-3.018-11.435C369.109-345.433,366.861-343.349,366.861-338.78z
				 M300.68-248.469c-4.613-1.243-8.634-3.77-14.488-3.77c-7.113,0-11.073,2.752-16.739,3.77c5.666,1.019,9.626,3.77,16.739,3.77
				C292.046-244.699,296.066-247.228,300.68-248.469z M372.895-158.158c0-5.123-3.018-8.398-3.018-12.123
				c0,3.725-3.016,7-3.016,12.123c0,4.568,2.248,6.653,3.016,11.434C370.645-151.505,372.895-153.59,372.895-158.158z
				 M414.945-248.469c-9.938,0-24.088-4.982-34.953-3.016c3.449-2.1,4.982-3.673,7.451-6.744c-4.406,0.434-6.758,0.796-10.113,2.308
				c2.662-6.018,3.193-9.399,3.725-15.437c-3.068,3.565-4.639,5.74-6.564,10.646c0.709-12.42-4.258-15.247-4.613-31.761
				c-0.355,16.514-5.322,19.341-4.613,31.761c-1.924-4.905-3.494-7.08-6.564-10.646c0.531,6.037,1.064,9.419,3.727,15.437
				c-3.355-1.512-5.709-1.874-10.115-2.308c2.471,3.071,4.004,4.645,7.453,6.744c-10.865-1.967-25.018,3.016-34.953,3.016
				c9.936,0,24.088,4.98,34.953,3.017c-3.449,2.097-4.982,3.67-7.453,6.741c4.406-0.432,6.76-0.796,10.115-2.306
				c-2.662,6.016-3.195,9.397-3.727,15.437c3.07-3.565,4.641-5.742,6.564-10.647c-0.709,12.421,4.258,15.247,4.613,31.761
				c0.355-16.514,5.322-19.34,4.613-31.761c1.926,4.905,3.496,7.082,6.564,10.647c-0.531-6.039-1.063-9.421-3.725-15.437
				c3.355,1.51,5.707,1.874,10.113,2.306c-2.469-3.071-4.002-4.645-7.451-6.741C390.857-243.488,405.008-248.469,414.945-248.469z"
				/>
			<path fill="#2C973E" d="M437.678-179.974c-5.52-4.577-10.66-12.46-11.441-22.75c-1.076,10.23-3.199,18.136-8.211,23.962
				c0,0,6.326-3.097,8.615-9.154C429.602-182.666,437.678-179.974,437.678-179.974z"/>
			<path fill="#2C973E" d="M451.678-129.09c-1.217-5.97-6.307-11.178-12.922-13.73c2.709,6.993,1.703,13.798-2.154,19.788
				c0.898-7.766-1.469-13.209-5.789-18.038c1.361,4.829,1.242,9.268-1.076,13.865c0.941-8.48-6.168-12.786-15.615-18.442
				c-12.66-7.578-17.277-16.042-19.25-27.226c3.451,6.865,9.902,13.138,27.859,17.292
				C445.029-150.422,453.123-143.165,451.678-129.09z"/>
			
				<linearGradient id="SVGID_16_" gradientUnits="userSpaceOnUse" x1="86454.0859" y1="62499.2109" x2="86430.7891" y2="62507.1484" gradientTransform="matrix(-1 0 0 1 86902.4844 -62717.25)">
				<stop  offset="0.2331" style="stop-color:#FAA61A"/>
				<stop  offset="0.7607" style="stop-color:#FFC20E"/>
			</linearGradient>
			<path fill="url(#SVGID_16_)" d="M451.408-221.3c4.688,4.596,6.912,12.187,7.27,21.721c0.471,12.527,5.41,17.657,13.326,18.528
				c-11.801-4.579-4.443-17.114-7.941-25.846c6.439,4.787,4.381,20.678,17.635,21.403c-9.781-3.196-2.836-16.675-9.289-24.499
				c7.809,0.107,11.398-6.125,21.539-3.231c-4.717-3.634-9.965-5.923-18.846-5.923c6.254-3.859,9-8.625,11.307-15.346
				C476.281-223.899,461.557-219.825,451.408-221.3z"/>
			
				<linearGradient id="SVGID_17_" gradientUnits="userSpaceOnUse" x1="-70186.7109" y1="62499.2188" x2="-70210.0078" y2="62507.1563" gradientTransform="matrix(1 0 0 1 70478.0547 -62717.25)">
				<stop  offset="0.2331" style="stop-color:#FAA61A"/>
				<stop  offset="0.7607" style="stop-color:#FFC20E"/>
			</linearGradient>
			<path fill="url(#SVGID_17_)" d="M288.346-221.3c-4.688,4.596-6.91,12.187-7.27,21.721c-0.471,12.527-5.409,17.657-13.326,18.528
				c11.802-4.579,4.444-17.114,7.942-25.846c-6.441,4.787-4.382,20.678-17.635,21.403c9.78-3.196,2.835-16.675,9.288-24.499
				c-7.808,0.107-11.396-6.125-21.538-3.231c4.715-3.634,9.965-5.923,18.846-5.923c-6.254-3.859-8.999-8.625-11.308-15.346
				C263.474-223.899,278.198-219.825,288.346-221.3z"/>
			
				<linearGradient id="SVGID_18_" gradientUnits="userSpaceOnUse" x1="86561.5703" y1="-78853.7422" x2="86561.5703" y2="-78825.6328" gradientTransform="matrix(-1 0 0 -1 86902.4844 -79188.4688)">
				<stop  offset="0.2331" style="stop-color:#FAA61A"/>
				<stop  offset="0.7607" style="stop-color:#FFC20E"/>
			</linearGradient>
			<path fill="url(#SVGID_18_)" d="M315-369.733c2.641,13.831,25.365,16.256,30.287,34.057c3.77-19.115,21.295-19.872,21.539-33.115
				c-3.18,7.802-10.838,5.786-15.885,12.115c0.846-6.151,4.635-11.892,12.385-15.077c-7.674-1.077-15.627,1.832-19.115,9.558
				c-2.559-4.173-2.813-8.449-0.674-13.865c-4.711,3.635-7.492,9.3-5.654,16.558C330.615-366.772,319.98-362.733,315-369.733z"/>
			<path fill="#FFC20E" d="M388.098-248.469c-4.258-0.664-9.389-3.201-14.131-1.22c2.322-1.805,1.145-3.515,2.529-5.197
				c-1.916,1.388-3.51,0.503-4.986,2.745c1.535-5.31-0.529-8.143-1.633-14.118c-1.104,5.976-3.168,8.809-1.633,14.118
				c-1.475-2.242-3.068-1.357-4.984-2.745c1.385,1.683,0.205,3.393,2.529,5.197c-4.742-1.981-9.875,0.556-14.131,1.22
				c4.256,0.665,9.389,3.199,14.131,1.218c-2.324,1.805-1.145,3.517-2.529,5.197c1.916-1.386,3.51-0.5,4.984-2.742
				c-1.535,5.309,0.529,8.14,1.633,14.117c1.104-5.978,3.168-8.809,1.633-14.117c1.477,2.242,3.07,1.356,4.986,2.742
				c-1.385-1.681-0.207-3.393-2.529-5.197C378.709-245.27,383.84-247.804,388.098-248.469z"/>
		</g>
		<g>
			
				<linearGradient id="SVGID_19_" gradientUnits="userSpaceOnUse" x1="-70238.5313" y1="62410.9063" x2="-70238.5313" y2="62439.0117" gradientTransform="matrix(1 0 0 1 70414.0547 -62702.7109)">
				<stop  offset="0.2331" style="stop-color:#FAA61A"/>
				<stop  offset="0.7607" style="stop-color:#FFC20E"/>
			</linearGradient>
			<path fill="url(#SVGID_19_)" d="M201.436-256.797c-2.643-13.83-25.367-16.257-30.289-34.058
				c-3.768,19.115-21.295,19.872-21.537,33.115c3.178-7.802,10.836-5.786,15.885-12.115c-0.848,6.152-4.635,11.892-12.385,15.076
				c7.672,1.077,15.625-1.832,19.115-9.558c2.557,4.174,2.813,8.449,0.672,13.865c4.713-3.635,7.492-9.299,5.654-16.557
				C185.82-259.759,196.455-263.797,201.436-256.797z"/>
			
				<radialGradient id="SVGID_20_" cx="-70331.5" cy="-78810.4063" r="133.4388" gradientTransform="matrix(1 0 0 -1 70478.0547 -79188.4688)" gradientUnits="userSpaceOnUse">
				<stop  offset="0.3479" style="stop-color:#58AB40"/>
				<stop  offset="0.7607" style="stop-color:#80C342"/>
			</radialGradient>
			<path fill="url(#SVGID_20_)" d="M182.398-370.788c29.438,4.023,46.232,20.791,49.148,36.552
				c-3.924-9.251-12.984-15.224-23.6-18.632c10.615,14.013,7.193,31.866,21.115,41.697c-10.365-11.039-7.211-24.462-14.904-36.729
				c12.258,6.896,14.123,16.671,17.023,27.147c4.385,15.845,11.545,20.089,17.221,22.178c-11.699,0.45-28.66-4.531-36.781-20.102
				c-8.611-16.509-1.449-34.408-22.48-43.772c9.602,8.056,14.727,19.517,8.693,34.421c2.256-21.923-20.627-25.505-24.309-40.453
				c-0.629,11.53,7.18,21.223,14.549,25.904c-10.289-3.372-19.215-8.989-23.42-21.824c-6.924,21.393,5.314,38.455,12.9,38.455
				c2.627,0,4.535-1.672,4.535-4.164c0-6.449-11.641-6.449-14.596-18.854c5.322,10.823,25.549,8.872,25.549,20.76
				c0,9.738-13.639,14.037-22.355,7.984c6.387,8.34,21.258,8.619,25.551-1.42c0.662,4.308-1.309,10.757-7.453,13.129
				c-6.986,2.699-13.484-2.484-13.484-2.484c7.641,11.014,20.939,3.673,34.066,3.904c10.867,0.193,18.105,5.82,21.291,11.179
				c-2.967-1.486-4.639-1.886-7.629-1.951c6.293,3.878,10.848,12.796,9.049,21.469c-1.297-6.249-8.572-10.679-22.355-11.634
				c-15.557-1.077-23.809-3.569-29.1-9.303c11.201,4.957,28.936-1.908,40.986,6.032c-7.453-8.538-23.934-6.089-35.715-7.98
				c-20.707-3.323-33.324-38.287-31.707-53.633c-5.656,23.423,9.461,36.2,12.787,49.134c3.635,14.135-3.365,23.826-9.949,28.803
				c10.281-15.398-7.416-24.63-4.613-44.356c-5.227,19.188,4.436,24.661,4.436,34.598c0,9.759-8.584,12.994-10.291,25.549
				c-1.705-12.555-10.291-15.79-10.291-25.549c0-9.937,9.662-15.409,4.436-34.598c2.805,19.727-14.893,28.958-4.613,44.356
				c-6.582-4.977-13.582-14.668-9.947-28.803c3.324-12.934,18.441-25.711,12.787-49.134c1.615,15.346-11,50.31-31.707,53.633
				c-11.783,1.892-28.262-0.558-35.716,7.98c12.05-7.94,29.784-1.075,40.985-6.032c-5.289,5.733-13.541,8.226-29.098,9.303
				c-13.785,0.955-21.06,5.385-22.356,11.634c-1.799-8.673,2.755-17.591,9.049-21.469c-2.991,0.065-4.661,0.465-7.629,1.951
				c3.186-5.358,10.423-10.985,21.292-11.179c13.127-0.231,26.424,7.109,34.066-3.904c0,0-6.5,5.184-13.484,2.484
				c-6.146-2.372-8.115-8.821-7.453-13.129c4.293,10.039,19.162,9.76,25.549,1.42c-8.717,6.053-22.355,1.754-22.355-7.984
				c0-11.888,20.229-9.937,25.551-20.76c-2.955,12.405-14.596,12.405-14.596,18.854c0,2.492,1.908,4.164,4.535,4.164
				c7.584,0,19.824-17.063,12.898-38.455c-4.203,12.835-13.129,18.452-23.42,21.824c7.371-4.682,15.178-14.374,14.549-25.904
				c-3.682,14.948-26.563,18.53-24.309,40.453c-6.031-14.904-0.908-26.365,8.695-34.421c-21.033,9.364-13.871,27.264-22.482,43.772
				c-8.121,15.57-25.082,20.552-36.78,20.102c5.675-2.089,12.836-6.333,17.221-22.178c2.898-10.477,4.766-20.251,17.024-27.147
				c-7.694,12.267-4.539,25.689-14.904,36.729c13.922-9.831,10.498-27.685,21.113-41.697c-10.615,3.408-19.677,9.381-23.598,18.632
				c2.914-15.761,19.711-32.528,49.148-36.552c-30.326-1.289-36.174,15.554-51.456,16.162c-9.682,0.385-18.136-8.391-28.033-13.678
				c12.113,3.072,31.107,11.328,41.164-2.129c0,0-6.194,5.261-18.275,3.728c-12.272-1.559-23.462-9.4-54.116-11.356
				c30.654-1.958,41.844-9.797,54.116-11.355c12.081-1.536,18.275,3.725,18.275,3.725c-10.057-13.457-29.051-5.199-41.164-2.129
				c9.897-5.287,18.352-14.061,28.033-13.676c15.282,0.606,21.13,17.451,51.456,16.16c-29.438-4.021-46.234-20.791-49.148-36.55
				c3.921,9.249,12.982,15.222,23.598,18.63c-10.615-14.013-7.191-31.866-21.113-41.695c10.365,11.037,7.21,24.462,14.904,36.727
				c-12.259-6.895-14.126-16.669-17.024-27.146c-4.385-15.847-11.546-20.089-17.221-22.179c11.698-0.45,28.659,4.531,36.78,20.101
				c8.611,16.512,1.449,34.411,22.482,43.772c-9.604-8.056-14.727-19.517-8.695-34.421c-2.254,21.923,20.627,25.505,24.309,40.453
				c0.629-11.53-7.178-21.223-14.549-25.904c10.291,3.372,19.217,8.989,23.42,21.824c6.926-21.391-5.314-38.455-12.898-38.455
				c-2.627,0-4.535,1.673-4.535,4.164c0,6.451,11.641,6.451,14.596,18.854c-5.322-10.821-25.551-8.869-25.551-20.758
				c0-9.738,13.639-14.037,22.355-7.985c-6.387-8.339-21.256-8.62-25.549,1.42c-0.662-4.308,1.307-10.757,7.453-13.13
				c6.984-2.698,13.484,2.484,13.484,2.484c-7.643-11.014-20.939-3.671-34.066-3.904c-10.869-0.191-18.106-5.82-21.292-11.177
				c2.968,1.485,4.638,1.884,7.629,1.952c-6.294-3.879-10.848-12.798-9.049-21.469c1.297,6.248,8.571,10.678,22.356,11.632
				c15.557,1.077,23.809,3.569,29.098,9.305c-11.201-4.959-28.936,1.908-40.985-6.033c7.454,8.537,23.933,6.09,35.716,7.981
				c20.707,3.322,33.322,38.285,31.707,53.631c5.654-23.423-9.463-36.2-12.787-49.134c-3.635-14.134,3.365-23.826,9.947-28.802
				c-10.279,15.398,7.418,24.628,4.613,44.357c5.227-19.19-4.436-24.663-4.436-34.599c0-9.759,8.586-12.995,10.291-25.55
				c1.707,12.555,10.291,15.791,10.291,25.55c0,9.936-9.662,15.408-4.436,34.599c-2.803-19.729,14.895-28.959,4.613-44.357
				c6.584,4.976,13.584,14.668,9.949,28.802c-3.326,12.934-18.443,25.711-12.787,49.134c-1.617-15.346,11-50.309,31.707-53.631
				c11.781-1.891,28.262,0.556,35.715-7.981c-12.051,7.941-29.785,1.074-40.986,6.033c5.291-5.736,13.543-8.228,29.1-9.305
				c13.783-0.954,21.059-5.384,22.355-11.632c1.799,8.671-2.756,17.59-9.049,21.469c2.99-0.067,4.662-0.467,7.629-1.952
				c-3.186,5.356-10.424,10.985-21.291,11.177c-13.127,0.233-26.426-7.109-34.066,3.904c0,0,6.498-5.183,13.484-2.484
				c6.145,2.373,8.115,8.822,7.453,13.13c-4.293-10.04-19.164-9.759-25.551-1.42c8.717-6.052,22.355-1.753,22.355,7.985
				c0,11.889-20.227,9.937-25.549,20.758c2.955-12.403,14.596-12.403,14.596-18.854c0-2.491-1.908-4.164-4.535-4.164
				c-7.586,0-19.824,17.064-12.9,38.455c4.205-12.835,13.131-18.452,23.42-21.824c-7.369,4.682-15.178,14.374-14.549,25.904
				c3.682-14.948,26.564-18.53,24.309-40.453c6.033,14.904,0.908,26.365-8.693,34.421c21.031-9.361,13.869-27.261,22.48-43.772
				c8.121-15.57,25.082-20.551,36.781-20.101c-5.676,2.09-12.836,6.333-17.221,22.179c-2.9,10.477-4.766,20.251-17.023,27.146
				c7.693-12.265,4.539-25.689,14.904-36.727c-13.922,9.829-10.5,27.683-21.115,41.695c10.615-3.408,19.676-9.381,23.6-18.63
				c-2.916,15.759-19.711,32.528-49.148,36.55c30.326,1.291,36.172-15.554,51.453-16.16c9.684-0.385,18.137,8.389,28.035,13.676
				c-12.113-3.07-31.107-11.328-41.164,2.129c0,0,6.193-5.261,18.275-3.725c12.271,1.559,23.461,9.397,54.115,11.355
				c-30.654,1.956-41.844,9.798-54.115,11.356c-12.082,1.533-18.275-3.728-18.275-3.728c10.057,13.457,29.051,5.201,41.164,2.129
				c-9.898,5.287-18.352,14.063-28.035,13.678C218.57-355.234,212.725-372.077,182.398-370.788z M215.754-378.061
				c4.613,1.241,8.633,3.77,14.488,3.77c7.113,0,11.074-2.751,16.74-3.77c-5.666-1.018-9.627-3.77-16.74-3.77
				C224.387-381.831,220.367-379.304,215.754-378.061z M143.541-468.373c0,5.123,3.016,8.397,3.016,12.123
				c0-3.725,3.018-7,3.018-12.123c0-4.569-2.25-6.652-3.018-11.435C145.789-475.025,143.541-472.941,143.541-468.373z
				 M77.359-378.061c-4.613-1.243-8.634-3.77-14.488-3.77c-7.113,0-11.073,2.752-16.739,3.77c5.666,1.019,9.626,3.77,16.739,3.77
				C68.726-374.292,72.746-376.82,77.359-378.061z M149.574-287.75c0-5.123-3.018-8.398-3.018-12.123c0,3.725-3.016,7-3.016,12.123
				c0,4.568,2.248,6.653,3.016,11.434C147.324-281.097,149.574-283.182,149.574-287.75z M191.625-378.061
				c-9.938,0-24.088-4.982-34.953-3.016c3.449-2.1,4.982-3.673,7.451-6.744c-4.406,0.434-6.758,0.796-10.113,2.308
				c2.662-6.018,3.193-9.399,3.725-15.437c-3.068,3.565-4.639,5.74-6.564,10.646c0.709-12.42-4.258-15.247-4.613-31.761
				c-0.355,16.514-5.322,19.341-4.613,31.761c-1.924-4.905-3.494-7.08-6.564-10.646c0.531,6.037,1.064,9.419,3.727,15.437
				c-3.355-1.512-5.709-1.874-10.115-2.308c2.471,3.071,4.004,4.645,7.453,6.744c-10.865-1.967-25.018,3.016-34.953,3.016
				c9.936,0,24.088,4.98,34.953,3.017c-3.449,2.097-4.982,3.67-7.453,6.741c4.406-0.432,6.76-0.796,10.115-2.306
				c-2.662,6.016-3.195,9.397-3.727,15.437c3.07-3.565,4.641-5.742,6.564-10.647c-0.709,12.421,4.258,15.247,4.613,31.761
				c0.355-16.514,5.322-19.34,4.613-31.761c1.926,4.905,3.496,7.082,6.564,10.647c-0.531-6.039-1.063-9.421-3.725-15.437
				c3.355,1.51,5.707,1.874,10.113,2.306c-2.469-3.071-4.002-4.645-7.451-6.741C167.537-373.081,181.688-378.061,191.625-378.061z"
				/>
			<path fill="#2C973E" d="M214.357-309.566c-5.52-4.577-10.66-12.46-11.441-22.75c-1.076,10.23-3.199,18.136-8.211,23.962
				c0,0,6.326-3.097,8.615-9.154C206.281-312.258,214.357-309.566,214.357-309.566z"/>
			<path fill="#2C973E" d="M228.357-258.682c-1.217-5.97-6.307-11.178-12.922-13.73c2.709,6.993,1.703,13.798-2.154,19.788
				c0.898-7.766-1.469-13.209-5.789-18.038c1.361,4.829,1.242,9.268-1.076,13.865c0.941-8.48-6.168-12.786-15.615-18.442
				c-12.66-7.578-17.277-16.042-19.25-27.226c3.451,6.865,9.902,13.138,27.859,17.292
				C221.709-280.014,229.803-272.757,228.357-258.682z"/>
			
				<linearGradient id="SVGID_21_" gradientUnits="userSpaceOnUse" x1="86677.4063" y1="62369.6094" x2="86654.1094" y2="62377.5469" gradientTransform="matrix(-1 0 0 1 86902.4844 -62717.25)">
				<stop  offset="0.2331" style="stop-color:#FAA61A"/>
				<stop  offset="0.7607" style="stop-color:#FFC20E"/>
			</linearGradient>
			<path fill="url(#SVGID_21_)" d="M228.088-350.892c4.688,4.596,6.912,12.187,7.27,21.721c0.471,12.527,5.41,17.657,13.326,18.528
				c-11.801-4.579-4.443-17.114-7.941-25.846c6.439,4.787,4.381,20.678,17.635,21.403c-9.781-3.196-2.836-16.675-9.289-24.499
				c7.809,0.107,11.398-6.125,21.539-3.231c-4.717-3.634-9.965-5.923-18.846-5.923c6.254-3.859,9-8.625,11.307-15.346
				C252.961-353.492,238.236-349.417,228.088-350.892z"/>
			<path fill="#FFC20E" d="M164.777-378.061c-4.258-0.664-9.389-3.201-14.131-1.22c2.322-1.805,1.145-3.515,2.529-5.197
				c-1.916,1.388-3.51,0.503-4.986,2.745c1.535-5.31-0.529-8.143-1.633-14.118c-1.104,5.976-3.168,8.809-1.633,14.118
				c-1.475-2.242-3.068-1.357-4.984-2.745c1.385,1.683,0.205,3.393,2.529,5.197c-4.742-1.981-9.875,0.556-14.131,1.22
				c4.256,0.665,9.389,3.199,14.131,1.218c-2.324,1.805-1.145,3.517-2.529,5.197c1.916-1.386,3.51-0.5,4.984-2.742
				c-1.535,5.309,0.529,8.14,1.633,14.117c1.104-5.978,3.168-8.809,1.633-14.117c1.477,2.242,3.07,1.356,4.986,2.742
				c-1.385-1.681-0.207-3.393-2.529-5.197C155.389-374.862,160.52-377.396,164.777-378.061z"/>
		</g>
	</g>
</pattern>
<g id="Layer_2" display="none">
	<circle display="inline" fill="none" stroke="#000000" stroke-miterlimit="10" cx="499.049" cy="282.785" r="128.035"/>
</g>
<g id="Layer_3">
	<path fill="none" stroke="#000000" stroke-width="0.9886" stroke-miterlimit="10" d="M290.211,511.548"/>
	<g>
		<path fill="#FFC200" d="M581.329,378.619c0,0-0.326,1.234-0.938,3.549c-0.321,1.151-0.686,2.578-1.198,4.233
			c-0.521,1.658-1.146,3.561-1.861,5.698c-0.707,2.143-1.633,4.434-2.584,6.979c-0.961,2.538-2.183,5.197-3.405,8.098
			c-2.646,5.683-5.775,12.081-9.768,18.751c-3.976,6.676-8.66,13.72-14.135,20.813c-5.48,7.085-11.764,14.2-18.783,21.062
			c-3.488,3.454-7.188,6.815-11.055,10.079c-3.846,3.288-7.857,6.487-12.054,9.507c-8.326,6.134-17.297,11.669-26.578,16.61
			c-9.33,4.848-18.972,9.113-28.748,12.492c-2.426,0.896-4.881,1.671-7.323,2.439c-1.227,0.37-2.442,0.76-3.666,1.108
			c-1.229,0.333-2.455,0.664-3.677,0.995c-1.221,0.329-2.438,0.658-3.651,0.985c-1.224,0.289-2.442,0.576-3.656,0.863
			c-2.425,0.589-4.845,1.114-7.263,1.544c-9.619,1.868-19.079,3.097-27.959,3.504c-2.169,0.122-4.276,0.271-6.527,0.274
			c-2.208,0.033-4.375,0.087-6.505,0.085c-2.14,0.052-4.186-0.104-6.215-0.164c-2.024-0.086-4.006-0.146-5.945-0.256
			c-3.878-0.363-7.582-0.672-11.088-1.08c-3.501-0.534-6.812-0.991-9.904-1.513c-3.083-0.641-5.959-1.204-8.602-1.794
			c-2.644-0.582-5.042-1.281-7.205-1.861c-2.163-0.591-4.089-1.099-5.736-1.689c-1.647-0.558-3.049-1.032-4.185-1.417
			c-2.254-0.8-3.456-1.227-3.456-1.227s1.277,0.034,3.673,0.098c2.391,0.052,5.855,0.31,10.28,0.304
			c2.212-0.009,4.633,0.134,7.283,0.082c2.652-0.07,5.5-0.072,8.536-0.113c3.029-0.136,6.253-0.279,9.651-0.432
			c3.373-0.26,6.92-0.532,10.622-0.816c1.842-0.233,3.72-0.419,5.629-0.633c1.902-0.229,3.872-0.368,5.795-0.71
			c3.906-0.632,7.771-1.023,12.119-1.918c2.079-0.375,4.186-0.755,6.319-1.14c2.104-0.453,4.234-0.912,6.388-1.377
			c4.278-1.042,8.657-2.01,13.037-3.28c2.206-0.565,4.392-1.279,6.607-1.93c1.105-0.33,2.216-0.66,3.33-0.992
			c1.103-0.369,2.208-0.738,3.317-1.109c1.109-0.369,2.221-0.74,3.336-1.112c1.109-0.388,2.209-0.814,3.317-1.221
			c2.226-0.79,4.462-1.578,6.665-2.484c8.85-3.511,17.683-7.455,26.208-12c8.577-4.445,16.843-9.476,24.754-14.775
			c1.962-1.349,3.937-2.665,5.832-4.074c1.915-1.382,3.859-2.71,5.695-4.157c1.848-1.432,3.735-2.798,5.502-4.285
			c1.771-1.48,3.634-2.836,5.341-4.344c6.969-5.868,13.481-11.858,19.367-17.869c5.896-6,11.224-11.959,15.985-17.634
			c1.183-1.43,2.34-2.83,3.471-4.198c1.098-1.399,2.169-2.768,3.214-4.101c2.154-2.634,3.956-5.299,5.836-7.702
			c1.761-2.488,3.409-4.816,4.933-6.97c1.47-2.191,2.875-4.197,4.083-6.032c1.188-1.844,2.265-3.495,3.223-4.931
			c0.921-1.466,1.704-2.712,2.34-3.723C580.639,379.693,581.329,378.619,581.329,378.619z"/>
	</g>
	<path fill="none" stroke="#000000" stroke-width="0.9886" stroke-miterlimit="10" d="M593.612,224.838"/>
	<g>
		<path fill="#FFC200" d="M133.945,251.268c0,0,0.125-1.704,0.358-4.897c0.156-1.594,0.236-3.563,0.539-5.872
			c0.275-2.313,0.622-4.977,1.03-7.971c0.514-2.957,1.086-6.241,1.78-9.81c0.401-1.773,0.819-3.618,1.252-5.531
			c0.222-0.958,0.447-1.934,0.676-2.926c0.266-0.982,0.536-1.981,0.811-2.996c0.564-2.031,1.147-4.127,1.747-6.285
			c0.69-2.133,1.401-4.327,2.13-6.579c0.687-2.274,1.591-4.528,2.46-6.864c0.439-1.167,0.884-2.348,1.333-3.541
			c0.442-1.198,0.98-2.368,1.475-3.575c4.003-9.628,9.035-19.825,15.335-30.063c6.287-10.241,13.753-20.579,22.434-30.488
			c2.188-2.459,4.437-4.905,6.709-7.364c2.365-2.367,4.739-4.765,7.167-7.136c2.505-2.288,4.973-4.656,7.561-6.915
			c1.313-1.108,2.629-2.218,3.949-3.331c1.32-1.113,2.638-2.235,4.025-3.277c10.847-8.65,22.728-16.362,35.182-22.99
			c12.496-6.546,25.566-12.018,38.834-16.082c3.312-1.029,6.655-1.905,9.956-2.852c3.334-0.829,6.675-1.555,9.979-2.326
			c3.329-0.665,6.65-1.257,9.937-1.879c3.304-0.529,6.603-0.934,9.861-1.393l0.611-0.083l0.296-0.036l0.148-0.014l0.297-0.029
			l1.186-0.114c0.79-0.076,1.577-0.152,2.363-0.228c1.572-0.151,3.138-0.302,4.696-0.453c3.266-0.21,6.523-0.409,9.717-0.541
			c3.165-0.037,6.29-0.119,9.377-0.113c3.088,0.083,6.136,0.1,9.138,0.262c12.01,0.611,23.277,2.13,33.487,4.282
			c10.214,2.154,19.371,4.869,27.316,7.655c1.974,0.728,3.885,1.432,5.729,2.112c1.835,0.696,3.573,1.456,5.252,2.15
			c3.368,1.354,6.374,2.811,9.095,4.085c2.733,1.241,5.077,2.569,7.145,3.635c2.072,1.059,3.778,2.073,5.171,2.869
			c2.764,1.621,4.237,2.485,4.237,2.485s-1.62-0.54-4.657-1.552c-2.998-1.084-7.495-2.42-13.169-4.095
			c-2.866-0.762-5.985-1.729-9.458-2.519c-1.731-0.408-3.515-0.882-5.381-1.307c-1.871-0.399-3.81-0.813-5.812-1.24
			c-8.021-1.607-17.098-3.112-27.034-4.084c-2.483-0.209-5.02-0.423-7.604-0.641c-2.586-0.128-5.221-0.259-7.9-0.391
			c-2.677-0.054-5.399-0.108-8.163-0.164c-2.763-0.008-5.566,0.083-8.402,0.118c-2.833,0.131-5.705,0.264-8.612,0.398
			c-2.902,0.197-5.833,0.48-8.793,0.718c-2.904,0.34-5.84,0.684-8.804,1.031c-1.548,0.234-3.103,0.47-4.664,0.706
			c-0.781,0.118-1.563,0.237-2.348,0.355l-1.178,0.178l-0.295,0.045l-0.147,0.022c-0.18,0.025,0.078-0.009,0,0.005l-0.567,0.109
			c-3.024,0.582-6.073,1.168-9.144,1.759c-3.043,0.699-6.109,1.404-9.194,2.112c-3.049,0.843-6.13,1.636-9.198,2.525
			c-3.047,0.961-6.135,1.84-9.187,2.869c-12.199,4.14-24.282,9.234-35.818,15.382c-11.584,6.056-22.615,13.149-32.923,20.877
			c-1.313,0.936-2.559,1.951-3.809,2.957c-1.254,1.001-2.506,2-3.755,2.996c-2.486,2.006-4.862,4.122-7.283,6.16
			c-2.344,2.122-4.641,4.271-6.937,6.391c-2.22,2.201-4.424,4.385-6.611,6.552c-8.567,8.853-16.23,18.047-22.909,27.234
			c-6.708,9.17-12.388,18.356-17.187,27.108c-0.601,1.094-1.245,2.154-1.794,3.246c-0.557,1.089-1.108,2.166-1.653,3.23
			c-1.083,2.134-2.19,4.203-3.133,6.281c-0.977,2.069-1.928,4.084-2.854,6.044c-0.854,1.994-1.685,3.932-2.489,5.809
			c-0.405,0.94-0.803,1.866-1.195,2.776c-0.356,0.923-0.708,1.832-1.052,2.723c-0.698,1.786-1.372,3.507-2.019,5.162
			c-1.189,3.357-2.282,6.441-3.269,9.227c-0.873,2.812-1.669,5.333-2.389,7.53c-0.728,2.194-1.181,4.125-1.634,5.656
			C134.418,249.627,133.945,251.268,133.945,251.268z"/>
	</g>
</g>
<g id="Layer_1">
	<g>
		<path fill="none" stroke="#050101" stroke-width="3.9543" stroke-miterlimit="10" d="M285.437,292.333
			c3.115-7.31,5.756-14.227,7.917-20.747c1.237-3.807,4.4-14.151,9.493-31.026l5.89-19.252c4.334-14.214,7.308-23.368,8.918-27.46
			c2.598-6.901,5.999-10.99,10.209-12.264c3.03-0.917,4.871-0.299,5.52,1.85c0.442,1.459,0.41,3.479-0.095,6.062
			c-0.378,1.792-1.121,7.839-2.229,18.144c-1.061,10.461-0.915,21.729,0.443,33.803c0.946,8.596,2.291,15.773,4.032,21.53
			c0.511,1.69,1.18,3.52,2.005,5.488c0.825,1.972,1.819,4.122,2.985,6.45c2.204-4.855,4.238-11.504,6.094-19.941
			c1.688-8.386,4.192-21.672,7.513-39.854c3.105-17.362,7.344-35.696,12.714-55.001c4.373-15.905,10.345-32.457,17.911-49.663
			c3.519-8.103,6.921-12.651,10.204-13.644c1.431-0.433,2.931-0.175,4.506,0.772c1.119,0.667,1.854,1.577,2.203,2.727
			c0.464,1.537-0.995,6.126-4.378,13.769c-6.671,15.007-12.492,31.139-17.47,48.396c-5.626,19.971-11.81,47.817-18.55,83.54
			c-2.973,15.983-5.471,27.465-7.494,34.444c-2.146,7.186-5.786,11.554-10.918,13.107c-4.377,1.324-8.189,0.57-11.433-2.259
			c-3.246-2.831-5.913-7.702-8.002-14.611c-3.367-11.129-5.517-25.521-6.447-43.171c-2.586,5.728-5.276,13.536-8.07,23.432
			c-2.099,7.34-4.14,14.409-6.124,21.209c-2.901,9.845-4.806,16.454-5.715,19.829c-1.371,5.19-3.104,9.484-5.197,12.884
			c-1.547,2.479-3.752,4.151-6.613,5.017c-3.451,1.044-6.34,0.451-8.668-1.776c-1.652-1.511-2.883-3.611-3.696-6.298
			c-5.527-18.269-4.913-54.194,1.847-107.771c3.278-26.212,4.969-42.184,5.073-47.914c-0.018-5.525,0.522-9.208,1.619-11.049
			c1.416-2.605,3.47-4.318,6.164-5.133c3.704-1.12,6.043-0.067,7.019,3.157c1.185,3.915,1.385,10.349,0.603,19.299
			c-0.879,10.155-2.809,24.732-5.788,43.732c-2.012,13.095-3.292,22.825-3.847,29.193
			C283.862,262.686,283.812,283.021,285.437,292.333z"/>
		<path fill="none" stroke="#050101" stroke-width="3.9543" stroke-miterlimit="10" d="M417.564,182.638
			c1.43-0.432,2.759-0.289,3.988,0.427c0.929,0.643,1.521,1.384,1.776,2.229c0.417,1.382-0.106,4.054-1.572,8.016
			c-5.015,15.01-8.166,27.065-9.453,36.167c-1.473,9.413-2.409,18.913-2.814,28.504c-0.184,4.247-1.708,6.801-4.571,7.667
			c-1.683,0.509-3.216,0.303-4.598-0.62c-1.228-0.717-2.016-1.653-2.364-2.804c-0.696-2.302-0.324-10.794,1.113-25.475
			c1.099-11.56,4.476-24.983,10.141-40.272c1.8-4.984,3.248-8.397,4.345-10.238C414.628,184.324,415.964,183.123,417.564,182.638z
			 M428.627,132.661c3.787-1.146,6.216,0.048,7.284,3.578c0.976,3.225,0.203,7.355-2.316,12.389
			c-2.396,4.832-5.236,7.744-8.52,8.737c-1.6,0.484-3.065,0.342-4.4-0.429c-1.312-0.692-2.188-1.767-2.63-3.227
			c-1.115-3.684-0.07-8.273,3.138-13.77C423.537,135.878,426.018,133.45,428.627,132.661z"/>
		<path fill="none" stroke="#050101" stroke-width="3.9543" stroke-miterlimit="10" d="M459.259,205.469
			c-0.714,6.751-1.144,12.161-1.292,16.229c-0.147,4.066-0.001,6.83,0.439,8.288c0.581,1.918,1.881,2.572,3.901,1.961
			c3.03-0.917,6.155-4.71,9.372-11.383c1.507-3.22,3.491-8.805,5.955-16.758c0.979-3.143,2.434-5.01,4.371-5.596
			c2.188-0.662,3.574-0.032,4.154,1.886c0.998,3.302-1.148,11.242-6.438,23.818c-5.487,13.141-11.937,20.832-19.341,23.071
			c-3.199,0.968-6.18,0.53-8.943-1.316c-1.964-1.333-3.331-3.266-4.097-5.799c-1.301-4.298-1.668-10.681-1.107-19.147
			c0.561-8.465,2.014-19.001,4.355-31.609c6.093-32.091,13.954-59.398,23.588-81.921c7.669-18.073,15.46-28.307,23.372-30.701
			c2.525-0.764,4.854-0.504,6.988,0.777c2.217,1.258,3.675,3.036,4.371,5.34c3.252,10.749-1.859,31.818-15.329,63.209
			c-6.061,13.983-13.97,28.527-23.734,43.629C467.277,193.409,463.749,198.749,459.259,205.469z M462.683,184.448
			c13.373-18.959,23.803-40.968,31.29-66.026c3.88-12.988,5.286-21.248,4.219-24.78c-0.512-1.687-1.568-2.292-3.166-1.808
			c-4.63,1.4-10.505,12.353-17.622,32.858C471.484,141.565,466.576,161.485,462.683,184.448z"/>
		<path fill="none" stroke="#050101" stroke-width="3.9543" stroke-miterlimit="10" d="M549.68,140.783
			c3.563-18.589,7.29-34.966,11.183-49.133c3.754-13.706,6.482-22.45,8.188-26.233c1.861-4.165,4.057-6.632,6.582-7.396
			c1.345-0.407,2.718-0.276,4.113,0.39c1.313,0.693,2.144,1.614,2.491,2.765c0.535,1.767-0.004,5.155-1.609,10.166
			c-6.771,21.655-12.451,43.276-17.038,64.856c-5.257,25.138-6.26,43.08-3.008,53.827c1.323,4.375,3.294,7.55,5.912,9.521
			c0.498,0.438,2.386,1.208,5.66,2.311c0.622,0.233,1.106,0.922,1.454,2.074c0.465,1.537,0.235,3.134-0.685,4.794
			c-0.923,1.663-2.183,2.735-3.781,3.219c-1.937,0.586-4.408,0.16-7.415-1.276c-4.296-2.052-7.384-4.972-9.265-8.761
			c-0.763-1.611-2.011-4.671-3.741-9.174c-4.447,17.182-10.67,26.983-18.665,29.401c-4.629,1.4-9.053,0.143-13.271-3.777
			c-2.803-2.587-4.809-5.876-6.017-9.868c-3.623-11.977-2.472-25.479,3.453-40.512c5.889-14.853,14.303-23.934,25.246-27.245
			C542.498,139.814,545.902,139.834,549.68,140.783z M548.245,151.524c-2.69-0.695-4.879-0.786-6.562-0.277
			c-7.069,2.139-12.564,8.117-16.485,17.934c-5.221,12.809-6.379,24.01-3.476,33.605c0.348,1.152,0.925,2.151,1.732,2.995
			c1.59,1.615,3.396,2.115,5.416,1.504c2.945-0.891,5.731-4.582,8.363-11.078c3.547-8.614,6.293-18.369,8.234-29.264
			c0.707-3.732,1.373-7.454,1.997-11.163l0.475-2.531L548.245,151.524z"/>
	</g>
	<g opacity="0.5">
		
			<pattern  id="SVGID_22_" xlink:href="#Foliage" patternTransform="matrix(0.9787 -0.1398 0.1398 0.9787 679.3789 -1018.0532)"  opacity="0.5">
		</pattern>
		<path fill="url(#SVGID_22_)" stroke="#050101" stroke-width="3.9543" stroke-miterlimit="10" d="M285.437,292.333
			c3.115-7.31,5.756-14.227,7.917-20.747c1.237-3.807,4.4-14.151,9.493-31.026l5.89-19.252c4.334-14.214,7.308-23.368,8.918-27.46
			c2.598-6.901,5.999-10.99,10.209-12.264c3.03-0.917,4.871-0.299,5.52,1.85c0.442,1.459,0.41,3.479-0.095,6.062
			c-0.378,1.792-1.121,7.839-2.229,18.144c-1.061,10.461-0.915,21.729,0.443,33.803c0.946,8.596,2.291,15.773,4.032,21.53
			c0.511,1.69,1.18,3.52,2.005,5.488c0.825,1.972,1.819,4.122,2.985,6.45c2.204-4.855,4.238-11.504,6.094-19.941
			c1.688-8.386,4.192-21.672,7.513-39.854c3.105-17.362,7.344-35.696,12.714-55.001c4.373-15.905,10.345-32.457,17.911-49.663
			c3.519-8.103,6.921-12.651,10.204-13.644c1.431-0.433,2.931-0.175,4.506,0.772c1.119,0.667,1.854,1.577,2.203,2.727
			c0.464,1.537-0.995,6.126-4.378,13.769c-6.671,15.007-12.492,31.139-17.47,48.396c-5.626,19.971-11.81,47.817-18.55,83.54
			c-2.973,15.983-5.471,27.465-7.494,34.444c-2.146,7.186-5.786,11.554-10.918,13.107c-4.377,1.324-8.189,0.57-11.433-2.259
			c-3.246-2.831-5.913-7.702-8.002-14.611c-3.367-11.129-5.517-25.521-6.447-43.171c-2.586,5.728-5.276,13.536-8.07,23.432
			c-2.099,7.34-4.14,14.409-6.124,21.209c-2.901,9.845-4.806,16.454-5.715,19.829c-1.371,5.19-3.104,9.484-5.197,12.884
			c-1.547,2.479-3.752,4.151-6.613,5.017c-3.451,1.044-6.34,0.451-8.668-1.776c-1.652-1.511-2.883-3.611-3.696-6.298
			c-5.527-18.269-4.913-54.194,1.847-107.771c3.278-26.212,4.969-42.184,5.073-47.914c-0.018-5.525,0.522-9.208,1.619-11.049
			c1.416-2.605,3.47-4.318,6.164-5.133c3.704-1.12,6.043-0.067,7.019,3.157c1.185,3.915,1.385,10.349,0.603,19.299
			c-0.879,10.155-2.809,24.732-5.788,43.732c-2.012,13.095-3.292,22.825-3.847,29.193
			C283.862,262.686,283.812,283.021,285.437,292.333z"/>
		
			<pattern  id="SVGID_23_" xlink:href="#Foliage" patternTransform="matrix(0.9787 -0.1398 0.1398 0.9787 679.3789 -1018.0532)"  opacity="0.5">
		</pattern>
		<path fill="url(#SVGID_23_)" stroke="#050101" stroke-width="3.9543" stroke-miterlimit="10" d="M417.564,182.638
			c1.43-0.432,2.759-0.289,3.988,0.427c0.929,0.643,1.521,1.384,1.776,2.229c0.417,1.382-0.106,4.054-1.572,8.016
			c-5.015,15.01-8.166,27.065-9.453,36.167c-1.473,9.413-2.409,18.913-2.814,28.504c-0.184,4.247-1.708,6.801-4.571,7.667
			c-1.683,0.509-3.216,0.303-4.598-0.62c-1.228-0.717-2.016-1.653-2.364-2.804c-0.696-2.302-0.324-10.794,1.113-25.475
			c1.099-11.56,4.476-24.983,10.141-40.272c1.8-4.984,3.248-8.397,4.345-10.238C414.628,184.324,415.964,183.123,417.564,182.638z
			 M428.627,132.661c3.787-1.146,6.216,0.048,7.284,3.578c0.976,3.225,0.203,7.355-2.316,12.389
			c-2.396,4.832-5.236,7.744-8.52,8.737c-1.6,0.484-3.065,0.342-4.4-0.429c-1.312-0.692-2.188-1.767-2.63-3.227
			c-1.115-3.684-0.07-8.273,3.138-13.77C423.537,135.878,426.018,133.45,428.627,132.661z"/>
		
			<pattern  id="SVGID_24_" xlink:href="#Foliage" patternTransform="matrix(0.9787 -0.1398 0.1398 0.9787 679.3789 -1018.0532)"  opacity="0.5">
		</pattern>
		<path fill="url(#SVGID_24_)" stroke="#050101" stroke-width="3.9543" stroke-miterlimit="10" d="M459.259,205.469
			c-0.714,6.751-1.144,12.161-1.292,16.229c-0.147,4.066-0.001,6.83,0.439,8.288c0.581,1.918,1.881,2.572,3.901,1.961
			c3.03-0.917,6.155-4.71,9.372-11.383c1.507-3.22,3.491-8.805,5.955-16.758c0.979-3.143,2.434-5.01,4.371-5.596
			c2.188-0.662,3.574-0.032,4.154,1.886c0.998,3.302-1.148,11.242-6.438,23.818c-5.487,13.141-11.937,20.832-19.341,23.071
			c-3.199,0.968-6.18,0.53-8.943-1.316c-1.964-1.333-3.331-3.266-4.097-5.799c-1.301-4.298-1.668-10.681-1.107-19.147
			c0.561-8.465,2.014-19.001,4.355-31.609c6.093-32.091,13.954-59.398,23.588-81.921c7.669-18.073,15.46-28.307,23.372-30.701
			c2.525-0.764,4.854-0.504,6.988,0.777c2.217,1.258,3.675,3.036,4.371,5.34c3.252,10.749-1.859,31.818-15.329,63.209
			c-6.061,13.983-13.97,28.527-23.734,43.629C467.277,193.409,463.749,198.749,459.259,205.469z M462.683,184.448
			c13.373-18.959,23.803-40.968,31.29-66.026c3.88-12.988,5.286-21.248,4.219-24.78c-0.512-1.687-1.568-2.292-3.166-1.808
			c-4.63,1.4-10.505,12.353-17.622,32.858C471.484,141.565,466.576,161.485,462.683,184.448z"/>
		
			<pattern  id="SVGID_25_" xlink:href="#Foliage" patternTransform="matrix(0.9787 -0.1398 0.1398 0.9787 679.3789 -1018.0532)"  opacity="0.5">
		</pattern>
		<path fill="url(#SVGID_25_)" stroke="#050101" stroke-width="3.9543" stroke-miterlimit="10" d="M549.68,140.783
			c3.563-18.589,7.29-34.966,11.183-49.133c3.754-13.706,6.482-22.45,8.188-26.233c1.861-4.165,4.057-6.632,6.582-7.396
			c1.345-0.407,2.718-0.276,4.113,0.39c1.313,0.693,2.144,1.614,2.491,2.765c0.535,1.767-0.004,5.155-1.609,10.166
			c-6.771,21.655-12.451,43.276-17.038,64.856c-5.257,25.138-6.26,43.08-3.008,53.827c1.323,4.375,3.294,7.55,5.912,9.521
			c0.498,0.438,2.386,1.208,5.66,2.311c0.622,0.233,1.106,0.922,1.454,2.074c0.465,1.537,0.235,3.134-0.685,4.794
			c-0.923,1.663-2.183,2.735-3.781,3.219c-1.937,0.586-4.408,0.16-7.415-1.276c-4.296-2.052-7.384-4.972-9.265-8.761
			c-0.763-1.611-2.011-4.671-3.741-9.174c-4.447,17.182-10.67,26.983-18.665,29.401c-4.629,1.4-9.053,0.143-13.271-3.777
			c-2.803-2.587-4.809-5.876-6.017-9.868c-3.623-11.977-2.472-25.479,3.453-40.512c5.889-14.853,14.303-23.934,25.246-27.245
			C542.498,139.814,545.902,139.834,549.68,140.783z M548.245,151.524c-2.69-0.695-4.879-0.786-6.562-0.277
			c-7.069,2.139-12.564,8.117-16.485,17.934c-5.221,12.809-6.379,24.01-3.476,33.605c0.348,1.152,0.925,2.151,1.732,2.995
			c1.59,1.615,3.396,2.115,5.416,1.504c2.945-0.891,5.731-4.582,8.363-11.078c3.547-8.614,6.293-18.369,8.234-29.264
			c0.707-3.732,1.373-7.454,1.997-11.163l0.475-2.531L548.245,151.524z"/>
	</g>
	
		<text transform="matrix(1 0 0 1 -47.0708 424.418)" display="none" stroke="url(#Foliage)" stroke-width="10" stroke-miterlimit="10" font-family="'FreestyleScript-Regular'" font-size="99" letter-spacing="7">Thymes</text>
	
		<text transform="matrix(1.5 0 0 1.5 289.7031 362.8457)" display="none" stroke="#000000" stroke-width="3" stroke-miterlimit="10" font-family="'FreestyleScript-Regular'" font-size="107.2126" letter-spacing="4.667">Thymes</text>
	
		<text transform="matrix(1 0 0 1 -81.2642 499.9014)" display="none" stroke="url(#Foliage)" stroke-width="10" stroke-miterlimit="10" font-family="'FreestyleScript-Regular'" font-size="99" letter-spacing="7">Thymes</text>
	
		<line display="none" fill="none" stroke="#000000" stroke-width="6" stroke-miterlimit="10" x1="609.32" y1="243.789" x2="270.163" y2="312.854"/>
	<g>
		<path fill="none" stroke="#050101" stroke-width="3.9543" stroke-miterlimit="10" d="M126.599,296.493
			c-19.68,9.447-37.598,19.32-53.75,29.615c-3.312,2.467-6,4.013-8.064,4.637c-2.376,0.721-4.717,0.243-7.024-1.426
			c-1.408-0.926-2.359-2.213-2.86-3.867c-1.342-4.438,0.872-8.657,6.649-12.659c15.574-10.346,34.322-21.203,56.238-32.566
			c27.523-14.073,54.701-25.168,81.544-33.29c9.084-2.749,15.346-4.022,18.788-3.825c3.203,0.158,5.244,1.684,6.115,4.573
			c1.47,4.852-1.233,8.768-8.107,11.748c-6.008,2.495-15.21,5.788-27.607,9.874c-24.629,8.355-41.198,15.058-49.699,20.107
			c2.893,0.253,4.669,1.461,5.328,3.629c0.686,2.271,0.111,6.333-1.724,12.184c-10.935,34.636-19.819,72.877-26.652,114.72
			c-5.256,31.792-7.787,59.377-7.589,82.754c0.522,6.942-0.972,10.943-4.481,12.005c-3.2,0.97-6.382,0.129-9.551-2.518
			c-2.1-1.732-3.51-3.784-4.229-6.158c-2.872-9.498-0.837-35.353,6.112-77.575c4.409-27.136,9.067-50.298,13.971-69.47
			c1.926-7.794,6.733-25.982,14.425-54.569L126.599,296.493z"/>
		<path fill="none" stroke="#050101" stroke-width="3.9543" stroke-miterlimit="10" d="M179.684,422.045
			c4.709-9.23,9.769-17.302,15.182-24.213c6.969-8.801,12.359-13.775,16.167-14.929c1.577-0.478,3.309-0.289,5.188,0.562
			c2.122,0.98,3.478,2.446,4.067,4.396c0.758,2.508-0.059,7.014-2.45,13.516c-4.62,12.554-7.663,23.61-9.126,33.177
			c-1.337,8.313-1.613,13.771-0.827,16.371c0.758,2.506,2.345,3.397,4.762,2.667c5.015-1.518,10.768-12.993,17.264-34.424
			c1.318-4.354,2.956-6.824,4.905-7.413c1.951-0.592,3.262,0.228,3.937,2.456c1.097,3.623-0.34,11.612-4.307,23.964
			c-3.434,10.771-7.776,19.538-13.032,26.3c-3.753,4.685-7.535,7.601-11.342,8.753c-3.995,1.209-7.396,0.363-10.198-2.541
			c-1.762-1.798-3.036-3.999-3.822-6.6c-2.5-8.267-2.429-18.581,0.221-30.94c0.635-2.929,2.651-11.346,6.048-25.249
			c-16.053,15.3-25.825,40.813-29.311,76.543c-0.113,3.989-1.42,6.361-3.93,7.12c-1.764,0.532-3.386,0.366-4.867-0.504
			c-1.507-0.964-2.541-2.374-3.104-4.231c-0.928-3.066-0.582-12.65,1.034-28.753c3.016-29.908,6.525-55.507,10.53-76.792
			c3.945-21.471,4.523-26.798,10.185-50.311c1.325-5.672,2.522-9.583,3.596-11.733c1.073-2.148,2.493-3.492,4.258-4.024
			c1.672-0.507,3.378-0.06,5.12,1.339c1.321,1.021,2.237,2.365,2.743,4.037c0.787,2.603,0.354,6.534-1.298,11.799
			c-5.339,18.548-5.939,21.447-10.258,43.031C182.351,398.527,179.906,414.069,179.684,422.045z"/>
		<path fill="none" stroke="#050101" stroke-width="3.9543" stroke-miterlimit="10" d="M303.01,404.353
			c-5.318,12.255-9.721,21.494-13.211,27.722c-6.942,12.239-13.667,19.341-20.166,21.308c-3.158,0.955-6.014,0.556-8.578-1.208
			c-1.957-1.434-3.355-3.545-4.198-6.333c-3.036-10.03-1.122-25.156,5.736-45.381c6.959-20.557,13.134-31.653,18.522-33.282
			c1.485-0.449,2.984-0.193,4.491,0.768c1.332,0.716,2.206,1.768,2.628,3.162c0.619,2.044,0.625,3.992,0.021,5.849
			c-0.605,1.855-2.615,6.188-6.029,13c-3.635,7.083-6.713,14.503-9.232,22.26c-2.918,8.792-3.871,14.858-2.859,18.203
			c0.591,1.949,1.813,2.645,3.671,2.083c3.714-1.125,9.15-8.294,16.305-21.51c4.471-8.35,7.858-15.251,10.159-20.715
			c0.462-1.152,2.377-6.547,5.747-16.187c3.095-8.539,5.049-13.641,5.864-15.31c1.802-4.092,3.909-6.506,6.325-7.236
			c1.485-0.449,3.032-0.205,4.632,0.729c1.481,0.871,2.459,2.095,2.937,3.673c0.814,2.694,0.319,7.761-1.485,15.202
			c-2.125,9.059-4.036,17.494-5.727,25.306c-2.706,12.173-4.4,22.825-5.085,31.954c4.905-5.234,9.059-11.105,12.465-17.611
			c5.832-10.889,9.056-18.656,9.679-23.307c0.639-4.247,1.888-6.654,3.748-7.219c2.599-0.785,4.292,0.122,5.081,2.722
			c1.489,4.925-0.471,13.525-5.88,25.809c-6.49,14.738-15.838,28.415-28.041,41.029c-2.126,21.12-4.803,38.914-8.031,53.375
			c-6.124,26.691-16.098,42.131-29.939,46.317c-5.666,1.715-10.878,0.909-15.637-2.416c-3.706-2.529-6.33-6.349-7.875-11.457
			c-4.385-14.489,1.304-32.384,17.065-53.677c4.596-6.258,11.734-14.5,21.416-24.729c3.922-4.126,6.975-7.433,9.164-9.919
			c0.38-4.778,1.219-11.218,2.521-19.316C300.72,419.242,301.983,411.355,303.01,404.353z M293.939,466.864
			c-8.331,7.996-16.242,18.196-23.743,30.604c-7.509,12.713-10.014,23.203-7.513,31.472c0.534,1.763,1.498,3.096,2.882,3.995
			c1.899,1.25,3.963,1.538,6.193,0.863c6.966-2.106,12.471-11.732,16.509-28.87c0.663-2.839,2.041-12.024,4.134-27.563
			C292.858,474.188,293.37,470.687,293.939,466.864z"/>
		<path fill="none" stroke="#050101" stroke-width="3.9543" stroke-miterlimit="10" d="M383.55,371.926
			c5.332-10.533,10.266-19.021,14.806-25.467c6.9-9.69,11.887-15.001,14.951-15.928c1.485-0.45,2.955-0.286,4.406,0.491
			c1.33,0.714,2.179,1.674,2.546,2.879c0.533,1.766-0.221,5.139-2.265,10.113c-3.104,7.837-4.959,14.275-5.559,19.324
			c15.132-28.402,26.689-43.813,34.676-46.229c1.676-0.507,3.269-0.431,4.787,0.226c1.635,0.72,2.709,1.916,3.215,3.589
			c0.787,2.601-0.202,6.552-2.957,11.844c-12.075,23.426-16.357,40.942-12.845,52.553c1.434,4.738,3.296,7.876,5.585,9.412
			l5.014,3.502c0.994,0.612,1.691,1.567,2.084,2.867c0.451,1.487,0.267,3.064-0.549,4.728c-0.941,1.911-2.297,3.13-4.062,3.663
			c-3.064,0.928-6.489-0.165-10.269-3.28c-4.563-3.688-7.8-8.689-9.711-15.008c-2.558-8.452-2.727-17.729-0.51-27.829
			c0.743-3.572,2.295-8.499,4.649-14.79c-6.097,8.334-11.659,18.94-16.685,31.815c-3.438,8.745-6.063,18.159-7.883,28.237
			c-0.874,4.826-2.748,7.675-5.628,8.546c-3.157,0.956-5.27-0.33-6.336-3.86c-1.153-3.807-0.929-12.443,0.679-25.906
			c0.92-7.679,2.424-15.942,4.513-24.789c-12.173,17.066-19.078,37.307-20.717,60.713c-0.544,5.236-2.44,8.344-5.694,9.328
			c-1.484,0.449-2.861,0.257-4.127-0.576c-1.358-0.807-2.278-1.997-2.756-3.576c-1.657-5.481-1.585-16.301,0.218-32.461
			c1.828-17.076,4.957-32.877,9.383-47.398c3.018-10.137,6.059-15.671,9.124-16.599c2.785-0.843,4.629,0.222,5.526,3.192
			c0.395,1.303-0.342,5.074-2.202,11.315C385.87,358.145,384.07,366.598,383.55,371.926z"/>
		<path fill="none" stroke="#050101" stroke-width="3.9543" stroke-miterlimit="10" d="M490.246,361.091l0.76,2.51
			c0.615,2.043,1.66,3.653,3.134,4.829c3.36,2.735,7.691,3.299,12.982,1.699c11.612-3.513,22.334-16.489,32.176-38.934
			c1.764-3.879,3.575-6.101,5.436-6.662c1.02-0.312,2.102-0.08,3.249,0.688c0.782,0.577,1.272,1.187,1.468,1.839
			c1.097,3.621-1.508,11.1-7.811,22.437c-4.913,8.889-10.676,16.665-17.278,23.325c-6.601,6.66-13.296,11.018-20.073,13.068
			c-6.967,2.106-13.177,1.351-18.634-2.271c-3.705-2.53-6.428-6.674-8.17-12.434c-4.748-15.696-2.017-33.303,8.202-52.82
			c8.271-15.886,16.867-25.178,25.783-27.875c2.415-0.731,4.822-0.646,7.223,0.248c3.004,1.221,4.986,3.411,5.941,6.567
			c1.489,4.923,1.041,11.651-1.349,20.178C518.4,335.186,507.386,349.724,490.246,361.091z M490.022,349.296
			c5.827-4.197,10.179-8.249,13.051-12.16c4.983-6.983,8.423-14.208,10.323-21.677c0.718-2.652,0.813-4.857,0.277-6.622
			c-0.563-1.858-1.729-2.521-3.491-1.987c-2.418,0.731-5.302,3.58-8.667,8.552C495.465,324.228,491.636,335.527,490.022,349.296z"/>
		<path fill="none" stroke="#050101" stroke-width="3.9543" stroke-miterlimit="10" d="M614.292,251.779
			c5.757-1.742,10.386-2.025,13.883-0.855c3.497,1.175,5.881,3.849,7.145,8.029c1.659,5.481,1.216,11.395-1.325,17.739
			c-2.439,6.01-7.111,11.682-14.017,17.015c-3.794,2.874-7.132,4.744-10.01,5.613c-3.901,1.181-6.371,0.053-7.41-3.385
			c-0.703-2.321-0.123-4.423,1.737-6.305c0.477-0.448,3.395-2.19,8.761-5.236c3.212-1.781,5.879-4.363,7.999-7.743
			c1.863-2.895,2.411-5.595,1.653-8.104c-0.59-1.951-1.581-3.221-2.977-3.813c-1.396-0.59-3.209-0.55-5.438,0.124
			c-5.388,1.631-10.673,5.612-15.854,11.944c-6.033,7.201-8.025,14.191-5.975,20.97c1.462,4.832,5.749,10.124,12.865,15.878
			c7.867,6.239,12.632,12.098,14.29,17.577c2.473,8.175,0.789,15.681-5.05,22.516c-3.589,4.228-8.219,7.198-13.882,8.914
			c-8.917,2.696-16.664,1.543-23.25-3.46c-4.627-3.567-7.883-8.464-9.767-14.688c-2.192-7.245-2.172-13.89,0.054-19.938
			c1.432-3.98,3.445-6.366,6.047-7.151c2.319-0.703,3.764-0.125,4.326,1.731c0.225,0.745,0.144,1.985-0.242,3.723
			c-0.93,4.643-0.577,9.658,1.052,15.042c1.377,4.553,4.169,7.916,8.374,10.09c3.723,1.914,7.442,2.311,11.158,1.188
			c3.623-1.098,6.089-3.16,7.403-6.195c1.054-2.548,1.104-5.403,0.147-8.563c-1.18-3.899-4.941-8.287-11.283-13.162
			c-8.715-6.69-14.127-13.519-16.233-20.486c-2.81-9.289-0.237-19.04,7.725-29.256C593.966,261.681,603.33,255.096,614.292,251.779z
			"/>
	</g>
	<g>
		<path fill="#006837" d="M573.803,239.707c0,0-4.333,1.557-11.916,4.281c-7.576,2.744-18.44,6.544-31.457,11.166
			c-6.511,2.304-13.563,4.801-21.023,7.441c-7.47,2.611-15.347,5.365-23.496,8.214c-16.313,5.653-33.714,11.684-51.115,17.714
			c-69.617,24.082-139.235,48.164-139.235,48.164l-0.032-0.094c0,0,69.504-24.408,139.008-48.817
			c17.379-6.092,34.758-12.185,51.052-17.896c8.154-2.834,16.036-5.573,23.511-8.17c7.485-2.568,14.563-4.997,21.095-7.238
			c13.068-4.471,23.941-8.247,31.582-10.806c7.634-2.579,11.995-4.053,11.995-4.053L573.803,239.707z"/>
	</g>
	<g opacity="0.5">
		
			<pattern  id="SVGID_26_" xlink:href="#Foliage" patternTransform="matrix(0.9787 -0.1398 0.1398 0.9787 679.3789 -1018.0532)"  opacity="0.5">
		</pattern>
		<path fill="url(#SVGID_26_)" stroke="#050101" stroke-width="3.9543" stroke-miterlimit="10" d="M126.599,296.493
			c-19.68,9.447-37.598,19.32-53.75,29.615c-3.312,2.467-6,4.013-8.064,4.637c-2.376,0.721-4.717,0.243-7.024-1.426
			c-1.408-0.926-2.359-2.213-2.86-3.867c-1.342-4.438,0.872-8.657,6.649-12.659c15.574-10.346,34.322-21.203,56.238-32.566
			c27.523-14.073,54.701-25.168,81.544-33.29c9.084-2.749,15.346-4.022,18.788-3.825c3.203,0.158,5.244,1.684,6.115,4.573
			c1.47,4.852-1.233,8.768-8.107,11.748c-6.008,2.495-15.21,5.788-27.607,9.874c-24.629,8.355-41.198,15.058-49.699,20.107
			c2.893,0.253,4.669,1.461,5.328,3.629c0.686,2.271,0.111,6.333-1.724,12.184c-10.935,34.636-19.819,72.877-26.652,114.72
			c-5.256,31.792-7.787,59.377-7.589,82.754c0.522,6.942-0.972,10.943-4.481,12.005c-3.2,0.97-6.382,0.129-9.551-2.518
			c-2.1-1.732-3.51-3.784-4.229-6.158c-2.872-9.498-0.837-35.353,6.112-77.575c4.409-27.136,9.067-50.298,13.971-69.47
			c1.926-7.794,6.733-25.982,14.425-54.569L126.599,296.493z"/>
		
			<pattern  id="SVGID_27_" xlink:href="#Foliage" patternTransform="matrix(0.9787 -0.1398 0.1398 0.9787 679.3789 -1018.0532)"  opacity="0.5">
		</pattern>
		<path fill="url(#SVGID_27_)" stroke="#050101" stroke-width="3.9543" stroke-miterlimit="10" d="M179.684,422.045
			c4.709-9.23,9.769-17.302,15.182-24.213c6.969-8.801,12.359-13.775,16.167-14.929c1.577-0.478,3.309-0.289,5.188,0.562
			c2.122,0.98,3.478,2.446,4.067,4.396c0.758,2.508-0.059,7.014-2.45,13.516c-4.62,12.554-7.663,23.61-9.126,33.177
			c-1.337,8.313-1.613,13.771-0.827,16.371c0.758,2.506,2.345,3.397,4.762,2.667c5.015-1.518,10.768-12.993,17.264-34.424
			c1.318-4.354,2.956-6.824,4.905-7.413c1.951-0.592,3.262,0.228,3.937,2.456c1.097,3.623-0.34,11.612-4.307,23.964
			c-3.434,10.771-7.776,19.538-13.032,26.3c-3.753,4.685-7.535,7.601-11.342,8.753c-3.995,1.209-7.396,0.363-10.198-2.541
			c-1.762-1.798-3.036-3.999-3.822-6.6c-2.5-8.267-2.429-18.581,0.221-30.94c0.635-2.929,2.651-11.346,6.048-25.249
			c-16.053,15.3-25.825,40.813-29.311,76.543c-0.113,3.989-1.42,6.361-3.93,7.12c-1.764,0.532-3.386,0.366-4.867-0.504
			c-1.507-0.964-2.541-2.374-3.104-4.231c-0.928-3.066-0.582-12.65,1.034-28.753c3.016-29.908,6.525-55.507,10.53-76.792
			c3.945-21.471,4.523-26.798,10.185-50.311c1.325-5.672,2.522-9.583,3.596-11.733c1.073-2.148,2.493-3.492,4.258-4.024
			c1.672-0.507,3.378-0.06,5.12,1.339c1.321,1.021,2.237,2.365,2.743,4.037c0.787,2.603,0.354,6.534-1.298,11.799
			c-5.339,18.548-5.939,21.447-10.258,43.031C182.351,398.527,179.906,414.069,179.684,422.045z"/>
		
			<pattern  id="SVGID_28_" xlink:href="#Foliage" patternTransform="matrix(0.9787 -0.1398 0.1398 0.9787 679.3789 -1018.0532)"  opacity="0.5">
		</pattern>
		<path fill="url(#SVGID_28_)" stroke="#050101" stroke-width="3.9543" stroke-miterlimit="10" d="M303.01,404.353
			c-5.318,12.255-9.721,21.494-13.211,27.722c-6.942,12.239-13.667,19.341-20.166,21.308c-3.158,0.955-6.014,0.556-8.578-1.208
			c-1.957-1.434-3.355-3.545-4.198-6.333c-3.036-10.03-1.122-25.156,5.736-45.381c6.959-20.557,13.134-31.653,18.522-33.282
			c1.485-0.449,2.984-0.193,4.491,0.768c1.332,0.716,2.206,1.768,2.628,3.162c0.619,2.044,0.625,3.992,0.021,5.849
			c-0.605,1.855-2.615,6.188-6.029,13c-3.635,7.083-6.713,14.503-9.232,22.26c-2.918,8.792-3.871,14.858-2.859,18.203
			c0.591,1.949,1.813,2.645,3.671,2.083c3.714-1.125,9.15-8.294,16.305-21.51c4.471-8.35,7.858-15.251,10.159-20.715
			c0.462-1.152,2.377-6.547,5.747-16.187c3.095-8.539,5.049-13.641,5.864-15.31c1.802-4.092,3.909-6.506,6.325-7.236
			c1.485-0.449,3.032-0.205,4.632,0.729c1.481,0.871,2.459,2.095,2.937,3.673c0.814,2.694,0.319,7.761-1.485,15.202
			c-2.125,9.059-4.036,17.494-5.727,25.306c-2.706,12.173-4.4,22.825-5.085,31.954c4.905-5.234,9.059-11.105,12.465-17.611
			c5.832-10.889,9.056-18.656,9.679-23.307c0.639-4.247,1.888-6.654,3.748-7.219c2.599-0.785,4.292,0.122,5.081,2.722
			c1.489,4.925-0.471,13.525-5.88,25.809c-6.49,14.738-15.838,28.415-28.041,41.029c-2.126,21.12-4.803,38.914-8.031,53.375
			c-6.124,26.691-16.098,42.131-29.939,46.317c-5.666,1.715-10.878,0.909-15.637-2.416c-3.706-2.529-6.33-6.349-7.875-11.457
			c-4.385-14.489,1.304-32.384,17.065-53.677c4.596-6.258,11.734-14.5,21.416-24.729c3.922-4.126,6.975-7.433,9.164-9.919
			c0.38-4.778,1.219-11.218,2.521-19.316C300.72,419.242,301.983,411.355,303.01,404.353z M293.939,466.864
			c-8.331,7.996-16.242,18.196-23.743,30.604c-7.509,12.713-10.014,23.203-7.513,31.472c0.534,1.763,1.498,3.096,2.882,3.995
			c1.899,1.25,3.963,1.538,6.193,0.863c6.966-2.106,12.471-11.732,16.509-28.87c0.663-2.839,2.041-12.024,4.134-27.563
			C292.858,474.188,293.37,470.687,293.939,466.864z"/>
		
			<pattern  id="SVGID_29_" xlink:href="#Foliage" patternTransform="matrix(0.9787 -0.1398 0.1398 0.9787 679.3789 -1018.0532)"  opacity="0.5">
		</pattern>
		<path fill="url(#SVGID_29_)" stroke="#050101" stroke-width="3.9543" stroke-miterlimit="10" d="M383.55,371.926
			c5.332-10.533,10.266-19.021,14.806-25.467c6.9-9.69,11.887-15.001,14.951-15.928c1.485-0.45,2.955-0.286,4.406,0.491
			c1.33,0.714,2.179,1.674,2.546,2.879c0.533,1.766-0.221,5.139-2.265,10.113c-3.104,7.837-4.959,14.275-5.559,19.324
			c15.132-28.402,26.689-43.813,34.676-46.229c1.676-0.507,3.269-0.431,4.787,0.226c1.635,0.72,2.709,1.916,3.215,3.589
			c0.787,2.601-0.202,6.552-2.957,11.844c-12.075,23.426-16.357,40.942-12.845,52.553c1.434,4.738,3.296,7.876,5.585,9.412
			l5.014,3.502c0.994,0.612,1.691,1.567,2.084,2.867c0.451,1.487,0.267,3.064-0.549,4.728c-0.941,1.911-2.297,3.13-4.062,3.663
			c-3.064,0.928-6.489-0.165-10.269-3.28c-4.563-3.688-7.8-8.689-9.711-15.008c-2.558-8.452-2.727-17.729-0.51-27.829
			c0.743-3.572,2.295-8.499,4.649-14.79c-6.097,8.334-11.659,18.94-16.685,31.815c-3.438,8.745-6.063,18.159-7.883,28.237
			c-0.874,4.826-2.748,7.675-5.628,8.546c-3.157,0.956-5.27-0.33-6.336-3.86c-1.153-3.807-0.929-12.443,0.679-25.906
			c0.92-7.679,2.424-15.942,4.513-24.789c-12.173,17.066-19.078,37.307-20.717,60.713c-0.544,5.236-2.44,8.344-5.694,9.328
			c-1.484,0.449-2.861,0.257-4.127-0.576c-1.358-0.807-2.278-1.997-2.756-3.576c-1.657-5.481-1.585-16.301,0.218-32.461
			c1.828-17.076,4.957-32.877,9.383-47.398c3.018-10.137,6.059-15.671,9.124-16.599c2.785-0.843,4.629,0.222,5.526,3.192
			c0.395,1.303-0.342,5.074-2.202,11.315C385.87,358.145,384.07,366.598,383.55,371.926z"/>
		
			<pattern  id="SVGID_30_" xlink:href="#Foliage" patternTransform="matrix(0.9787 -0.1398 0.1398 0.9787 679.3789 -1018.0532)"  opacity="0.5">
		</pattern>
		<path fill="url(#SVGID_30_)" stroke="#050101" stroke-width="3.9543" stroke-miterlimit="10" d="M490.246,361.091l0.76,2.51
			c0.615,2.043,1.66,3.653,3.134,4.829c3.36,2.735,7.691,3.299,12.982,1.699c11.612-3.513,22.334-16.489,32.176-38.934
			c1.764-3.879,3.575-6.101,5.436-6.662c1.02-0.312,2.102-0.08,3.249,0.688c0.782,0.577,1.272,1.187,1.468,1.839
			c1.097,3.621-1.508,11.1-7.811,22.437c-4.913,8.889-10.676,16.665-17.278,23.325c-6.601,6.66-13.296,11.018-20.073,13.068
			c-6.967,2.106-13.177,1.351-18.634-2.271c-3.705-2.53-6.428-6.674-8.17-12.434c-4.748-15.696-2.017-33.303,8.202-52.82
			c8.271-15.886,16.867-25.178,25.783-27.875c2.415-0.731,4.822-0.646,7.223,0.248c3.004,1.221,4.986,3.411,5.941,6.567
			c1.489,4.923,1.041,11.651-1.349,20.178C518.4,335.186,507.386,349.724,490.246,361.091z M490.022,349.296
			c5.827-4.197,10.179-8.249,13.051-12.16c4.983-6.983,8.423-14.208,10.323-21.677c0.718-2.652,0.813-4.857,0.277-6.622
			c-0.563-1.858-1.729-2.521-3.491-1.987c-2.418,0.731-5.302,3.58-8.667,8.552C495.465,324.228,491.636,335.527,490.022,349.296z"/>
		
			<pattern  id="SVGID_31_" xlink:href="#Foliage" patternTransform="matrix(0.9787 -0.1398 0.1398 0.9787 679.3789 -1018.0532)"  opacity="0.5">
		</pattern>
		<path fill="url(#SVGID_31_)" stroke="#050101" stroke-width="3.9543" stroke-miterlimit="10" d="M614.292,251.779
			c5.757-1.742,10.386-2.025,13.883-0.855c3.497,1.175,5.881,3.849,7.145,8.029c1.659,5.481,1.216,11.395-1.325,17.739
			c-2.439,6.01-7.111,11.682-14.017,17.015c-3.794,2.874-7.132,4.744-10.01,5.613c-3.901,1.181-6.371,0.053-7.41-3.385
			c-0.703-2.321-0.123-4.423,1.737-6.305c0.477-0.448,3.395-2.19,8.761-5.236c3.212-1.781,5.879-4.363,7.999-7.743
			c1.863-2.895,2.411-5.595,1.653-8.104c-0.59-1.951-1.581-3.221-2.977-3.813c-1.396-0.59-3.209-0.55-5.438,0.124
			c-5.388,1.631-10.673,5.612-15.854,11.944c-6.033,7.201-8.025,14.191-5.975,20.97c1.462,4.832,5.749,10.124,12.865,15.878
			c7.867,6.239,12.632,12.098,14.29,17.577c2.473,8.175,0.789,15.681-5.05,22.516c-3.589,4.228-8.219,7.198-13.882,8.914
			c-8.917,2.696-16.664,1.543-23.25-3.46c-4.627-3.567-7.883-8.464-9.767-14.688c-2.192-7.245-2.172-13.89,0.054-19.938
			c1.432-3.98,3.445-6.366,6.047-7.151c2.319-0.703,3.764-0.125,4.326,1.731c0.225,0.745,0.144,1.985-0.242,3.723
			c-0.93,4.643-0.577,9.658,1.052,15.042c1.377,4.553,4.169,7.916,8.374,10.09c3.723,1.914,7.442,2.311,11.158,1.188
			c3.623-1.098,6.089-3.16,7.403-6.195c1.054-2.548,1.104-5.403,0.147-8.563c-1.18-3.899-4.941-8.287-11.283-13.162
			c-8.715-6.69-14.127-13.519-16.233-20.486c-2.81-9.289-0.237-19.04,7.725-29.256C593.966,261.681,603.33,255.096,614.292,251.779z
			"/>
	</g>
</g>
</svg>
