<?xml version="1.0" encoding="utf-8"?>
<!-- Generator: Adobe Illustrator 16.0.0, SVG Export Plug-In . SVG Version: 6.00 Build 0)  -->
<!DOCTYPE svg PUBLIC "-//W3C//DTD SVG 1.1//EN" "http://www.w3.org/Graphics/SVG/1.1/DTD/svg11.dtd">
<svg version="1.1" id="Layer_2" xmlns="http://www.w3.org/2000/svg" xmlns:xlink="http://www.w3.org/1999/xlink" x="0px" y="0px"
	 width="415px" height="325.685px" viewBox="271.5 0 415 325.685" enable-background="new 271.5 0 415 325.685"
	 xml:space="preserve">
<g>
	<path d="M684.069,67.716c0,69.339,0,138.678,0,208.018c-5.366,17.607-17.022,21.414-31.362,21.014
		c-18.917-0.527-37.861-0.057-56.793-0.193c-3.619-0.025-6.647,0.816-9.723,2.73c-20.868,12.988-43.695,20.264-68.151,21.873
		c-32.436,2.137-62.645-5.303-90.453-22.33c-2.121-1.299-4.914-2.109-7.397-2.117c-39.463-0.131-78.93-0.129-118.396-0.059
		c-6.475,0.014-12.365-1.35-17.6-5.318c-5.255-3.982-7.806-9.586-9.759-15.6c0-69.34,0-138.679,0-208.018
		c2.312-9.644,6.941-17.813,16.436-21.711c5.158-2.119,10.947-2.702,17.022-4.109c0-5.966-0.034-12.596,0.008-19.226
		c0.074-11.737,6.575-18.269,18.336-18.314c15.194-0.057,30.387-0.046,45.581-0.004c12.197,0.033,18.642,6.562,18.671,18.812
		c0.016,6.487,0.003,12.975,0.003,19.816c9.238,0,18.01-0.193,26.769,0.077c4.85,0.149,8.911-1.062,13.072-3.622
		c16.761-10.308,35.044-16.804,54.48-19.576c36.694-5.233,70.979,1.763,102.676,21.177c1.905,1.167,4.432,1.845,6.675,1.862
		c19.724,0.142,39.453-0.132,59.171,0.23c5.043,0.092,10.383,1.245,15.006,3.248C677.46,50.326,681.817,58.386,684.069,67.716z
		 M643.052,170c0.171-74.524-60.837-135.623-135.557-135.754C433.01,34.112,372.369,94.63,371.976,169.49
		c-0.392,74.68,60.233,135.583,135.21,135.831C581.846,305.566,642.88,244.777,643.052,170z M403.446,59.135
		c-2.43,0-3.623,0-4.817,0c-30.797,0-61.595-0.004-92.392,0.002c-11.291,0.002-15.657,4.417-15.657,15.803
		c-0.001,64.261-0.004,128.522,0.017,192.783c0.001,1.85,0.124,3.727,0.446,5.545c0.713,4.029,3.36,6.584,7.252,6.898
		c5.248,0.426,10.556,0.105,16.252,0.105c0-1.93,0-3.502,0-5.076c0-18.53-0.017-37.062,0.025-55.594
		c0.005-1.982,0.148-4.014,0.597-5.937c0.797-3.413,4.213-5.937,7.636-5.95c3.387-0.016,6.885,2.521,7.691,5.895
		c0.459,1.919,0.603,3.952,0.608,5.935c0.043,18.665,0.02,37.331,0.036,55.996c0.001,1.541,0.146,3.08,0.227,4.693
		c23.957,0,47.467,0,71.734,0c-30.953-30.748-47.516-67.272-47.513-110.403C355.591,126.685,372.17,90.157,403.446,59.135z
		 M611.452,59.135c31.075,30.882,47.753,67.287,47.816,110.453c0.065,43.325-16.577,79.88-47.553,110.716
		c1.564,0.068,2.454,0.141,3.344,0.141c14,0.006,28,0.031,42-0.008c7.319-0.02,10.844-3.447,10.847-10.748
		c0.029-65.599,0.029-131.197,0.002-196.796c-0.005-8.627-5.026-13.656-13.693-13.731c-10.799-0.094-21.6-0.025-32.399-0.026
		C618.665,59.135,615.515,59.135,611.452,59.135z M349.235,20.876c-7.062,0-14.125,0.094-21.184-0.046
		c-2.806-0.055-3.78,0.976-3.688,3.735c0.156,4.658,0.114,9.328,0.016,13.989c-0.049,2.348,0.793,3.396,3.232,3.387
		c14.39-0.05,28.779-0.048,43.169,0.001c2.37,0.008,3.37-0.893,3.315-3.311c-0.104-4.528-0.166-9.065,0.02-13.587
		c0.126-3.075-0.886-4.308-4.096-4.225C363.094,21.001,356.163,20.876,349.235,20.876z"/>
	<path fill="none" d="M684.069,67.716c-2.252-9.33-6.608-17.39-15.729-21.341c-4.623-2.003-9.963-3.156-15.006-3.248
		c-19.718-0.363-39.447-0.088-59.171-0.23c-2.243-0.017-4.77-0.695-6.676-1.862c-31.696-19.414-65.979-26.41-102.675-21.177
		c-19.437,2.772-37.72,9.268-54.48,19.576c-4.162,2.56-8.223,3.771-13.072,3.622c-8.759-0.27-17.531-0.077-26.769-0.077
		c0-6.841,0.013-13.329-0.003-19.816c-0.029-12.25-6.474-18.778-18.671-18.812c-15.193-0.042-30.387-0.053-45.581,0.004
		C314.475,4.4,307.974,10.932,307.9,22.669c-0.042,6.63-0.008,13.26-0.008,19.226c-6.075,1.408-11.864,1.991-17.022,4.109
		c-9.495,3.899-14.125,12.067-16.436,21.711c0-36.513,0-73.027,0-109.574c136.545,0,273.09,0,409.636,0
		C684.069-5.311,684.069,31.202,684.069,67.716z"/>
	<path fill="none" d="M274.434,275.734c1.954,6.014,4.504,11.617,9.759,15.6c5.235,3.969,11.125,5.332,17.6,5.318
		c39.465-0.07,78.931-0.072,118.396,0.059c2.483,0.008,5.276,0.818,7.397,2.117c27.809,17.027,58.019,24.467,90.453,22.33
		c24.456-1.609,47.283-8.885,68.151-21.873c3.074-1.914,6.104-2.758,9.723-2.73c18.932,0.137,37.876-0.334,56.793,0.193
		c14.34,0.4,25.996-3.406,31.362-21.014c0,30.668,0,61.338,0,92.008c-136.545,0-273.09,0-409.635,0
		C274.434,337.072,274.434,306.402,274.434,275.734z"/>
	<path fill="#C4C4C4" d="M643.052,170c-0.172,74.776-61.206,135.565-135.865,135.319c-74.977-0.248-135.602-61.15-135.21-135.829
		c0.393-74.859,61.034-135.378,135.52-135.246C582.215,34.378,643.223,95.475,643.052,170z M392.39,172.354
		c0.317,3.536,0.489,9.696,1.47,15.724c10.456,64.209,72.069,107.163,135.701,94.723c77.281-15.109,117.074-102.878,77.299-170.699
		c-3.288-5.607-7.234-10.869-11.263-15.987c-2.893-3.676-7.836-4.041-11.077-1.47c-3.413,2.708-4.104,7.143-1.607,11.107
		c1.061,1.686,2.375,3.21,3.553,4.825c17.72,24.298,23.91,51.33,17.352,80.604c-9.067,40.483-40.152,69.225-81.054,76.241
		c-37.864,6.496-78.872-11.811-98.624-44.705c-21.38-35.604-21.321-71.682,0.775-106.784c15.308-24.319,38.069-38.553,66.515-43.522
		c11.58-2.023,23.07-1.439,34.618,0.229c5.845,0.845,9.636-1.847,10.432-6.731c0.74-4.548-2.576-8.291-8.354-9.245
		c-12.969-2.14-25.928-2.502-38.979-0.375C433.492,65.366,392.561,113.305,392.39,172.354z M572.232,79.032
		c-0.094-4.306-3.941-8.111-8.218-8.126c-4.348-0.015-8.047,3.787-7.99,8.209c0.057,4.351,3.833,8.045,8.208,8.029
		C568.726,87.127,572.328,83.473,572.232,79.032z"/>
	<path fill="#666666" d="M403.446,59.135c-31.275,31.021-47.854,67.55-47.858,110.694c-0.003,43.131,16.56,79.655,47.513,110.403
		c-24.267,0-47.777,0-71.734,0c-0.081-1.611-0.225-3.152-0.227-4.693c-0.016-18.665,0.007-37.331-0.036-55.996
		c-0.005-1.981-0.149-4.016-0.608-5.935c-0.806-3.373-4.304-5.909-7.691-5.895c-3.422,0.015-6.839,2.537-7.636,5.95
		c-0.448,1.923-0.592,3.954-0.597,5.937c-0.042,18.532-0.025,37.063-0.025,55.594c0,1.574,0,3.146,0,5.076
		c-5.697,0-11.004,0.32-16.252-0.105c-3.892-0.314-6.539-2.869-7.252-6.898c-0.322-1.818-0.445-3.695-0.446-5.545
		c-0.021-64.26-0.019-128.521-0.017-192.783c0-11.386,4.366-15.8,15.657-15.803c30.797-0.006,61.594-0.002,92.392-0.002
		C399.821,59.135,401.017,59.135,403.446,59.135z M322.992,191.942c4.486-0.077,8.122-3.811,8.021-8.237
		c-0.102-4.437-3.88-8.039-8.343-7.955c-4.453,0.084-8.119,3.871-8.015,8.279C314.761,188.498,318.471,192.02,322.992,191.942z"/>
	<path fill="#666666" d="M611.452,59.135c4.063,0,7.213,0,10.362,0c10.8,0.001,21.602-0.068,32.399,0.026
		c8.667,0.076,13.688,5.104,13.693,13.731c0.027,65.599,0.027,131.198-0.003,196.795c-0.003,7.303-3.525,10.73-10.846,10.75
		c-14,0.037-28,0.014-42,0.006c-0.89,0-1.779-0.07-3.344-0.141c30.976-30.835,47.618-67.39,47.553-110.715
		C659.205,126.422,642.528,90.017,611.452,59.135z"/>
	<path fill="#C4C4C4" d="M349.235,20.876c6.929,0,13.86,0.125,20.784-0.057c3.21-0.083,4.222,1.149,4.096,4.225
		c-0.186,4.522-0.124,9.06-0.02,13.587c0.055,2.418-0.945,3.318-3.315,3.311c-14.39-0.049-28.779-0.051-43.169-0.001
		c-2.439,0.009-3.282-1.039-3.232-3.387c0.098-4.661,0.141-9.331-0.016-13.989c-0.092-2.759,0.882-3.791,3.688-3.735
		C335.109,20.97,342.173,20.876,349.235,20.876z"/>
	
		<radialGradient id="SVGID_1_" cx="423.5718" cy="365.7559" r="102.3127" gradientTransform="matrix(1 0 0 -1 84 535)" gradientUnits="userSpaceOnUse">
		<stop  offset="0" style="stop-color:#FFFFFF"/>
		<stop  offset="1" style="stop-color:#7CC1EE"/>
	</radialGradient>
	<circle fill="url(#SVGID_1_)" stroke="#7CC1EE" stroke-miterlimit="10" cx="507.571" cy="169.244" r="102.313"/>
	<path d="M392.39,172.354c0.171-59.049,41.104-106.988,96.755-116.064c13.05-2.128,26.009-1.766,38.979,0.375
		c5.778,0.954,9.096,4.696,8.354,9.245c-0.796,4.884-4.587,7.576-10.432,6.731c-11.548-1.668-23.038-2.252-34.618-0.229
		c-28.445,4.969-51.207,19.203-66.515,43.522c-22.098,35.102-22.155,71.179-0.775,106.784c19.752,32.895,60.76,51.2,98.624,44.704
		c40.9-7.016,71.985-35.756,81.054-76.24c6.56-29.275,0.368-56.306-17.352-80.604c-1.178-1.614-2.492-3.139-3.553-4.825
		c-2.497-3.964-1.806-8.398,1.607-11.107c3.241-2.571,8.186-2.207,11.077,1.47c4.027,5.118,7.976,10.38,11.263,15.987
		c39.775,67.82-0.018,155.588-77.299,170.698c-63.631,12.439-125.245-30.513-135.701-94.721
		C392.879,182.05,392.707,175.89,392.39,172.354z"/>
	<path d="M572.232,79.032c0.097,4.441-3.507,8.095-8,8.112c-4.375,0.017-8.151-3.678-8.208-8.029
		c-0.057-4.423,3.644-8.224,7.99-8.209C568.29,70.921,572.139,74.726,572.232,79.032z"/>
	<path fill="#EF0606" d="M322.992,191.942c-4.521,0.078-8.231-3.444-8.337-7.913c-0.104-4.408,3.562-8.195,8.015-8.279
		c4.463-0.084,8.242,3.52,8.343,7.955C331.114,188.131,327.479,191.865,322.992,191.942z"/>
</g>
</svg>
