<?xml version="1.0" encoding="utf-8"?><!--Generator: Adobe Illustrator 16.0.0, SVG Export Plug-In . SVG Version: 6.00 Build 0)--><!DOCTYPE svg PUBLIC "-//W3C//DTD SVG 1.1//EN" "http://www.w3.org/Graphics/SVG/1.1/DTD/svg11.dtd"><svg version="1.1" id="Layer_2" xmlns="http://www.w3.org/2000/svg" xmlns:xlink="http://www.w3.org/1999/xlink" x="0px" y="0px" width="415px" height="325.685px" viewBox="271.5 0 415 325.685" enable-background="new 271.5 0 415 325.685" xml:space="preserve"><polygon fill="#FFFF66" points="637.41,150.728 637.41,150.721 672.312,132.189 637.41,113.657 614.008,101.223 613.906,101.172 
	672.312,70.155 555.5,8.127 438.688,70.155 497.095,101.172 496.992,101.223 473.59,113.657 438.688,132.189 473.59,150.721 
	473.59,150.728 496.992,163.155 497.095,163.206 438.688,194.223 497.095,225.24 438.688,256.257 555.5,318.284 672.312,256.257 
	613.906,225.24 672.312,194.223 613.906,163.206 614.008,163.155 "/><polygon fill="#FF9999" points="672.312,256.257 555.5,318.284 438.688,256.257 497.095,225.24 555.5,256.257 613.906,225.24 "/><polygon fill="#66CCFF" points="672.312,194.223 613.906,225.24 555.5,256.257 497.095,225.24 438.688,194.223 497.095,163.206 
	520.395,175.583 543.598,187.9 555.5,194.223 567.204,188.009 590.605,175.583 613.906,163.206 "/><g><polygon fill="#EFEFEF" points="473.59,113.657 473.59,150.721 438.688,132.189 	"/><polygon fill="#EFEFEF" points="496.992,101.223 496.992,163.155 473.59,150.728 473.59,150.721 473.59,113.657 	"/><polygon fill="#EFEFEF" points="520.395,113.548 520.395,175.583 497.095,163.206 496.992,163.155 496.992,101.223 
		497.095,101.172 	"/><polygon fill="#EFEFEF" points="543.796,125.975 543.796,187.523 543.598,187.9 520.395,175.583 520.395,113.548 	"/><polygon fill="#EFEFEF" points="567.204,125.975 567.204,188.009 555.5,194.223 543.598,187.9 543.796,187.523 543.796,125.975 
		555.5,132.189 	"/><polygon fill="#EFEFEF" points="590.605,113.548 590.605,175.583 567.204,188.009 567.204,125.975 	"/><polygon fill="#EFEFEF" points="614.008,101.223 614.008,163.155 613.906,163.206 590.605,175.583 590.605,113.548 
		613.906,101.172 	"/><polygon fill="#EFEFEF" points="637.41,150.721 637.41,150.728 614.008,163.155 614.008,101.223 637.41,113.657 	"/><polygon fill="#EFEFEF" points="672.312,132.189 637.41,150.721 637.41,113.657 	"/></g><path d="M432.29,256.258c0,2.368,1.308,4.542,3.398,5.652L552.5,323.938c0.938,0.497,1.969,0.747,3,0.747
	c1.03,0,2.063-0.25,3.001-0.747l116.812-62.027c2.09-1.111,3.398-3.285,3.398-5.652s-1.308-4.542-3.398-5.651l-47.764-25.365
	l47.764-25.366c2.091-1.11,3.398-3.284,3.398-5.652c0-2.367-1.308-4.541-3.398-5.651l-47.76-25.363l12.857-6.829
	c0.079-0.042,0.155-0.085,0.231-0.129l34.669-18.409c2.092-1.11,3.399-3.284,3.399-5.652c0-2.367-1.308-4.542-3.399-5.651
	l-47.76-25.367l47.761-25.363c2.091-1.111,3.397-3.285,3.397-5.652c0-2.368-1.308-4.542-3.399-5.651L558.5,2.477
	c-1.877-0.997-4.126-0.997-6.002,0L435.688,64.504c-2.091,1.109-3.398,3.283-3.398,5.651c0,2.367,1.307,4.542,3.398,5.652
	l47.76,25.364l-47.76,25.366c-2.091,1.11-3.399,3.285-3.399,5.652s1.308,4.542,3.399,5.652l34.668,18.409
	c0.076,0.044,0.153,0.087,0.232,0.129l12.858,6.829l-47.76,25.363c-2.091,1.11-3.398,3.285-3.398,5.652
	c0,2.367,1.307,4.542,3.398,5.652l47.764,25.365l-47.764,25.365C433.597,251.716,432.29,253.89,432.29,256.258z M573.604,177.363
	V129.82l10.603-5.631v47.543L573.604,177.363z M555.5,186.978l-5.305-2.817v-47.542l2.305,1.224c0.938,0.498,1.969,0.747,3,0.747
	c1.03,0,2.063-0.25,3.001-0.747l2.304-1.224v47.543L555.5,186.978z M503.391,159.305v-47.543l10.604,5.632v47.542L503.391,159.305z
	 M479.989,117.5l10.604-5.632v40.642l-10.604-5.63V117.5z M526.793,124.189l10.604,5.631v47.542l-10.604-5.631V124.189z
	 M597.006,117.394l10.602-5.632v47.543l-10.602,5.631V117.394z M631.011,146.88l-10.603,5.632v-40.643l10.603,5.632V146.88z
	 M643.809,140.078v-15.78l14.857,7.892L643.809,140.078z M555.5,15.373l103.166,54.782L555.5,124.944l-8.286-4.4
	c-0.28-0.176-0.573-0.335-0.88-0.468L500.096,95.52v0l-47.762-25.364L555.5,15.373z M467.191,124.298v15.78l-14.857-7.888
	L467.191,124.298z M497.094,170.453l20.209,10.732c0.034,0.018,0.069,0.037,0.104,0.054l35.091,18.634
	c0.938,0.499,1.97,0.748,3.001,0.748s2.063-0.25,3.001-0.747l11.688-6.208c0.036-0.018,0.071-0.038,0.106-0.056l23.282-12.364
	c0.043-0.023,0.086-0.045,0.129-0.07l20.198-10.725l44.763,23.771l-47.756,25.362c-0.011,0.004-0.02,0.011-0.031,0.015
	l-55.381,29.413L500.115,219.6c-0.009-0.004-0.018-0.01-0.027-0.014l-47.757-25.362L497.094,170.453z M497.095,232.487
	l55.403,29.423c0.938,0.497,1.97,0.747,3.002,0.747c1.03,0,2.063-0.25,3.001-0.747l55.403-29.423l44.762,23.771L555.5,311.04
	l-103.167-54.782L497.095,232.487z"/><path d="M555.439,111.285c0.898,0,1.812-0.189,2.68-0.59l51.226-23.645c3.208-1.481,4.608-5.284,3.127-8.493
	c-1.48-3.209-5.283-4.609-8.492-3.128l-51.226,23.645c-3.209,1.481-4.607,5.284-3.128,8.493
	C550.706,109.906,553.021,111.285,555.439,111.285z"/><path d="M625.77,78.656c8.235,0,8.249-12.799,0-12.799C617.535,65.856,617.521,78.656,625.77,78.656z"/></svg>