<?xml version="1.0" encoding="utf-8"?>
<!-- Generator: Adobe Illustrator 16.0.0, SVG Export Plug-In . SVG Version: 6.00 Build 0)  -->
<!DOCTYPE svg PUBLIC "-//W3C//DTD SVG 1.1//EN" "http://www.w3.org/Graphics/SVG/1.1/DTD/svg11.dtd">
<svg version="1.1" id="Layer_2" xmlns="http://www.w3.org/2000/svg" xmlns:xlink="http://www.w3.org/1999/xlink" x="0px" y="0px"
	 width="415px" height="325.685px" viewBox="271.5 0 415 325.685" enable-background="new 271.5 0 415 325.685"
	 xml:space="preserve">
<rect x="374.317" y="10.592" fill="#EFEFEF" width="304.165" height="304.165"/>
<rect x="372.6" y="10.592" fill="#66CCFF" width="304.163" height="49.323"/>
<rect x="372.6" y="10.592" fill="#FFFF66" width="49.323" height="49.323"/>
<rect x="627.439" y="10.592" fill="#FF9999" width="49.323" height="49.323"/>
<path d="M642.495,184.892l-62.204-55.326c-3.393-3.018-8.588-2.713-11.605,0.679c-3.017,3.392-2.715,8.587,0.68,11.605
	l55.297,49.185l-55.299,49.183c-3.393,3.017-3.695,8.213-0.678,11.606c1.625,1.827,3.878,2.757,6.146,2.757
	c1.94,0,3.894-0.685,5.46-2.079l62.204-55.326c1.755-1.56,2.759-3.795,2.759-6.142C645.251,188.687,644.25,186.452,642.495,184.892z
	"/>
<path d="M480.676,130.246c-3.016-3.393-8.211-3.697-11.603-0.679l-62.203,55.326c-1.754,1.561-2.759,3.795-2.759,6.143
	c0,2.347,1.004,4.582,2.759,6.142l62.203,55.325c1.566,1.394,3.515,2.079,5.46,2.079c2.266,0,4.521-0.931,6.147-2.757
	c3.016-3.392,2.712-8.589-0.68-11.605l-55.298-49.182L480,141.853C483.391,138.833,483.696,133.638,480.676,130.246z"/>
<path d="M544.327,125.486c-4.339-1.313-8.934,1.141-10.251,5.485L499.55,244.963c-1.316,4.347,1.14,8.936,5.485,10.252
	c0.795,0.24,1.595,0.355,2.388,0.355c3.526,0,6.786-2.289,7.863-5.84l34.526-113.994
	C551.129,131.391,548.675,126.802,544.327,125.486z"/>
<path d="M676.763,2.372H372.6c-4.541,0-8.221,3.679-8.221,8.221v304.165c0,4.539,3.68,8.22,8.221,8.22h304.163
	c4.542,0,8.222-3.681,8.222-8.22V10.592C684.984,6.051,681.305,2.372,676.763,2.372z M668.543,18.813v32.882h-32.882V18.813H668.543
	z M430.144,51.694V18.813h189.074v32.882H430.144z M380.82,18.813h32.883v32.882H380.82V18.813z M380.82,306.535V68.136h287.723
	v238.399H380.82z"/>
</svg>
