<?xml version="1.0" encoding="utf-8"?>
<!-- Generator: Adobe Illustrator 16.0.0, SVG Export Plug-In . SVG Version: 6.00 Build 0)  -->
<!DOCTYPE svg PUBLIC "-//W3C//DTD SVG 1.1//EN" "http://www.w3.org/Graphics/SVG/1.1/DTD/svg11.dtd">
<svg version="1.1" id="Layer_1" xmlns="http://www.w3.org/2000/svg" xmlns:xlink="http://www.w3.org/1999/xlink" x="0px" y="0px"
	 width="200px" height="200px" viewBox="0 0 200 200" enable-background="new 0 0 200 200" xml:space="preserve">
<g id="XMLID_1_">
	<rect id="XMLID_3_" x="9.325" y="8.259" fill="#9E8CFF" width="181.35" height="181.35"/>
	<rect id="XMLID_5_" x="17.304" y="16.239" fill="#0B004D" width="165.392" height="165.392"/>
	<g id="XMLID_22_">
		<polygon id="XMLID_34_" fill="#9E8CFF" points="78.318,65.66 78.318,65.687 78.345,65.687 		"/>
		<polygon id="XMLID_35_" fill="#9E8CFF" points="67.276,54.551 67.276,54.564 67.29,54.564 		"/>
		<polygon id="XMLID_36_" fill="#9E8CFF" points="144.572,132.316 144.559,132.303 133.529,132.303 133.529,121.207 
			133.503,121.181 122.487,121.181 122.487,110.098 122.447,110.058 111.445,110.058 111.445,99.056 100.403,99.056 100.403,87.933 
			89.361,87.933 89.361,76.81 78.318,76.81 78.318,65.687 67.276,65.687 67.276,54.564 56.234,54.564 56.234,43.441 45.111,43.441 
			45.111,153.702 155.614,153.702 155.614,143.426 144.572,143.426 		"/>
		<polygon id="XMLID_106_" fill="#9E8CFF" points="89.361,76.77 89.361,76.81 89.401,76.81 		"/>
		<polygon id="XMLID_107_" fill="#9E8CFF" points="100.403,87.879 100.403,87.933 100.456,87.933 		"/>
	</g>
	<rect id="XMLID_56_" x="67.276" y="43.441" fill="#9E8CFF" width="11.042" height="11.123"/>
	<rect id="XMLID_55_" x="78.318" y="54.564" fill="#9E8CFF" width="11.042" height="11.123"/>
	<rect id="XMLID_54_" x="89.361" y="65.687" fill="#9E8CFF" width="11.042" height="11.123"/>
	<rect id="XMLID_53_" x="100.403" y="76.81" fill="#9E8CFF" width="11.042" height="11.123"/>
	<rect id="XMLID_48_" x="111.445" y="87.933" fill="#9E8CFF" width="11.042" height="11.123"/>
	<rect id="XMLID_47_" x="122.487" y="98.935" fill="#9E8CFF" width="11.042" height="11.123"/>
	<rect id="XMLID_46_" x="133.529" y="110.058" fill="#9E8CFF" width="11.043" height="11.123"/>
	<rect id="XMLID_41_" x="144.572" y="121.181" fill="#9E8CFF" width="11.042" height="11.122"/>
	<rect id="XMLID_63_" x="100.403" y="54.564" fill="#9E8CFF" width="11.042" height="11.123"/>
	<rect id="XMLID_61_" x="122.487" y="76.81" fill="#9E8CFF" width="11.042" height="11.123"/>
	<rect id="XMLID_59_" x="144.572" y="98.935" fill="#9E8CFF" width="11.042" height="11.123"/>
	<rect id="XMLID_72_" x="122.487" y="54.564" fill="#9E8CFF" width="11.042" height="11.123"/>
	<rect id="XMLID_70_" x="144.572" y="76.81" fill="#9E8CFF" width="11.042" height="11.123"/>
</g>
</svg>
