<?xml version="1.0" encoding="utf-8"?>
<!-- Generator: Adobe Illustrator 16.0.0, SVG Export Plug-In . SVG Version: 6.00 Build 0)  -->
<!DOCTYPE svg PUBLIC "-//W3C//DTD SVG 1.1//EN" "http://www.w3.org/Graphics/SVG/1.1/DTD/svg11.dtd">
<svg version="1.1" id="Layer_1" xmlns="http://www.w3.org/2000/svg" xmlns:xlink="http://www.w3.org/1999/xlink" x="0px" y="0px"
	 width="200px" height="200px" viewBox="0 0 200 200" enable-background="new 0 0 200 200" xml:space="preserve">
<path fill="#222020" d="M46.683,111.913l-0.8-0.121l-0.63-0.169l-0.458-0.173l-0.441-0.223l-0.417-0.276l-0.388-0.334l-0.238-0.258
	l-0.227-0.289l-0.307-0.492l-0.26-0.568l-0.212-0.646l-0.155-0.737l-0.1-0.829l-0.033-0.924l0-1.085l-0.003-0.386l0-0.777
	l-0.004-0.385l0-0.388l-0.004-0.386l-0.004-0.384l-0.004-0.387l-0.004-0.381l-0.006-0.378l-0.005-0.379l-0.009-0.378l-0.007-0.374
	l-0.008-0.375L41.95,99.06l-0.013-0.365l-0.007-0.366l-0.01-0.363l-0.014-0.361l-0.014-0.358l-0.014-0.354l-0.015-0.351
	l-0.017-0.348l-0.016-0.345l-0.016-0.344l-0.02-0.334l-0.019-0.333l-0.02-0.331l-0.023-0.325l-0.018-0.322l-0.025-0.315
	l-0.023-0.313l-0.024-0.305l-0.023-0.305l-0.027-0.295l-0.029-0.295l-0.026-0.287l-0.029-0.283l-0.03-0.277l-0.033-0.272
	l-0.031-0.267l-0.031-0.26l-0.038-0.257l-0.034-0.251l-0.037-0.241l-0.037-0.239l-0.04-0.232l-0.036-0.225l-0.044-0.217
	l-0.038-0.213l-0.045-0.207l-0.043-0.199l-0.042-0.195l-0.047-0.188l-0.045-0.177l-0.047-0.171l-0.05-0.169l-0.049-0.159
	l-0.052-0.151l-0.051-0.146l-0.054-0.138l-0.055-0.128l-0.054-0.126l-0.056-0.117l-0.06-0.11l-0.059-0.1l-0.06-0.096l-0.061-0.087
	l-0.061-0.08l-0.064-0.072l-0.067-0.063l-0.062-0.056l-0.066-0.05l-0.069-0.042l-0.068-0.036l-0.071-0.026l-0.07-0.019l-0.075-0.013
	l-0.072-0.003h4.633l0.076,0.003l0.072,0.012l0.071,0.02l0.073,0.025l0.065,0.036l0.071,0.042l0.065,0.05l0.066,0.055l0.066,0.064
	l0.063,0.072l0.061,0.079l0.063,0.088l0.058,0.096l0.06,0.101l0.056,0.108l0.058,0.118l0.056,0.124l0.055,0.13l0.054,0.137
	l0.051,0.147l0.049,0.152l0.051,0.158l0.049,0.168l0.047,0.172l0.049,0.177l0.044,0.189l0.046,0.193l0.042,0.199l0.041,0.207
	l0.043,0.213l0.04,0.217l0.04,0.225l0.037,0.231l0.04,0.24l0.034,0.241l0.034,0.25l0.034,0.258l0.035,0.259l0.031,0.267l0.032,0.273
	l0.029,0.277l0.031,0.283l0.026,0.288l0.028,0.295l0.026,0.295l0.026,0.305l0.023,0.305l0.025,0.313l0.021,0.316l0.021,0.321
	l0.024,0.326l0.019,0.329l0.021,0.334l0.015,0.335l0.019,0.342l0.017,0.346l0.016,0.348l0.013,0.351l0.016,0.354l0.012,0.357
	l0.012,0.362l0.012,0.362l0.012,0.366l0.008,0.365l0.01,0.373l0.011,0.374l0.004,0.374l0.006,0.378l0.008,0.379l0.005,0.378
	l0.006,0.382l0.003,0.385l0.004,0.385l0.002,0.386l0.002,0.387v0.386l0.006,0.39l0,1.152l0.029,0.682l0.071,0.476l0.083,0.321
	l0.079,0.21l0.095,0.183l0.105,0.16l0.076,0.092l0.087,0.085l0.089,0.075l0.096,0.066l0.155,0.081l0.164,0.064l0.177,0.048
	l0.258,0.037l0.347,0.02l0.487-0.02l0.212-0.019l0,4.124l-0.446,0.057l-1.024,0.054L46.683,111.913z"/>
<path fill="#CF202E" d="M25.578,107.727h-0.119l-0.099-0.003l-0.099-0.01l-0.101-0.009l-0.1-0.016l-0.098-0.02l-0.098-0.021
	l-0.102-0.025l-0.102-0.028l-0.099-0.037l-0.1-0.033l-0.103-0.041l-0.1-0.041l-0.102-0.048l-0.101-0.051l-0.101-0.053l-0.1-0.059
	l-0.104-0.063l-0.1-0.063l-0.102-0.069l-0.105-0.071l-0.101-0.075l-0.104-0.079l-0.102-0.083l-0.102-0.084l-0.105-0.089
	l-0.104-0.095l-0.101-0.096l-0.105-0.099l-0.104-0.104l-0.104-0.105l-0.104-0.111l-0.107-0.113l-0.103-0.115l-0.104-0.12
	l-0.103-0.124l-0.108-0.126l-0.102-0.13l-0.106-0.132l-0.105-0.136l-0.105-0.138l-0.106-0.142l-0.104-0.149l-0.106-0.147
	l-0.106-0.147l-0.106-0.157l-0.105-0.157l-0.108-0.159l-0.107-0.163l-0.106-0.165l-0.106-0.171l-0.109-0.169l-0.105-0.176
	l-0.107-0.177l-0.107-0.179l-0.107-0.184l-0.109-0.185l-0.108-0.188l-0.108-0.189l-0.106-0.191l-0.107-0.194l-0.107-0.197
	l-0.112-0.199l-0.108-0.202l-0.108-0.201l-0.111-0.206l-0.106-0.207l-0.11-0.21l-0.108-0.213l-0.111-0.215l-0.107-0.216
	l-0.111-0.219l-0.11-0.216l-0.108-0.22l-0.112-0.225l-0.112-0.224l-0.108-0.225l-0.11-0.228l-0.112-0.229l-0.111-0.229l-0.11-0.231
	l-0.111-0.234l-0.112-0.232l-0.111-0.234l-0.11-0.235l-0.113-0.236l-0.111-0.236l-0.11-0.238l-0.112-0.238l-0.115-0.24l-0.114-0.241
	l-0.11-0.24l-0.11-0.241l-0.114-0.241l-0.112-0.242l-0.113-0.243l-0.114-0.242l-0.111-0.241l-0.116-0.244l-0.111-0.241l-0.115-0.242
	l-0.11-0.244l-0.115-0.243L14.451,91.6l-0.11-0.242l-0.115-0.237l-0.117-0.242l-0.113-0.239l-0.114-0.241l-0.116-0.239l-0.115-0.237
	l-0.114-0.236l-0.116-0.237l-0.115-0.236l-0.116-0.233l-0.115-0.232l-0.116-0.232l-0.114-0.229l-0.115-0.23l-0.115-0.227
	L12.5,87.606l-0.117-0.224l-0.116-0.223l-0.116-0.22l-0.115-0.219l-0.117-0.217l-0.117-0.215l-0.116-0.212l-0.119-0.213
	l-0.114-0.206l-0.117-0.208l-0.118-0.204l-0.119-0.202l-0.115-0.198l-0.119-0.198l-0.119-0.19l-0.118-0.191l-0.118-0.188
	l-0.118-0.187l-0.116-0.183l-0.12-0.181l-0.119-0.175l-0.117-0.176l-0.12-0.17L9.683,82.84l-0.119-0.166l-0.119-0.158l-0.121-0.157
	l-0.12-0.154l-0.117-0.15l-0.12-0.145l-0.12-0.143L8.73,81.627l-0.121-0.136l-0.122-0.129l-0.12-0.129l-0.12-0.124L8.129,80.99
	l-0.122-0.115l-0.121-0.111l-0.119-0.108l-0.121-0.104l-0.121-0.098L7.405,80.36l-0.121-0.09l-0.122-0.088l-0.121-0.079L6.92,80.026
	l-0.124-0.072l-0.117-0.07l-0.125-0.06l-0.119-0.059l-0.122-0.054l-0.124-0.05l-0.121-0.041l-0.121-0.04l0.013,0l2.125,0.04
	l1.983,0.041l1.764,0.051l1.537,0.053l1.339,0.059l1.177,0.06l1.043,0.07l0.934,0.072l0.841,0.077l0.767,0.08l0.703,0.087
	l0.646,0.09l0.598,0.094l0.562,0.097l0.52,0.105l0.489,0.107l0.458,0.112l0.434,0.114l0.409,0.119l0.388,0.125l0.368,0.127
	l0.352,0.129l0.336,0.136l0.318,0.141l0.305,0.143l0.291,0.144l0.282,0.151l0.267,0.154l0.257,0.157l0.25,0.158l0.236,0.166
	l0.229,0.167l0.224,0.17l0.209,0.176l0.208,0.175l0.197,0.18l0.194,0.184l0.185,0.187l0.181,0.188l0.171,0.191l0.17,0.19
	l0.162,0.197l0.157,0.199l0.156,0.201l0.145,0.205l0.145,0.207l0.141,0.207l0.137,0.212l0.131,0.213l0.127,0.215l0.125,0.217
	l0.121,0.219l0.12,0.22l0.115,0.224l0.112,0.222l0.109,0.227l0.108,0.226l0.104,0.23l0.104,0.228l0.099,0.233l0.1,0.232l0.095,0.233
	l0.097,0.236l0.09,0.236l0.091,0.236l0.088,0.236l0.088,0.24l0.084,0.241l0.087,0.239l0.079,0.242l0.082,0.238l0.079,0.242
	l0.076,0.241l0.078,0.243l0.076,0.245l0.073,0.241l0.074,0.24l0.072,0.245l0.067,0.24l0.073,0.243l0.067,0.244l0.067,0.24
	l0.065,0.243l0.067,0.24l0.064,0.239l0.063,0.243l0.011,0.033l0.051,0.206l0.063,0.238l0.059,0.238l0.061,0.236l0.059,0.236
	l0.06,0.235l0.057,0.234l0.059,0.232l0.055,0.234l0.057,0.231l0.056,0.228l0.05,0.23l0.057,0.228l0.052,0.223l0.052,0.226
	l0.05,0.223l0.052,0.221l0.052,0.218l0.047,0.217l0.05,0.216l0.048,0.215L35.577,100l0.047,0.211l0.049,0.205l0.047,0.208
	l0.044,0.201l0.046,0.202l0.046,0.199l0.045,0.197l0.045,0.193l0.044,0.193l0.041,0.188l0.045,0.188l0.042,0.185l0.042,0.184
	l0.042,0.179l0.041,0.176l0.042,0.177l0.04,0.169l0.041,0.171l0.042,0.164l0.039,0.164l0.039,0.16l0.039,0.156l0.037,0.157
	l0.042,0.147l0.038,0.148l0.036,0.147l0.038,0.143l0.039,0.138l0.036,0.137l0.036,0.132l0.037,0.128l0.034,0.127l0.037,0.124
	l0.035,0.121l0.035,0.115l0.039,0.111l0.032,0.112l0.033,0.105l0.033,0.104l0.036,0.098l0.034,0.096l0.033,0.095l0.033,0.089
	l0.034,0.083l0.033,0.084l0.031,0.08l0.032,0.074l0.033,0.071l0.032,0.069l0.031,0.063l0.031,0.062l0.031,0.059l0.031,0.054
	l0.032,0.051l0.031,0.047l0.03,0.043l0.029,0.04l0.032,0.033l0.032,0.036l0.024,0.025l0.002,0.004l0.032,0.027l0.027,0.02
	l0.028,0.02l0.032,0.016l0.027,0.009l0.03,0.009l0.028,0.004H25.578z"/>
<path fill="#222020" d="M51.189,85.387l4.638-0.001v4.2l-4.637,0L51.189,85.387z M51.19,92.817l4.673-0.001l0,18.952l-4.674,0.001
	V92.817z M56.747,92.816h4.932l3.899,11.741c0.369,1.115,0.625,2.859,0.665,2.858h0.071c0.039,0,0.297-1.743,0.664-2.858
	l3.902-11.741l4.931,0.001l-6.733,18.951h-5.522L56.747,92.816L56.747,92.816z M84.468,92.371c5.41,0,8.319,3.977,8.319,8.991
	c0,0.558-0.112,1.822-0.112,1.822H79.721c0.294,3.306,2.833,5.015,5.63,5.016c3.017-0.001,5.409-2.08,5.409-2.08l1.803,3.383
	c0,0-2.868,2.712-7.542,2.711c-6.221,0.002-10.084-4.532-10.083-9.923C74.937,96.459,78.875,92.37,84.468,92.371 M88.074,99.95
	c-0.071-2.562-1.654-3.937-3.715-3.937c-2.392-0.001-4.05,1.486-4.49,3.937H88.074L88.074,99.95z M95.048,107.682
	c0,0,2.061,2.266,5.518,2.267c1.989,0,3.718-1.004,3.718-2.974c0.002-4.088-9.972-3.085-9.972-9.177
	c0-3.345,2.982-5.166,6.329-5.166c3.901-0.001,5.704,2.045,5.704,2.045l-1.141,1.932c0,0-1.58-1.709-4.638-1.709
	c-1.875,0-3.679,0.816-3.679,2.899c0,4.122,9.975,3.008,9.975,9.176c0,3.049-2.615,5.242-6.329,5.242
	c-4.492,0-6.848-2.714-6.848-2.714L95.048,107.682L95.048,107.682z M110.485,95.417l-2.428,0.001l-0.002-2.118h2.467v-5.386h2.465
	v5.387h4.639v2.117l-4.639,0.001v9.289c0,4.386,2.762,4.944,4.162,4.944c0.514-0.001,0.84-0.074,0.84-0.074v2.263
	c0,0-0.404,0.077-1.063,0.077c-2.137,0-6.441-0.707-6.441-6.949V95.417L110.485,95.417z M120.019,93.077l2.469,0.001v3.308
	c0,0.816-0.076,1.485-0.076,1.485h0.076c0.881-2.824,2.941-4.98,5.85-4.98c0.334,0.004,0.664,0.041,0.99,0.112v2.489
	c0,0-0.438-0.074-0.916-0.074c-2.613,0-4.563,2.082-5.375,4.829c-0.369,1.188-0.514,2.453-0.514,3.643v7.879h-2.504V93.077z
	 M138.604,92.632c5.113,0,7.727,3.977,7.727,8.622c0,0.442-0.07,1.299-0.07,1.299l-14.209-0.001c0.111,4.796,3.35,7.396,7.178,7.396
	c3.385,0,5.631-2.267,5.631-2.267l1.141,1.933c0,0-2.688,2.602-6.844,2.601c-5.523,0-9.682-4.015-9.682-9.774
	C129.478,96.311,133.601,92.631,138.604,92.632 M143.794,100.472c-0.148-3.901-2.502-5.721-5.266-5.722
	c-3.092,0-5.775,1.971-6.365,5.722H143.794L143.794,100.472z M159.021,100.211h1.031l0.002-0.48
	c-0.002-3.604-1.951-4.831-4.604-4.832c-3.053,0.001-5.227,1.785-5.227,1.785l-1.176-1.933c0,0,2.43-2.118,6.59-2.119
	c4.449,0,6.916,2.49,6.916,7.174v11.966h-2.391v-2.045c0-0.929,0.072-1.562,0.072-1.562h-0.072c0,0-1.547,4.051-6.184,4.052
	c-3.09,0-6.295-1.824-6.295-5.538C147.685,100.362,155.819,100.211,159.021,100.211 M154.384,110.06
	c3.533,0,5.668-3.718,5.668-6.951v-0.817h-1.07c-2.904,0-8.719,0.112-8.719,4.238C150.263,108.273,151.622,110.06,154.384,110.06
	 M166.481,93.078l2.461-0.001v2.787c0,0.818-0.072,1.486-0.072,1.486h0.074c0.883-2.527,3.826-4.721,6.699-4.721
	c3.422,0,5.188,1.6,5.738,4.684h0.076c0.992-2.527,3.678-4.684,6.807-4.684c4.49,0,6.148,2.64,6.148,7.245v11.894h-2.506
	l0.002-11.259c0-3.046-0.627-5.574-4.01-5.574c-2.834,0-5.154,2.527-5.854,5.275c-0.258,0.817-0.33,1.709-0.33,2.712v8.846h-2.502
	V100.51c0-2.827-0.404-5.574-3.9-5.574c-3.02,0-5.299,2.639-6.076,5.501c-0.18,0.78-0.254,1.633-0.254,2.487v8.846h-2.502V93.078
	L166.481,93.078z"/>
</svg>
