<?xml version="1.0" encoding="utf-8"?>
<!-- Generator: Adobe Illustrator 16.0.0, SVG Export Plug-In . SVG Version: 6.00 Build 0)  -->
<!DOCTYPE svg PUBLIC "-//W3C//DTD SVG 1.1//EN" "http://www.w3.org/Graphics/SVG/1.1/DTD/svg11.dtd">
<svg version="1.1" id="Layer_1" xmlns="http://www.w3.org/2000/svg" xmlns:xlink="http://www.w3.org/1999/xlink" x="0px" y="0px"
	 width="200px" height="200px" viewBox="0 0 200 200" enable-background="new 0 0 200 200" xml:space="preserve">
<g id="Page-1">
	<g id="REASON-ICON-NO-BG">
		<g id="Imported-Layers" transform="translate(6.000000, 4.000000)">
			<polyline id="Fill-1" fill="#ED7E23" points="139.372,88.147 139.372,136.473 181.216,160.641 181.216,112.309 139.372,88.147 
							"/>
			<polyline id="Fill-2" fill="#ED7E23" points="52.346,82.36 94.214,58.203 94.214,9.879 52.346,34.043 52.346,82.36 			"/>
			<polyline id="Fill-3" fill="#ED7E23" points="90.848,160.619 48.996,136.444 7.152,160.608 49.004,184.777 90.848,160.619 			"/>
			<path id="Fill-4" fill="#ED7E23" d="M119.099,99.857c1.351,3.232,2.109,6.793,2.109,10.528c0,13.784-10.335,25.138-23.681,26.786
				l-0.01,23.447l41.854-24.152l0.014-48.327L119.099,99.857"/>
			<path id="Fill-5" fill="#ED7E23" d="M67.176,110.386c0-3.737,0.746-7.303,2.134-10.536L49.009,88.127l-0.005,48.328
				l41.844,24.173v-23.456C77.518,135.523,67.176,124.17,67.176,110.386"/>
			<path id="Fill-6" fill="#ED7E23" d="M94.2,83.357c8.796,0,16.595,4.222,21.514,10.745l20.331-11.729l-41.836-24.17L52.337,82.357
				l20.331,11.74C77.606,87.579,85.381,83.357,94.2,83.357"/>
			<path id="Fill-7" fill="#0A0A0A" d="M139.372,186.192c0.238,0,0.479-0.063,0.695-0.187l41.838-24.157h0.006
				c0.431-0.25,0.696-0.708,0.696-1.208v-48.332c0-0.496-0.266-0.955-0.696-1.203l-41.796-24.134
				c-0.014-0.008-0.021-0.025-0.035-0.034c-0.429-0.25-0.96-0.25-1.388,0l-0.011,0.006h-0.004l-0.003,0.003l-20.271,11.706
				c-0.605,0.349-0.857,1.095-0.586,1.738c1.327,3.185,2,6.546,2,9.994c0,12.902-9.654,23.825-22.46,25.406
				c-0.698,0.087-1.218,0.677-1.221,1.38l-0.012,23.447c0,0.255,0.071,0.493,0.199,0.705c0.119,0.211,0.292,0.386,0.509,0.513
				l41.844,24.169C138.893,186.13,139.132,186.192,139.372,186.192L139.372,186.192z M179.826,158.235l-39.063-22.57l0.014-45.103
				l39.049,22.549V158.235L179.826,158.235z M98.916,138.374c13.586-2.274,23.684-14.098,23.684-27.988
				c0-3.408-0.596-6.741-1.77-9.923l17.152-9.906v45.108l-39.074,22.548L98.916,138.374L98.916,138.374z"/>
			<path id="Fill-9" fill="#0A0A0A" d="M6.458,161.81l41.853,24.172c0.214,0.123,0.453,0.187,0.694,0.187
				c0.239,0,0.48-0.063,0.694-0.187l41.816-24.145c0.008-0.003,0.019,0,0.027-0.005c0.431-0.247,0.697-0.709,0.697-1.204v-23.456
				c0-0.699-0.524-1.293-1.221-1.38c-12.8-1.583-22.452-12.506-22.452-25.406c0-3.504,0.681-6.864,2.022-9.986
				c0.276-0.648,0.027-1.4-0.585-1.752l-20.3-11.723l-0.003-0.001c-0.002,0-0.002-0.001-0.002-0.001c-0.428-0.25-0.96-0.25-1.388,0
				L6.458,111.091c-0.431,0.248-0.697,0.707-0.697,1.204v48.313C5.761,161.102,6.027,161.563,6.458,161.81L6.458,161.81z
				 M49.004,183.175L9.931,160.608l39.073-22.55l39.06,22.565L49.004,183.175L49.004,183.175z M67.571,100.45
				c-1.185,3.142-1.786,6.478-1.786,9.936c0,13.888,10.092,25.708,23.672,27.988v19.839l-39.063-22.563l0.003-45.114L67.571,100.45
				L67.571,100.45z"/>
			<path id="Fill-10" fill="#0A0A0A" d="M51.643,83.561L71.974,95.3c0.598,0.346,1.376,0.196,1.802-0.362
				c4.906-6.477,12.351-10.191,20.424-10.191c8.083,0,15.519,3.715,20.405,10.191c0.269,0.359,0.686,0.553,1.108,0.553
				c0.238,0,0.477-0.061,0.693-0.185l20.331-11.729c0.007-0.002,0.009-0.01,0.014-0.012c0-0.001,0.004,0,0.004-0.001
				c0.43-0.249,0.696-0.707,0.696-1.203V34.043c0-0.497-0.267-0.955-0.696-1.203L94.909,8.676c-0.258-0.149-0.546-0.18-0.834-0.149
				c-0.189,0.019-0.384,0.049-0.554,0.148L51.651,32.839c-0.431,0.248-0.697,0.707-0.697,1.204v48.284
				c0,0.011-0.008,0.019-0.008,0.03C50.946,82.854,51.212,83.312,51.643,83.561L51.643,83.561z M116.063,92.296
				c-5.41-6.58-13.311-10.329-21.862-10.329c-8.543,0-16.449,3.748-21.877,10.327l-17.198-9.933l39.087-22.552l0.146,0.085
				l38.908,22.477L116.063,92.296L116.063,92.296z M92.823,12.287l-0.005,45.114L53.737,79.946V34.845L92.823,12.287L92.823,12.287z
				"/>
			<path id="Fill-8" fill="#0A0A0A" d="M94.2,88.154c-12.257,0-22.229,9.97-22.229,22.225c0,12.254,9.972,22.226,22.229,22.226
				c12.246,0,22.214-9.972,22.214-22.226C116.414,98.124,106.446,88.154,94.2,88.154"/>
		</g>
	</g>
</g>
</svg>
