<?xml version="1.0" encoding="utf-8"?>
<!-- Generator: Adobe Illustrator 16.0.0, SVG Export Plug-In . SVG Version: 6.00 Build 0)  -->
<!DOCTYPE svg PUBLIC "-//W3C//DTD SVG 1.1//EN" "http://www.w3.org/Graphics/SVG/1.1/DTD/svg11.dtd">
<svg version="1.1" id="Layer_1" xmlns="http://www.w3.org/2000/svg" xmlns:xlink="http://www.w3.org/1999/xlink" x="0px" y="0px"
	 width="200px" height="200px" viewBox="0 0 200 200" enable-background="new 0 0 200 200" xml:space="preserve">
<g id="_x36_KX8MU.tif">
	<g>
		<path fill="#FDFDFC" d="M75.314,21.509c-4.072-0.626-6.578,1.097-9.084,2.193C27.074,41.557,8.123,85.568,21.906,126.446
			c12.373,36.65,50.276,60.771,88.022,55.759c39.469-5.17,70.794-36.807,73.3-73.926c0.156-2.35,1.566-5.64-0.782-7.205
			c-2.037-1.254-4.231,1.253-6.267,2.349c-31.949,17.073-63.745,34.301-95.696,51.215c-4.229,2.193-8.928,7.52-14.096,2.507
			c-5.013-4.855-0.158-9.867,1.722-14.253c9.241-23.023,18.638-45.733,28.036-68.757c1.097-2.663,2.506-6.265,0.313-7.988
			c-2.662-2.036-5.011,1.252-7.205,3.132c-10.181,8.458-20.36,17.228-30.542,25.686c-2.349,2.036-5.012,3.759-7.674,5.325
			c-2.349,1.41-5.011,2.037-7.36,0.156c-2.506-1.878-1.723-4.854-0.94-7.203c0.94-2.976,2.507-5.795,3.759-8.615
			C55.893,63.797,65.447,42.967,75.314,21.509z M107.423,81.34c-0.471,4.854,0.781,7.047,5.637,4.541
			c1.411-0.784,2.819-1.566,3.915-2.507c13.628-12.373,27.255-25.059,41.036-37.275c3.603-3.289,1.724-5.012-0.626-7.361
			c-16.602-15.035-35.866-22.71-58.42-22.24c-3.445,0-5.168,1.409-6.421,4.228c-4.229,9.867-8.771,19.421-12.843,29.289
			c-0.94,2.192-3.289,5.325-0.627,7.048c2.82,2.036,5.169-1.097,7.362-2.976c8.458-6.891,16.759-14.096,25.373-20.831
			c3.289-2.506,6.735-8.145,11.119-5.168c4.542,3.132-0.156,8.144-1.408,11.903C116.506,53.93,111.024,67.399,107.423,81.34z"/>
		<path fill="#FE8503" d="M75.314,21.509c-9.867,21.458-19.421,42.289-28.975,63.119c-1.253,2.819-2.819,5.639-3.759,8.615
			c-0.783,2.505-1.566,5.325,0.94,7.203c2.349,1.881,5.012,1.254,7.36-0.156c2.663-1.566,5.326-3.289,7.675-5.325
			c10.181-8.458,20.361-17.228,30.542-25.686c2.036-1.723,4.542-5.168,7.205-3.132c2.193,1.723,0.783,5.325-0.313,7.988
			c-9.398,22.867-18.795,45.733-28.036,68.757c-1.879,4.542-6.578,9.555-1.723,14.253c5.169,5.013,9.868-0.313,14.096-2.507
			c31.951-16.914,63.904-34.142,95.698-51.215c2.035-1.096,4.229-3.603,6.264-2.349c2.507,1.565,0.94,4.698,0.785,7.205
			c-2.351,37.274-33.676,68.756-73.301,73.926c-37.747,4.855-75.649-19.108-88.023-55.759C8.123,85.568,27.074,41.557,66.229,23.702
			C68.736,22.605,71.086,20.883,75.314,21.509z"/>
		<path fill="#FE8605" d="M107.423,81.34c3.602-13.783,9.083-27.41,13.939-41.036c1.408-3.759,5.951-8.771,1.408-11.903
			c-4.385-2.977-7.831,2.506-11.12,5.168c-8.457,6.578-16.758,13.783-25.216,20.674c-2.193,1.722-4.542,4.855-7.362,2.976
			c-2.505-1.879-0.313-4.855,0.627-7.048c4.229-9.867,8.614-19.578,12.843-29.288c1.253-2.977,2.976-4.229,6.421-4.229
			c22.554-0.313,41.819,7.204,58.42,22.239c2.506,2.193,4.385,4.073,0.626,7.362c-13.781,12.06-27.408,24.59-41.036,37.119
			c-1.096,1.097-2.504,1.881-3.915,2.507C108.204,88.387,106.952,86.194,107.423,81.34z"/>
	</g>
</g>
</svg>
