<?xml version="1.0" encoding="utf-8"?>
<!-- Generator: Adobe Illustrator 16.0.0, SVG Export Plug-In . SVG Version: 6.00 Build 0)  -->
<!DOCTYPE svg PUBLIC "-//W3C//DTD SVG 1.1//EN" "http://www.w3.org/Graphics/SVG/1.1/DTD/svg11.dtd">
<svg version="1.1" id="Layer_1" xmlns="http://www.w3.org/2000/svg" xmlns:xlink="http://www.w3.org/1999/xlink" x="0px" y="0px"
	 width="200px" height="200px" viewBox="0 0 200 200" enable-background="new 0 0 200 200" xml:space="preserve">
<path fill="#B2B2B2" d="M101.26,12.126l-82.688,29.1l13.066,108.335l69.71,38.313l70.069-38.834L184.479,40.71L101.26,12.126z"/>
<path fill="#B52E31" d="M176.231,46.972L101.067,21.34v157.382l62.99-34.861L176.231,46.972z"/>
<path fill="#E23237" d="M27.85,47.434l11.196,96.889l62.019,34.397V21.337L27.85,47.434z"/>
<path fill="#F2F2F2" d="M118.489,99.619l-17.286-36.097L85.986,99.619H118.489z M125.079,114.798h-45.82l-10.251,25.641
	l-19.067,0.352l51.126-113.735l52.908,113.734h-17.674L125.079,114.798z"/>
<path fill="#B2B2B2" d="M101.067,27.055l0.136,36.467l17.268,36.125h-17.365l-0.039,15.127l24.012,0.022l11.224,25.996l18.244,0.339
	L101.067,27.055z"/>
</svg>
