<?xml version="1.0" encoding="utf-8"?>
<!-- Generator: Adobe Illustrator 16.0.0, SVG Export Plug-In . SVG Version: 6.00 Build 0)  -->
<!DOCTYPE svg PUBLIC "-//W3C//DTD SVG 1.1//EN" "http://www.w3.org/Graphics/SVG/1.1/DTD/svg11.dtd">
<svg version="1.1" id="Layer_1" xmlns="http://www.w3.org/2000/svg" xmlns:xlink="http://www.w3.org/1999/xlink" x="0px" y="0px"
	 width="200px" height="200px" viewBox="0 0 200 200" enable-background="new 0 0 200 200" xml:space="preserve">
<g>
	<path fill="#205081" d="M100.5,8.511c-43.799,0-79.777,11.732-79.777,26.593c0,3.911,9.385,59.442,13.296,81.342
		c1.564,10.168,27.375,24.245,66.481,24.245c39.107,0,64.136-14.077,66.481-24.245c3.911-21.9,13.296-77.432,13.296-81.342
		C179.496,20.244,144.3,8.511,100.5,8.511z M100.5,122.703c-14.078,0-25.028-10.95-25.028-25.028
		c0-14.079,10.95-25.028,25.028-25.028c14.079,0,25.028,10.95,25.028,25.028C125.528,110.971,114.579,122.703,100.5,122.703z
		 M100.5,42.925c-28.156,0-50.838-4.694-50.838-10.95c0-6.258,22.682-10.95,50.838-10.95c28.157,0,50.839,4.692,50.839,10.95
		C151.339,38.232,128.657,42.925,100.5,42.925z"/>
	<path fill="#205081" d="M158.225,137.563c-1.564,0-2.347,0.782-2.347,0.782s-19.554,15.643-54.749,15.643
		c-35.196,0-54.749-15.643-54.749-15.643s-1.564-0.782-2.347-0.782c-1.564,0-3.128,0.782-3.128,3.129v0.781
		c3.129,16.425,5.475,28.157,5.475,29.722c2.346,11.732,25.81,21.118,53.967,21.118c28.157,0,51.62-9.386,53.966-21.118
		c0-1.564,2.348-13.297,5.476-29.722v-0.782C160.571,139.127,159.789,137.563,158.225,137.563L158.225,137.563z"/>
	<circle fill="#205081" cx="100.5" cy="96.893" r="12.515"/>
</g>
</svg>
