<?xml version="1.0" encoding="utf-8"?>
<!-- Generator: Adobe Illustrator 16.0.0, SVG Export Plug-In . SVG Version: 6.00 Build 0)  -->
<!DOCTYPE svg PUBLIC "-//W3C//DTD SVG 1.1//EN" "http://www.w3.org/Graphics/SVG/1.1/DTD/svg11.dtd">
<svg version="1.1"
	 id="svg2" sodipodi:docname="twitter_bootstrap_logo.svg" inkscape:version="0.48.1 r9760" xmlns:svg="http://www.w3.org/2000/svg" xmlns:cc="http://creativecommons.org/ns#" xmlns:dc="http://purl.org/dc/elements/1.1/" xmlns:sodipodi="http://sodipodi.sourceforge.net/DTD/sodipodi-0.dtd" xmlns:inkscape="http://www.inkscape.org/namespaces/inkscape" xmlns:rdf="http://www.w3.org/1999/02/22-rdf-syntax-ns#"
	 xmlns="http://www.w3.org/2000/svg" xmlns:xlink="http://www.w3.org/1999/xlink" x="0px" y="0px" width="200px" height="200px"
	 viewBox="901.756 905.423 200 200" enable-background="new 901.756 905.423 200 200" xml:space="preserve">
<sodipodi:namedview  id="namedview2996" inkscape:pageshadow="2" inkscape:window-maximized="0" fit-margin-right="0" inkscape:window-width="864" inkscape:pageopacity="0" inkscape:window-height="623" fit-margin-bottom="0" inkscape:current-layer="svg2" inkscape:window-x="0" inkscape:window-y="0" guidetolerance="10" inkscape:cy="407.66551" inkscape:zoom="0.24896372" gridtolerance="10" objecttolerance="10" showgrid="false" fit-margin-left="0" inkscape:cx="116.80866" borderopacity="1" bordercolor="#666666" pagecolor="#ffffff" fit-margin-top="0">
	</sodipodi:namedview>
<g id="layer1" transform="matrix(15.623041,0,0,15.623041,-3987.6024,-6644.8835)">
	
		<linearGradient id="rect3050_1_" gradientUnits="userSpaceOnUse" x1="334.0411" y1="465.9893" x2="344.0771" y2="455.7781" gradientTransform="matrix(244.0788 0 0 244.0788 -81218.0156 -113243.3203)">
		<stop  offset="0" style="stop-color:#070135"/>
		<stop  offset="1" style="stop-color:#612D50"/>
	</linearGradient>
	<path id="rect3050" fill="url(#rect3050_1_)" d="M315.512,483.94h7.713c1.016,0,1.841,0.824,1.841,1.841v7.76
		c0,1.016-0.824,1.841-1.841,1.841h-7.713c-1.017,0-1.841-0.824-1.841-1.841v-7.76C313.671,484.764,314.495,483.94,315.512,483.94z"
		/>
	<g id="text3836" transform="scale(1.0052013,0.99482561)">
		<path id="path3841" inkscape:connector-curvature="0" fill="#FFFFFF" d="M317.802,491.408c0.289,0,0.509-0.064,0.659-0.191
			c0.149-0.127,0.224-0.315,0.224-0.563c0-0.245-0.075-0.431-0.224-0.558c-0.15-0.13-0.369-0.196-0.659-0.196h-1.016v1.508
			L317.802,491.408 M317.864,494.524c0.369,0,0.646-0.078,0.83-0.234c0.188-0.156,0.282-0.391,0.282-0.706
			c0-0.309-0.092-0.539-0.277-0.692c-0.185-0.156-0.463-0.234-0.835-0.234h-1.078v1.866L317.864,494.524 M319.572,491.961
			c0.394,0.115,0.7,0.326,0.916,0.635c0.216,0.309,0.325,0.687,0.325,1.136c0,0.687-0.232,1.199-0.697,1.536
			c-0.464,0.337-1.171,0.506-2.119,0.506h-3.049v-7.124h2.758c0.989,0,1.705,0.15,2.147,0.449c0.445,0.299,0.668,0.778,0.668,1.436
			c0,0.347-0.081,0.643-0.243,0.888C320.116,491.664,319.881,491.844,319.572,491.961"/>
	</g>
</g>
</svg>
