<?xml version="1.0" encoding="utf-8"?>
<!-- Generator: Adobe Illustrator 16.0.0, SVG Export Plug-In . SVG Version: 6.00 Build 0)  -->
<!DOCTYPE svg PUBLIC "-//W3C//DTD SVG 1.1//EN" "http://www.w3.org/Graphics/SVG/1.1/DTD/svg11.dtd">
<svg version="1.1" id="Layer_1" xmlns="http://www.w3.org/2000/svg" xmlns:xlink="http://www.w3.org/1999/xlink" x="0px" y="0px"
	 width="200px" height="200px" viewBox="0 0 200 200" enable-background="new 0 0 200 200" xml:space="preserve">
<g>
	<path fill-rule="evenodd" clip-rule="evenodd" d="M100.346,189.641c-49.657,0.815-90.131-41.578-90.117-89.882
		C10.242,50.734,51.306,9.658,100.325,9.67c48.972,0.013,89.987,41.056,90.045,89.994
		C190.43,148.007,149.956,190.415,100.346,189.641z M96.021,102.423c0.068-0.495,0.167-0.869,0.163-1.242
		c-0.077-7.526-1.306-14.8-4.976-21.481c-3.569-6.496-8.6-11.49-15.82-13.615c-14.386-4.232-30.203,0.884-37.354,16.302
		c-5.94,12.806-4.867,25.683,1.49,38.024c3.784,7.347,10.279,11.626,18.323,13.438c5.127,1.154,10.331,1.309,15.481,0.277
		c10.919-2.184,18.452-8.233,21.383-19.314c0.142-0.531,0.202-1.086,0.329-1.798c-3.354,0-6.502,0.035-9.648-0.021
		c-0.968-0.018-1.333,0.329-1.569,1.246c-0.751,2.929-2.472,5.218-4.846,7.073c-4.204,3.288-9.067,3.976-14.183,3.689
		c-9.47-0.525-16.475-6.527-18.216-15.726c-0.415-2.193-0.449-4.459-0.674-6.854C62.856,102.423,79.401,102.423,96.021,102.423z
		 M132.076,89.178c-0.492-0.696-0.83-1.163-1.156-1.64c-4.941-7.209-9.893-14.412-14.805-21.641
		c-0.554-0.814-1.152-1.143-2.141-1.129c-3.885,0.054-7.771,0.019-11.655,0.026c-0.463,0.001-0.926,0.056-1.669,0.105
		c0.461,0.67,0.767,1.137,1.098,1.586c7.384,10.059,14.76,20.127,22.186,30.157c0.725,0.978,0.76,1.607,0.036,2.614
		c-8.103,11.279-16.153,22.595-24.213,33.904c-0.314,0.441-0.592,0.91-1.031,1.589c4.371,0,8.398-0.043,12.424,0.026
		c1.112,0.019,1.745-0.353,2.355-1.267c5.822-8.724,11.689-17.416,17.549-26.115c0.306-0.454,0.643-0.888,1.051-1.448
		c0.477,0.69,0.811,1.163,1.134,1.644c5.803,8.621,11.619,17.23,17.384,25.876c0.642,0.962,1.325,1.331,2.479,1.31
		c3.836-0.07,7.673-0.022,11.509-0.029c0.455-0.001,0.91-0.059,1.656-0.108c-9.09-12.682-18.016-25.134-26.97-37.627
		c7.996-10.697,15.932-21.313,24.085-32.219c-4.44,0-8.417,0.04-12.393-0.025c-1.103-0.02-1.755,0.344-2.388,1.238
		c-5.12,7.263-10.292,14.488-15.452,21.724C132.844,88.152,132.528,88.568,132.076,89.178z"/>
	<path fill-rule="evenodd" clip-rule="evenodd" fill="#FFFFFF" d="M96.021,102.423c-16.62,0-33.165,0-50.117,0
		c0.225,2.396,0.259,4.661,0.674,6.854c1.741,9.198,8.746,15.2,18.216,15.726c5.116,0.286,9.979-0.401,14.183-3.689
		c2.374-1.855,4.095-4.145,4.846-7.073c0.236-0.917,0.601-1.264,1.569-1.246c3.146,0.056,6.295,0.021,9.648,0.021
		c-0.127,0.712-0.188,1.267-0.329,1.798c-2.932,11.081-10.464,17.131-21.383,19.314c-5.15,1.031-10.354,0.877-15.481-0.277
		c-8.044-1.813-14.539-6.092-18.323-13.438c-6.357-12.342-7.43-25.218-1.49-38.024c7.152-15.418,22.968-20.535,37.354-16.302
		c7.22,2.125,12.25,7.119,15.82,13.615c3.67,6.682,4.898,13.955,4.976,21.481C96.188,101.554,96.089,101.928,96.021,102.423z
		 M84.383,93.213c-0.714-7.052-3.492-12.774-9.758-16.201c-6.931-3.789-13.946-3.565-20.5,0.923
		c-5.262,3.604-7.495,8.991-8.095,15.278C58.931,93.213,71.568,93.213,84.383,93.213z"/>
	<path fill-rule="evenodd" clip-rule="evenodd" fill="#FFFFFF" d="M132.076,89.178c0.452-0.61,0.768-1.026,1.072-1.452
		c5.16-7.235,10.332-14.46,15.452-21.724c0.633-0.895,1.285-1.258,2.388-1.238c3.976,0.065,7.952,0.025,12.393,0.025
		c-8.153,10.905-16.089,21.521-24.085,32.219c8.954,12.494,17.88,24.946,26.97,37.627c-0.746,0.05-1.201,0.107-1.656,0.108
		c-3.836,0.007-7.673-0.041-11.509,0.029c-1.153,0.021-1.837-0.348-2.479-1.31c-5.765-8.646-11.581-17.255-17.384-25.876
		c-0.323-0.48-0.657-0.953-1.134-1.644c-0.408,0.561-0.745,0.994-1.051,1.448c-5.859,8.699-11.727,17.392-17.549,26.115
		c-0.61,0.914-1.243,1.285-2.355,1.267c-4.025-0.069-8.053-0.026-12.424-0.026c0.439-0.679,0.716-1.147,1.031-1.589
		c8.06-11.309,16.111-22.625,24.213-33.904c0.724-1.007,0.688-1.637-0.036-2.614c-7.426-10.029-14.802-20.098-22.186-30.157
		c-0.331-0.449-0.637-0.916-1.098-1.586c0.743-0.049,1.206-0.104,1.669-0.105c3.884-0.007,7.771,0.028,11.655-0.026
		c0.988-0.013,1.587,0.315,2.141,1.129c4.912,7.229,9.863,14.432,14.805,21.641C131.246,88.015,131.584,88.482,132.076,89.178z"/>
	<path fill-rule="evenodd" clip-rule="evenodd" d="M84.383,93.213c-12.815,0-25.453,0-38.353,0c0.6-6.287,2.833-11.674,8.095-15.278
		c6.554-4.488,13.569-4.712,20.5-0.923C80.891,80.439,83.669,86.161,84.383,93.213z"/>
</g>
</svg>
