<?xml version="1.0" encoding="utf-8"?>
<!-- Generator: Adobe Illustrator 16.0.0, SVG Export Plug-In . SVG Version: 6.00 Build 0)  -->
<!DOCTYPE svg PUBLIC "-//W3C//DTD SVG 1.1//EN" "http://www.w3.org/Graphics/SVG/1.1/DTD/svg11.dtd">
<svg version="1.1" xmlns="http://www.w3.org/2000/svg" xmlns:xlink="http://www.w3.org/1999/xlink" x="0px" y="0px" width="200px"
	 height="200px" viewBox="0 0 200 200" enable-background="new 0 0 200 200" xml:space="preserve">
<g id="Layer_2" display="none">
	<rect x="14" y="14" display="inline" fill-rule="evenodd" clip-rule="evenodd" fill="#FEFEFE" width="172" height="172"/>
</g>
<g id="Layer_1">
	<g>
		<path fill-rule="evenodd" clip-rule="evenodd" fill="#63BDE2" d="M162.456,112.345c6.983-1.784,14.08-0.411,21.115-0.752
			c2.67-0.129,2.527,1.901,2.513,3.709c-0.059,6.933-0.129,13.866-0.196,20.798c-2.78,2.277-6.091,1.185-9.187,1.41
			c-4.031,0.293-8.107-0.477-12.1,0.49c-0.438,0.341-0.85,0.703-1.191,1.143c-1.348,4.756-0.293,9.599-0.606,14.381
			c-0.155,2.302,0.266,4.661-0.763,6.871c-0.343,0.57-0.814,0.988-1.415,1.273c-7.521,0.817-15.037,1.302-22.527-0.273
			c-0.596-0.417-0.83-0.989-0.711-1.703c0.62-5.537,0.091-11.097,0.31-16.64c0.076-1.875-0.585-4.054,1.675-5.257
			c6.114-0.251,12.242-0.092,18.364-0.245c0.703-0.273-0.374-1.011,0.029-0.42c-5.599,1.125-11.258,0.222-16.881,0.51
			c-0.894-0.063-1.93,0.123-2.063-1.219c4.42-0.091,8.841-0.238,13.265-0.262c9.339-0.05,9.16-0.027,9.411-9.142
			c0.135-4.859-1.201-9.836,0.852-14.586c1.253,6.104,1.678,12.272,1.563,18.43c0.358-4.41,0.854-8.769-0.956-12.964
			c-0.093-5.78-0.192-4.943,7.45-4.93c10.2,1.552,10.2,1.552,10.302,13.517c-0.419-3.625,0.659-7.938-0.588-12.15
			c-4.043-1.629-8.364-0.712-12.502-1.414C165.912,112.633,164.077,113.456,162.456,112.345z"/>
		<path fill-rule="evenodd" clip-rule="evenodd" fill="#63BDE3" d="M15.096,86.516c-1.276-0.872-0.921-2.219-0.924-3.408
			c-0.076-21.899-0.138-43.797-0.152-65.696c-0.001-1.303-0.63-2.922,1.112-3.766c0.463,0.478,0.813,1.027,1.053,1.649
			c0.85,7.432,0.161,14.894,0.413,22.337c0.017,0.629,0.015,1.262,0.007,1.891c-0.052,5.721,0.088,11.445-0.062,17.162
			c-0.089,3.405,1.125,4.835,4.657,4.789c5.711-0.075,11.431-0.264,17.147,0.042c0.651,0.369,0.807,0.889,0.475,1.559
			c0.008,6.226,0.081,12.451-0.016,18.675c-0.025,1.65,0.803,3.612-1.089,4.893C30.186,84.916,22.633,87.106,15.096,86.516z"/>
		<path fill-rule="evenodd" clip-rule="evenodd" fill="#5DBCDC" d="M136.574,38.208c-6.229-0.004-12.46,0.053-18.687-0.053
			c-1.649-0.027-3.605,0.855-4.891-1.054c1.104-5.776,0.24-11.608,0.47-17.408c0.085-2.131-0.158-4.29,1.686-5.891
			c15.405-0.061,30.812-0.122,46.221-0.183c0.057,0.286,0.108,0.571,0.163,0.855c-0.357,0.472-0.812,0.812-1.364,1.027
			c-2.787,0.757-5.647,0.317-8.465,0.514c-16.924,0.459-13.194-1.271-13.671,13.463c-0.074,2.303,0.049,4.602,0.265,6.902
			c0.031,0.565-0.073,1.102-0.298,1.618C137.591,38.505,137.112,38.575,136.574,38.208z"/>
		<path fill-rule="evenodd" clip-rule="evenodd" fill="#64BDE2" d="M15.13,185.318c-1.75-0.839-1.111-2.465-1.109-3.762
			c0.015-21.897,0.078-43.798,0.152-65.696c0.004-1.197-0.323-2.531,0.888-3.44c1.25,6.515,0.103,13.064,0.574,18.846
			c0.006-4.76,0.117-10.275-0.045-15.781c-0.084-2.852,0.998-3.684,3.752-3.676c5.355,0.009,10.711,0.415,16.064,0.068
			c2.622-0.17,2.839,1.461,2.786,3.447c-0.188,6.969,0.408,13.955-0.464,20.91c-0.98,0.962-2.245,1.161-3.52,1.336
			c-3.57,0.192-7.146,0.052-10.722,0.092c-6.482,0.076-6.704,0.283-6.784,6.557c-0.063,5.005,0.107,10.01-0.075,15.022
			c0.001,0.641-0.012,1.274-0.019,1.916c-0.283,7.5,0.438,15.018-0.407,22.505C15.964,184.291,15.604,184.84,15.13,185.318z"/>
		<path fill-rule="evenodd" clip-rule="evenodd" fill="#63BDE2" d="M137.718,159.655c0.006,0.416,0.01,0.827,0.013,1.241
			c0.354,0.549,0.523,1.152,0.523,1.805c-0.653,6.848,1.156,13.847-1.247,20.59c-8.028,1.507-16.066,2.013-24.106,0.055
			c-0.056-6.076,0.066-12.16-0.231-18.227c-0.184-3.73,1.438-4.554,4.759-4.407c4.818,0.211,9.663-0.148,14.477,0.12
			c3.682,0.203,5.143-0.93,4.922-4.788c-0.297-5.168-0.119-10.364-0.041-15.552c0.022-1.323-0.668-2.9,0.9-3.904
			C138.577,144.276,138.437,151.964,137.718,159.655z"/>
		<path fill-rule="evenodd" clip-rule="evenodd" fill="#2089C9" d="M185.875,15.663c-0.002,7.496-0.002,14.992-0.004,22.488
			c-1.836,1.858-4.224,1.574-6.464,1.503c-5.776-0.183-11.587,0.668-17.333-0.56c-0.636-0.291-1.131-0.746-1.488-1.347
			c-1.181-7.258-1.319-14.516,0.078-21.765c1.176-1.372,2.788-1.498,4.421-1.425C172.018,14.867,179.032,13.62,185.875,15.663z"/>
		<path fill-rule="evenodd" clip-rule="evenodd" fill="#5CBCDD" d="M185.945,61.827c0.049,7.287,0.093,14.574,0.145,21.861
			c0.015,1.831,0.131,3.826-2.522,3.692c-7.036-0.354-14.136,1.006-21.113-0.775c6.569-1.24,13.178-0.148,19.329-0.576
			c-4.599-0.001-9.645-0.171-14.673,0.057c-3.497,0.16-4.734-1.133-4.763-4.606c-0.049-5.513,0.687-11.064-0.498-16.546
			c-0.175-0.678-0.352-1.357-0.524-2.038c-0.34-0.621-0.199-1.105,0.422-1.451c0.578-0.192,1.168-0.262,1.773-0.229
			C170.983,61.868,178.498,60.711,185.945,61.827z"/>
		<path fill-rule="evenodd" clip-rule="evenodd" fill="#2089C9" d="M185.881,160.809c0.03,7.862,0.061,15.722,0.085,23.584
			c-0.7,0.356-1.194,0.17-1.479-0.565c-0.071-6.115,0.014-12.237-0.091-18.354c0.145,4.867-0.154,9.746,0.076,14.604
			c0.161,3.342-1.325,4.366-4.435,4.382c-5.887,0.036-11.78-0.35-17.669,0.251c-0.729,0.117-1.291-0.13-1.696-0.749
			c-1.003-7.735-2.115-15.479,0.707-23.098l0.004-0.041C169.55,158.317,177.716,158.326,185.881,160.809z"/>
		<path fill-rule="evenodd" clip-rule="evenodd" fill="#25AADA" d="M185.945,61.827c-7.854,1.716-15.714,1.723-23.572,0.034
			c-2.926-6.725-1.215-13.713-1.075-20.596c0.039-1.857,1.632-2.538,3.494-2.528c5.913,0.031,11.83,0.104,17.741-0.025
			c2.978-0.067,2.932,1.709,2.997,3.822c0.172,5.354-0.541,10.728,0.391,16.062C185.932,59.671,185.941,60.75,185.945,61.827z"/>
		<path fill-rule="evenodd" clip-rule="evenodd" fill="#63BDE2" d="M63.271,39.278c-0.015,7.167-0.033,14.335-0.049,21.503
			c-7.907,1.828-15.822,1.585-23.748,0.116c-2.26-6.433-1.011-13.024-0.828-19.559c0.043-1.511,1.076-2.955,2.585-3.038
			C48.6,37.897,56.046,36.327,63.271,39.278z"/>
		<path fill-rule="evenodd" clip-rule="evenodd" fill="#64BDE2" d="M39.827,136.343c6.447-0.068,12.901-0.004,19.341-0.259
			c3.23-0.127,4.446,0.863,4.346,4.229c-0.205,6.801-0.024,13.619-0.002,20.428c-0.635,0.655-1.428,0.804-2.297,0.724
			c-1.344-0.301-2.659-0.663-3.485-1.906c-0.484-1.46,0.748-2.165,1.297-3.226c1.488-2.876-0.38-5.693-3.561-5.997
			c-5.382-0.519-10.993,1.461-16.153-1.479c-0.71-1.282-0.74-2.575-0.076-3.879c0.781-1.03,1.834-0.971,2.904-0.652
			c6.207,1.852,12.37,1.335,18.577-0.323c-0.048-1.585-0.553-3.12-0.872-4.669c-3.781-1.626-7.718-0.371-11.55-0.73
			c-2.636-0.245-5.36,0.403-7.91-0.798C39.798,137.469,39.614,136.981,39.827,136.343z"/>
		<path fill-rule="evenodd" clip-rule="evenodd" fill="#65B9DB" d="M161.344,184.434c0.349,0.051,0.702,0.061,1.052,0.03
			c7.53-0.914,15.06-0.899,22.584-0.014c0.332,0.019,0.661-0.002,0.986-0.058c-1.127,2.188-3.172,1.167-4.757,1.167
			c-21.264,0.025-42.525-0.028-63.787-0.174c-1.626-0.008-4.232,1.281-4.521-2.04c6.623-0.744,13.431,1.603,19.977-1.312
			c0.872-0.391,2.469,0.846,3.729,1.329c7.039-1.104,14.112-0.369,21.179-0.439C159.132,183.051,160.326,183.536,161.344,184.434z"
			/>
		<path fill-rule="evenodd" clip-rule="evenodd" fill="#3EACE1" d="M61.291,160.734c0.741,0,1.48,0.002,2.221,0.007l0.017-0.021
			c0.319,0.626,0.208,1.161-0.326,1.61c-5.163,2.109-10.574,0.984-15.86,1.018c-4.287,0.021-6.332,1.385-5.983,5.884
			c0.233,3.015,0.076,6.062,0.06,9.091c-0.016,3.153,1.499,4.541,4.583,4.505c5.837-0.069,11.762,0.729,17.347-1.808
			c1.345,1.397,1.285,2.808,0.043,4.228c-16.086,0.026-32.174,0.05-48.261,0.071c-0.007-0.306-0.001-0.609,0.013-0.917
			c0.466-0.399,0.978-0.73,1.531-0.997c4.794-0.91,9.644-0.22,14.462-0.46c1.894-0.097,4.029,0.565,5.357-1.526
			c1.357-4.566,0.375-9.23,0.655-13.827c0.131-2.127-0.091-4.29,0.816-6.322c0.33-0.599,0.802-1.041,1.412-1.347
			C46.732,158.813,54.05,158.742,61.291,160.734z"/>
		<path fill-rule="evenodd" clip-rule="evenodd" fill="#6CC3E5" d="M63.305,161.923c0.073-0.401,0.148-0.802,0.223-1.203
			c6.943,0.008,13.887,0.102,20.828-0.014c2.727-0.049,3.863,0.883,3.801,3.687c-0.126,5.693-0.148,11.396,0.01,17.087
			c0.081,2.954-0.885,4.146-3.963,4.043c-6.932-0.234-13.875-0.199-20.813-0.275c0.003-1.347,0.006-2.691,0.01-4.039
			C60.836,174.796,60.988,168.364,63.305,161.923z"/>
		<path fill-rule="evenodd" clip-rule="evenodd" fill="#1F87CD" d="M63.646,110.218c0.004-7.157,0.005-14.318,0.008-21.476
			c4.609-1.143,9.301-0.228,13.931-0.54c1.438,0.274,1.618,1.251,1.109,2.364c-0.382,0.84-1.265,1.325-2.148,1.435
			c-5.714,0.714-8.701,3.669-8.117,9.658c-2.163,2.477-0.651,6.003-2.45,8.58C65.196,110.81,64.417,110.854,63.646,110.218z"/>
		<path fill-rule="evenodd" clip-rule="evenodd" fill="#38AAE1" d="M185.881,160.809c-8.165,0.008-16.331,0.01-24.501,0.013
			c-0.015-6.235-0.071-12.466-0.026-18.7c0.012-1.71-0.58-3.607,1.011-5.027c2.903,4.222,1.438,9.005,1.612,13.535
			c0.276,7.239,0.276,7.468,7.632,7.428c13.148-0.074,11.651,1.42,11.726-11.729c0.045-7.355-0.187-7.355-7.423-7.631
			c-4.533-0.174-9.315,1.29-13.538-1.612c5.789-2.229,11.803-0.521,17.691-1.003c1.93-0.156,3.883,0.003,5.823,0.019
			C185.888,144.334,185.886,152.573,185.881,160.809z"/>
		<path fill-rule="evenodd" clip-rule="evenodd" fill="#57C2E9" d="M161.344,61.79c-0.005,0.368-0.014,0.738-0.019,1.104
			c-5.685-0.111-11.368-0.223-17.051-0.336c1.322-3.132,4.179-1.756,6.42-2.167c2.487-0.456,5.387,1.086,7.399-1.558
			c1.167-4.775,0.405-9.605,0.496-14.4c0.038-2.071-0.956-3.485-3.175-3.466c-4.968,0.043-9.973-0.796-14.865,0.634
			c-2.763,3.676-0.777,7.9-1.406,11.806c-0.396,2.459,1.014,5.439-2.037,7.145c-0.176-7.45-0.356-14.897-0.532-22.346
			c0.412-0.026,0.822-0.049,1.233-0.074c7.85-2.335,15.706-2.26,23.565-0.041l0.016,0.062
			C162.121,46.034,162.179,53.914,161.344,61.79z"/>
		<path fill-rule="evenodd" clip-rule="evenodd" fill="#6CC3E5" d="M38.695,13.597c15.301-0.035,30.604-0.077,45.907-0.093
			c1.38-0.001,3.346-0.242,3.315,1.718c-0.116,7.528,1.322,15.12-0.775,22.578c-1.09-0.898-1.33-2.163-1.493-3.458
			c-0.349-5.295,0.184-10.614-0.407-15.894c-0.61-2.575-2.661-2.403-4.601-2.398c-5.784,0.016-11.567-0.084-17.357,0.023
			c-7.388,0.07-14.773,0.32-22.158-0.157c-0.652-0.119-1.263-0.346-1.842-0.665c-0.239-0.225-0.477-0.452-0.712-0.679
			C38.613,14.247,38.653,13.921,38.695,13.597z"/>
		<path fill-rule="evenodd" clip-rule="evenodd" fill="#6BB4D8" d="M37.652,136.072c-1.255-1.089-0.453-2.132-0.344-3.443
			c0.479-5.858,0.281-11.773,0.316-17.667c0.01-1.791-0.905-2.486-2.691-2.476c-4.944,0.032-9.893,0.069-14.832-0.127
			c-3.084-0.125-4.07,1.159-3.984,4.107c0.152,5.336,0.042,10.673-1.056,16.038c0-6.695,0-13.391,0-20.085
			c7.127-2.051,14.397-0.486,21.597-0.79c2.642-0.108,2.156,2.33,2.167,4.02c0.041,6.756,0.02,13.511,0.023,20.263
			c-0.187,0.137-0.37,0.271-0.555,0.407C38.078,136.238,37.865,136.154,37.652,136.072z"/>
		<path fill-rule="evenodd" clip-rule="evenodd" fill="#3AACE3" d="M161.344,61.79c0.016-7.877,0.029-15.757,0.045-23.636
			c8.161-0.001,16.32-0.002,24.482-0.003c0.017,6.816,0.034,13.63,0.05,20.444c-2.061-4.802-0.705-9.833-0.827-14.742
			c-0.084-3.429-1.022-4.833-4.598-4.644c-4.632,0.247-9.294,0.227-13.929,0.005c-3.396-0.163-4.298,1.292-4.218,4.429
			c0.165,6.069,0.032,12.146,0.023,18.218C162.028,61.853,161.687,61.828,161.344,61.79z"/>
		<path fill-rule="evenodd" clip-rule="evenodd" fill="#56B6D8" d="M161.85,64.933c2.436-0.635,1.577,1.262,1.597,2.233
			c0.074,4.281,0.327,8.591-0.05,12.84c-0.412,4.643,1.494,5.868,5.807,5.574c4.77-0.327,9.577-0.075,14.395,1.024
			c-7.05,0-14.098,0-21.144,0C160.434,79.433,161.605,72.171,161.85,64.933z"/>
		<path fill-rule="evenodd" clip-rule="evenodd" fill="#67B3CB" d="M137.106,60.554c1.214-5.235,0.192-10.548,0.569-15.81
			c0.132-1.859-0.718-3.941,1.076-5.482c2.802,4.024,1.422,8.603,1.599,12.937c0.27,6.601,0.368,6.696,6.959,6.969
			c4.333,0.179,8.916-1.221,12.93,1.619c-3.242,2.155-6.869,0.6-10.288,1.061c-1.889,0.258-3.91-0.523-5.677,0.712
			C141.817,62.136,138.44,64.994,137.106,60.554z"/>
		<path fill-rule="evenodd" clip-rule="evenodd" fill="#5CC6EF" d="M63.271,39.278c-6.247-0.004-12.504,0.195-18.74-0.085
			c-3.886-0.177-4.938,1.34-4.78,4.976c0.241,5.522,0.058,11.063,0.055,16.596c0.646,0.615,0.643,1.241,0.033,1.877
			c-0.34,0.144-0.679,0.289-1.018,0.435c-0.041-0.444-0.083-0.888-0.123-1.332c-0.51-0.468-0.872-1.03-1.091-1.685
			c-0.177-7.303-1.498-14.653,0.857-21.863c3.146-2.435,6.834-1.386,10.292-1.441c4.421-0.069,8.873-0.462,13.281,0.358
			c0.647,0.242,1.176,0.643,1.584,1.197C63.581,38.661,63.464,38.983,63.271,39.278z"/>
		<path fill-rule="evenodd" clip-rule="evenodd" fill="#69B8D4" d="M39.839,62.641c-0.012-0.626-0.021-1.25-0.033-1.877
			c7.806,0.005,15.612,0.011,23.415,0.017c0.084,2.64-1.932,2.028-3.351,2.028C53.192,62.808,46.517,62.706,39.839,62.641z"/>
		<path fill-rule="evenodd" clip-rule="evenodd" fill="#3277A4" d="M63.646,110.218c0.664-0.021,1.329-0.039,1.993-0.059
			c0.711-0.556,1.481-0.995,2.379-1.174c0.878-0.153,1.766-0.189,2.653-0.207c4.552-0.467,9.208,0.713,13.674-0.882
			c2.302-2.215,1.059-5.041,1.273-7.578c0.313-3.69-0.39-7.433,0.5-11.109c0.278-0.54,0.621-1.032,1.024-1.482
			c1.955,7.295,0.48,14.717,0.794,22.076c0.057,1.305-0.931,1.852-2.131,1.841c-7.119-0.052-14.238-0.119-21.354-0.254
			C64.175,111.385,63.914,110.626,63.646,110.218z"/>
		<path fill-rule="evenodd" clip-rule="evenodd" fill="#5BC6EF" d="M61.291,160.734c-7.51,0.007-15.019,0.014-22.528,0.026
			c-1.803-1.681-1.624-3.936-1.48-6.015c0.426-6.144-1.348-12.439,1.244-18.431c0,0,0.322-0.4,0.322-0.403
			c0.327,0.142,0.653,0.288,0.979,0.431c-0.003,0.259,0.001,0.523,0.013,0.785c0.385,0.469,0.703,0.975,0.964,1.522
			c0.587,2.149,0.538,4.195-0.982,6c0,1.434,0,2.868,0,4.3c0.558,0.696,1.03,1.441,1.244,2.322c1.644,6.773,1.643,6.738,8.882,6.849
			c2.791,0.04,5.731-0.479,8.149,1.577C59.256,159.752,60.513,159.497,61.291,160.734z"/>
		<path fill-rule="evenodd" clip-rule="evenodd" fill="#67BADB" d="M87.078,34.97c0.022,0.944,0.043,1.89,0.065,2.833
			c-7.529,0.731-15.065,0.456-22.602,0.158c-1.43-1.634-1.442-3.343-0.272-5.109C71.528,37.268,79.368,35.41,87.078,34.97z"/>
		<path fill-rule="evenodd" clip-rule="evenodd" fill="#2581B7" d="M185.875,15.663c-0.451,0.71-1.297,2.043-1.306,2.038
			c-7.391-4.603-15.521-0.888-23.184-2.104c-0.296-0.22-0.4-0.449-0.315-0.687c0.088-0.24,0.173-0.36,0.269-0.36l0.004-0.002
			c8.166-0.89,16.336-0.851,24.508-0.032C185.859,14.899,185.865,15.282,185.875,15.663z"/>
		<path fill-rule="evenodd" clip-rule="evenodd" fill="#59B5D8" d="M115.152,13.801c-1.8,5.627-0.92,11.431-1.173,17.165
			c-0.091,2.061,0.789,4.327-0.982,6.135c-0.089-6.761-0.199-13.522-0.249-20.284C112.736,15.248,112.548,13.366,115.152,13.801z"/>
		<path fill-rule="evenodd" clip-rule="evenodd" fill="#5BB8DD" d="M15.096,86.516c1.289-3.152,3.794-0.881,5.432-0.834
			c5.725,0.161,11.595-1.449,17.189,0.961c-4.815,0.096-9.63,0.189-14.444,0.285c-2.716,0.098-5.452,0.688-8.116-0.365
			L15.096,86.516z"/>
		<path fill-rule="evenodd" clip-rule="evenodd" fill="#2EA9DE" d="M185.851,14.516c-8.172,0.009-16.341,0.021-24.508,0.032
			c-0.004-0.311,0.005-0.621,0.03-0.929c7.267-0.048,14.532-0.111,21.797-0.125C184.146,13.491,185.357,13.134,185.851,14.516z"/>
		<path fill-rule="evenodd" clip-rule="evenodd" fill="#6DB4CF" d="M137.718,159.655c-0.009-7.691-0.021-15.379-0.032-23.067
			c0.377-0.056,0.755-0.112,1.137-0.167c0.333,0.245,0.665,0.492,0.998,0.739c0.354,0.23,0.471,0.46,0.352,0.686
			c-0.121,0.225-0.241,0.339-0.359,0.339c-2.282,3.754-0.486,7.877-1.065,11.784C138.27,153.185,139.804,156.612,137.718,159.655z"
			/>
		<path fill-rule="evenodd" clip-rule="evenodd" fill="#3EACE3" d="M38.695,13.597c0.032,0.305,0.047,0.612,0.045,0.92
			c-7.866,2.447-15.732,2.417-23.599,0.011c-0.012-0.294-0.016-0.588-0.012-0.881C22.985,13.63,30.84,13.612,38.695,13.597z"/>
		<path fill-rule="evenodd" clip-rule="evenodd" fill="#2975AB" d="M112.864,88.782c0.169-1.479,1.306-1.453,2.357-1.455
			c6.37-0.018,12.74-0.021,19.107-0.004c1.047,0.004,2.195-0.016,2.321,1.485c-0.522,0.401-1.084,0.735-1.685,1.01
			c-6.809,0.819-13.619,0.846-20.43-0.001C113.942,89.534,113.385,89.187,112.864,88.782z"/>
		<path fill-rule="evenodd" clip-rule="evenodd" fill="#2F78A1" d="M136.665,110.14c-0.11,1.496-1.229,1.531-2.3,1.533
			c-6.391,0.021-12.786,0.023-19.179,0.006c-1.059-0.002-2.193-0.013-2.332-1.502c0.524-0.396,1.088-0.731,1.682-1.015
			c6.809-0.853,13.623-0.828,20.438-0.028C135.574,109.402,136.137,109.742,136.665,110.14z"/>
		<path fill-rule="evenodd" clip-rule="evenodd" fill="#2976AD" d="M87.142,87.728c-0.046,0.357-0.093,0.714-0.138,1.07
			c-0.458,0.407-0.97,0.726-1.534,0.964c-2.44,0.555-4.825,0.701-6.94-1c-4.96-0.008-9.918-0.013-14.876-0.021
			c0.091-1.14,0.904-1.434,1.828-1.409C72.699,87.519,79.937,86.75,87.142,87.728z"/>
		<path fill-rule="evenodd" clip-rule="evenodd" fill="#6CC3E5" d="M64.55,32.819c-0.003,1.715-0.006,3.43-0.009,5.143
			c-0.28,0.182-0.587,0.297-0.918,0.35l-0.398-0.272c-0.426-0.518-0.745-1.099-0.962-1.735c-0.224-6.878-1.623-13.814,0.928-20.571
			c2.081-0.807,2.083,1.005,2.661,2.102C66.006,22.879,67.425,28.037,64.55,32.819z"/>
		<path fill-rule="evenodd" clip-rule="evenodd" fill="#127FCC" d="M114.016,110.185c-0.386-0.004-0.773-0.006-1.161-0.008
			c0.004-7.133,0.006-14.264,0.01-21.395c0.382-0.006,0.766-0.014,1.149-0.021C116.687,95.9,116.687,103.042,114.016,110.185z"/>
		<path fill-rule="evenodd" clip-rule="evenodd" fill="#137DC6" d="M136.665,110.14c-0.394,0.015-0.779,0.026-1.167,0.041
			c-2.638-7.137-2.644-14.271,0.006-21.404c0.382,0.009,0.763,0.02,1.146,0.032C136.655,95.919,136.657,103.028,136.665,110.14z"/>
		<path fill-rule="evenodd" clip-rule="evenodd" fill="#63BDE3" d="M15.157,86.563c2.708,0.125,5.414,0.248,8.119,0.368
			C20.534,87.556,17.798,88.088,15.157,86.563z"/>
		<path fill-rule="evenodd" clip-rule="evenodd" fill="#61BDE2" d="M181.756,113.466c0,6.567,0,13.136,0,19.703
			c-0.521,0.004-1.043,0.004-1.563,0.007c-1.208-3.79-0.67-7.798-0.49-11.652c0.22-4.785-0.349-8.148-6.391-7.061
			c-0.687,0.122-1.536-0.644-2.309-0.997C174.589,112.61,178.173,112.616,181.756,113.466z"/>
		<path fill-rule="evenodd" clip-rule="evenodd" fill="#2EA9DD" d="M161.344,184.434c-1.081,0.005-2.165,0.015-3.25,0.022
			c-0.188-3.571,0.663-7.067,0.606-10.655c-0.175-11.072,0.661-10.227-10.689-10.392c-3.473-0.053-7.208,1.017-10.333-1.561
			c0-0.318,0.018-0.637,0.053-0.952c7.884-0.014,15.764-0.027,23.649-0.038C161.369,168.718,161.357,176.573,161.344,184.434z"/>
		<path fill-rule="evenodd" clip-rule="evenodd" fill="#5EB9DF" d="M181.756,113.466c-3.583,0-7.167,0-10.753,0
			c-3.694,0.129-8.649-1.502-7.526,5.377c1.779,4.658,1.574,9.319,0,13.976c-0.03,0.175-0.028,0.361-0.099,0.516
			c-0.246,0.568-0.9,0.693-0.912,0.119c-0.093-4.729-0.05-9.458-0.058-14.188c-0.007-2.279-0.039-4.556-0.059-6.833l0.106-0.087
			C168.867,113.102,175.443,111.024,181.756,113.466z"/>
		<path fill-rule="evenodd" clip-rule="evenodd" fill="#61BDE2" d="M163.477,132.818c0-4.656,0-9.317,0-13.976
			C166.571,121.801,166.571,129.071,163.477,132.818z"/>
		<path fill-rule="evenodd" clip-rule="evenodd" fill="#67B7D7" d="M139.813,138.185c0.006-0.341,0.008-0.684,0.008-1.024
			c6.375,0,12.744,0,19.118,0c0.002,0.341,0.009,0.684,0.015,1.024C152.572,138.185,146.191,138.185,139.813,138.185z"/>
		<path fill-rule="evenodd" clip-rule="evenodd" fill="#28A6D1" d="M38.647,60.794c0.024,0.317,0.041,0.634,0.052,0.951
			c-7.112,2.35-14.417,0.777-21.63,0.973c-2.254,0.062-1.952-2.139-1.954-3.681c-0.011-6.578,0.035-13.153,0.061-19.731
			c0.659-0.329,1.189-0.183,1.593,0.432c1.743,4.113,0.83,8.446,0.958,12.684c0.195,6.449,0.313,6.614,6.58,6.769
			c4.263,0.104,8.561-0.497,12.791,0.536C37.666,60.007,38.181,60.364,38.647,60.794z"/>
		<path fill-rule="evenodd" clip-rule="evenodd" fill="#257FB5" d="M15.142,14.528c7.867-0.003,15.732-0.008,23.599-0.011
			l0.017,0.018c0.317,0.666,0.176,1.211-0.421,1.64c-4.598,1.922-9.429,0.83-14.154,1.015c-6.05,0.239-6.207,0.381-6.441,6.29
			c-0.187,4.731,0.862,9.554-0.945,14.181c-0.408,0.632-0.946,0.77-1.607,0.419C15.172,30.229,15.158,22.38,15.142,14.528z"/>
		<path fill-rule="evenodd" clip-rule="evenodd" fill="#37ADE2" d="M15.188,38.08c0.315,0.055,0.633,0.063,0.952,0.028
			c7.224-2.733,14.548-1.871,21.884-0.604c0.248,0.233,0.494,0.471,0.738,0.708c-0.037,7.526-0.075,15.053-0.114,22.581
			c-0.332-0.016-0.662-0.029-0.994-0.038c-2.807-4.021-1.42-8.597-1.596-12.931c-0.268-6.609-0.344-6.686-6.951-6.953
			c-4.334-0.175-8.909,1.206-12.935-1.589l-0.5-0.004c0,0-0.501,0.025-0.5,0.026C15.18,38.898,15.185,38.488,15.188,38.08z"/>
		<path fill-rule="evenodd" clip-rule="evenodd" fill="#24AADA" d="M137.695,37.117c-2.302-6.775-0.572-13.748-0.976-20.618
			c-0.113-1.917,1.504-1.504,2.722-1.54c4.072-0.116,8.144-0.273,12.214-0.414c0.156,0.079,0.309,0.212,0.475,0.233
			c8.644,1.078,8.71,1.078,8.612,10.028c-0.043,4.058,1.729,9.312-0.732,11.861c-2.728,2.826-8.093,0.806-12.298,0.898
			C144.385,37.643,140.985,38.223,137.695,37.117z"/>
		<path fill-rule="evenodd" clip-rule="evenodd" fill="#2EA9DE" d="M137.695,37.117c6.254-0.003,12.509-0.082,18.763,0.028
			c2.702,0.047,4.014-0.877,3.81-3.713c-0.128-1.777-0.011-3.572-0.018-5.358c-0.015-3.396,0.475-6.892-0.174-10.162
			c-0.962-4.838-6.278-0.46-8.421-3.368c3.227,0.003,6.454,0.003,9.684,0.005c-0.011,0.349,0.004,0.699,0.047,1.047
			c-0.006,7.5-0.01,14.999-0.013,22.496c-7.855,0.013-15.71,0.027-23.565,0.041C137.731,37.799,137.695,37.46,137.695,37.117z"/>
		<path fill-rule="evenodd" clip-rule="evenodd" fill="#25AADA" d="M15.172,159.668c-0.024-6.45,0.084-12.903-0.13-19.346
			c-0.111-3.314,1.106-4.432,4.36-4.291c5.007,0.215,10.031,0.078,15.046,0.091c2.642,0.323,3.958,1.46,3.811,4.476
			c-0.263,5.362-0.108,10.748-0.055,16.121c0.019,1.949-0.237,4.003-2.472,4.067C28.862,160.978,21.873,162.714,15.172,159.668z"/>
		<path fill-rule="evenodd" clip-rule="evenodd" fill="#37AAE0" d="M15.172,159.668c6.083,0.011,12.168-0.115,18.244,0.09
			c3.315,0.112,4.435-1.127,4.296-4.366c-0.198-4.64-0.28-9.315,0.037-13.945c0.195-2.848-1.165-4.198-3.301-5.324
			c1.068-0.019,2.135-0.032,3.204-0.05c0.303,0.037,0.596,0.115,0.875,0.242c0.077,8.151,0.155,16.297,0.235,24.446l-0.166,0.126
			c-7.106,2.927-14.428,1.344-21.693,1.049c-0.634-0.245-1.206-0.596-1.717-1.049C15.181,160.482,15.177,160.077,15.172,159.668z"/>
		<path fill-rule="evenodd" clip-rule="evenodd" fill="#257EB3" d="M15.186,160.887c0.314-0.051,0.631-0.064,0.95-0.032
			c3.178,7.142,1.505,14.531,1.12,21.854c-0.281,0.626-0.646,1.196-1.093,1.715l-0.511,0.024c0,0-0.51-0.045-0.508-0.047
			C15.158,176.565,15.171,168.726,15.186,160.887z"/>
		<path fill-rule="evenodd" clip-rule="evenodd" fill="#25AADA" d="M137.678,161.849c6.059,0.004,12.121,0.12,18.177-0.038
			c3.093-0.08,4.617,0.754,4.45,4.174c-0.225,4.444-0.185,8.915,0,13.362c0.093,2.188-0.681,3.747-2.211,5.105
			c-7.146-0.648-14.434,1.438-21.487-1.089C137.313,176.209,135.297,168.92,137.678,161.849z"/>
		<path fill-rule="evenodd" clip-rule="evenodd" fill="#2283BF" d="M184.979,184.45c-7.524,0.002-15.054,0.006-22.584,0.014
			c5.262-2.432,10.821-0.926,16.207-0.962c4.264-0.024,5.659-1.293,5.382-5.501c-0.329-4.931-0.078-9.898,0.995-14.859
			C184.979,170.244,184.979,177.348,184.979,184.45z"/>
		<path fill-rule="evenodd" clip-rule="evenodd" fill="#63BDE3" d="M58.097,159.698c-4.228,0.004-8.473-0.254-12.673,0.076
			c-4.323,0.341-6.26-1.052-5.648-5.547c0.235-1.73,0.042-3.517,0.045-5.277c7.278,0,14.553,0,21.635,0
			c0.846,2.461-2.364,2.612-1.65,3.094C66.052,156.268,58.64,157.191,58.097,159.698z"/>
		<path fill-rule="evenodd" clip-rule="evenodd" fill="#63BDE3" d="M39.822,144.65c-0.004-2.149-0.008-4.3-0.013-6.446
			c7.171-0.851,14.343-0.857,21.512,0.004c0.023,0.883-0.273,1.958,0.121,2.62c2.68,4.49-1.123,5.511-3.689,5.644
			C51.749,146.788,45.473,148.291,39.822,144.65z"/>
		<path fill-rule="evenodd" clip-rule="evenodd" fill="#67B6D6" d="M61.321,138.208c-7.169-0.004-14.341-0.004-21.512-0.004
			c0.01-0.358,0.02-0.718,0.03-1.076c7.129,0.061,14.256,0.12,21.385,0.199c0.091,0,0.245,0.237,0.255,0.374
			C61.491,137.863,61.38,138.036,61.321,138.208z"/>
		<path fill-rule="evenodd" clip-rule="evenodd" fill="#24AADA" d="M63.305,161.923c0.032,6.431,0.064,12.858,0.097,19.285
			c-1.124,2.146-2.471,3.491-5.322,3.304c-4.811-0.314-9.66-0.184-14.486-0.056c-2.733,0.073-3.89-0.906-3.813-3.726
			c0.136-5.005,0.167-10.022-0.009-15.026c-0.111-3.183,1.354-3.957,4.212-3.89C50.42,161.962,56.863,161.901,63.305,161.923z"/>
		<path fill-rule="evenodd" clip-rule="evenodd" fill="#1F89C9" d="M16.175,183.346c-0.013-7.496-0.026-14.992-0.04-22.494
			c7.488,0.013,14.978,0.021,22.462,0.031c0.027,7.497,0.056,14.986,0.086,22.48C31.18,184.076,23.677,184.296,16.175,183.346z"/>
		<path fill-rule="evenodd" clip-rule="evenodd" fill="#2282BF" d="M16.175,183.346c7.502,0.008,15.005,0.013,22.509,0.018
			c-5.243,2.389-10.768,0.537-16.139,1.049c-2.109,0.202-4.254,0.021-6.383,0.012C16.166,184.065,16.171,183.707,16.175,183.346z"/>
		<path fill-rule="evenodd" clip-rule="evenodd" fill="#63BDE2" d="M64.551,181.215c-0.001-4.979,0.118-9.962-0.048-14.938
			c-0.1-3.053,0.688-4.632,4.134-4.472c4.791,0.22,9.607,0.224,14.399,0c3.453-0.164,4.239,1.429,4.123,4.476
			c-0.178,4.618-0.073,9.247-0.089,13.868c-0.683,2.459-1.903,3.936-4.851,3.79c-4.602-0.227-9.223-0.176-13.827-0.006
			C66.214,184.016,65.156,183.074,64.551,181.215z"/>
		<path fill-rule="evenodd" clip-rule="evenodd" fill="#65B8DA" d="M64.551,181.215c4.723,3.666,18.908,2.998,22.52-1.065
			c0.292,2.652-0.193,4.445-3.556,4.321c-5.122-0.184-10.257-0.113-15.382-0.019C65.778,184.499,64.327,183.865,64.551,181.215z"/>
		<path fill-rule="evenodd" clip-rule="evenodd" fill="#1C87D1" d="M78.529,88.762c2.506,0.004,5.009,0.007,7.516,0.012
			c0.857,7.134,0.857,14.27,0,21.406c-5.372,0.005-10.742,0.01-16.114,0.018c-0.048-5.86,1.293-7.208,7.588-7.616
			c0.715-0.045-0.282-0.883,0.014-0.23c0.058,0.132-0.096,0.195-0.465,0.215c-2.083,0.105-4.088,0.45-5.729-1.623
			c-0.931-1.178-0.605,1.064-1.416,1.01c-0.791,0.309-1.509,0.242-2.151-0.319c-0.084-2.606,0.539-5.349-1.812-7.598
			C70.234,91.901,75.193,92.208,78.529,88.762z"/>
		<path fill-rule="evenodd" clip-rule="evenodd" fill="#1D85D5" d="M67.773,101.634c0.717,0.002,1.432,0.002,2.149,0.002
			c0.865,3.252-0.835,5.853-2.161,8.549c-0.707-0.008-1.417-0.015-2.123-0.024C66.53,107.362,63.475,103.58,67.773,101.634z"/>
		<path fill-rule="evenodd" clip-rule="evenodd" fill="#26AADB" d="M162.373,137.084c6.07,0.01,12.14,0.14,18.203-0.012
			c3.092-0.08,4.614,0.736,4.462,4.174c-0.222,4.989-0.121,9.991-0.032,14.989c0.044,2.5-0.972,3.53-3.48,3.488
			c-5.175-0.091-10.354-0.129-15.528,0.01c-2.906,0.079-3.657-1.283-3.621-3.901c0.084-6.245,0.004-12.491-0.012-18.738
			L162.373,137.084z"/>
		<path fill-rule="evenodd" clip-rule="evenodd" fill="#5EBCDC" d="M160.239,60.787c-5.844-0.005-11.693-0.118-17.532,0.032
			c-2.997,0.077-4.079-1.052-4.001-4.025c0.15-5.84,0.046-11.688,0.046-17.532c5.845,0.004,11.691,0.114,17.532-0.035
			c2.992-0.077,4.085,1.05,4.009,4.027C160.14,49.095,160.241,54.941,160.239,60.787z"/>
		<path fill-rule="evenodd" clip-rule="evenodd" fill="#25AADA" d="M63.474,15.613c-0.053,7.145-0.105,14.293-0.155,21.44
			c-7.225,1.295-14.509,0.277-21.763,0.548c-1.71,0.063-2.838-0.974-2.885-2.536c-0.204-6.868-1.633-13.82,1.138-20.525
			c7.847,0.019,15.695,0.041,23.543,0.062c0.438,0.175,0.6,0.383,0.491,0.625C63.728,15.482,63.604,15.613,63.474,15.613z"/>
		<path fill-rule="evenodd" clip-rule="evenodd" fill="#64BDE2" d="M64.55,32.819c0-5.021,0-10.042,0-15.064
			c0.328-0.423,0.364-1.109,0.659-1.389c2.518-2.382,19.424-1.25,21.859,1.397c0.004,5.735,0.006,11.471,0.009,17.207
			c-1.304,1.596-2.885,2.3-5.039,2.189c-3.519-0.18-7.083-0.341-10.571,0.033C67.77,37.589,65.612,36.249,64.55,32.819z"/>
		<path fill-rule="evenodd" clip-rule="evenodd" fill="#3EACE3" d="M39.809,14.54c0.001,5.899,0.18,11.805-0.059,17.695
			c-0.149,3.658,0.944,5.135,4.806,4.956c6.244-0.29,12.51-0.116,18.765-0.138c0.056,0.338,0.026,0.666-0.092,0.986
			c-8.156,0.058-16.311,0.115-24.465,0.174L38.6,38.077c-2.483-7.496-2.54-14.987,0.067-22.468c0.03-0.358,0.061-0.716,0.091-1.074
			C39.108,14.525,39.459,14.528,39.809,14.54z"/>
		<path fill-rule="evenodd" clip-rule="evenodd" fill="#67BADB" d="M87.068,17.763c-2.193-1.489-4.23-3.443-6.968-0.669
			c-1.126,1.143-2.461,0.219-3.845-0.382c-3.993-1.735-8.075-2.286-11.705,1.044c-0.023-0.882-0.21-1.684-1.076-2.142
			c-0.04-0.339-0.08-0.676-0.121-1.013c6.55-0.02,13.103-0.013,19.655-0.072C85.301,14.506,87.437,14.517,87.068,17.763z"/>
		<path fill-rule="evenodd" clip-rule="evenodd" fill="#1F87CD" d="M67.761,110.185c-0.512-3.16,0.508-5.936,2.161-8.549
			c0.203-1.899-0.485-3.899,0.583-5.683c1.371-0.214,1.55,0.724,1.516,1.6c-0.182,4.883,2.713,4.647,5.925,3.455
			c1.133-0.42,2.167-1.869,2.55,0.453c0.254,1.53-0.824,2.527-2.223,2.234c-5.45-1.138-6.745,2.827-8.341,6.503
			C69.208,110.194,68.485,110.189,67.761,110.185z"/>
		<path fill-rule="evenodd" clip-rule="evenodd" fill="#1580CB" d="M86.045,110.181c0-7.137,0-14.272,0-21.406
			c0.32-0.021,0.642-0.014,0.959,0.022C86.627,95.923,88.313,103.141,86.045,110.181z"/>
		<path fill-rule="evenodd" clip-rule="evenodd" fill="#1D87D0" d="M135.504,88.777c-0.002,7.134-0.006,14.269-0.006,21.404
			c-7.162,0-14.322,0.004-21.482,0.004c0-7.143-0.002-14.284-0.002-21.425C121.176,88.767,128.342,88.771,135.504,88.777z"/>
		<path fill-rule="evenodd" clip-rule="evenodd" fill="#24AADA" d="M16.173,39.285c5.84-0.006,11.682,0.096,17.52-0.058
			c2.981-0.08,4.092,1.03,4.013,4.013c-0.151,5.835-0.047,11.679-0.049,17.518c-5.841,0.004-11.684-0.096-17.52,0.058
			c-2.979,0.08-4.095-1.026-4.017-4.011C16.273,50.968,16.171,45.124,16.173,39.285z"/>
		<path fill-rule="evenodd" clip-rule="evenodd" fill="#1F89CA" d="M38.667,15.609c-0.021,7.49-0.042,14.981-0.065,22.47
			c-7.487,0.01-14.974,0.021-22.46,0.031c0.007-6.256,0.1-12.514-0.015-18.766c-0.051-2.774,1.008-3.82,3.775-3.766
			C26.153,15.697,32.41,15.611,38.667,15.609z"/>
		<path fill-rule="evenodd" clip-rule="evenodd" fill="#1F87CD" d="M80.147,96.726c-1.818,0.632-3.638,1.264-5.455,1.896
			c-0.099-0.669-0.512-1.53-0.243-1.979C75.883,94.249,77.949,95.265,80.147,96.726z"/>
	</g>
</g>
</svg>
