<?xml version="1.0" encoding="utf-8"?>
<!-- Generator: Adobe Illustrator 16.0.0, SVG Export Plug-In . SVG Version: 6.00 Build 0)  -->
<!DOCTYPE svg PUBLIC "-//W3C//DTD SVG 1.1//EN" "http://www.w3.org/Graphics/SVG/1.1/DTD/svg11.dtd">
<svg version="1.1" id="Layer_1" xmlns="http://www.w3.org/2000/svg" xmlns:xlink="http://www.w3.org/1999/xlink" x="0px" y="0px"
	 width="200px" height="200px" viewBox="0 0 200 200" enable-background="new 0 0 200 200" xml:space="preserve">
<g id="Layer_1_1_">
	<g>
		<g id="XMLID_19_">
			<rect id="XMLID_21_" x="0.777" fill="none" width="199.999" height="200"/>
			<g>
				<g>
					<defs>
						<path id="SVGID_1_" d="M150.257,49.375c-0.417-2.292-2.501-3.751-4.793-3.438c-0.833,0.104-1.668,0.521-2.291,1.146
							L121.506,68.75l-16.979-32.396c-1.041-2.083-3.543-2.813-5.625-1.771c-0.729,0.416-1.355,1.042-1.771,1.771l-9.272,17.709
							L64.527,10.521c-1.042-1.979-3.646-2.813-5.625-1.667c-1.146,0.625-1.979,1.771-2.188,3.02L34.11,156.249l60.312,33.854
							c3.751,2.083,8.438,2.083,12.189,0l60.833-33.854L150.257,49.375z"/>
					</defs>
					<clipPath id="SVGID_2_">
						<use xlink:href="#SVGID_1_"  overflow="visible"/>
					</clipPath>
					<g clip-path="url(#SVGID_2_)">
						<path fill="#FFA000" d="M34.11,156.249L56.714,11.874c0.312-2.291,2.5-3.854,4.792-3.436c1.25,0.208,2.396,1.041,3.021,2.187
							l23.332,43.542l9.272-17.708c1.042-2.083,3.542-2.813,5.625-1.771c0.73,0.416,1.354,1.042,1.771,1.771l62.917,119.791H34.11z"
							/>
						
							<linearGradient id="SVGID_3_" gradientUnits="userSpaceOnUse" x1="399.3701" y1="518.4502" x2="383.7029" y2="510.2641" gradientTransform="matrix(0.5319 0 0 0.5319 -152.3408 -168.9395)">
							<stop  offset="0" style="stop-color:#A52714"/>
							<stop  offset="0.4" style="stop-color:#A52714;stop-opacity:0.5"/>
							<stop  offset="0.8" style="stop-color:#A52714;stop-opacity:0"/>
						</linearGradient>
						<path opacity="0.12" fill="url(#SVGID_3_)" enable-background="new    " d="M111.194,9.375L0.777,0v200l33.333-43.751
							L111.194,9.375z"/>
						<path fill="#F57C00" d="M112.13,100L87.859,54.063L34.11,156.249L112.13,100z"/>
						
							<linearGradient id="SVGID_4_" gradientUnits="userSpaceOnUse" x1="465.9277" y1="495.6748" x2="458.917" y2="488.664" gradientTransform="matrix(0.5319 0 0 0.5319 -152.3408 -168.9395)">
							<stop  offset="0" style="stop-color:#A52714;stop-opacity:0.8"/>
							<stop  offset="0.5" style="stop-color:#A52714;stop-opacity:0.21"/>
							<stop  offset="1" style="stop-color:#A52714;stop-opacity:0"/>
						</linearGradient>
						<path opacity="0.2" fill="url(#SVGID_4_)" enable-background="new    " d="M0.777,0h199.999v200H0.777V0z"/>
						<path fill="#FFCA28" d="M167.444,156.249L150.151,49.271c-0.416-2.292-2.499-3.75-4.79-3.438
							c-0.835,0.104-1.668,0.52-2.292,1.146L34.11,156.249l60.312,33.854c3.751,2.083,8.438,2.083,12.189,0L167.444,156.249z"/>
						<path fill="#FFFFFF" fill-opacity="0.2" d="M150.257,49.375c-0.417-2.292-2.501-3.751-4.793-3.438
							c-0.833,0.104-1.668,0.521-2.291,1.146L121.506,68.75l-16.979-32.396c-1.041-2.083-3.543-2.813-5.625-1.771
							c-0.729,0.416-1.355,1.042-1.771,1.771l-9.272,17.709L64.527,10.521c-1.042-1.979-3.646-2.813-5.625-1.667
							c-1.146,0.625-1.979,1.771-2.188,3.02L34.11,156.249h-0.104l0.104,0.105l0.625,0.312l86.771-86.875l21.667-21.667
							c1.665-1.667,4.271-1.667,5.937,0c0.626,0.625,1.042,1.354,1.147,2.292l17.081,105.938l0.21-0.105L150.257,49.375z
							 M34.318,156.041L56.714,12.917c0.312-2.292,2.5-3.855,4.792-3.438c1.25,0.208,2.396,1.042,3.021,2.188l23.332,43.541
							L97.131,37.5c1.042-2.083,3.542-2.813,5.625-1.771c0.73,0.417,1.354,1.041,1.771,1.771l16.667,31.666L34.318,156.041z"/>
						<path opacity="0.2" fill="#A52714" enable-background="new    " d="M106.611,189.061c-3.752,2.084-8.438,2.084-12.189,0
							l-60.208-33.748l-0.104,0.937l60.312,33.854c3.751,2.083,8.438,2.083,12.189,0l60.833-33.854l-0.106-0.937L106.611,189.061z"
							/>
						
							<linearGradient id="SVGID_5_" gradientUnits="userSpaceOnUse" x1="-553.3872" y1="-1187.5688" x2="-455.334" y2="-1285.6222" gradientTransform="matrix(1.4202 0 0 -1.4202 816.4434 -1645.9961)">
							<stop  offset="0" style="stop-color:#FFFFFF;stop-opacity:0.1"/>
							<stop  offset="1" style="stop-color:#FFFFFF;stop-opacity:0"/>
						</linearGradient>
						<path fill="url(#SVGID_5_)" d="M150.257,49.375c-0.417-2.292-2.501-3.751-4.793-3.438c-0.833,0.104-1.668,0.521-2.291,1.146
							L121.506,68.75l-16.979-32.396c-1.041-2.083-3.543-2.813-5.625-1.771c-0.729,0.416-1.355,1.042-1.771,1.771l-9.272,17.709
							L64.527,10.521c-1.042-1.979-3.646-2.813-5.625-1.667c-1.146,0.625-1.979,1.771-2.188,3.02L34.11,156.249l60.312,33.854
							c3.751,2.083,8.438,2.083,12.189,0l60.833-33.854L150.257,49.375z"/>
					</g>
				</g>
			</g>
		</g>
	</g>
</g>
</svg>
