<?xml version="1.0" encoding="utf-8"?>
<!-- Generator: Adobe Illustrator 16.0.0, SVG Export Plug-In . SVG Version: 6.00 Build 0)  -->
<!DOCTYPE svg PUBLIC "-//W3C//DTD SVG 1.1//EN" "http://www.w3.org/Graphics/SVG/1.1/DTD/svg11.dtd">
<svg version="1.1" id="Layer_1" xmlns="http://www.w3.org/2000/svg" xmlns:xlink="http://www.w3.org/1999/xlink" x="0px" y="0px"
	 width="200px" height="200px" viewBox="0 0 200 200" enable-background="new 0 0 200 200" xml:space="preserve">
<g>
	<path fill-rule="evenodd" clip-rule="evenodd" d="M107.647,193.322c-4.929,0-9.856,0-14.785,0
		c-3.817-0.665-7.688-1.107-11.442-2.027c-37.076-9.09-60.676-32.076-70.604-68.945c-1.244-4.62-1.743-9.442-2.587-14.17
		c0-4.589,0-9.177,0-13.766C8.435,93,8.675,91.59,8.841,90.172C13.435,50.986,43.12,18.573,81.631,10.77
		c4.053-0.821,8.166-1.346,12.25-2.008c4.589,0,9.177,0,13.766,0c1.979,0.324,3.953,0.697,5.94,0.964
		c36.432,4.898,67.366,32.526,76.215,68.246c1.297,5.236,2.006,10.618,2.987,15.933c0,4.929,0,9.856,0,14.785
		c-0.691,3.983-1.138,8.026-2.11,11.939c-8.924,35.885-31.119,59.187-66.624,69.578C118.737,191.763,113.124,192.31,107.647,193.322
		z M37.254,108.144c0.035,0.266,0.069,0.53,0.104,0.796c0.448-0.027,0.897-0.042,1.344-0.083c6.157-0.568,12.312-1.181,18.476-1.66
		c0.755-0.059,1.919,0.364,2.296,0.949c5.001,7.771,12.442,11.798,21.114,13.961c2.579,0.643,5.199,1.116,7.258,1.553
		c-1.469,2.918-2.902,5.823-4.407,8.691c-0.23,0.439-0.783,0.991-1.204,1.007c-5.788,0.212-11.56,0.568-16.202-4.119
		c-2.37-2.394-5.054-4.553-7.874-6.392c-1.587-1.035-3.74-1.203-6.027-1.877c2.255,2.705,4.165,4.728,5.751,6.979
		c1.509,2.14,2.68,4.518,3.997,6.792c3.363,5.81,8.372,8.7,15.112,8.565c2.167-0.043,4.335-0.007,6.656-0.007
		c0,3.701,0.054,7.004-0.016,10.304c-0.073,3.448,0.818,7.087-2.152,10.072c7.124,0.367,9.911-2.232,9.911-8.886
		c0-5.352-0.053-10.705,0.047-16.055c0.019-1.027,0.636-2.044,0.977-3.065c0.306,0.08,0.613,0.16,0.92,0.24
		c0,6.502,0.092,13.006-0.043,19.506c-0.06,2.86-0.584,5.712-0.915,8.724c0.693-0.068,2.021-0.131,3.327-0.337
		c4.416-0.697,5.838-2.367,5.841-6.771c0.004-6.371-0.014-12.742,0.018-19.113c0.004-0.857,0.239-1.713,0.367-2.569
		c0.307-0.03,0.614-0.061,0.921-0.092c0.2,0.839,0.567,1.677,0.574,2.517c0.049,6.201,0.321,12.421-0.063,18.599
		c-0.321,5.166,4.297,8.538,9.101,7.541c-0.407-2.286-1.066-4.526-1.156-6.79c-0.181-4.58-0.054-9.172-0.054-13.759
		c0-2.509,0-5.017,0-7.525c0.32-0.082,0.64-0.164,0.959-0.246c0.343,1.017,0.964,2.027,0.98,3.049
		c0.094,5.944-0.116,11.899,0.152,17.834c0.074,1.628,1.05,3.663,2.291,4.693c2.215,1.838,5.132,2.105,8.647,1.908
		c-3.05-2.357-3.211-5.176-3.152-8.142c0.091-4.671-0.027-9.345,0.037-14.017c0.08-5.877,0.423-11.793-4.416-16.691
		c1.063-0.169,1.63-0.241,2.189-0.353c0.581-0.115,1.153-0.273,1.732-0.4c9.784-2.151,18.283-6.249,23.607-15.316
		c0.344-0.585,1.534-1.015,2.291-0.962c5.745,0.404,11.481,0.942,17.22,1.447c0.854,0.076,1.706,0.193,2.56,0.291
		c0.039-0.3,0.077-0.6,0.116-0.9c-6.767-1.973-13.819-2.049-20.949-2.665c0.682-0.755,1.452-1.341,2.227-1.348
		c5.937-0.05,11.875,0.021,17.813,0.034c0.888,0.002,1.775-0.097,2.664-0.148c-0.015-0.33-0.028-0.66-0.043-0.991
		c-7.143,0-14.285,0-21.577,0c0.215-1.114,0.319-1.696,0.439-2.275c2.502-12.046,0.917-23.271-6.549-33.384
		c-0.571-0.774-0.618-2.009-0.717-3.048c-0.436-4.626-0.806-9.259-1.191-13.89c-0.177-2.116-1.344-2.586-3.296-2.25
		c-5.753,0.988-11.145,2.847-16.1,5.994c-0.882,0.56-2.208,0.853-3.233,0.685c-7.922-1.302-15.902-1.96-23.843-0.813
		c-5.055,0.73-9.501,0.92-14.129-2.127c-4.206-2.77-9.296-3.947-14.573-3.814c-1.795,6.054-2.176,11.982-1.016,18.026
		c0.151,0.787,0.038,1.922-0.438,2.488c-6.14,7.306-7.917,15.8-6.918,25.036c0.323,2.988,0.962,5.941,1.48,9.049
		c-7.02,0.017-14.008-0.503-20.873,1.047c1.428,0.453,2.832,0.335,4.237,0.329c5.344-0.021,10.689-0.049,16.032,0.041
		c0.723,0.012,1.436,0.675,2.153,1.036c-0.082,0.258-0.163,0.515-0.244,0.771C50.883,106.047,43.893,105.954,37.254,108.144z"/>
	<path fill-rule="evenodd" clip-rule="evenodd" fill="#FFFFFF" d="M37.254,108.144c6.639-2.189,13.629-2.097,20.569-2.328
		c0.081-0.257,0.163-0.514,0.244-0.771c-0.718-0.361-1.43-1.024-2.153-1.036c-5.343-0.09-10.688-0.063-16.032-0.041
		c-1.405,0.006-2.809,0.124-4.237-0.329c6.865-1.55,13.853-1.03,20.873-1.047c-0.518-3.107-1.157-6.061-1.48-9.049
		c-1-9.236,0.778-17.73,6.918-25.036c0.476-0.566,0.589-1.701,0.438-2.488c-1.16-6.043-0.779-11.972,1.016-18.026
		c5.276-0.133,10.367,1.044,14.573,3.814c4.628,3.047,9.074,2.858,14.129,2.127c7.941-1.146,15.921-0.488,23.843,0.813
		c1.025,0.168,2.352-0.125,3.233-0.685c4.955-3.147,10.347-5.006,16.1-5.994c1.952-0.335,3.119,0.134,3.296,2.25
		c0.386,4.631,0.756,9.264,1.191,13.89c0.099,1.039,0.146,2.274,0.717,3.048c7.466,10.112,9.051,21.337,6.549,33.384
		c-0.12,0.579-0.225,1.161-0.439,2.275c7.292,0,14.435,0,21.577,0c0.015,0.331,0.028,0.661,0.043,0.991
		c-0.889,0.052-1.776,0.15-2.664,0.148c-5.938-0.014-11.876-0.084-17.813-0.034c-0.774,0.007-1.545,0.593-2.227,1.348
		c7.13,0.616,14.183,0.692,20.949,2.665c-0.039,0.301-0.077,0.601-0.116,0.9c-0.854-0.098-1.705-0.215-2.56-0.291
		c-5.738-0.505-11.475-1.043-17.22-1.447c-0.757-0.053-1.947,0.377-2.291,0.962c-5.324,9.067-13.823,13.165-23.607,15.316
		c-0.579,0.127-1.151,0.285-1.732,0.4c-0.56,0.111-1.126,0.184-2.189,0.353c4.839,4.898,4.496,10.814,4.416,16.691
		c-0.064,4.672,0.054,9.346-0.037,14.017c-0.059,2.966,0.103,5.784,3.152,8.142c-3.516,0.197-6.433-0.07-8.647-1.908
		c-1.241-1.03-2.217-3.065-2.291-4.693c-0.269-5.935-0.059-11.89-0.152-17.834c-0.017-1.021-0.638-2.032-0.98-3.049
		c-0.319,0.082-0.639,0.164-0.959,0.246c0,2.509,0,5.017,0,7.525c0,4.587-0.127,9.179,0.054,13.759
		c0.09,2.264,0.749,4.504,1.156,6.79c-4.804,0.997-9.422-2.375-9.101-7.541c0.385-6.178,0.112-12.397,0.063-18.599
		c-0.007-0.84-0.374-1.678-0.574-2.517c-0.307,0.031-0.614,0.062-0.921,0.092c-0.128,0.856-0.363,1.712-0.367,2.569
		c-0.031,6.371-0.014,12.742-0.018,19.113c-0.003,4.404-1.425,6.074-5.841,6.771c-1.305,0.206-2.633,0.269-3.327,0.337
		c0.331-3.012,0.855-5.863,0.915-8.724c0.135-6.5,0.043-13.004,0.043-19.506c-0.307-0.08-0.614-0.16-0.92-0.24
		c-0.341,1.021-0.958,2.038-0.977,3.065c-0.1,5.35-0.047,10.703-0.047,16.055c0,6.653-2.788,9.253-9.911,8.886
		c2.971-2.985,2.08-6.624,2.152-10.072c0.07-3.3,0.016-6.603,0.016-10.304c-2.321,0-4.489-0.036-6.656,0.007
		c-6.74,0.135-11.749-2.756-15.112-8.565c-1.317-2.274-2.488-4.652-3.997-6.792c-1.586-2.251-3.497-4.273-5.751-6.979
		c2.287,0.674,4.44,0.842,6.027,1.877c2.82,1.839,5.504,3.998,7.874,6.392c4.642,4.688,10.414,4.331,16.202,4.119
		c0.421-0.016,0.973-0.567,1.204-1.007c1.504-2.868,2.938-5.773,4.407-8.691c-2.059-0.437-4.68-0.91-7.258-1.553
		c-8.672-2.163-16.112-6.19-21.114-13.961c-0.376-0.585-1.541-1.008-2.296-0.949c-6.165,0.479-12.319,1.092-18.476,1.66
		c-0.447,0.041-0.896,0.056-1.344,0.083C37.323,108.674,37.289,108.409,37.254,108.144z"/>
</g>
</svg>
