<?xml version="1.0" encoding="utf-8"?>
<!-- Generator: Adobe Illustrator 16.0.0, SVG Export Plug-In . SVG Version: 6.00 Build 0)  -->
<!DOCTYPE svg PUBLIC "-//W3C//DTD SVG 1.1//EN" "http://www.w3.org/Graphics/SVG/1.1/DTD/svg11.dtd">
<svg version="1.1" id="Layer_1" xmlns="http://www.w3.org/2000/svg" xmlns:xlink="http://www.w3.org/1999/xlink" x="0px" y="0px"
	 width="200px" height="200px" viewBox="0 0 200 200" enable-background="new 0 0 200 200" xml:space="preserve">
<path fill="#6762A6" d="M155.112,189.713H44.831c-9.434,0-17.08-7.646-17.08-17.078V27.711c0-9.433,7.646-17.079,17.079-17.079
	h110.281c9.432,0,17.08,7.646,17.08,17.079v144.924C172.191,182.067,164.543,189.713,155.112,189.713L155.112,189.713z"/>
<path fill="#FFFFFF" d="M118.27,165.072V93.954c0,0,4.624-17.019-56.98,6.962c-0.113,0.305-0.113-65.763-0.113-65.763l20.13-0.125
	v42.331c0,0,56.358-22.198,56.358,16.835v70.878h-19.394H118.27z M129.739,60.648h-21.35c7.685-9.396,14.642-25.495,14.642-25.495
	h22.077C145.108,35.153,141.328,45.645,129.739,60.648L129.739,60.648z M61.542,164.95v-40.5l20.252,20.251L61.542,164.95z"/>
</svg>
