<?xml version="1.0" encoding="utf-8"?>
<!-- Generator: Adobe Illustrator 16.0.0, SVG Export Plug-In . SVG Version: 6.00 Build 0)  -->
<!DOCTYPE svg PUBLIC "-//W3C//DTD SVG 1.1//EN" "http://www.w3.org/Graphics/SVG/1.1/DTD/svg11.dtd">
<svg version="1.1" id="Layer_1" xmlns="http://www.w3.org/2000/svg" xmlns:xlink="http://www.w3.org/1999/xlink" x="0px" y="0px"
	 width="200px" height="200px" viewBox="0 0 200 200" enable-background="new 0 0 200 200" xml:space="preserve">
<g id="Layer_1_1_">
	
		<line fill="none" stroke="#000000" stroke-width="1.0111" stroke-miterlimit="10" x1="99.499" y1="100.362" x2="99.499" y2="83.173"/>
	
		<line fill="none" stroke="#000000" stroke-width="1.0111" stroke-miterlimit="10" x1="98.993" y1="100.868" x2="114.159" y2="100.868"/>
</g>
<g id="Layer_2">
	<g>
		<g>
			<g>
				<path d="M42.054,0.071h9.012v8.904h8.242V0.071h9.012v26.961h-9.012v-9.029h-8.242v9.029h-9.012V0.071L42.054,0.071z"/>
				<path d="M80.17,9.012h-7.933v-8.94h24.881v8.94h-7.937v18.021h-9.012L80.17,9.012L80.17,9.012z"/>
				<path d="M101.068,0.071h9.396l5.78,9.474l5.774-9.474h9.398v26.961h-8.972V13.667l-6.201,9.586h-0.154l-6.204-9.586v13.363
					h-8.818V0.071z"/>
				<path d="M135.903,0.071h9.013v18.05h12.674v8.911h-21.687V0.071z"/>
			</g>
		</g>
	</g>
	<g id="Guides_to_delete">
		<g>
			<polygon fill="#E34E26" points="41.564,183.883 28.635,38.845 170.65,38.845 157.704,183.896 99.606,200 			"/>
			<polygon fill="#EF662A" points="99.642,50.7 99.642,187.681 146.621,174.659 157.688,50.7 			"/>
			<polygon fill="#FFFFFF" points="55.088,68.491 59.883,122.284 121.539,122.284 119.472,145.359 99.619,150.726 79.805,145.365 
				78.479,130.55 60.624,130.55 63.178,159.109 99.614,169.228 136.097,159.109 140.988,104.499 76.153,104.499 74.527,86.282 
				142.548,86.282 142.604,86.282 144.193,68.491 			"/>
			<g>
				<polygon fill="#EBEBEB" points="99.642,68.491 55.088,68.491 59.883,122.284 99.642,122.284 99.642,104.499 76.153,104.499 
					74.527,86.282 99.642,86.282 				"/>
				<polygon fill="#EBEBEB" points="99.642,150.718 99.619,150.726 79.805,145.365 78.479,130.55 60.624,130.55 63.178,159.109 
					99.614,169.228 99.642,169.224 				"/>
			</g>
		</g>
	</g>
</g>
</svg>
