<?xml version="1.0" encoding="utf-8"?>
<!-- Generator: Adobe Illustrator 16.0.0, SVG Export Plug-In . SVG Version: 6.00 Build 0)  -->
<!DOCTYPE svg PUBLIC "-//W3C//DTD SVG 1.1//EN" "http://www.w3.org/Graphics/SVG/1.1/DTD/svg11.dtd">
<svg version="1.1" xmlns="http://www.w3.org/2000/svg" xmlns:xlink="http://www.w3.org/1999/xlink" x="0px" y="0px" width="500px"
	 height="500px" viewBox="0 0 500 500" enable-background="new 0 0 500 500" xml:space="preserve">
<g id="colorv">
	<path fill="#FFFF66" d="M394.279,183.301c-0.074,0.109-0.155,0.209-0.232,0.315c-0.913-1.338-2.55-2.123-4.616-1.677
		c-1.709,0.369-3.22,1.045-4.69,1.755c-2.793-0.23-5.565-0.625-8.328-1.3c-1.58-0.386-7.858-1.858-8.406-3.761
		c-1.225-4.254-6.679-3.768-8.252-0.743c-2.291-0.975-4.6-1.911-6.998-2.641c-2.768-0.842-5.561-1.52-8.352-2.197
		c-2.446-2.099-4.65-4.899-6.828-6.765c-4.204-3.598-8.431-7.072-12.188-11.151c-3.66-3.976-7.231-7.677-11.73-10.721
		c-1.692-1.145-3.208-2.261-4.621-3.424c-1.663-1.852-3.313-3.711-4.853-5.653c-0.547-0.69-1.157-1.121-1.786-1.342
		c-0.298-0.403-0.597-0.8-0.894-1.231c-2.9-4.212-5.516-8.614-8.338-12.879c-0.701-4.386-1.685-8.642-2.951-13.109
		c-2.185-7.699-1.31-15.03-1.46-22.88c-0.108-5.667-8.907-5.677-8.799,0c0.167,8.708-0.489,16.667,1.774,25.219
		c0.792,2.993,1.767,5.891,2.436,8.88c-0.138,0.309-0.252,0.642-0.313,1.025c-0.72,4.527,0.166,8.746,1.879,12.707
		c0.027,0.207,0.043,0.416,0.073,0.622c1.134,7.998,4.833,13.421,9.688,19.655c5.211,6.691,10.769,12.609,17.688,17.554
		c5.175,3.697,11.02,6.352,16.965,8.569c0.021,0.016,0.041,0.035,0.063,0.051c6.476,5.345,13.564,9.344,21.387,12.353
		c0.739,0.284,1.454,0.603,2.158,0.933c0.03,0.017,0.06,0.036,0.091,0.053c0.857,0.481,1.744,0.916,2.639,1.332
		c5.275,2.85,10.015,6.056,16.599,5.076c10.537,1.507,22.781-1.367,28.795-10.186C405.083,183.04,397.455,178.644,394.279,183.301z"
		/>
	<path fill="#66CCFF" d="M417.875,272.188c0.303-3.701-5.112-6.007-7.51-3.11c-0.696,0.841-1.416,1.645-2.149,2.431
		c-2.58-0.715-5.474-0.854-7.718-1.08c-4.612-0.468-7.924,2.06-10.566,5.488c-3.057,3.963-6.646,6.349-10.482,9.222
		c-0.391,0.008-0.779,0.028-1.176,0.024c-6.108-0.06-12.186-1.047-18.28-1.385c-6.79-0.375-13.36,1.227-20.125,1.308
		c-8.212,0.097-16.281-1.521-24.341-3.165c-7.777-3.104-15.564-6.186-23.403-9.135c-5.326-2.005-10.809-3.697-16.243-5.384
		c-0.723-0.225-1.516-0.419-2.343-0.612c-0.035-0.021-0.069-0.038-0.104-0.062c-1.572-1.073-2.939-2.518-4.45-3.684
		c-2.757-2.13-5.623-3.58-9.154-3.609c-1.501-0.916-3.078-1.529-4.667-1.753c2.363-4.054-2.697-9.143-6.158-6.088
		c-2.515-1.622-4.925-3.329-7.202-5.19c-0.125-0.732-0.291-1.473-0.499-2.221c-0.564-2.03-2.506-3.245-4.434-3.204
		c0.397-1.906,0.697-3.82,0.852-5.745c0.311-3.859-4.805-5.636-7.386-3.217c0.199-1.103,0.265-2.228,0.127-3.381
		c-0.31-2.597-2.805-4.586-5.108-4.419c-0.122-0.234-0.259-0.464-0.403-0.694c2.811-4.19-2.736-9.596-6.619-5.697
		c-0.034,0.035-0.066,0.07-0.101,0.105c-0.068-0.34-0.148-0.681-0.245-1.023c-0.329-1.156-0.988-1.959-1.8-2.467
		c0.85-1.898,0.311-4.775-1.762-5.662c-2.375-1.015-4.653-2.217-6.781-3.683c-0.812-0.559-1.698-1.32-2.253-2.091
		c-0.842-1.167-0.641-0.879-0.162-2.016c0.933-2.215-0.986-4.838-3.073-5.412c-0.357-0.099-0.701-0.147-1.034-0.161
		c-0.291-0.769-0.598-1.534-0.945-2.297c-0.196-0.433-0.407-0.868-0.616-1.304c-0.516-1.32-1.041-2.636-1.591-3.944
		c-2.9-6.885-7.044-13.861-7.322-21.487c-0.016-0.448-0.092-0.857-0.207-1.234c2.561-3.122,4.965-6.358,6.865-9.963
		c2.28-4.324-3.349-9.053-6.91-5.331c-0.525,0.549-1.026,1.116-1.513,1.694c-0.135-0.359-0.31-0.7-0.513-1.019
		c0.902-1.72,1.765-3.461,2.557-5.242c0.853-1.918,0.196-4.068-1.095-5.438c1.08-1.441,2.111-2.922,3.075-4.46
		c1.705-2.721-0.172-5.595-2.653-6.389c0.281-1.063,0.495-2.161,0.613-3.31c0.25-2.412-1.714-3.879-3.792-4.224
		c0.03-0.859,0.065-1.717,0.127-2.577c0.083-1.154,0.741-1.324,0.167-1.059c5.146-2.38,0.672-9.963-4.44-7.597
		c-5.829,2.696-4.205,10.577-4.864,15.75c-1.302,1.705-2.323,3.745-3.21,5.904c-1.008,1.218-2.043,2.392-2.758,3.507
		c-1.875,2.927-2.861,6.226-3.136,9.632c-4.138,5.595-8.077,12.077-9.391,18.868c-0.757,3.918,3.235,6.864,6.488,4.918
		c0.29,0.377,0.656,0.677,1.069,0.914c-0.556,1.069-1.099,2.144-1.615,3.235c-1.479,3.133,0.453,5.823,2.927,6.396
		c-0.907,1.996-1.335,4.088-0.73,6.233c0.915,3.245,4.289,3.733,6.547,2.445c-0.145,5.672,0.6,11.455,1.28,16.924
		c0.819,6.588,2.199,12.971,5.375,18.856c3.015,5.587,7.498,10.156,11.059,15.372c0.034,0.064,0.075,0.126,0.111,0.19
		c-0.214,4.612-0.178,9.215,0.925,13.743c0.601,2.467,2.768,3.374,4.854,3.034c1.293,1.369,3.502,1.979,5.188,1.128
		c0.104,3.098,3.523,6.247,6.54,3.967c0.739-0.559,1.408-1.155,2.031-1.777c-0.022,0.354-0.061,0.702-0.073,1.059
		c-0.086,2.6,2.5,4.574,4.896,4.421c0.061,0.624,0.234,1.229,0.544,1.758c0.754,1.288,1.97,1.96,3.28,2.087
		c1.379,1.47,3.785,2.097,5.557,1.162c-0.326,0.667-0.636,1.331-0.919,1.989c-1.413,3.291,1.1,6.351,3.757,6.685
		c-0.007,0.027-0.014,0.057-0.021,0.086c-1.104,4.341,4.135,7.275,7.353,4.279c1.096-1.02,2.042-2.144,2.907-3.325
		c0.119,1.359,0.417,2.708,0.958,4.023c0.742,1.803,2.26,2.7,3.832,2.885c0.249,0.729,0.516,1.445,0.827,2.134
		c2.166,4.8,6.428,7.507,11.257,9.069c5.889,1.904,11.584,4.243,17.451,6.204c6.041,2.019,12.405,2.721,18.719,3.241
		c7.388,0.61,14.609,1.69,21.904,2.992c12.231,2.181,24.879,5.385,37.289,2.247c0.156-0.04,0.309-0.091,0.464-0.136
		c0.123,2.093,1.534,4.086,4.242,4.069c8.019-0.051,14.992-4.034,19.609-10.449c6.943-0.611,13.856-1.732,20.598-3.229
		c8.968-1.991,17.904-5.868,19.36-15.972c0.27-1.872,0.419-3.663,0.302-5.383C416.894,278.376,417.626,275.229,417.875,272.188z"/>
	<path fill="#FF9999" d="M401.115,388.509c-5.401,2.491-11.266,3.502-16.884,5.345c-3.647,1.197-9.119,2.553-11.379,5.887
		c-0.17,0.25-0.311,0.506-0.435,0.762c-1.606-0.684-3.454-0.771-5.362,0.029c-3.168,1.333-4.602,3.672-5.086,6.438
		c-0.588-0.736-1.237-1.442-1.967-2.111c-1.4-1.284-3.646-1.81-5.331-0.688c-1.427,0.948-2.548,2.063-3.521,3.316
		c-2.278-0.775-4.88-0.274-7.273,1.789c-0.521,0.447-0.969,0.906-1.359,1.372c-0.325-0.726-0.688-1.425-1.101-2.088
		c-1.348-2.168-3.807-2.627-6.021-1.579c-0.373,0.177-0.695,0.382-0.997,0.599c-1.619-3.513-7.463-4.313-8.118,0.29
		c-0.071,0.504-0.135,1-0.203,1.501c-2.012-3.128-6.3-3.938-9.163-0.702c-0.496,0.562-0.94,1.183-1.339,1.847
		c-0.596-0.744-1.183-1.472-1.75-2.177c-2.057-2.557-5.379-1.332-6.795,1.004c-1.395-1.858-4.004-2.205-5.856-1.196
		c-0.548-1.282-1.293-2.415-2.339-3.287c-0.472-0.393-0.989-0.673-1.521-0.865c-1.128-1.697-3.024-2.121-4.688-1.588
		c-1.548-0.937-3.379-0.774-4.737,0.22c-2.026-1.584-5.231-0.824-6.659,1.646c-1.103-0.108-2.252,0.158-3.188,0.796
		c-2.415-3.225-6.318-5.975-10.47-4.883c-0.851,0.224-1.519,0.613-2.048,1.11c-2.047-0.934-4.712-0.466-5.748,1.857
		c-0.853-1.669-2.154-3.112-3.723-4.217c-1.169-0.825-2.44-1.019-3.664-0.789c0.001-0.662-0.006-1.325-0.023-1.99
		c-0.13-4.76-7.939-6.248-8.642-1.17c-0.126,0.916-0.28,1.822-0.454,2.725c-0.937-0.55-1.956-0.725-2.915-0.58
		c0.108-1.135,0.192-2.277,0.213-3.433c0.098-5.086-6.674-5.562-8.405-1.644c-1.478-1.919-4.214-2.402-6.478-0.484
		c-0.425,0.36-0.83,0.728-1.226,1.098c-1.051-1.458-2.75-2.191-4.697-1.737c-0.032,0.008-0.061,0.021-0.092,0.027
		c-1.336-1.927-4.259-2.812-6.765-0.861c-0.072,0.056-0.138,0.115-0.209,0.171c-0.395-0.102-0.803-0.191-1.236-0.26
		c-0.411-1.98-1.039-3.95-1.967-5.902c-0.48-1.01-1.527-1.735-2.682-2.043c1.335-1.128,2.692-2.211,4.053-3.244
		c4.455-3.385,0.08-11.032-4.441-7.598c-2.771,2.104-5.536,4.334-8.15,6.729c-1.049-1.546-2.918-2.443-4.744-1.802
		c-5.224-4.961-11.899-8.218-17.703-12.442c-7.959-5.794-14.988-12.221-23.948-16.571c-0.457-0.221-0.914-0.345-1.366-0.414
		c-1.73-0.972-3.529-1.873-5.267-2.883c-0.018-1.077-0.032-2.153-0.037-3.228c-0.013-3.243-2.865-4.628-5.319-4.165
		c-0.325-1.953-0.725-3.904-1.229-5.853c-0.639-2.471-3.128-3.571-5.389-3.022c0.077-2.533,0.131-5.067,0.14-7.604
		c0.017-4.909-6.511-5.564-8.33-1.99c-0.421-0.173-0.858-0.28-1.303-0.321c-0.22-2.705-0.812-5.522-2.2-7.383
		c-0.054-0.954-0.433-1.922-1.254-2.759c-0.892-0.909-1.865-1.737-2.873-2.526c0.111-4.985-0.256-9.938-1.403-14.702
		c-1.795-7.461-8.05-12.621-14.823-16.56c-0.725-1.037-1.908-1.616-3.151-1.737c-0.945-0.496-1.888-0.975-2.819-1.431
		c0.006-0.023,0.014-0.045,0.02-0.067c1.543-2.358,3.166-4.664,4.896-6.893c2.708-3.488-0.546-8.154-3.792-7.712
		c-0.216-1.468-0.533-2.946-0.976-4.433c-0.568-1.907-2.12-2.991-3.804-3.14c-0.079-0.601-0.165-1.202-0.257-1.801
		c3.06-6.19,5.224-12.646,4.062-19.636c-0.497-2.988-3.401-3.617-5.73-2.74c-1.247-6.899-3.461-13.501-5.378-20.327
		c-2.572-9.157-2.405-18.996-3.357-28.417c-0.408-4.036-0.931-8.056-1.604-12.048c0.198-7.938,0.481-15.872,0.499-23.776
		c0.012-5.675-8.786-5.673-8.798,0c-0.003,1.191-0.012,2.382-0.024,3.573c-1.934-0.169-3.852,0.756-4.243,3.122
		c-0.496,2.996-0.638,5.969-0.596,8.932c-0.366-0.72-0.754-1.429-1.194-2.118c-1.774-2.783-5.85-2.903-7.598,0
		c-4.894,8.129-5.713,18.077-5.771,27.358c-0.052,8.202,0.521,16.68,2.299,24.775c-0.031,0.088-0.064,0.176-0.096,0.265
		c-2.185,6.283-2.5,12.727-2.394,19.316c0.111,6.881,0.488,13.811,0.601,20.731c-0.191,0.747-0.37,1.491-0.574,2.241
		c-2.109,7.736-5.379,17.422-0.455,24.776c1.142,1.706,3.522,2.434,5.413,1.892c0.784,2.419,1.748,4.785,2.819,7.104
		c0.322,1.763,0.746,3.517,1.303,5.261c-0.527,2.951-0.825,5.97-0.796,9.083c0.007,0.76,0.193,1.414,0.484,1.98
		c-0.412,2.827-0.63,5.648-0.484,8.343c0.161,2.963,2.972,4.78,5.433,4.279c-0.835,2.891-1.375,5.877-1.501,8.993
		c-0.117,2.869,3.029,4.8,5.551,4.349c-0.403,2.18,0.762,3.996,2.381,4.878c-0.333,3.136-0.505,6.293-0.559,9.451
		c-0.006,0.325,0.04,0.632,0.109,0.93c-0.558,1.896-0.946,3.87-1.093,5.951c-0.295,4.161,4.847,5.372,7.51,3.111
		c1.217-1.033,2.319-2.168,3.34-3.376c0.477,1.129,1.027,2.226,1.625,3.271c-0.86,2.034-1.7,4.079-2.488,6.146
		c-1.771,4.647,6.04,7.939,8.041,3.39c0.277-0.63,0.577-1.25,0.867-1.874c1.144,0.87,2.365,1.644,3.601,2.367
		c0.028,0.054,0.058,0.109,0.087,0.163c4.726,8.75,11.326,17,18.296,24.089c-0.054,3.306-0.079,6.608-0.082,9.902
		c-0.004,3.961,4.275,5.153,6.867,3.585c0.006,0.115,0.008,0.231,0.015,0.348c0.227,3.577,4.763,6.152,7.51,3.11
		c0.987-1.093,1.861-2.213,2.644-3.356c-0.07,0.978-0.133,1.952-0.182,2.927c-0.173,1.535-0.244,3.093-0.141,4.692
		c0.316,4.904,6.763,5.604,8.415,1.887c0.419,1.419,0.92,2.841,1.525,4.266c1.482,3.496,5.379,2.621,7.123,0.108
		c1.136,1.244,2.473,2.439,4.047,3.574c4.215,3.043,9.707,3.588,14.877,4.171c0.545,4.019,1.134,8.034,1.37,12.048
		c0.202,3.427,3.615,5.14,6.254,3.93c1.139,3.354,5.526,2.768,7.547,0.403c0.39,4.786,7.007,5.188,8.604,0.768
		c0.346-0.957,0.631-1.923,0.888-2.893c0.153,1.554,0.268,3.11,0.302,4.673c0.053,2.458,1.741,3.85,3.623,4.177
		c0.748,2.229,2.97,3.308,4.975,3.053c1.903,2.743,6.66,2.811,7.787-0.759c0.305,2.115,0.896,4.161,1.912,6.072
		c1.906,3.579,6.636,2.352,7.891-0.824c2.043,0.121,4.228-1.024,4.574-3.176c0-0.006,0.001-0.012,0.002-0.018
		c1.619,4.142,4.521,7.151,9.519,7.179c2.408,0.015,3.938-1.695,4.238-3.709c2.482,0.557,5.5-0.82,5.568-4.13
		c0.008-0.386,0.028-0.77,0.046-1.153c0.468,1.144,1.107,2.179,1.911,3.087c1.562,2.553,3.605,4.879,5.872,5.965
		c0.009,1.157,0.17,2.291,0.657,3.336c0.583,1.252,2.412,2.338,3.799,2.179c1.738-0.2,3.061-0.869,4.104-1.829
		c0.76,1.12,1.994,1.886,3.524,1.829c1.19-0.045,2.333-0.169,3.434-0.375c0.874,2.386,4.269,3.938,6.415,2.317
		c2.377-1.794,4.37-3.462,5.83-5.334c1.83,1.095,4.372,0.948,5.921-1.465c0.392-0.61,0.727-1.244,1.032-1.891
		c0.102,4.491,6.964,5.824,8.646,0.974c0.104-0.406,0.236-0.807,0.392-1.204c1.835,2.191,5.687,2.655,7.195-0.422
		c0.317-0.648,0.688-1.261,1.083-1.857c2.021,2.226,5.695,1.738,7.116-0.54c1.654,1.372,4.468,1.202,5.969-0.326
		c1.099-1.117,1.994-2.312,2.728-3.568c0.222,0.685,0.528,1.355,0.979,2.016c3.752,5.497,9.574,2.173,11.529-2.655
		c0.148-0.367,0.282-0.733,0.404-1.101c0.515,0.353,1.098,0.638,1.775,0.824c4.247,1.169,6.186-2.163,7.288-5.763
		c0.441,1.723,1.264,3.311,2.747,4.38c2.765,1.997,6.057,0.489,7.834-2.013c0.603-0.848,1.092-1.709,1.492-2.583
		c0.337,0.437,0.674,0.868,1.007,1.288c1.566,1.976,4.671,2.701,6.866,1.415c2.058-1.206,2.744-3.494,3.161-5.698
		c1.104,0.764,2.638,1.063,3.785,0.671c4.015-1.376,6.289-4.455,7.727-8.184c1.356,1.27,3.197,1.85,5.404,1.063
		c2.94-1.045,5.107-3.858,6.63-6.657c0.821-0.145,1.612-0.513,2.256-1.141c4.393-4.28,8.208-8.628,12.026-13.423
		c3.236-4.064,7.484-7.309,9.943-11.96C409.304,390.425,405.058,386.69,401.115,388.509z M60.369,179.696
		c-0.017-3.039,0.09-6.15,0.476-9.207C60.931,173.563,60.69,176.682,60.369,179.696z M83.737,272.727
		c0.141-0.438,0.281-0.875,0.418-1.313c0.115-0.005,0.227-0.009,0.341-0.016C84.236,271.836,83.994,272.286,83.737,272.727z
		 M108.264,295.881c0.196,1.15,0.346,2.318,0.442,3.502c-0.38-0.219-0.757-0.437-1.136-0.654c-0.317-0.375-0.613-0.76-0.918-1.142
		C107.353,297.176,107.905,296.588,108.264,295.881z"/>
</g>
<g id="Layer_1">
	<g id="surface1">
		<path d="M301.951,31.116c-1.616-0.039-3.232,0.308-4.695,1.04c-6.196,3.079-10.161,7.621-13.74,11.585
			c-3.542,3.963-6.197,7.505-6.197,7.505c-0.115,0.154-0.23,0.307-0.308,0.462c-9.777,14.703-14.587,31.446-14.78,48.304
			c-0.116,12.971,2.502,26.019,7.583,38.297c12.433,29.83,37.412,52.884,66.778,63.893h0.039c1.347,0.539,2.541,0.962,3.503,1.309
			c0.154,0.038,0.308,0.077,0.461,0.154c0.192,0.038,0.616,0.192,1.349,0.384c1.116,0.385,3.001,1.155,5.772,1.693
			c8.045,1.617,15.55,2.464,22.593,2.694c31.179,0.962,52.771-11.046,66.241-24.171c6.735-6.582,11.546-13.395,14.935-18.938
			c3.424-5.542,6.043-10.545,6.081-10.584h0.037c2.965-4.503,1.771-10.546-2.654-13.587c-4.466-3.04-10.547-1.923-13.664,2.502
			c-7.62,11.201-17.089,17.628-29.176,20.746c-12.085,3.117-26.942,2.656-43.992-1.578c-2.312-0.577-5.158-1.501-7.737-2.463
			c0,0-0.038,0-0.077-0.039c-3.118-1.116-6.313-2.463-9.43-3.964l-0.039-0.039l-0.077-0.039c-5.812-2.887-11.432-6.351-16.55-10.354
			c-14.164-11.007-25.172-29.021-29.869-47.842c-4.694-18.822-3.079-37.989,5.66-51.885c1.886-3.001,2-6.773,0.345-9.891
			C308.688,33.194,305.493,31.231,301.951,31.116z M212.925,50.823c-2.271,0-4.465,0.808-6.197,2.232
			c-15.781,12.855-30.792,32.832-30.792,32.832c-0.116,0.115-0.193,0.27-0.27,0.423c-29.174,42.415-27.366,98.187-5.157,142.181
			c3.657,7.275,7.813,14.357,12.471,21.092c0.038,0.038,0.038,0.038,0.038,0.038c3.657,5.39,8.083,12.434,14.472,18.322
			c2.079,2.387,4.234,4.619,6.389,6.735c0.501,0.54,1.04,1.079,1.54,1.579c0.039,0.077,0.077,0.114,0.115,0.114
			c2.041,2.002,4.157,4.003,6.352,5.967l0.038,0.038c0.078,0.077,0.192,0.192,0.27,0.269l0.154,0.079
			c0.115,0.152,0.269,0.268,0.423,0.385c2.31,2.077,4.657,4.041,7.083,5.927c0.115,0.114,0.192,0.191,0.307,0.27
			c0,0,0.54,0.461,1.655,1.27c2.463,1.925,4.966,3.771,7.429,5.542c0.308,0.231,0.654,0.463,0.961,0.616
			c0.232,0.154,0.385,0.27,0.578,0.423h0.038c0.885,0.616,1.771,1.193,2.501,1.694c0.232,0.154,0.771,0.539,1.655,1.116
			c1.925,1.27,3.811,2.425,5.773,3.618c0.193,0.115,0.423,0.23,0.616,0.347c0,0,0.308,0.154,0.654,0.308
			c0.077,0.077,0.077,0.039,0.193,0.115c1.539,0.924,3.117,1.848,4.772,2.693c0.577,0.348,1.269,0.692,1.462,0.809
			c0.116,0.078,0.231,0.116,0.347,0.193c1,0.5,2.078,1.077,3.194,1.693c0.963,0.5,1.231,0.539,1.154,0.539
			c2.464,1.193,4.812,2.271,7.006,3.31c0.153,0.038,0.308,0.116,0.5,0.193c0.461,0.192,0.847,0.346,1.347,0.576
			c1.964,0.809,4.003,1.732,6.159,2.542c0.115,0.036,0.269,0.114,0.385,0.152c0.424,0.154,1.154,0.425,2.271,0.848
			c0,0,0.038,0,0.038,0.037c1.847,0.656,3.732,1.271,5.58,1.888c0.963,0.346,1.809,0.615,2.54,0.884c0,0,0,0,0.039,0
			c2.04,0.655,5.08,1.926,9.199,2.618c0,0,0-0.038,0.039,0c15.55,2.579,29.905,3.618,43.146,3.35
			c54.155-1.194,89.257-25.059,109.851-48.536c20.553-23.479,27.48-47.189,27.48-47.189c1.387-4.657-0.848-9.583-5.234-11.662
			c-4.349-2.079-9.584-0.654-12.354,3.349c-26.174,38.258-77.059,57.926-132.714,43.262c-2.464-0.616-4.849-1.309-7.197-2.117
			c-0.153-0.037-0.347-0.115-0.538-0.153c-0.348-0.078-0.809-0.231-1.618-0.501c-0.076-0.038-0.153-0.076-0.19-0.115
			c-1.81-0.578-3.503-1.116-5.043-1.731c0,0,0,0-0.038,0c-0.886-0.347-1.656-0.616-2.31-0.886c-1.964-0.77-3.812-1.501-5.39-2.193
			c-0.115-0.077-0.191-0.117-0.307-0.154c-0.847-0.348-1.232-0.538-0.692-0.271c-0.232-0.114-0.463-0.191-0.693-0.307
			c-2.156-0.963-4.389-2.003-6.621-3.118l-0.153-0.038c0-0.039-0.038-0.039-0.078-0.077c-1.115-0.578-2.194-1.117-3.311-1.732
			c-0.036,0-0.076-0.038-0.153-0.038c-0.692-0.385-1.347-0.73-1.924-1.04v0.039c-1.271-0.655-2.579-1.463-4.118-2.386
			c-0.115-0.038-0.193-0.077-0.27-0.115c-0.462-0.27-0.616-0.348-0.692-0.423h-0.039l-0.077-0.039
			c-1.887-1.154-3.656-2.232-5.041-3.194c-0.194-0.116-0.424-0.231-0.616-0.347c0.153,0.076-0.271-0.231-1.271-0.885
			c-1.039-0.654-2.116-1.347-3.271-2.156h-0.039c-0.039-0.037-0.076-0.076-0.153-0.076c-2.155-1.579-4.389-3.271-6.658-5.004
			l-0.192-0.193c-0.54-0.423-1.001-0.769-1.309-1.039c-0.077-0.039-0.155-0.116-0.232-0.193
			c-24.556-19.591-43.878-46.418-52.961-76.402v-0.039c-9.122-29.521,0.269-65.778,16.243-93.375c1.771-3.042,1.771-6.813,0-9.892
			C219.7,52.67,216.427,50.823,212.925,50.823z M104.616,80.383c-2.425,0-4.812,0.885-6.621,2.54
			c-0.539,0.462-0.807,0.962-1.347,1.463c-19.129,17.705-32.754,39.259-33.023,39.721c-39.645,57.619-34.371,146.03-4.772,205.726
			c0,0.039,0,0.077,0,0.116c0.77,1.617,1.54,3.04,2.156,4.156c0.308,0.692,0.654,1.349,1,2.003c0.731,1.654,1.27,2.347,1.347,2.463
			c0.462,0.885,0.924,1.771,1.27,2.425c0.039,0.076,0.116,0.191,0.154,0.27c0.885,1.424,1.732,3.002,2.694,4.58
			c0,0.038,0.038,0.076,0.077,0.115c0.423,0.692,0.962,1.693,1.809,2.925c1.078,1.771,2.079,3.35,2.81,4.503
			c0.039,0.077,0.077,0.116,0.077,0.154c0.385,0.578,0.847,1.347,1.424,2.155c0.039,0.077,0.077,0.115,0.116,0.154
			c0.038,0.078,0.038,0.116,0.116,0.23c1.347,2.041,2.771,4.158,4.349,6.352c0.154,0.192,0.116,0.115,0.231,0.308
			c0.115,0.154,0.115,0.154,0.192,0.269c0.039,0.04,0.116,0.155,0.154,0.232l0.039,0.038c0.077,0.115,0.385,0.5,0.385,0.5
			c0,0.038,0.038,0.077,0.077,0.077c1.386,1.924,2.81,3.888,4.311,5.811c0.577,0.771,1.078,1.425,1.347,1.772
			c0.077,0.115,0.192,0.23,0.269,0.385c1.271,1.501,2.502,3.041,3.772,4.619c0.038,0.077,0.077,0.114,0.115,0.153
			c0.385,0.462,0.885,1.039,1.425,1.692c1.655,2.002,3.348,3.928,5.08,5.851c0.154,0.153,0.308,0.347,0.461,0.501l-0.077-0.115
			c0.5,0.578,1.386,1.54,2.271,2.118l-1.848-1.579c1.81,2,3.657,3.963,5.505,5.928c0.038,0.038,0.077,0.038,0.077,0.077
			c0.654,0.653,1.309,1.307,2.001,1.999c1.309,1.311,2.695,2.735,4.312,4.273c0.616,0.579,1.231,1.116,1.655,1.578
			c0.038,0.038,0.038,0.038,0.077,0.038c1.771,1.693,3.695,3.504,5.735,5.313c0.192,0.115,0.308,0.27,0.462,0.385
			c0,0.038,0,0.038,0,0.038c0.539,0.462,0.847,0.731,0.77,0.654c0.115,0.077,0.192,0.192,0.307,0.271
			c1.81,1.578,3.619,3.116,5.427,4.657c0.886,0.692,1.655,1.309,2.31,1.886c0.038,0,0.038,0,0.076,0
			c1.617,1.347,3.156,2.502,4.619,3.618c0,0.038,0.039,0.038,0.039,0.076c0.731,0.539,1.501,1.117,2.348,1.771
			c0.038,0.039,0.077,0.039,0.115,0.078c1.731,1.307,3.464,2.54,5.119,3.733c0.501,0.384,1.078,0.769,1.694,1.192
			c-0.039-0.038,0.193,0.154,0.116,0.115c0.269,0.192,0.539,0.385,0.77,0.54c1.617,1.078,3.194,2.154,4.85,3.232
			c0,0.039,0.039,0.039,0.039,0.039c0.731,0.461,1.386,0.923,2.04,1.347c0.038,0.037,0.077,0.077,0.154,0.115
			c2.617,1.693,5.196,3.271,7.736,4.812c0.154,0.114,0.308,0.192,0.462,0.269c0.616,0.349,1.193,0.655,1.732,0.963
			c0.038,0.038,0.038,0.038,0.077,0.077c1.963,1.117,3.926,2.271,6.004,3.387l-0.193-0.115c1.386,0.771,2.618,1.348,3.619,1.848
			c1.232,0.692,2.541,1.424,3.926,2.116c0.192,0.116,0.423,0.231,0.654,0.347c0.731,0.271,0.731,0.347-0.039-0.115
			c0.269,0.192,0.54,0.308,0.809,0.422c0.115,0.078,0.539,0.271,1.27,0.656c0.038,0,0.038,0,0.077,0
			c2.271,1.154,4.503,2.193,6.813,3.195c0.539,0.269,0.885,0.423,0.77,0.345c0.23,0.116,0.423,0.231,0.616,0.309
			c2.579,1.155,5.196,2.232,7.851,3.311c0.04,0,0.117,0.038,0.154,0.038c0.154,0.038,0.924,0.385,1.694,0.654
			c0.154,0.077,0.308,0.116,0.462,0.154c0.077,0.038,0.039,0.038,0.116,0.077c2.116,0.808,4.234,1.615,6.35,2.347
			c0.578,0.271,1.078,0.425,1.424,0.578c2.771,0.924,5.466,1.809,8.237,2.655c0.078,0.038,0.154,0.077,0.27,0.117
			c0.154,0.037,0.885,0.268,1.693,0.498c0.038,0,0.077,0.039,0.115,0.039c0.192,0.039,0.154,0.039,0.346,0.114
			c2.348,0.732,5.119,1.771,8.737,2.464c0.038,0,0.038,0,0.077,0c19.014,3.503,36.681,5.082,53.154,5.082
			c141.257,0.038,186.56-114.738,186.56-114.738c1.731-4.579-0.154-9.737-4.428-12.124c-4.271-2.347-9.659-1.23-12.623,2.656
			c-40.223,52.885-112.353,63.585-182.712,47.419c-2.116-0.501-4.618-1.27-7.504-2.156c-0.039,0-0.116-0.038-0.155-0.038
			c-0.5-0.152-1.038-0.308-1.308-0.424c-0.154-0.037-0.308-0.076-0.462-0.114c-2.463-0.771-4.965-1.617-7.468-2.464
			c-0.038-0.038-0.115-0.038-0.192-0.075c-0.154-0.04-0.308-0.079-0.423-0.155c-0.154-0.039-0.308-0.116-0.5-0.153
			c-1.924-0.693-4.003-1.464-6.159-2.311l-0.347-0.154c-0.847-0.307-1.578-0.576-1.885-0.73c-2.31-0.924-4.695-1.926-7.044-2.964
			c-0.23-0.114-0.423-0.192-0.616-0.27c0.039,0-0.462-0.193-0.77-0.309c-2.04-0.962-4.042-1.924-6.12-2.925
			c-0.154-0.039-0.269-0.115-0.423-0.192c-0.116-0.038-0.462-0.192-1.155-0.577c-0.077-0.038-0.154-0.077-0.27-0.115
			c-1.347-0.655-2.848-1.424-4.388-2.271c-0.038-0.039-0.116-0.077-0.154-0.116c-1.231-0.615-2.194-1.077-2.887-1.502
			c-0.077,0-0.115-0.036-0.192-0.076c-1.809-0.962-3.695-2.078-5.697-3.194l0.77,0.462c-1.308-0.849-2.232-1.309-2.771-1.617
			l0.308,0.154c-2.502-1.501-4.965-3.002-7.313-4.504c-0.039-0.038-0.077-0.038-0.077-0.076c-0.462-0.27-1.001-0.616-1.655-1.078
			c-0.116-0.116-0.27-0.191-0.385-0.27c-1.616-1.038-3.271-2.193-5.003-3.349l-0.116-0.076c-0.346-0.27-0.884-0.654-1.616-1.193
			c-1.54-1.078-3.079-2.194-4.657-3.387h-0.077c-0.077-0.078-0.116-0.115-0.192-0.192c-0.617-0.5-1.309-1.002-2.002-1.541
			c-1.54-1.192-3.002-2.309-4.311-3.385l-0.192-0.117c-0.769-0.654-1.462-1.231-1.963-1.655c0,0-0.039,0-0.077-0.038
			c-1.809-1.462-3.541-3.003-5.427-4.619l0.809,0.809c-1.579-1.771-2.31-2.002-1.925-1.731l0.539,0.462
			c-1.886-1.693-3.811-3.503-5.773-5.351l-0.116-0.077c-0.308-0.308-0.808-0.808-1.462-1.424l-0.27-0.271
			c-1.424-1.384-2.732-2.694-3.925-3.887c-0.039-0.038-0.039-0.038-0.077-0.077c-0.54-0.539-1.039-1.077-1.656-1.692
			c-1.693-1.694-3.349-3.503-5.004-5.352c-0.076-0.077-0.192-0.191-0.269-0.308h-0.039c-1.732-1.886-3.425-3.849-5.157-5.889
			c0-0.038,0-0.077-0.039-0.115c-0.269-0.309-0.731-0.885-1.462-1.731c-1.193-1.463-2.386-3.003-3.695-4.581l-0.038-0.037
			c-0.424-0.578-0.886-1.195-1.155-1.541l-0.038-0.038c-1.462-1.925-2.848-3.811-4.234-5.735l-0.038-0.038
			c-18.553-25.557-31.369-66.896-34.949-106.693c-3.618-39.759,2.579-77.941,16.436-96.724c2.232-2.963,2.579-6.928,0.923-10.238
			C111.736,82.499,108.349,80.42,104.616,80.383z M283.939,86.771c0.537,5.389-0.039,10.816,1.269,16.089
			c5.736,22.825,18.553,44.378,36.912,58.658c6.274,4.849,13.01,9.045,19.977,12.471c0.037,0.038,0.077,0.077,0.115,0.077
			c3.695,1.771,7.504,3.387,11.393,4.811l-0.076-0.038c3.002,1.116,6.389,2.27,9.814,3.117c8.892,2.194,17.474,3.349,25.788,3.81
			c-5.852,1.193-10.739,3.195-18.206,2.964c-5.851-0.193-12.316-0.924-19.36-2.309h-0.038c-0.463-0.078-1.655-0.539-3.696-1.156
			c-0.229-0.076-0.691-0.23-1.191-0.384c-1.193-0.423-2.156-0.731-2.887-1.039c-0.077-0.04-0.117-0.04-0.192-0.078
			c-24.327-9.122-45.381-28.597-55.541-53.038c-4.118-9.931-6.196-20.323-6.082-30.522
			C281.976,95.624,283.053,91.198,283.939,86.771z M183.789,114.562c-2.501,16.666-2.463,33.755,2.579,50.19
			c10.392,34.256,32.1,64.162,59.542,86.062c0.578,0.501,1.155,0.964,1.54,1.31c0.077,0.038,0.154,0.115,0.231,0.153
			c2.463,1.925,5.041,3.889,7.736,5.774c0.038,0.037,0.115,0.077,0.192,0.115c1.231,0.847,2.463,1.655,3.81,2.502
			c0,0.038,0,0.038,0,0.038c0.077,0.039,0.771,0.578,2.079,1.348c1.848,1.192,3.694,2.309,5.234,3.272
			c0.077,0.037,0.115,0.075,0.154,0.114c0.692,0.385,1.155,0.654,1.348,0.731c1.385,0.847,2.925,1.771,4.772,2.733c0,0,0,0,0,0.038
			c0.731,0.346,1.462,0.73,2.193,1.077c1.193,0.616,2.348,1.231,3.503,1.848c0.076,0.038,0.153,0.077,0.269,0.115
			c2.157,1.078,4.466,2.155,6.852,3.194c1.271,0.655,1.81,0.847,2.156,0.963c2.233,1,4.349,1.81,6.274,2.579
			c0.962,0.385,1.885,0.73,2.616,1.039l-0.039-0.039c2.039,0.771,4.041,1.425,5.928,2.041c0.577,0.23,1.387,0.461,2.27,0.73
			c2.734,0.924,5.544,1.771,8.392,2.503c36.95,9.737,72.169,4.734,101.921-9.237c-18.091,16.203-44.34,30.329-84.369,31.214
			c-11.932,0.27-25.057-0.654-39.529-3.079c-0.037-0.039-0.077-0.039-0.114-0.039c-1.194-0.191-3.272-0.961-6.273-1.924
			c-0.847-0.23-1.579-0.5-2.349-0.77c-1.693-0.539-3.426-1.154-5.119-1.771l-0.077-0.039c-0.423-0.153-1.271-0.461-2.271-0.808
			l-0.23-0.116c-0.078-0.038-0.078-0.038-0.154-0.038c-1.617-0.654-3.311-1.386-5.082-2.155c0,0,0,0-0.037,0
			c-0.501-0.23-1.001-0.463-1.578-0.654c-2.31-1.077-4.504-2.078-6.544-3.118c-0.115-0.039-0.231-0.076-0.346-0.115
			c-1.002-0.578-2.118-1.153-3.311-1.732l-0.115-0.076c-0.077-0.039-0.115-0.077-0.192-0.115c-0.463-0.232-0.963-0.501-0.963-0.501
			c-0.23-0.154-0.462-0.27-0.653-0.385c-1.426-0.731-2.888-1.578-4.273-2.425c-0.27-0.155-0.5-0.27-0.77-0.424
			c0,0-0.23-0.116-0.347-0.153c-1.694-1.039-3.31-2.041-4.964-3.118c-0.039-0.039-0.077-0.077-0.116-0.115
			c-0.154-0.077-0.655-0.424-1.5-0.962c-1.233-0.81-2.233-1.463-3.003-2.002c-0.23-0.192-0.5-0.348-0.77-0.538
			c0,0-0.039,0-0.078-0.039c-2.232-1.616-4.426-3.233-6.504-4.889c-0.115-0.077-0.23-0.153-0.308-0.23
			c-0.039-0.039-0.616-0.501-1.348-1.077c-2.194-1.732-4.271-3.466-6.312-5.274c-0.039-0.037-0.039-0.037-0.077-0.076
			c-0.077-0.077-0.192-0.153-0.269-0.231c-0.039-0.038-0.116-0.077-0.154-0.115c-0.077-0.076-0.115-0.115-0.154-0.154
			c-1.925-1.731-3.811-3.502-5.696-5.35l-0.115-0.114c-0.501-0.502-0.963-0.963-1.386-1.424c-0.039,0-0.039-0.04-0.077-0.04
			c-2.041-2.039-3.888-3.965-5.504-5.85c-0.308-0.346-0.616-0.655-0.963-0.925c-3.771-3.311-7.966-9.545-12.085-15.549
			c-0.039-0.038-0.039-0.038-0.039-0.077c-4.157-5.927-7.852-12.201-11.085-18.706c0-0.039,0-0.039,0-0.077
			C171.625,186.999,169.432,147.546,183.789,114.562z M77.672,140.272c-2.194,17.205-2.963,35.449-1.27,54.348
			c3.849,42.607,16.82,86.409,38.645,116.431c1.5,2.155,3.04,4.195,4.618,6.273c0.578,0.77,0.963,1.232,1.079,1.387
			c0.154,0.23,0.307,0.461,0.5,0.653c1.231,1.54,2.502,3.118,3.81,4.772c0.115,0.115,0.192,0.192,0.308,0.309
			c0.23,0.27,0.654,0.847,1.347,1.654c1.771,2.079,3.618,4.234,5.543,6.353c0.077,0.076,0.154,0.191,0.231,0.268
			c1.809,2.002,3.695,4.004,5.619,5.967c0.5,0.5,1.039,1.078,1.693,1.73c0.039,0.04,0.039,0.04,0.039,0.04l0.039,0.038
			c1.539,1.539,2.964,2.965,4.311,4.272c0.076,0.076,0.192,0.192,0.269,0.271c0.308,0.269,0.771,0.768,1.579,1.538
			c0.039,0.039,0.077,0.039,0.116,0.077c1.962,1.847,4.002,3.772,6.12,5.62c0.154,0.192,0.347,0.347,0.539,0.5
			c0.808,0.615,0.615,0.692-0.616-0.655c0.27,0.271,0.539,0.539,0.808,0.771c1.925,1.731,3.888,3.426,6.043,5.158
			c0.77,0.614,1.386,1.116,1.847,1.501c0.039,0.039,0.116,0.115,0.154,0.153c1.655,1.348,3.233,2.541,4.696,3.695
			c0.115,0.115,0.23,0.192,0.308,0.27c0.654,0.423,1.27,0.924,1.963,1.424c0.077,0.115,0.154,0.192,0.27,0.271
			c1.732,1.23,3.425,2.5,5.273,3.811c0.385,0.269,0.962,0.73,1.693,1.27c0.039,0,0.077,0.038,0.154,0.038
			c1.771,1.232,3.657,2.54,5.696,3.811c0.54,0.385,1.155,0.847,1.963,1.348c0.039,0.037,0.077,0.037,0.077,0.037
			c2.617,1.694,5.235,3.311,7.774,4.813c0.077,0.038,0.154,0.115,0.27,0.154c0.847,0.462,1.231,0.692,1.154,0.653
			c0.231,0.154,0.5,0.347,0.77,0.5c1.848,1,3.772,2.117,5.813,3.233l0.038,0.039c0.039,0,0.078,0.039,0.154,0.039
			c1.271,0.73,2.425,1.309,3.387,1.809c1.501,0.809,3.118,1.654,4.812,2.463c0.039,0.039,0.154,0.076,0.154,0.116
			c0.077,0,0.077,0,0.115,0.038c0.578,0.27,1.231,0.653,2.271,1.077c1.924,0.962,3.887,1.888,5.927,2.811
			c0.154,0.076,0.308,0.153,0.462,0.23c0.039,0,0.692,0.27,1.193,0.501c2.464,1.077,5.081,2.193,7.813,3.271
			c0,0.039,0.038,0.039,0.038,0.039c0.886,0.346,1.425,0.539,1.54,0.578c0.154,0.076,0.27,0.114,0.423,0.154
			c2.271,0.923,4.658,1.845,7.197,2.731c0.424,0.154,0.886,0.309,1.309,0.462c2.425,0.847,4.927,1.655,7.505,2.463
			c1.001,0.348,1.887,0.578,2.656,0.809c2.541,0.77,5.351,1.693,8.584,2.426c52.153,12.008,106.731,8.968,151.07-13.588
			c-25.633,25.673-67.663,51.461-133.48,51.461c-15.203,0-31.677-1.463-49.575-4.771c-1.77-0.349-4.042-1.116-7.082-2.041
			c-0.154-0.077-0.308-0.116-0.462-0.155c-0.038,0-0.654-0.19-1.386-0.422l-0.307-0.076c-2.464-0.771-4.889-1.58-7.352-2.427
			c-0.077-0.037-0.115-0.037-0.192-0.076c-0.269-0.077-0.193-0.038-0.115-0.038c-0.116-0.039-0.27-0.116-0.385-0.154
			c-2.348-0.848-4.696-1.73-6.89-2.579c-0.154-0.078-0.346-0.114-0.539-0.192c0.077,0.039-0.462-0.193-1.27-0.501l-0.154-0.077
			c-2.387-0.961-4.695-1.924-7.043-2.963c-0.461-0.191-1.078-0.5-1.155-0.5c-0.039-0.04-0.077-0.077-0.116-0.077
			c-2.155-0.962-4.157-1.887-6.081-2.848h-0.077c-0.154-0.117-0.732-0.385-1.116-0.578c-0.886-0.5-1-0.5-1.309-0.615l-0.154-0.04
			c-1.232-0.652-2.463-1.308-3.657-1.962c-0.115-0.076-0.23-0.154-0.347-0.192c-1.154-0.578-2.04-1.039-2.732-1.424
			c-0.039-0.039-0.116-0.077-0.155-0.077c-1.77-0.962-3.541-1.963-5.311-3.001l-0.077-0.04c-0.77-0.461-1.501-0.886-2.271-1.271
			l-0.192-0.154c-2.31-1.385-4.58-2.809-6.852-4.271c-0.654-0.462-1.308-0.847-1.962-1.271l-0.039-0.038c0,0,0,0-0.038,0
			c-1.501-1.038-2.964-2.04-4.542-3.079c-0.23-0.192-0.501-0.386-0.77-0.578c-0.385-0.23-0.847-0.576-1.386-0.962
			c-0.039-0.038-0.077-0.077-0.115-0.114c-1.616-1.117-3.195-2.272-4.695-3.389l-0.039-0.037h-0.038
			c-0.731-0.578-1.462-1.156-2.271-1.771l-0.038-0.038c-1.54-1.154-2.964-2.231-4.272-3.31l-0.039-0.039
			c-0.77-0.615-1.424-1.116-1.962-1.578c0-0.038-0.039-0.038-0.039-0.038c-1.77-1.501-3.502-3.002-5.234-4.465
			c-0.231-0.231-0.423-0.385-0.577-0.462c-0.154-0.193-0.347-0.347-0.5-0.502c-1.771-1.5-3.58-3.232-5.466-5.003l-0.038-0.077
			c-0.655-0.615-1.231-1.115-1.732-1.616c-0.039-0.039-0.077-0.076-0.116-0.115c-1.231-1.155-2.502-2.502-3.926-3.926
			c-0.077-0.076-0.154-0.154-0.231-0.271c-0.539-0.499-1.001-0.922-1.462-1.385c-1.732-1.848-3.426-3.657-5.12-5.504
			c-0.039-0.038-0.077-0.077-0.077-0.077c-0.077-0.115-0.154-0.192-0.27-0.27c-1.693-1.925-3.348-3.811-4.926-5.735
			c-0.077-0.076-0.154-0.153-0.231-0.269c-0.308-0.347-0.731-0.847-1.193-1.386l-0.039-0.039c0-0.038-0.038-0.076-0.077-0.115
			c-1.193-1.501-2.463-3.08-3.772-4.656c-0.461-0.617-0.885-1.193-1.077-1.503c-0.116-0.114-0.193-0.23-0.27-0.308
			c-1.27-1.654-2.54-3.31-3.811-5.08l-0.077-0.115c-0.346-0.501-0.577-0.77-0.462-0.616c-0.077-0.115-0.154-0.23-0.23-0.346
			c-0.077-0.116-0.153-0.192-0.231-0.308c-0.039-0.04-0.077-0.115-0.116-0.154c0,0,0,0-0.038,0c-1.309-1.848-2.618-3.811-4.003-5.89
			c-0.039-0.114-0.116-0.23-0.231-0.345c-0.231-0.348-0.539-0.848-0.924-1.464l-0.116-0.154c-1.155-1.886-2.194-3.426-2.886-4.618
			c-0.077-0.154-0.192-0.346-0.309-0.5c-0.308-0.462-0.692-1.156-1.27-2.079l-0.039-0.077c-0.808-1.348-1.655-2.771-2.541-4.272
			v-0.076c-0.076-0.077-0.076-0.116-0.154-0.193c-0.384-0.769-0.731-1.424-1-1.962c-0.115-0.232-0.231-0.424-0.384-0.654
			c-0.424-0.771-0.578-1.116-0.231-0.386c-0.154-0.346-0.308-0.654-0.462-0.924c-0.347-0.614-0.693-1.193-0.924-1.809
			c-0.077-0.154-0.154-0.308-0.23-0.463c-0.771-1.462-1.386-2.616-1.848-3.539c-0.039-0.116-0.077-0.231-0.116-0.308
			C50.846,269.404,47.228,189.616,77.672,140.272z M225.935,268.636l0.115,0.037c0.154,0.232,0.116,0.155,0.308,0.463
			C226.243,268.943,226.089,268.789,225.935,268.636z M111.158,372.096c0,0,0.116,0.115,0.154,0.153
			c0.115,0.115,0.077,0.078,0.192,0.231l0.039,0.038v0.039c0.077,0.037,0.116,0.154,0.154,0.23
			C111.389,372.364,111.274,372.211,111.158,372.096z M151.342,407.236l0.346,0.192c-0.693-0.501-0.654-0.539,0,0.077
			C151.573,407.39,151.458,407.313,151.342,407.236z"/>
	</g>
</g>
</svg>
