<?xml version="1.0" encoding="utf-8"?>
<!-- Generator: Adobe Illustrator 16.0.0, SVG Export Plug-In . SVG Version: 6.00 Build 0)  -->
<!DOCTYPE svg PUBLIC "-//W3C//DTD SVG 1.1//EN" "http://www.w3.org/Graphics/SVG/1.1/DTD/svg11.dtd">
<svg version="1.1" id="Layer_1" xmlns="http://www.w3.org/2000/svg" xmlns:xlink="http://www.w3.org/1999/xlink" x="0px" y="0px"
	 width="200px" height="200px" viewBox="0 0 200 200" enable-background="new 0 0 200 200" xml:space="preserve">
<g>
	<polygon fill="#EFC725" points="41.562,183.94 28.67,39.341 170.329,39.341 157.425,183.918 99.414,200 	"/>
	<polygon fill="#FBDE34" points="99.38,187.528 146.257,174.533 157.286,50.986 99.38,50.986 	"/>
	<polygon fill="#EBEBEB" points="99.354,150.686 99.276,150.708 79.525,145.373 78.262,131.229 68.666,131.229 60.46,131.229 
		62.945,159.075 99.272,169.16 99.354,169.137 	"/>
	<polygon fill="#EBEBEB" points="101.742,122.354 101.742,104.62 79.905,104.62 82.465,76.786 101.792,76.272 101.742,57.83 
		66.432,57.83 65.12,70.903 60.952,117.592 60.519,122.354 65.298,122.354 	"/>
	<polygon fill="#FFFFFF" points="101.623,76.297 101.7,76.275 121.069,77.441 122.713,95.751 132.309,95.751 140.516,95.751 
		137.414,61.487 101.704,57.822 101.623,57.845 	"/>
	<polyline fill="#FFFFFF" points="138.687,76.351 137.168,57.83 99.733,57.83 99.733,69.333 99.733,76.305 99.733,76.351 
		138.687,76.351 	"/>
	<polygon fill="#FFFFFF" points="99.292,104.628 99.292,122.362 121.13,122.362 119.072,145.361 99.292,150.7 99.292,169.152 
		135.648,159.075 135.915,156.079 140.083,109.39 140.516,104.628 135.736,104.628 	"/>
	<path fill="#FFFFFF" d="M136.408,75.565"/>
	<g>
		<polygon fill="#151515" points="124.477,7.404 112.718,7.404 124.946,20.672 124.946,26.987 99.761,26.987 99.761,19.592 
			111.986,19.592 99.761,6.325 99.761,0 124.477,0 		"/>
		<path fill="#020202" d="M95.276,0.012v26.963h-21.69v-8.912h12.675V0.012H95.276L95.276,0.012z"/>
	</g>
	<path fill="#FFFFFF" d="M136.175,75.565"/>
</g>
</svg>
