<?xml version="1.0" encoding="utf-8"?>
<!-- Generator: Adobe Illustrator 16.0.0, SVG Export Plug-In . SVG Version: 6.00 Build 0)  -->
<!DOCTYPE svg PUBLIC "-//W3C//DTD SVG 1.1//EN" "http://www.w3.org/Graphics/SVG/1.1/DTD/svg11.dtd">
<svg version="1.1" id="Layer_1" xmlns="http://www.w3.org/2000/svg" xmlns:xlink="http://www.w3.org/1999/xlink" x="0px" y="0px"
	 width="200px" height="200px" viewBox="0 0 200 200" enable-background="new 0 0 200 200" xml:space="preserve">
<g>
	<path fill-rule="evenodd" clip-rule="evenodd" fill="#2C3444" d="M189.493,112.495c-1.04,9.972-4.087,19.371-8.747,28.166
		c-14.068,26.547-35.955,42.606-65.512,48.147c-0.728,0.136-1.483,0.12-2.227,0.176c-0.486-0.443-1.118-0.105-1.651-0.306
		c0.231,0.203,0.648,0.031,0.798,0.396c-7.76,1.302-15.521,1.302-23.281,0c0.149-0.365,0.566-0.193,0.797-0.396
		c-0.533,0.199-1.165-0.137-1.652,0.306c-10.052-1.068-19.52-4.149-28.386-8.872c-26.439-14.082-42.396-35.94-47.925-65.391
		c-0.136-0.728-0.12-1.483-0.174-2.227c0.439-0.489,0.103-1.121,0.304-1.655c-0.206,0.231-0.029,0.653-0.397,0.804
		c-1.299-7.762-1.3-15.523,0-23.286c0.368,0.151,0.192,0.572,0.397,0.804c-0.201-0.534,0.135-1.166-0.303-1.656
		c1.043-9.971,4.09-19.372,8.751-28.167c14.068-26.546,35.955-42.602,65.509-48.144c0.728-0.136,1.483-0.122,2.226-0.177
		c0.485,0.448,1.119,0.093,1.692,0.337c-0.273-0.234-0.687-0.065-0.836-0.428c7.759-1.302,15.517-1.302,23.277,0
		c-0.149,0.361-0.563,0.193-0.792,0.394c0.532-0.196,1.162,0.138,1.649-0.303c11.247,1.235,21.742,4.878,31.465,10.52
		c24.701,14.332,39.645,35.64,44.845,63.743c0.134,0.728,0.119,1.484,0.174,2.227c-0.437,0.489-0.103,1.118-0.301,1.651
		c0.202-0.23,0.03-0.647,0.394-0.797c1.305,7.76,1.301,15.521,0.002,23.281c-0.367-0.15-0.192-0.57-0.396-0.802
		C189.391,111.374,189.057,112.006,189.493,112.495z"/>
	<path fill-rule="evenodd" clip-rule="evenodd" fill="#1D2536" d="M88.875,10.928c0.378,0.072,0.757,0.144,1.509,0.287
		c-1.085,0.355-1.763,0.484-2.365-0.197C88.305,10.988,88.59,10.958,88.875,10.928z"/>
	<path fill-rule="evenodd" clip-rule="evenodd" fill="#1D2536" d="M113.01,11.018c-0.535,0.715-1.25,0.415-1.982,0.18
		c0.375-0.09,0.75-0.18,1.125-0.271C112.438,10.958,112.724,10.988,113.01,11.018z"/>
	<path fill-rule="evenodd" clip-rule="evenodd" fill="#1F2838" d="M11.533,87.506c0.714,0.539,0.416,1.253,0.173,1.985
		c-0.089-0.378-0.178-0.755-0.267-1.133C11.471,88.074,11.502,87.79,11.533,87.506z"/>
	<path fill-rule="evenodd" clip-rule="evenodd" fill="#1E2737" d="M189.586,88.361c-0.07,0.379-0.143,0.759-0.283,1.511
		c-0.36-1.084-0.486-1.76,0.19-2.365C189.523,87.792,189.555,88.077,189.586,88.361z"/>
	<path fill-rule="evenodd" clip-rule="evenodd" fill="#1F2838" d="M11.439,111.644c0.071-0.379,0.143-0.76,0.284-1.513
		c0.362,1.083,0.489,1.76-0.19,2.364C11.502,112.212,11.471,111.928,11.439,111.644z"/>
	<path fill-rule="evenodd" clip-rule="evenodd" fill="#1E2737" d="M189.493,112.495c-0.647-0.549-0.532-1.23-0.258-2.344
		c0.175,0.737,0.263,1.114,0.353,1.491C189.557,111.927,189.524,112.212,189.493,112.495z"/>
	<path fill-rule="evenodd" clip-rule="evenodd" fill="#1D2536" d="M88.018,188.984c0.536-0.716,1.25-0.417,1.982-0.179
		c-0.376,0.09-0.751,0.18-1.127,0.27C88.588,189.045,88.303,189.015,88.018,188.984z"/>
	<path fill-rule="evenodd" clip-rule="evenodd" fill="#1D2536" d="M112.154,189.075c-0.379-0.072-0.758-0.144-1.512-0.287
		c1.086-0.355,1.764-0.485,2.365,0.196C112.724,189.015,112.439,189.045,112.154,189.075z"/>
	<path fill-rule="evenodd" clip-rule="evenodd" fill="#FEFEFE" d="M100.508,175.963c-42.292-0.206-76.174-34.376-75.947-76.592
		c0.223-41.662,34.572-75.503,76.459-75.33c41.777,0.173,75.697,34.607,75.448,76.593
		C176.223,142.093,141.865,176.165,100.508,175.963z"/>
	<path fill-rule="evenodd" clip-rule="evenodd" fill="#242C3C" d="M24.187,106.1c0.36,0.806,0.422,1.581,0.139,2.464
		C23.709,107.687,24.202,106.859,24.187,106.1z"/>
	<path fill-rule="evenodd" clip-rule="evenodd" fill="#2C3444" d="M131.151,63.697C110.607,88.044,90.504,111.87,70.33,135.78
		c-0.634-0.893-0.372-1.652-0.373-2.352c-0.018-22.404-0.007-44.808-0.03-67.212c-0.001-1.526-0.104-2.587,2.114-2.576
		c19.072,0.097,38.145,0.056,57.217,0.056C129.653,63.697,130.048,63.697,131.151,63.697z"/>
	<path fill-rule="evenodd" clip-rule="evenodd" fill="#FBFBFB" d="M68.944,64.667c0,23.557,0,47.113,0,70.669
		c-0.083,0-0.167,0-0.25,0c0-23.59,0-47.181,0-70.771C68.778,64.6,68.861,64.634,68.944,64.667z"/>
</g>
</svg>
