<?xml version="1.0" encoding="utf-8"?>
<!-- Generator: Adobe Illustrator 16.0.0, SVG Export Plug-In . SVG Version: 6.00 Build 0)  -->
<!DOCTYPE svg PUBLIC "-//W3C//DTD SVG 1.1//EN" "http://www.w3.org/Graphics/SVG/1.1/DTD/svg11.dtd">
<svg version="1.1" id="Layer_1" xmlns="http://www.w3.org/2000/svg" xmlns:xlink="http://www.w3.org/1999/xlink" x="0px" y="0px"
	 width="200px" height="200px" viewBox="0 0 200 200" enable-background="new 0 0 200 200" xml:space="preserve">
<g>
	<g>
		<path fill="#EB7077" stroke="#EB7077" stroke-width="0.0719" d="M50.732,52.906c0.71-1.208,1.634-2.369,2.961-2.938
			c0.545-0.095,1.09-0.048,1.634-0.048h26.816c-0.781,0.664-1.539,1.351-2.06,2.251c-1.374,2.25-2.298,4.762-3.151,7.272
			c-2.417,7.581-4.098,15.374-5.733,23.169c-0.734,3.529-1.445,7.082-2.108,10.611c-2.037,11.561-4.146,23.098-6.775,34.54
			c-1.255,5.283-2.534,10.566-4.477,15.66c-0.9,2.107-1.776,4.357-3.506,5.92c-0.402,0.357-0.805,0.809-1.374,0.734H29.27
			c-1.611-0.045-3.199,0.096-4.81-0.07c1.066-0.828,2.014-1.822,2.629-3.008c1.777-3.387,2.891-7.061,3.957-10.707
			c1.658-5.875,2.985-11.822,4.24-17.768c0.782-3.908,1.706-7.793,2.274-11.727c0.639-4.381,1.61-8.717,2.393-13.077
			c1.232-6.42,2.535-12.84,3.979-19.211c1.161-4.975,2.346-9.927,3.933-14.783C48.647,57.382,49.5,55.061,50.732,52.906z"/>
		<path fill="#F6A2AD" stroke="#F6A2AD" stroke-width="0.0719" d="M82.143,49.92c0.688,0,1.374-0.023,2.062,0
			c1.516,0.806,2.795,2.085,3.506,3.672c0.947,1.801,1.729,3.696,2.439,5.638c2.369,7.32,3.98,14.854,5.592,22.363
			c1.374,6.729,2.676,13.48,3.909,20.254c0.095,0.357-0.024,0.854,0.45,0.949c-1.706,8.906-3.387,17.836-5.52,26.674
			c-1.161,4.762-2.393,9.498-4.146,14.094c-0.948,2.299-1.919,4.809-3.933,6.443c-1.279,0.285-2.203-0.688-2.985-1.563
			c-1.35-1.73-2.178-3.768-2.984-5.805c-2.677-7.295-4.312-14.9-5.97-22.48c-1.256-5.898-2.369-11.846-3.529-17.768
			c-0.521-3.008-1.232-5.969-1.635-8.979c-0.071-0.047-0.237-0.141-0.308-0.189c0.664-3.529,1.374-7.082,2.108-10.611
			c1.635-7.795,3.316-15.588,5.733-23.169c0.853-2.511,1.777-5.022,3.151-7.272C80.604,51.271,81.362,50.584,82.143,49.92z"/>
		<path fill="#EB7077" stroke="#EB7077" stroke-width="0.0719" d="M111.779,54.019c0.854-1.635,1.895-3.459,3.742-4.075
			c9.404-0.047,18.809-0.024,28.214-0.024c-0.876,0.876-1.8,1.753-2.393,2.867c-1.824,3.269-2.891,6.894-3.98,10.47
			c-2.794,9.855-4.762,19.924-6.633,29.992c-1.729,9.926-3.575,19.852-5.685,29.731c-1.09,4.973-2.227,9.924-3.672,14.828
			c-0.925,3.031-1.896,6.088-3.412,8.906c-0.734,1.279-1.587,2.678-2.984,3.342c-8.978,0.07-17.98,0-26.958,0.021
			c-0.498,0-1.018,0-1.516-0.07c2.013-1.635,2.984-4.145,3.933-6.443c1.753-4.596,2.984-9.332,4.146-14.094
			c2.132-8.838,3.814-17.768,5.52-26.674c2.061-11.491,4.216-22.981,6.964-34.327C108.345,63.566,109.576,58.591,111.779,54.019z"/>
		<path fill="#F6A2AD" stroke="#F6A2AD" stroke-width="0.0719" d="M143.735,49.92c0.759,0,1.54-0.023,2.298,0
			c1.232,0.64,2.108,1.729,2.891,2.843c1.279,2.038,2.084,4.334,2.914,6.585c1.966,6.041,3.434,12.248,4.784,18.455
			c1.801,8.361,3.364,16.771,4.904,25.182c0.378,2.012,0.758,4.049,0.995,6.088c0.095,0.094,0.284,0.283,0.354,0.355
			c-0.853,1.184-1.184,2.604-1.657,3.955c-1.493,4.809-2.464,9.783-3.293,14.734c-0.64,3.885-1.518,7.748-2.725,11.49
			c-0.9,2.771-1.989,5.52-3.791,7.84c-0.853,1.113-2.013,1.967-3.292,2.537c-1.967,0.211-3.127-1.684-4.074-3.08
			c-1.966-3.438-3.033-7.273-4.17-11.018c-3.743-13.857-6.182-28.047-8.813-42.143c-0.023-0.213-0.142-0.402-0.332-0.496
			c1.871-10.068,3.839-20.137,6.633-29.992c1.09-3.576,2.156-7.201,3.98-10.47C141.936,51.674,142.859,50.797,143.735,49.92z"/>
		<path fill="#F6A2AD" stroke="#F6A2AD" stroke-width="0.0719" d="M2.287,103.814c0.616-0.047,1.232-0.143,1.872-0.143H29.98
			c1.089,0.143,2.227,0.047,3.269,0.521c1.517,0.617,2.867,1.658,3.861,2.961c0.119-0.07,0.332-0.262,0.451-0.355
			c-0.569,3.934-1.493,7.818-2.274,11.727c-1.255,5.945-2.582,11.893-4.24,17.768c-1.066,3.646-2.18,7.32-3.957,10.707
			c-0.616,1.186-1.563,2.18-2.629,3.008c-0.402,0.07-0.71-0.211-1.042-0.426c-1.113-0.711-1.753-1.943-2.44-3.057
			c-3.245-7.391-3.601-15.563-5.614-23.285c-1.019-3.861-2.274-7.699-4.122-11.254c-1.137-2.131-2.535-4.168-4.359-5.803
			C5.533,105.094,3.969,104.217,2.287,103.814z"/>
		<path fill="#EB7077" stroke="#EB7077" stroke-width="0.0719" d="M164.961,106.277c1.493-1.682,3.719-2.748,5.969-2.652h19.426
			c2.701,0.047,5.426-0.096,8.126,0.07c-0.805,0.547-1.777,0.76-2.63,1.209c-2.961,1.35-5.496,3.6-7.106,6.42
			c-2.581,4.5-3.481,9.666-4.24,14.734c-0.758,4.975-0.734,10.115-2.345,14.947c-1.091,3.389-2.748,6.799-5.615,9.027
			c-8.907,0.094-17.813,0.023-26.697,0.045c-0.593,0-1.161,0.025-1.729-0.092c1.279-0.57,2.439-1.424,3.292-2.537
			c1.802-2.32,2.891-5.068,3.791-7.84c1.207-3.742,2.085-7.605,2.725-11.49c0.829-4.951,1.8-9.926,3.293-14.734
			c0.474-1.352,0.805-2.771,1.657-3.955C163.587,108.385,164.061,107.178,164.961,106.277z"/>
	</g>
</g>
</svg>
