<?xml version="1.0" encoding="utf-8"?>
<!-- Generator: Adobe Illustrator 16.0.0, SVG Export Plug-In . SVG Version: 6.00 Build 0)  -->
<!DOCTYPE svg PUBLIC "-//W3C//DTD SVG 1.1//EN" "http://www.w3.org/Graphics/SVG/1.1/DTD/svg11.dtd">
<svg version="1.1" id="Layer_1" xmlns="http://www.w3.org/2000/svg" xmlns:xlink="http://www.w3.org/1999/xlink" x="0px" y="0px"
	 width="200px" height="200px" viewBox="0 0 200 200" enable-background="new 0 0 200 200" xml:space="preserve">
<path fill="#6086A9" d="M121.429,193.342v-5.431h9.394v5.431c0,2.641-2.055,4.696-4.696,4.696
	C123.483,198.038,121.429,195.839,121.429,193.342z"/>
<path fill="#466E93" d="M95.304,193.342v-5.431h9.393v5.431c0,2.641-2.055,4.696-4.697,4.696
	C97.505,198.038,95.304,195.839,95.304,193.342z"/>
<path fill="#6086A9" d="M69.177,193.342v-5.431h9.394v5.431c0,2.641-2.054,4.696-4.696,4.696
	C71.379,198.038,69.177,195.839,69.177,193.342z"/>
<linearGradient id="SVGID_1_" gradientUnits="userSpaceOnUse" x1="1.8696" y1="206.4414" x2="2.1709" y2="206.4414" gradientTransform="matrix(264.4504 0 0 -20.9437 -434.25 4508.8281)">
	<stop  offset="0" style="stop-color:#6C91B0"/>
	<stop  offset="0.5" style="stop-color:#193A62"/>
	<stop  offset="1" style="stop-color:#6C91B0"/>
</linearGradient>
<path fill="url(#SVGID_1_)" d="M139.923,182.038l-4.257,6.313H64.188l-3.963-6.313H139.923z"/>
<path opacity="0.1" enable-background="new    " d="M141.977,178.958l-4.257,6.312H62.278l-3.962-6.312H141.977z"/>
<path fill="#FAAC18" d="M52.445,136.539V53.468C52.592,30.571,71.086,11.784,94.716,9.29c1.322-0.295,2.201-1.175,2.495-1.762
	c0.736-1.32,1.468-2.788,1.909-3.962c0.294-0.734,1.614-0.881,1.907,0c0.441,1.174,1.32,2.642,1.908,3.962
	c0.293,0.588,1.03,1.467,2.495,1.762c23.631,2.493,41.976,21.278,42.122,44.175v83.074H52.445L52.445,136.539z"/>
<path fill="#F7941D" d="M123.63,53.612v71.919h0.147v1.323c-0.015,3.633,2.92,6.588,6.553,6.604c0.018,0,0.035,0,0.052,0h8.515
	c3.632,0.013,6.588-2.921,6.602-6.553c0-0.018,0-0.035,0-0.051V54.64c-0.143-23.337-19.371-42.124-40.8-43.884
	c-2.348-0.146-3.963-4.844-3.963-4.844s-1.761,6.604,2.642,9.834c12.036,8.805,20.255,22.309,20.255,37.867L123.63,53.612z"/>
<path opacity="0.35" fill="#FFFFFF" enable-background="new    " d="M100,21.763c20.11,0,36.548,16.292,36.548,36.547
	c0,20.107-16.293,36.546-36.548,36.546c-20.107,0-36.546-16.291-36.546-36.546C63.601,38.055,79.893,21.763,100,21.763L100,21.763z"
	/>
<path fill="#162331" d="M129.062,110.122c-5.725,0-7.486,2.201-7.486,6.457c0,7.191,8.807,15.56,8.807,28.621
	c0,9.539-5.577,17.468-17.906,17.468h-5.725v-11.599h2.496c4.549,0,6.018-2.639,6.018-6.896c0-9.689-5.284-18.347-5.284-25.687
	c0-7.339,2.495-10.86,11.154-12.769c-8.806-1.909-11.154-7.633-11.154-14.971c0-7.193,5.284-13.063,5.284-22.75
	c0-4.258-2.201-7.633-7.484-7.633h-5.139v-8.953c13.208-6.751,24.218,5.284,24.218,14.236c0,12.917-5.431,22.896-5.431,30.088
	c0,4.11,1.762,5.872,7.485,5.872h3.963v8.514H129.062z M97.358,60.365h-4.55c-5.284,0-7.485,3.375-7.485,7.633
	c0,9.687,5.284,15.704,5.284,22.75c0,7.338-2.936,13.062-11.743,14.971c8.808,1.908,11.743,5.284,11.743,12.769
	c0,7.192-5.284,15.997-5.284,25.687c0,4.257,1.468,6.896,6.018,6.896h2.495v11.599h-5.725c-12.33,0-17.906-7.929-17.906-17.468
	c0-13.062,8.806-21.428,8.806-28.621c0-4.107-1.468-6.457-7.191-6.457h-4.698v-8.662h4.698c5.723,0,7.191-1.759,7.191-5.869
	c0-7.191-5.431-17.173-5.431-30.088c0-8.807,10.715-20.695,23.778-14.384V60.365L97.358,60.365z"/>
<path fill="#FDECB2" d="M85.762,12.958c-14.382,8.366-24.07,23.189-24.217,40.213v78.378c0,1.027-0.734,1.76-1.761,1.76h-2.202
	c-1.047-0.018-1.891-0.861-1.909-1.909v-77.2C55.674,35.414,68.151,19.415,85.762,12.958"/>
<linearGradient id="SVGID_2_" gradientUnits="userSpaceOnUse" x1="1.7627" y1="200.9219" x2="2.064" y2="200.9219" gradientTransform="matrix(333.1224 0 0 -159.2539 -537.25 32158.125)">
	<stop  offset="0" style="stop-color:#92BCDA"/>
	<stop  offset="0.1533" style="stop-color:#739EC2"/>
	<stop  offset="0.4872" style="stop-color:#245184"/>
	<stop  offset="0.5" style="stop-color:#214E82"/>
	<stop  offset="0.5128" style="stop-color:#245184"/>
	<stop  offset="0.8467" style="stop-color:#739EC2"/>
	<stop  offset="1" style="stop-color:#92BCDA"/>
</linearGradient>
<path fill="url(#SVGID_2_)" d="M146.382,141.971c-0.442,1.468-0.737,3.229-0.737,4.698v33.169c0,2.643-2.053,4.697-4.695,4.697
	H59.198c-2.644,0-4.697-2.055-4.697-4.697v-33.169v-0.148c-0.147-1.467-0.294-3.082-0.735-4.55c-1.172-3.377-3.962-5.43-3.962-5.43
	h100.393C150.196,136.541,147.553,138.594,146.382,141.971z"/>
<linearGradient id="SVGID_3_" gradientUnits="userSpaceOnUse" x1="1.9702" y1="202.1182" x2="2.272" y2="202.1182" gradientTransform="matrix(118.3473 0 0 -31.1666 -123.3125 6452.625)">
	<stop  offset="0" style="stop-color:#5992CA"/>
	<stop  offset="1" style="stop-color:#B2D4EB"/>
</linearGradient>
<path fill="url(#SVGID_3_)" d="M145.5,157.97h-30.969c-2.642,0-4.698-2.056-4.698-4.699c0-2.639,2.057-4.694,4.698-4.694H145.5
	V157.97z"/>
<linearGradient id="SVGID_4_" gradientUnits="userSpaceOnUse" x1="3.3555" y1="202.1191" x2="3.0542" y2="202.1191" gradientTransform="matrix(118.3473 0 0 -31.1666 -306.9375 6452.625)">
	<stop  offset="0" style="stop-color:#5992CA"/>
	<stop  offset="1" style="stop-color:#B2D4EB"/>
</linearGradient>
<path fill="url(#SVGID_4_)" d="M54.5,148.576H85.47c2.642,0,4.696,2.056,4.696,4.694c0,2.644-2.054,4.699-4.696,4.699H54.499v-9.394
	H54.5z"/>
</svg>
