<?xml version="1.0" encoding="utf-8"?>
<!-- Generator: Adobe Illustrator 16.0.0, SVG Export Plug-In . SVG Version: 6.00 Build 0)  -->
<!DOCTYPE svg PUBLIC "-//W3C//DTD SVG 1.1//EN" "http://www.w3.org/Graphics/SVG/1.1/DTD/svg11.dtd">
<svg version="1.1" id="Layer_1" xmlns="http://www.w3.org/2000/svg" xmlns:xlink="http://www.w3.org/1999/xlink" x="0px" y="0px"
	 width="200px" height="200px" viewBox="0 0 200 200" enable-background="new 0 0 200 200" xml:space="preserve">
<g>
	<path fill-rule="evenodd" clip-rule="evenodd" fill="#80C464" d="M20.064,69.989c-0.051-11.272,0.854-22.404,4.382-33.226
		c1.697-5.204,4.636-9.093,9.447-11.869c10.607-6.12,22.155-9.342,34.069-11.347c11.7-1.969,23.545-2.688,35.399-2.441
		c17.908,0.373,35.662,1.965,52.616,8.417c4.014,1.528,7.832,3.443,11.598,5.518c4.776,2.632,7.53,6.627,9.194,11.703
		c3.415,10.414,4.354,21.137,4.415,31.997c0.117,21.016-3.032,41.41-13.394,59.969c-15.038,26.934-37.244,46.229-65.145,59.125
		c-1.264,0.583-2.427,0.791-3.782,0.155c-30.83-14.453-54.966-35.947-69.274-67.248C22.279,104.743,19.928,87.53,20.064,69.989z"/>
	<path fill-rule="evenodd" clip-rule="evenodd" fill="#412F1F" d="M168.734,71.462c-0.554,17.443-3.228,36.05-12.979,52.843
		c-11.164,19.224-26.685,34.299-45.854,45.407c-11.528,6.682-7.128,6.71-18.609-0.002c-20.516-11.994-36.968-28.227-47.98-49.479
		c-6.372-12.298-8.954-25.682-10.228-39.399c-1.085-11.685-0.283-23.188,1.854-34.691c1.106-5.957,3.73-10.114,9.599-12.603
		c9.472-4.017,19.241-6.502,29.384-7.961c11.673-1.679,23.399-2.102,35.128-1.61c15.313,0.642,30.353,2.74,44.874,8.279
		c8.07,3.079,12.001,8.335,12.989,16.591C167.748,55.828,168.721,62.793,168.734,71.462z"/>
	<path fill-rule="evenodd" clip-rule="evenodd" fill="#509647" d="M127.062,79.014c1.883,4.318,2.512,8.861,2.411,13.533
		c-3.311,2.143-7.226,1.819-10.865,2.524c-3.979,0.771-7.999,1.411-12.015,2.011c-2.394,0.357-3.303,1.572-3.26,3.89
		c0.052,2.742,0.052,5.487-0.002,8.232c-0.276,1.895,0.906,4.155-1.39,5.541c-0.852-0.654-0.905-1.609-0.976-2.56
		c0.045-1.854-0.123-3.71-0.001-5.565c0.002-2.046-0.098-4.093-0.036-6.139c0.103-2.449-0.126-4.898,0.024-7.347
		c0.084-3.203-0.437-6.438,0.503-9.594c0.992-1.234,2.482-1.336,3.861-1.603c6.414-1.245,12.947-1.762,19.347-3.115
		C125.467,78.651,126.288,78.627,127.062,79.014z"/>
	<path fill-rule="evenodd" clip-rule="evenodd" fill="#4F9446" d="M102.455,109.112c0.001-3.161,0.09-6.325-0.033-9.481
		c-0.073-1.898,0.797-3.002,2.479-3.275c8.181-1.328,16.379-2.55,24.571-3.81c1.325,4.307-0.069,8.587-0.129,12.881
		c-0.903,0.933-2.086,1.232-3.303,1.371c-6.547,0.748-12.974,2.29-19.531,2.967C105.089,109.911,103.674,110.16,102.455,109.112z"/>
	<path fill-rule="evenodd" clip-rule="evenodd" fill="#4C9144" d="M127.527,114.019c-1.358,4.988-3.125,9.801-6.068,14.107
		c-1.903,1.743-4.198,0.202-6.361,0.635c-3.3,0.658-6.46,2.151-9.987,2.04c-1.751-0.056-3.167-0.107-4.265-1.557
		c-0.38-0.76-0.417-1.578-0.449-2.401c-0.05-0.862-0.044-1.723,0.01-2.584c0.614-2.211,0.122-4.637,1.309-6.737
		c0.641-0.545,1.422-0.806,2.221-0.931c6.917-1.076,13.824-2.207,20.742-3.271C125.701,113.163,126.712,113.239,127.527,114.019z"/>
	<path fill-rule="evenodd" clip-rule="evenodd" fill="#529849" d="M127.062,79.014c-5.689,1.785-11.634,2.128-17.467,3.097
		c-2.573,0.428-5.152,0.823-7.729,1.233c-1.58-3.096-0.916-6.304-0.479-9.5c1.857-1.917,4.417-1.907,6.77-2.296
		c3.411-0.564,6.829-1.153,10.284-1.406c1.783-0.131,3.262-1.101,4.907-1.6C125.068,71.861,126.533,75.271,127.062,79.014z"/>
	<path fill-rule="evenodd" clip-rule="evenodd" fill="#539A49" d="M123.348,68.542c-0.345,2.034-2.24,2.16-3.544,2.291
		c-6.031,0.605-11.976,1.72-17.944,2.692c-1.611-3.487-0.879-7.083-0.507-10.663c0.792-1.3,2.188-1.424,3.464-1.631
		c4.523-0.735,9.045-1.482,13.552-2.313C120.488,61.888,122.37,64.981,123.348,68.542z"/>
	<path fill-rule="evenodd" clip-rule="evenodd" fill="#4E9245" d="M127.527,114.019c-4.963,0.094-9.74,1.46-14.617,2.14
		c-3.683,0.513-7.364,1.029-11.046,1.544c-0.266-0.208-0.449-0.474-0.554-0.795c-0.173-0.843-0.165-1.643,0.551-2.271
		c1.19-1.734,0.329-3.69,0.594-5.524c6.886-0.106,13.538-1.902,20.316-2.789c2.193-0.287,4.383-0.597,6.573-0.896
		C128.836,108.312,128.518,111.236,127.527,114.019z"/>
	<path fill-rule="evenodd" clip-rule="evenodd" fill="#4A8F42" d="M101.234,129.359c3.561,1.188,7.03,0.832,10.299-0.886
		c0.805-0.423,1.362-0.707,2.171-0.258c0.434,0.242,1.125,0.646,1.382,0.215c1.215-2.045,2.519-0.967,3.963-0.371
		c0.694,0.286,1.601,0.061,2.41,0.066c-4.06,7.08-8.965,13.405-15.961,17.861c-0.66,0.23-1.151-0.114-1.639-0.479
		c-1.146-1.036-1.818-2.343-2.182-3.827c-0.504-1.99-0.792-4.031-1.408-5.998c-0.051-0.3-0.059-0.601-0.037-0.903
		c0.151-0.905,0.197-1.816,0.192-2.734C100.476,131.083,100.406,130.084,101.234,129.359z"/>
	<path fill-rule="evenodd" clip-rule="evenodd" fill="#5DAA4F" d="M74.848,74.763c0.042-1.364,0.387-2.632,1.184-3.758
		c1.356,0.454,1.699,1.689,2.106,2.827c5.744,16.05,10.84,32.319,16.334,48.454c2.005,5.888,3.792,11.851,6.026,17.662
		c-0.118,1.945,0.41,4.076-1.555,5.498c-1.318-0.816-1.773-2.223-2.213-3.546c-4.941-14.879-10.134-29.671-15.015-44.569
		c-2.155-6.576-4.287-13.163-6.557-19.703C74.837,76.699,74.13,75.807,74.848,74.763z"/>
	<path fill-rule="evenodd" clip-rule="evenodd" fill="#5AA84D" d="M74.848,74.763c2.365,5.888,4.115,11.983,6.124,17.992
		c3.403,10.182,6.914,20.327,10.364,30.493c2.497,7.359,4.967,14.729,7.449,22.092c0.476,0.831,0.722,1.586-0.606,1.813
		c-0.848-0.759-1.696-1.518-2.544-2.276c-2.786-6.162-4.381-12.741-6.659-19.085c-5.418-15.093-9.921-30.501-15.457-45.558
		C73.659,78.337,73.973,76.482,74.848,74.763z"/>
	<path fill-rule="evenodd" clip-rule="evenodd" fill="#57A74C" d="M73.519,80.234c3.423,2.953,3.438,7.447,4.832,11.247
		c3.659,9.978,6.789,20.149,10.151,30.236c2.307,6.921,4.667,13.824,6.951,20.753c0.244,0.741,0.131,1.602,0.183,2.406
		c-1.566-0.664-2.66-1.862-3.627-3.205c-2.843-6.654-4.712-13.648-7.1-20.461c-3.873-11.047-7.349-22.227-11.137-33.303
		c-0.507-1.484-1.521-2.946-0.808-4.668C73.053,82.219,72.769,81.131,73.519,80.234z"/>
	<path fill-rule="evenodd" clip-rule="evenodd" fill="#54A64A" d="M72.964,83.239c2.754,8.167,5.522,16.329,8.259,24.501
		c3.485,10.405,6.955,20.816,10.393,31.237c0.28,0.849,0.269,1.793,0.393,2.693c-1.933-1.595-3.867-3.188-5.034-5.484
		c-4.824-15.228-10.115-30.299-15.129-45.463C71.851,88.173,72.207,85.676,72.964,83.239z"/>
	<path fill-rule="evenodd" clip-rule="evenodd" fill="#60AB51" d="M99.955,139.792c-2.411-3.179-2.83-7.152-4.125-10.752
		c-3.579-9.945-6.746-20.039-10.092-30.069c-2.607-7.817-5.224-15.632-7.874-23.436c-0.523-1.54-1.217-3.021-1.832-4.53
		c0.09-1.317,0.458-2.536,1.272-3.597c2.302,2.165,2.604,5.259,3.537,8.002c6.602,19.395,13.021,38.851,19.505,58.286
		c0.128,0.386,0.23,0.782,0.276,1.19c0,0.176,0.002,0.354,0.007,0.53C100.38,136.871,101.35,138.515,99.955,139.792z"/>
	<path fill-rule="evenodd" clip-rule="evenodd" fill="#559B4B" d="M118.368,58.918c-1.386,1.658-3.418,1.451-5.246,1.765
		c-3.754,0.646-7.522,1.204-11.286,1.797c-0.609-0.513-0.735-1.22-0.797-1.956c-0.012-0.408-0.02,0.108-0.02-0.301
		c0.003-7.777-1.233-8.51,8.791-9.713c0.803-0.096,1.617,0.044,2.413-0.146C114.851,52.8,116.761,55.75,118.368,58.918z"/>
	<path fill-rule="evenodd" clip-rule="evenodd" fill="#68AF56" d="M101.82,117.092c0.011,0.203,0.025,0.407,0.044,0.61
		c0.104,2.279-0.147,4.523-0.644,6.745c-1.722,0.165-1.955-1.26-2.316-2.345c-6.365-19.096-12.782-38.174-19.114-57.28
		c-0.316-0.954-0.619-1.959-0.035-2.947c0.371-0.675,0.742-1.351,1.112-2.026c1.69,0.646,1.931,2.264,2.389,3.683
		c5.44,16.87,11.145,33.651,16.796,50.45C100.436,115.121,100.667,116.377,101.82,117.092z"/>
	<path fill-rule="evenodd" clip-rule="evenodd" fill="#65AD54" d="M79.756,61.875c4.158,12.417,8.34,24.826,12.465,37.253
		c2.46,7.408,4.804,14.854,7.272,22.259c0.364,1.093,0.346,2.502,1.728,3.061c-0.003,0.821-0.007,1.642-0.01,2.463
		c-0.673,1.772-1.554,1.611-2.357,0.155c-0.827-1.499-1.186-3.194-1.73-4.811c-0.8-2.379-1.545-4.775-2.561-7.077
		c-2.837-9.234-6.268-18.269-9.257-27.453c-2.171-6.668-4.296-13.355-6.717-19.941c-0.344-0.937-0.542-1.965-0.114-2.973
		C78.519,63.665,78.959,62.692,79.756,61.875z"/>
	<path fill-rule="evenodd" clip-rule="evenodd" fill="#52A549" d="M71.846,90.723c1.192,0.655,1.46,1.866,1.851,3.021
		c4.279,12.653,8.598,25.293,12.814,37.968c0.462,1.393,1.647,2.853,0.465,4.474c-1.987-1.759-3.546-3.85-4.775-6.194
		c-3.614-10.183-6.964-20.455-10.416-30.694C71.805,96.439,71.826,93.581,71.846,90.723z"/>
	<path fill-rule="evenodd" clip-rule="evenodd" fill="#6BB059" d="M101.82,117.092c-1.726,0.853-1.927-0.677-2.232-1.599
		c-4.429-13.382-8.639-26.837-13.269-40.148c-1.797-5.167-2.994-10.558-5.451-15.496c0.226-0.899,0.588-1.723,1.289-2.363
		c2.007,1.009,2.222,3.189,2.774,4.906c2.279,7.076,4.721,14.097,7.109,21.133c3.243,9.554,5.805,19.342,9.782,28.645
		c0.013,0.822,0.026,1.645,0.039,2.466C101.848,115.455,101.834,116.272,101.82,117.092z"/>
	<path fill-rule="evenodd" clip-rule="evenodd" fill="#70B25E" d="M101.821,100.513c0.001,2.048,0.002,4.095,0.003,6.142
		c-1.692,0.713-2.13-0.514-2.526-1.688c-3.083-9.129-6.078-18.288-9.07-27.447c-2.138-6.542-4.444-13.034-6.56-19.587
		c-0.249-0.771-0.626-1.517-0.323-2.359c0.365-1.163,1.052-2.117,1.916-2.956c2.549,3.67,3.116,8.104,4.58,12.18
		c3.594,10.013,6.721,20.192,10.29,30.218C100.776,96.829,100.647,98.871,101.821,100.513z"/>
	<path fill-rule="evenodd" clip-rule="evenodd" fill="#76B663" d="M101.833,60.66c0.001,0.607,0.002,1.214,0.003,1.821
		c0.008,3.682,0.016,7.363,0.023,11.045c0.002,3.273,0.004,6.545,0.006,9.818c-0.019,3.27-0.037,6.541-0.056,9.812
		c-1.866,1.018-2.29-0.358-2.722-1.662c-2.856-8.614-5.883-17.168-8.68-25.803c-1.19-3.678-2.465-7.332-3.636-11.016
		c-0.392-1.229-0.968-2.502-0.261-3.831c0.383-0.468,0.766-0.937,1.15-1.406c1.559,0.899,1.976,2.507,2.486,4.046
		c3.452,10.425,6.961,20.831,10.409,31.257c0.092,0.278,0.143,0.6,0.505,0.687c0.167,0.373,0.384-0.27,0.087,0.012
		c-0.115,0.108-0.191,0.055-0.271-0.145c-0.87-2.158-0.31-4.422-0.5-6.634c0.057-1.751-0.117-3.499-0.045-5.248
		c0.069-2.738-0.093-5.476-0.024-8.212c0.214-1.436-0.171-2.957,0.588-4.318C101.142,60.532,101.455,60.458,101.833,60.66z"/>
	<path fill-rule="evenodd" clip-rule="evenodd" fill="#6EB15B" d="M83.344,55.573c1.835,2.409,2.144,5.433,3.079,8.166
		c4.159,12.16,8.006,24.426,12.021,36.636c0.535,1.626,1.648,3.034,1.656,4.879c0.005,0.945,0.813,1.342,1.724,1.4
		c0,1.839-0.001,3.679-0.002,5.517c-3.184-2.099-3.057-5.829-4.155-8.869c-3.49-9.67-6.322-19.563-9.785-29.254
		c-1.963-5.494-3.603-11.113-5.725-16.561C82.266,56.671,82.716,56.067,83.344,55.573z"/>
	<path fill-rule="evenodd" clip-rule="evenodd" fill="#79B766" d="M101.227,79.046c0,2.48,0,4.961,0,7.443
		c-0.253,0.035-0.506,0.07-0.759,0.105C96.199,74.21,91.93,61.825,87.66,49.439c0.325-1.026,0.997-1.767,1.9-2.317
		c1.71,0.45,1.833,1.977,2.274,3.31C94.991,59.961,98.336,69.429,101.227,79.046z"/>
	<path fill-rule="evenodd" clip-rule="evenodd" fill="#579D4C" d="M101.833,60.66c-0.195-0.018-0.391-0.033-0.586-0.046
		c-1.079-1.083-0.903-2.466-0.914-3.804c-0.262-5.845,0.541-11.711-0.365-17.543c-0.184-1.541-0.15-3.051,0.686-4.436
		c2.625,6.095,7.563,10.467,11.57,15.533c-1.683,1.981-4.185,1.261-6.218,1.521c-3.229,0.413-4.554,1.619-4.189,4.828
		C101.965,58.013,101.836,59.344,101.833,60.66z"/>
	<path fill-rule="evenodd" clip-rule="evenodd" fill="#73B461" d="M86.51,50.844c3.105,10.451,6.644,20.758,10.259,31.041
		c1.108,3.151,2.197,6.316,3.104,9.529c0.326,1.155,0.63,1.886,1.936,1.743c0.004,2.452,0.008,4.904,0.012,7.356
		c-2.783-1.965-2.5-5.371-3.529-8.077c-3.034-7.977-5.607-16.135-8.178-24.28c-1.633-5.174-3.771-10.193-4.854-15.539
		C85.677,52.026,86.094,51.435,86.51,50.844z"/>
	<path fill-rule="evenodd" clip-rule="evenodd" fill="#7FBA6C" d="M101.215,64.926c0.003,2.865,0.006,5.731,0.009,8.596
		c-1.636,0.143-2.034-1.104-2.401-2.253c-2.476-7.755-5.208-15.424-7.692-23.176c-0.345-1.076-0.241-1.986,0.223-2.934
		c0.603-0.624,1.205-1.247,1.807-1.87c2.113,1.328,2.355,3.693,3.027,5.747C97.918,54.313,99.858,59.528,101.215,64.926z"/>
	<path fill-rule="evenodd" clip-rule="evenodd" fill="#50A447" d="M71.785,99.297c2.437,2.678,2.842,6.246,4.016,9.448
		c2.205,6.015,4.128,12.134,6.094,18.234c0.303,0.938,0.213,2.005,0.306,3.012C75.651,120.805,72.128,110.591,71.785,99.297z"/>
	<path fill-rule="evenodd" clip-rule="evenodd" fill="#63AC53" d="M100.624,134.887c-1.392-0.551-1.378-1.963-1.744-3.058
		c-6.034-18.039-12.01-36.098-18.019-54.146c-1.145-3.438-2.369-6.851-3.556-10.275c0.192-0.441,0.384-0.883,0.577-1.325
		c3.145,6.175,4.735,12.916,6.98,19.414c3.544,10.262,6.998,20.557,10.474,30.842c1.891,5.384,3.617,10.829,5.875,16.08
		C101.144,133.272,101.516,134.229,100.624,134.887z"/>
	<path fill-rule="evenodd" clip-rule="evenodd" fill="#7CB969" d="M91.353,45.159c0.827,5.114,3.041,9.813,4.439,14.759
		c1.07,3.783,2.436,7.484,3.708,11.209c0.325,0.951,0.665,1.946,1.724,2.395c0.001,1.841,0.002,3.683,0.003,5.524
		c-2.619-3.152-2.896-7.227-4.252-10.872c-2.594-6.973-4.424-14.217-7.414-21.052C89.956,46.282,90.566,45.64,91.353,45.159z"/>
	<path fill-rule="evenodd" clip-rule="evenodd" fill="#83BD71" d="M101.215,64.926c-1.973-2.5-2.504-5.63-3.48-8.513
		c-1.486-4.389-2.749-8.852-4.574-13.124c0.625-0.593,1.252-1.185,1.878-1.777c1.964,1.367,2.613,3.486,3.231,5.627
		c0.946,3.282,1.996,6.533,2.944,9.815c0.011,1.22,0.022,2.441,0.034,3.662C101.236,62.052,101.226,63.489,101.215,64.926z"/>
	<path fill-rule="evenodd" clip-rule="evenodd" fill="#63AC53" d="M95.092,116.475c-2.933-7.15-5.062-14.579-7.583-21.872
		c-3.181-9.203-6.381-18.4-9.56-27.604c-0.097-0.28-0.048-0.609-0.068-0.916c0.004-0.514,0.136-0.968,0.592-1.272
		c3.393,10.073,6.77,20.153,10.185,30.221c2.083,6.14,4.237,12.255,6.319,18.395c0.189,0.556,0.083,1.211,0.114,1.82
		C95.444,115.656,95.444,116.065,95.092,116.475z"/>
	<path fill-rule="evenodd" clip-rule="evenodd" fill="#87BF75" d="M101.213,56.953c-2.793-1.866-2.207-5.304-3.244-7.9
		c-0.979-2.453-2.069-4.983-2.931-7.542c0.628-0.588,1.256-1.176,1.884-1.765c2.369,2.211,2.028,5.551,3.406,8.174
		c0.151,0.38,0.612-0.224,0.265-0.007c-0.155,0.097-0.266,0.08-0.295-0.06c-0.614-2.943-1.161-5.885,0.343-8.746
		c1.168,2.31,0.458,4.779,0.546,7.169C101.317,49.831,101.216,53.394,101.213,56.953z"/>
	<path fill-rule="evenodd" clip-rule="evenodd" fill="#88BF78" d="M100.641,39.108c0,3.279,0,6.557,0,9.835
		c-2.103-2.829-2.783-6.06-3.718-9.197c1.406-1.531,2.71-3.124,3.131-5.245c0.017-0.082,0.071-0.214,0.125-0.223
		c0.446-0.075,0.387,0.306,0.475,0.552C100.649,36.257,100.645,37.683,100.641,39.108z"/>
	<path fill-rule="evenodd" clip-rule="evenodd" fill="#B7B598" d="M102.366,141.694c0.62,1.213,1.239,2.425,1.859,3.638
		c-0.952,2.112-1.54,4.348-2.258,6.541c-0.339,1.036-0.318,2.493-1.947,2.638c-0.778-1.301-0.613-2.759-0.7-4.176
		C99.33,147.101,99.233,143.828,102.366,141.694z"/>
	<path fill-rule="evenodd" clip-rule="evenodd" fill="#A2A680" d="M102.366,141.694c-1.727,2.63-2.196,5.701-3.044,8.641
		c-0.757-0.926-0.843-2.092-1.143-3.182c0.668-0.448,0.583-1.149,0.606-1.813c0.863-1.749,0.867-3.68,1.17-5.548
		c0.388-1.433-0.53-3.067,0.676-4.374C102.043,137.279,101.764,139.609,102.366,141.694z"/>
	<path fill-rule="evenodd" clip-rule="evenodd" fill="#BBB99E" d="M100.021,154.511c1.354-1.94,1.491-4.309,2.271-6.45
		c0.394-1.085,0.36-2.479,1.935-2.729c0.424,0.219,0.848,0.437,1.272,0.656c-0.738,1.991-1.959,3.83-1.907,6.069
		c-0.177,0.209-0.323,0.438-0.439,0.687c-0.678,1.731-0.375,3.949-2.47,4.977c-0.666-0.513-0.125-1.383-0.581-1.959
		C100.074,155.344,100.047,154.928,100.021,154.511z"/>
	<path fill-rule="evenodd" clip-rule="evenodd" fill="#CECBB5" d="M100.644,157.623c0.805-1.854,1.611-3.707,2.417-5.561
		c0.64,1.45,0.164,2.976,0.296,4.458c-0.699,1.957-0.481,4.247-2.122,5.864c-0.232-0.124-0.465-0.248-0.699-0.371
		C100.263,160.542,100.058,159.073,100.644,157.623z"/>
	<path fill-rule="evenodd" clip-rule="evenodd" fill="#D5D2C2" d="M101.235,162.385c0.386-1.869,0.349-3.878,1.784-5.399
		c0.73,0.689,0.038,1.704,0.558,2.441C102.758,160.382,105.945,164.51,101.235,162.385z"/>
	<path fill-rule="evenodd" clip-rule="evenodd" fill="#B7B598" d="M103.577,159.427c-0.729-0.689-0.432-1.614-0.558-2.441
		c0.014-1.642,0.027-3.282,0.042-4.923c0.176-0.002,0.353-0.003,0.529-0.006C103.587,154.514,103.582,156.97,103.577,159.427z"/>
	<path fill-rule="evenodd" clip-rule="evenodd" fill="#B7B598" d="M100.644,157.623c-0.036,1.463-0.071,2.927-0.107,4.39
		c-0.947-2.027-0.367-4.162-0.436-6.252C100.736,156.249,100.58,156.968,100.644,157.623z"/>
	<path fill-rule="evenodd" clip-rule="evenodd" fill="#63AC53" d="M95.092,116.475c0-0.409,0-0.818,0-1.228
		c2.249,3.404,2.802,7.455,4.206,11.182c0.528,1.403,0.95,1.592,1.913,0.481c0.008,0.816,0.016,1.633,0.023,2.449
		c-0.008,1.021-0.016,2.04-0.022,3.061c-2.105-1.858-2.409-4.626-3.381-7.015C96.663,122.532,95.983,119.46,95.092,116.475z"/>
</g>
</svg>
