<?xml version="1.0" encoding="utf-8"?>
<!-- Generator: Adobe Illustrator 16.0.0, SVG Export Plug-In . SVG Version: 6.00 Build 0)  -->
<!DOCTYPE svg PUBLIC "-//W3C//DTD SVG 1.1//EN" "http://www.w3.org/Graphics/SVG/1.1/DTD/svg11.dtd">
<svg version="1.1" id="Layer_1" xmlns="http://www.w3.org/2000/svg" xmlns:xlink="http://www.w3.org/1999/xlink" x="0px" y="0px"
	 width="200px" height="200px" viewBox="0 0 200 200" enable-background="new 0 0 200 200" xml:space="preserve">
<path fill="#00546B" d="M179.673,150.049c-10.186-0.252-18.077,0.765-24.696,3.566c-1.909,0.761-4.965,0.763-5.22,3.182
	c1.018,1.02,1.146,2.675,2.037,4.073c1.529,2.546,4.199,5.983,6.618,7.767c2.675,2.036,5.348,4.073,8.146,5.854
	c4.967,3.055,10.566,4.838,15.406,7.893c2.801,1.782,5.6,4.072,8.398,5.983c1.4,1.018,2.292,2.673,4.076,3.309v-0.38
	c-0.893-1.149-1.146-2.802-2.038-4.075c-1.271-1.272-2.547-2.419-3.819-3.692c-3.69-4.965-8.273-9.292-13.238-12.855
	c-4.073-2.802-12.984-6.619-14.639-11.33c0,0-0.127-0.125-0.255-0.254c2.801-0.254,6.108-1.272,8.783-2.037
	c4.329-1.147,8.274-0.891,12.731-2.036c2.035-0.51,4.072-1.146,6.106-1.783v-1.146c-2.288-2.289-3.944-5.346-6.362-7.511
	c-6.493-5.602-13.621-11.075-21.004-15.656c-3.947-2.547-9.039-4.201-13.241-6.365c-1.525-0.765-4.072-1.146-4.962-2.419
	c-2.293-2.801-3.567-6.491-5.22-9.801c-3.69-7.003-7.256-14.768-10.438-22.15c-2.29-4.966-3.69-9.931-6.492-14.513
	c-13.113-21.64-27.37-34.752-49.264-47.609c-4.711-2.673-10.312-3.818-16.295-5.219c-3.18-0.128-6.364-0.382-9.546-0.51
	c-2.037-0.891-4.074-3.31-5.856-4.456c-7.255-4.583-25.969-14.511-31.316-1.399c-3.437,8.273,5.093,16.42,8.02,20.623
	c2.166,2.926,4.965,6.237,6.493,9.546c0.891,2.163,1.145,4.456,2.035,6.747c2.039,5.6,3.947,11.839,6.621,17.059
	c1.4,2.673,2.928,5.473,4.709,7.892c1.02,1.399,2.801,2.038,3.184,4.329c-1.781,2.545-1.91,6.365-2.929,9.548
	c-4.582,14.384-2.799,32.207,3.692,42.771c2.036,3.182,6.874,10.187,13.366,7.511c5.729-2.291,4.456-9.545,6.11-15.91
	c0.383-1.531,0.128-2.548,0.892-3.565v0.255c1.783,3.563,3.564,7.001,5.219,10.566c3.946,6.236,10.819,12.728,16.548,17.058
	c3.056,2.29,5.474,6.237,9.294,7.638v-0.386h-0.256c-0.763-1.144-1.91-1.651-2.927-2.545c-2.291-2.289-4.838-5.089-6.62-7.636
	c-5.345-7.13-10.057-15.021-14.257-23.17c-2.037-3.945-3.819-8.272-5.474-12.22c-0.765-1.527-0.765-3.819-2.038-4.581
	c-1.909,2.799-4.71,5.218-6.11,8.655c-2.417,5.474-2.673,12.22-3.564,19.221c-0.509,0.13-0.255,0-0.51,0.257
	c-4.072-1.02-5.472-5.22-7.001-8.785c-3.82-9.039-4.456-23.549-1.145-33.987c0.891-2.673,4.71-11.075,3.183-13.622
	c-0.764-2.418-3.31-3.819-4.71-5.729c-1.655-2.418-3.438-5.472-4.583-8.146c-3.056-7.129-4.584-15.021-7.893-22.151
	c-1.528-3.31-4.2-6.746-6.365-9.801c-2.418-3.437-5.091-5.856-7.001-9.93c-0.636-1.399-1.528-3.691-0.509-5.219
	c0.254-1.019,0.763-1.4,1.782-1.655c1.655-1.4,6.366,0.382,8.02,1.146c4.71,1.909,8.656,3.693,12.602,6.365
	c1.783,1.273,3.692,3.692,5.983,4.329h2.674c4.074,0.89,8.656,0.254,12.475,1.399c6.748,2.164,12.857,5.347,18.332,8.784
	c16.677,10.565,30.423,25.586,39.719,43.536c1.524,2.927,2.162,5.601,3.563,8.655c2.673,6.238,5.984,12.605,8.657,18.713
	c2.673,5.982,5.218,12.094,9.037,17.06c1.91,2.672,9.546,4.073,12.983,5.473c2.547,1.145,6.494,2.165,8.783,3.563
	c4.33,2.673,8.657,5.73,12.731,8.657C172.926,144.321,179.288,147.505,179.673,150.049L179.673,150.049z"/>
<path fill="#00546B" d="M49.827,39.427c-2.164,0-3.691,0.256-5.218,0.637v0.254h0.254c1.019,2.037,2.8,3.438,4.073,5.219
	c1.019,2.036,1.91,4.074,2.929,6.111c0.126-0.127,0.254-0.255,0.254-0.255c1.783-1.273,2.673-3.31,2.673-6.365
	c-0.763-0.891-0.891-1.782-1.527-2.673C52.501,41.083,50.846,40.446,49.827,39.427z"/>
</svg>
