<?xml version="1.0" encoding="utf-8"?>
<!-- Generator: Adobe Illustrator 16.0.0, SVG Export Plug-In . SVG Version: 6.00 Build 0)  -->
<!DOCTYPE svg PUBLIC "-//W3C//DTD SVG 1.1//EN" "http://www.w3.org/Graphics/SVG/1.1/DTD/svg11.dtd">
<svg version="1.1" id="Layer_1" xmlns="http://www.w3.org/2000/svg" xmlns:xlink="http://www.w3.org/1999/xlink" x="0px" y="0px"
	 width="200px" height="200px" viewBox="0 0 200 200" enable-background="new 0 0 200 200" xml:space="preserve">
<g>
	<defs>
		<path id="SVGID_1_" d="M97.75,16.249L31.261,54.627c-2.491,1.435-4.02,4.087-4.02,6.953v76.809c0,2.868,1.528,5.519,4.02,6.954
			l66.494,38.406c2.486,1.431,5.552,1.431,8.033,0l66.483-38.406c2.479-1.436,4.008-4.088,4.008-6.954V61.581
			c0-2.866-1.528-5.518-4.022-6.953l-66.476-38.378c-1.246-0.714-2.634-1.071-4.025-1.071c-1.388,0-2.775,0.357-4.022,1.071"/>
	</defs>
	<clipPath id="SVGID_2_">
		<use xlink:href="#SVGID_1_"  overflow="visible"/>
	</clipPath>
	<g transform="translate(-78.306 -164.016)" clip-path="url(#SVGID_2_)">
		
			<linearGradient id="SVGID_3_" gradientUnits="userSpaceOnUse" x1="80.3456" y1="366.6293" x2="82.2386" y2="366.6293" gradientTransform="matrix(-50.7531 103.536 103.536 50.7531 -33653.418 -26760.1758)">
			<stop  offset="0.3" style="stop-color:#3E863D"/>
			<stop  offset="0.5" style="stop-color:#55934F"/>
			<stop  offset="0.8" style="stop-color:#5AAD45"/>
		</linearGradient>
		<path fill="url(#SVGID_3_)" d="M321.779,212.126L134.42,120.29L38.354,316.263l187.355,91.843L321.779,212.126z"/>
	</g>
</g>
<g>
	<defs>
		<path id="SVGID_4_" d="M28.89,143.267c0.637,0.826,1.431,1.543,2.366,2.077l57.038,32.944l9.501,5.46
			c1.42,0.823,3.039,1.17,4.631,1.049c0.531-0.043,1.06-0.142,1.577-0.288L174.13,56.106c-0.534-0.584-1.165-1.073-1.868-1.483
			L128.726,29.48l-23.015-13.239c-0.653-0.38-1.363-0.648-2.084-0.838L28.89,143.267z"/>
	</defs>
	<clipPath id="SVGID_5_">
		<use xlink:href="#SVGID_4_"  overflow="visible"/>
	</clipPath>
	<g transform="translate(-78.306 -164.016)" clip-path="url(#SVGID_5_)">
		
			<linearGradient id="SVGID_6_" gradientUnits="userSpaceOnUse" x1="78.3509" y1="363.6293" x2="79.5794" y2="363.6293" gradientTransform="matrix(142.4074 -105.2221 -105.2221 -142.4074 27196.5059 60356.625)">
			<stop  offset="0.57" style="stop-color:#3E863D"/>
			<stop  offset="0.72" style="stop-color:#619857"/>
			<stop  offset="1" style="stop-color:#76AC64"/>
		</linearGradient>
		<path fill="url(#SVGID_6_)" d="M26.189,239.289l132.292,179.055l174.962-129.266L201.142,110.029L26.189,239.289z"/>
	</g>
</g>
<g>
	<defs>
		<path id="SVGID_7_" d="M100.963,15.221c-1.116,0.111-2.207,0.457-3.211,1.028l-66.3,38.268l71.494,130.219
			c0.993-0.143,1.972-0.473,2.856-0.985l66.488-38.406c2.051-1.191,3.458-3.205,3.886-5.488L103.29,15.35
			c-0.534-0.103-1.071-0.159-1.625-0.159c-0.22,0-0.441,0.01-0.661,0.033"/>
	</defs>
	<clipPath id="SVGID_8_">
		<use xlink:href="#SVGID_7_"  overflow="visible"/>
	</clipPath>
	<g transform="translate(-78.306 -164.016)" clip-path="url(#SVGID_8_)">
		
			<linearGradient id="SVGID_9_" gradientUnits="userSpaceOnUse" x1="79.951" y1="363.1625" x2="81.0653" y2="363.1625" gradientTransform="matrix(129.8891 0 0 -129.8891 -10274.915 47434.6563)">
			<stop  offset="0.16" style="stop-color:#6BBF47"/>
			<stop  offset="0.38" style="stop-color:#79B461"/>
			<stop  offset="0.47" style="stop-color:#75AC64"/>
			<stop  offset="0.7" style="stop-color:#659E5A"/>
			<stop  offset="0.9" style="stop-color:#3E863D"/>
		</linearGradient>
		<path fill="url(#SVGID_9_)" d="M109.755,179.207v169.547h144.696V179.207H109.755z"/>
	</g>
</g>
<linearGradient id="SVGID_10_" gradientUnits="userSpaceOnUse" x1="32.6211" y1="99.3066" x2="169.9316" y2="99.3066">
	<stop  offset="0" style="stop-color:#FFFFFF"/>
	<stop  offset="0.4778" style="stop-color:#FDFDFD"/>
	<stop  offset="0.6499" style="stop-color:#F6F6F6"/>
	<stop  offset="0.7726" style="stop-color:#EBEBEB"/>
	<stop  offset="0.8717" style="stop-color:#DADADA"/>
	<stop  offset="0.9557" style="stop-color:#C4C4C4"/>
	<stop  offset="1" style="stop-color:#B5B5B5"/>
</linearGradient>
<path opacity="0.77" fill="url(#SVGID_10_)" d="M101.303,176.702c-2.072,0-4.13-0.542-5.947-1.59l-18.938-11.209
	c-2.828-1.583-1.448-2.142-0.514-2.464c3.77-1.321,4.535-1.619,8.561-3.906c0.423-0.24,0.977-0.155,1.41,0.103l14.547,8.631
	c0.525,0.281,1.272,0.281,1.757,0l56.723-32.743c0.525-0.296,0.866-0.908,0.866-1.532V66.54c0-0.655-0.341-1.236-0.879-1.563
	l-56.696-32.713c-0.527-0.312-1.222-0.312-1.747,0l-56.69,32.713c-0.55,0.311-0.898,0.924-0.898,1.547v65.454
	c0,0.624,0.341,1.222,0.881,1.521l15.533,8.972c8.433,4.219,13.587-0.75,13.587-5.75V72.117c0-0.921,0.727-1.631,1.647-1.631h7.184
	c0.896,0,1.633,0.71,1.633,1.631v64.632c0,11.245-6.133,17.703-16.795,17.703c-3.282,0-5.866,0-13.078-3.549l-14.879-8.575
	c-3.677-2.13-5.949-6.106-5.949-10.352V66.523c0-4.258,2.272-8.234,5.949-10.334l56.778-32.754c3.593-2.031,8.365-2.031,11.928,0
	l56.707,32.768c3.665,2.117,5.948,6.077,5.948,10.338v65.452c0,4.249-2.283,8.207-5.948,10.337l-56.707,32.754
	c-1.819,1.052-3.877,1.592-5.979,1.592"/>
<path opacity="0.77" fill="#FFFFFF" d="M118.823,131.602c-24.818,0-30.021-11.391-30.021-20.949c0-0.906,0.733-1.633,1.644-1.633
	h7.327c0.808,0,1.49,0.593,1.617,1.388c1.108,7.468,4.401,11.234,19.41,11.234c11.954,0,17.037-2.701,17.037-9.041
	c0-3.648-1.448-6.362-20.02-8.177c-15.534-1.537-25.131-4.957-25.131-17.381c0-11.442,9.655-18.258,25.827-18.258
	c18.158,0,27.16,6.304,28.3,19.848c0.04,0.469-0.13,0.925-0.443,1.264c-0.312,0.327-0.751,0.528-1.205,0.528h-7.369
	c-0.767,0-1.436-0.541-1.591-1.279c-1.775-7.852-6.063-10.365-17.721-10.365c-13.048,0-14.569,4.544-14.569,7.951
	c0,4.132,1.793,5.339,19.396,7.666c17.439,2.317,25.718,5.581,25.718,17.835c0,12.352-10.312,19.435-28.285,19.435"/>
</svg>
