<?xml version="1.0" encoding="utf-8"?>
<!-- Generator: Adobe Illustrator 16.0.0, SVG Export Plug-In . SVG Version: 6.00 Build 0)  -->
<!DOCTYPE svg PUBLIC "-//W3C//DTD SVG 1.1//EN" "http://www.w3.org/Graphics/SVG/1.1/DTD/svg11.dtd">
<svg version="1.1" id="Layer_1" xmlns="http://www.w3.org/2000/svg" xmlns:xlink="http://www.w3.org/1999/xlink" x="0px" y="0px"
	 width="200px" height="200px" viewBox="0 0 200 200" enable-background="new 0 0 200 200" xml:space="preserve">
<path fill="#CC0000" d="M23.291,54.089L101.35,8.641l78.058,45.448v90.824l-78.058,45.449l-78.059-45.449V54.089z"/>
<path fill="#FFFFFF" d="M103.538,99.465l72.589-41.802l2.916,84.258l-75.505,45.597V99.465z"/>
<path fill="#CC0000" d="M177.219,55.11L177,144.403l-75.725,43.918l-0.363-87.761L177.219,55.11L177.219,55.11z M113.532,107.854
	l0.218,58.653l25.169-14.664l-0.073-44.208l12.695-7.513v44.353l12.691-7.441l0.074-59.382L113.532,107.854L113.532,107.854z"/>
<path fill="#910505" d="M106.309,9.297c-3.5-1.969-9.119-1.969-12.619,0L24.531,49.056c-3.502,1.969-6.274,6.93-6.274,10.87v79.519
	c0,4.009,2.845,8.896,6.274,10.867l69.159,39.758c3.5,1.972,9.119,1.972,12.619,0l69.159-39.758
	c3.502-1.969,6.273-6.928,6.273-10.867V59.926c0-4.012-2.845-8.901-6.273-10.87L106.309,9.297z M167.663,50.878
	c3.5,1.971,3.5,5.253,0,7.223L107.113,92.9c-3.502,1.969-9.121,1.969-12.622,0L33.066,57.592c-3.502-1.97-3.502-5.253,0-7.222
	L93.615,15.57c3.502-1.969,9.121-1.969,12.62,0l61.426,35.308H167.663z M23.655,65.688c0-4.012,2.846-5.617,6.274-3.647
	L91.867,97.64c3.499,1.972,6.272,6.931,6.272,10.872v70.618c0,4.012-2.844,5.615-6.272,3.646L29.93,147.175
	c-3.501-1.968-6.274-6.93-6.274-10.868V65.688L23.655,65.688z M109.959,181.68c-3.503,1.971-6.276,0.367-6.276-3.646v-69.521
	c0-4.013,2.846-8.899,6.275-10.872l60.111-34.505c3.502-1.97,6.273-0.364,6.273,3.648v69.523c0,4.012-2.845,8.9-6.273,10.868
	L109.959,181.68L109.959,181.68z"/>
</svg>
