<?xml version="1.0" encoding="utf-8"?>
<!-- Generator: Adobe Illustrator 16.0.0, SVG Export Plug-In . SVG Version: 6.00 Build 0)  -->
<!DOCTYPE svg PUBLIC "-//W3C//DTD SVG 1.1//EN" "http://www.w3.org/Graphics/SVG/1.1/DTD/svg11.dtd">
<svg version="1.1" id="Layer_1" xmlns="http://www.w3.org/2000/svg" xmlns:xlink="http://www.w3.org/1999/xlink" x="0px" y="0px"
	 width="200px" height="200px" viewBox="0 0 200 200" enable-background="new 0 0 200 200" xml:space="preserve">
<g>
	<path fill="#61DAFB" stroke="#61DAFB" stroke-width="1.9914" stroke-miterlimit="10" d="M198.638,100.735
		c0-13.054-16.348-25.425-41.411-33.097c5.783-25.544,3.213-45.869-8.113-52.375c-2.612-1.526-5.664-2.249-8.997-2.249v8.957
		c1.847,0,3.333,0.361,4.578,1.044c5.461,3.134,7.832,15.063,5.984,30.406c-0.44,3.775-1.165,7.751-2.047,11.808
		c-7.874-1.928-16.469-3.415-25.507-4.378c-5.423-7.43-11.044-14.179-16.706-20.083c13.092-12.17,25.383-18.836,33.737-18.836
		v-8.958l0,0c-11.044,0-25.506,7.873-40.126,21.529C85.41,20.926,70.95,13.134,59.904,13.134v8.957
		c8.315,0,20.646,6.627,33.74,18.717C88.02,46.712,82.397,53.42,77.055,60.851c-9.077,0.963-17.673,2.45-25.545,4.418
		c-0.924-4.016-1.607-7.913-2.088-11.647c-1.889-15.344,0.441-27.273,5.863-30.446c1.205-0.723,2.772-1.044,4.619-1.044v-8.958l0,0
		c-3.374,0-6.426,0.723-9.077,2.25c-11.287,6.508-13.818,26.791-7.993,52.256C17.851,75.391,1.583,87.721,1.583,100.735
		c0,13.053,16.348,25.424,41.411,33.097c-5.783,25.544-3.214,45.868,8.113,52.376c2.611,1.526,5.664,2.249,9.038,2.249
		c11.045,0,25.505-7.873,40.126-21.527c14.619,13.577,29.08,21.367,40.124,21.367c3.374,0,6.429-0.723,9.078-2.251
		c11.287-6.505,13.818-26.79,7.994-52.255C182.37,126.119,198.638,113.749,198.638,100.735z M146.341,73.944
		c-1.486,5.182-3.334,10.524-5.421,15.866c-1.647-3.213-3.375-6.426-5.264-9.64c-1.845-3.213-3.814-6.346-5.782-9.398
		C135.577,71.615,141.077,72.659,146.341,73.944z M127.945,116.722c-3.133,5.422-6.348,10.564-9.68,15.342
		c-5.984,0.523-12.05,0.804-18.156,0.804c-6.063,0-12.128-0.28-18.074-0.762c-3.333-4.78-6.587-9.882-9.72-15.264
		c-3.052-5.263-5.823-10.604-8.354-15.987c2.49-5.381,5.302-10.763,8.314-16.026c3.133-5.422,6.347-10.563,9.681-15.344
		c5.985-0.522,12.049-0.803,18.153-0.803c6.066,0,12.132,0.281,18.073,0.764c3.335,4.779,6.59,9.88,9.723,15.263
		c3.052,5.262,5.825,10.604,8.354,15.986C133.73,106.078,130.957,111.46,127.945,116.722z M140.92,111.5
		c2.167,5.384,4.017,10.765,5.541,15.985c-5.261,1.286-10.805,2.369-16.548,3.214c1.968-3.095,3.938-6.268,5.784-9.52
		C137.545,117.966,139.272,114.714,140.92,111.5z M100.191,154.357c-3.736-3.856-7.473-8.154-11.167-12.854
		c3.615,0.16,7.31,0.283,11.045,0.283c3.776,0,7.513-0.084,11.167-0.283C107.622,146.203,103.887,150.501,100.191,154.357z
		 M70.307,130.699c-5.703-0.845-11.205-1.889-16.468-3.174c1.486-5.18,3.333-10.523,5.422-15.866
		c1.647,3.214,3.374,6.429,5.262,9.64C66.411,124.514,68.339,127.646,70.307,130.699z M99.989,47.113
		c3.737,3.857,7.472,8.155,11.168,12.854c-3.616-0.161-7.312-0.281-11.048-0.281c-3.775,0-7.511,0.081-11.166,0.281
		C92.559,55.268,96.294,50.97,99.989,47.113z M70.268,70.772c-1.969,3.092-3.937,6.265-5.785,9.519
		c-1.847,3.214-3.574,6.427-5.221,9.64c-2.169-5.382-4.016-10.765-5.543-15.986C58.98,72.7,64.523,71.615,70.268,70.772z
		 M33.917,121.059C19.699,114.994,10.5,107.041,10.5,100.735c0-6.306,9.199-14.299,23.417-20.324
		c3.454-1.486,7.23-2.811,11.126-4.057c2.29,7.873,5.302,16.066,9.037,24.461c-3.695,8.352-6.667,16.508-8.916,24.339
		C41.188,123.91,37.411,122.544,33.917,121.059z M55.526,178.456c-5.462-3.132-7.832-15.063-5.985-30.406
		c0.443-3.774,1.166-7.75,2.049-11.81c7.873,1.931,16.468,3.415,25.505,4.379c5.422,7.431,11.045,14.18,16.709,20.084
		c-13.095,12.17-25.385,18.838-33.739,18.838C58.257,179.502,56.731,179.137,55.526,178.456z M150.801,147.85
		c1.887,15.344-0.443,27.272-5.864,30.446c-1.206,0.723-2.771,1.043-4.62,1.043c-8.313,0-20.645-6.627-33.74-18.717
		c5.624-5.904,11.248-12.612,16.589-20.042c9.078-0.965,17.672-2.45,25.546-4.417C149.636,140.216,150.357,144.113,150.801,147.85z
		 M166.264,121.059c-3.453,1.485-7.23,2.812-11.127,4.057c-2.288-7.872-5.301-16.065-9.034-24.46
		c3.694-8.354,6.666-16.508,8.916-24.341c3.975,1.246,7.751,2.612,11.286,4.098c14.217,6.065,23.417,14.018,23.417,20.324
		C189.681,107.041,180.481,115.034,166.264,121.059z"/>
	<path fill="#61DAFB" stroke="#61DAFB" stroke-width="1.9914" stroke-miterlimit="10" d="M59.864,13.134L59.864,13.134
		L59.864,13.134z"/>
	<circle fill="#61DAFB" stroke="#61DAFB" stroke-width="1.9914" stroke-miterlimit="10" cx="100.07" cy="100.736" r="18.355"/>
	<path fill="#61DAFB" stroke="#61DAFB" stroke-width="1.9914" stroke-miterlimit="10" d="M140.075,13.013L140.075,13.013
		L140.075,13.013z"/>
</g>
</svg>
