<?xml version="1.0" encoding="utf-8"?>
<!-- Generator: Adobe Illustrator 16.0.0, SVG Export Plug-In . SVG Version: 6.00 Build 0)  -->
<!DOCTYPE svg PUBLIC "-//W3C//DTD SVG 1.1//EN" "http://www.w3.org/Graphics/SVG/1.1/DTD/svg11.dtd">
<svg version="1.1" id="Layer_1" xmlns="http://www.w3.org/2000/svg" xmlns:xlink="http://www.w3.org/1999/xlink" x="0px" y="0px"
	 width="200px" height="200px" viewBox="0 0 200 200" enable-background="new 0 0 200 200" xml:space="preserve">
<path fill="#2F406A" d="M155.096,67.56v64.527l-54.831,32.439l-0.496,0.451v24.115l0.496,0.469l77.219-44.605V55.043l-0.729-0.179
	l-21.77,12.171L155.096,67.56"/>
<path fill="#2379BD" d="M45.258,132.616l55.007,31.91v25.035l-77.75-44.781V55.219l0.798-0.121l21.707,12.62l0.238,0.723V132.616"/>
<path fill="#03AFEF" d="M45.258,68.441L22.516,55.219l77.574-44.781l77.395,44.604L155.096,67.56l-55.006-31.381L45.258,68.441"/>
<path fill="#2F406A" d="M99.322,125.235l-0.596-0.607v-24.23l0.596-0.308l0.145-0.598l20.772-12.117l0.637,0.142v24.966
	L99.322,125.235"/>
<path fill="#2379BD" d="M77.409,113.262V87.339l0.603-0.03l21.13,12.297l0.181,0.484v25.145L77.409,113.262"/>
<path fill="#03AFEF" d="M98.961,74.586L77.409,87.339l21.913,12.751l21.553-12.572L98.961,74.586"/>
<path fill="#2F406A" d="M72.5,141.042l-0.596-0.609v-24.229l0.596-0.307l0.145-0.598l20.772-12.117l0.636,0.143v24.966L72.5,141.042
	"/>
<path fill="#2379BD" d="M50.587,129.067v-25.923l0.602-0.029l21.131,12.297l0.18,0.484v25.146L50.587,129.067"/>
<path fill="#03AFEF" d="M72.14,90.392l-21.553,12.752L72.5,115.896l21.553-12.572L72.14,90.392"/>
<path fill="#2F406A" d="M128.059,141.64l-0.596-0.607v-24.23l0.596-0.308l0.145-0.598l20.773-12.117l0.635,0.143v24.966
	L128.059,141.64"/>
<path fill="#2379BD" d="M106.146,129.667v-25.925l0.602-0.029l21.131,12.299l0.18,0.482v25.146L106.146,129.667"/>
<path fill="#03AFEF" d="M127.699,90.991l-21.553,12.751l21.912,12.752l21.553-12.572L127.699,90.991"/>
<path fill="#2F406A" d="M101.236,157.446l-0.594-0.609v-24.229l0.594-0.309l0.146-0.598l20.771-12.117l0.635,0.143v24.965
	L101.236,157.446"/>
<path fill="#2379BD" d="M79.325,145.472v-25.924l0.602-0.029l21.13,12.297l0.18,0.484v25.146L79.325,145.472"/>
<path fill="#03AFEF" d="M100.878,106.797l-21.554,12.751l21.912,12.752l21.553-12.572L100.878,106.797"/>
<path fill="#2F406A" d="M99.322,90.871l-0.596-0.608V66.033l0.596-0.307l0.145-0.598l20.772-12.117l0.637,0.143v24.965
	L99.322,90.871"/>
<path fill="#2379BD" d="M77.409,78.897V52.974l0.603-0.03l21.13,12.297l0.181,0.485v25.145L77.409,78.897"/>
<path fill="#03AFEF" d="M98.961,40.222L77.409,52.974l21.913,12.752l21.553-12.572L98.961,40.222"/>
<path fill="#2F406A" d="M72.5,106.676l-0.596-0.607v-24.23l0.596-0.308l0.145-0.597l20.772-12.117l0.636,0.143v24.965L72.5,106.676"
	/>
<path fill="#2379BD" d="M50.587,94.702V68.78l0.602-0.03L72.32,81.047l0.18,0.484v25.145L50.587,94.702"/>
<path fill="#03AFEF" d="M72.14,56.027L50.587,68.78L72.5,81.531l21.553-12.572L72.14,56.027"/>
<path fill="#2F406A" d="M128.059,107.275l-0.596-0.609V82.438l0.596-0.308l0.145-0.598l20.773-12.117l0.635,0.142v24.966
	L128.059,107.275"/>
<path fill="#2379BD" d="M106.146,95.301V69.378l0.602-0.03l21.131,12.297l0.18,0.484v25.146L106.146,95.301"/>
<path fill="#03AFEF" d="M127.699,56.626l-21.553,12.752l21.912,12.751l21.553-12.573L127.699,56.626"/>
<path fill="#2F406A" d="M101.236,123.081l-0.594-0.609V98.242l0.594-0.307l0.146-0.598l20.771-12.117l0.635,0.142v24.965
	L101.236,123.081"/>
<path fill="#2379BD" d="M79.325,111.107V85.183l0.602-0.03l21.13,12.298l0.18,0.484v25.146L79.325,111.107"/>
<path fill="#03AFEF" d="M100.878,72.431L79.325,85.183l21.912,12.752l21.553-12.573L100.878,72.431"/>
</svg>
