<?xml version="1.0" encoding="utf-8"?>
<!-- Generator: Adobe Illustrator 16.0.0, SVG Export Plug-In . SVG Version: 6.00 Build 0)  -->
<!DOCTYPE svg PUBLIC "-//W3C//DTD SVG 1.1//EN" "http://www.w3.org/Graphics/SVG/1.1/DTD/svg11.dtd">
<svg version="1.1" id="Layer_1" xmlns="http://www.w3.org/2000/svg" xmlns:xlink="http://www.w3.org/1999/xlink" x="0px" y="0px"
	 width="200px" height="200px" viewBox="0 0 200 200" enable-background="new 0 0 200 200" xml:space="preserve">
<g>
	<path id="Squarespace" d="M57.721,44.792l88.786-0.266c22.285-0.062,40.295,17.948,40.228,40.227
		c-0.141,5.459-4.797,9.867-10.286,9.882c-5.576,0.019-10.071-4.476-10.06-10.059l0.106-1.45
		c-0.822-10.349-9.473-18.458-20.051-18.425l-90.772,0.263c-5.744-0.217-10.245-4.717-10.228-10.287
		c0.012-5.57,4.545-10.103,10.116-10.117C56.305,44.563,57.024,44.642,57.721,44.792z M156.124,145.13
		c0.013-5.573-4.482-10.068-10.056-10.056c-0.748,0.005-1.474,0.087-2.177,0.239l-88.427,0.26
		c-11.14,0.029-20.146-8.977-20.116-20.115l-0.169-0.234c0.019-5.565-4.482-10.066-10.055-10.055
		c-5.562,0.013-10.1,4.55-10.111,10.111c-0.002,0.712,0.065,1.402,0.194,2.072c0.911,21.428,18.533,38.452,40.197,38.39
		l90.604-0.497C151.573,155.229,156.104,150.696,156.124,145.13z M57.543,105.306c-0.699-0.143-1.422-0.225-2.161-0.222
		c-5.569,0.01-10.104,4.543-10.11,10.11c-0.018,5.569,4.48,10.068,10.219,10.293l90.783-0.272c11.14-0.03,20.144,8.975,20.11,20.111
		c-0.027,11.148-9.089,20.21-20.234,20.234l-86.283,0.457c-0.022,11.145,8.979,20.146,20.115,20.115l66.112-0.397
		c22.273-0.069,40.39-18.185,40.465-40.466c0.063-22.27-17.949-40.28-40.228-40.227L57.543,105.306z M55.581,95.223l90.603-0.496
		c5.573-0.018,10.104-4.549,10.114-10.114c0.021-5.57-4.484-10.075-10.055-10.054c-0.743-0.006-1.47,0.081-2.169,0.238
		l-88.433,0.259c-11.143,0.034-20.146-8.969-20.109-20.109C35.556,43.8,44.619,34.737,55.766,34.71l86.275-0.454
		c0.038-11.142-8.972-20.151-20.114-20.115l-66.105,0.392c-22.286,0.07-40.401,18.185-40.465,40.465
		C15.289,77.285,33.304,95.3,55.581,95.223z"/>
</g>
</svg>
