<?xml version="1.0" encoding="utf-8"?>
<!-- Generator: Adobe Illustrator 16.0.0, SVG Export Plug-In . SVG Version: 6.00 Build 0)  -->
<!DOCTYPE svg PUBLIC "-//W3C//DTD SVG 1.1//EN" "http://www.w3.org/Graphics/SVG/1.1/DTD/svg11.dtd">
<svg version="1.1" id="Layer_1" xmlns="http://www.w3.org/2000/svg" xmlns:xlink="http://www.w3.org/1999/xlink" x="0px" y="0px"
	 width="120px" height="32px" viewBox="0 0 120 32" enable-background="new 0 0 120 32" xml:space="preserve">
<g>
	<g>
		<path fill="#FFCCCC" stroke="#000000" stroke-width="1.0428" d="M19.26,2.129l-0.728,11.173c-0.438-0.071-1.368-0.172-2.789-0.302
			c-0.853-0.035-1.859-0.059-3.02-0.071l-0.302,5.719c1.22,0.024,3.103-0.065,5.648-0.266c-0.118,0.533-0.302,1.409-0.55,2.628
			c-0.131,0.723-0.273,1.593-0.427,2.611c-0.332-0.071-1.095-0.178-2.291-0.32c-0.888-0.071-1.765-0.095-2.629-0.071l-0.142,6.181
			H2.066L1.516,15.487C1.421,12.29,1.154,7.837,0.716,2.129H19.26z"/>
		<path fill="#FFCCCC" stroke="#000000" stroke-width="1.0428" d="M45.339,12.343c0,2.179-0.609,4.109-1.829,5.791
			c-1.078,1.469-2.428,2.522-4.051,3.162c0.344,0.533,1.19,1.652,2.541,3.357c0.675,0.781,1.705,1.812,3.091,3.091
			c-0.558,0.201-1.783,0.71-3.678,1.527c-1.326,0.604-2.575,1.196-3.748,1.776c-0.343-0.426-1.107-1.528-2.291-3.304
			c-0.545-0.9-1.344-2.416-2.398-4.547h-0.036l-0.178,6.217h-10c-0.13-2.582-0.314-6.838-0.551-12.771
			c-0.106-3.493-0.35-8.331-0.729-14.512c3.256-0.343,6.229-0.515,8.917-0.515C40.359,1.614,45.339,5.191,45.339,12.343z
			 M37.275,16.18c0-1.125-0.474-1.93-1.421-2.416c-0.699-0.355-1.575-0.509-2.629-0.461l-0.106,6.075
			c0.982,0,1.859-0.219,2.629-0.657C36.766,18.151,37.275,17.305,37.275,16.18z"/>
		<path fill="#FFCCCC" stroke="#000000" stroke-width="1.0428" d="M71.099,15.185c0,4.18-1.078,7.715-3.233,10.604
			c-2.262,3.02-5.157,4.529-8.686,4.529c-3.636,0-6.578-1.521-8.828-4.565c-2.119-2.865-3.179-6.388-3.179-10.568
			c0-4.464,1.154-7.969,3.463-10.516c2.179-2.392,5.027-3.588,8.544-3.588c3.458,0,6.276,1.202,8.455,3.606
			C69.944,7.245,71.099,10.744,71.099,15.185z M62.555,18.311c0-3.292-1.113-4.938-3.339-4.938c-2.167,0-3.251,1.658-3.251,4.974
			c0,1.326,0.284,2.564,0.853,3.712c0.64,1.291,1.427,1.936,2.362,1.936c0.912,0,1.717-0.657,2.416-1.972
			C62.235,20.828,62.555,19.59,62.555,18.311z"/>
		<path fill="#FFCCCC" stroke="#000000" stroke-width="1.0428" d="M95.188,2.129c-0.166,2.392-0.397,6.566-0.693,12.522
			c-0.178,4.382-0.325,9.42-0.443,15.116c-1.552-1.22-3.914-3.038-7.088-5.453c-1.373-0.959-3.422-2.398-6.146-4.316l-0.178,9.414
			h-5.72c-0.095-2.404-0.313-6.939-0.657-13.606c-0.296-5.4-0.598-9.958-0.905-13.677h8.916l6.608,6.252
			c0-1.433-0.024-2.558-0.071-3.375c-0.035-0.722-0.106-1.681-0.213-2.877H95.188z"/>
		<path fill="#FFCCCC" stroke="#000000" stroke-width="1.0428" d="M119.241,2.129l-0.515,11.173
			c-0.462-0.071-1.202-0.16-2.221-0.267c-0.628-0.036-1.646-0.071-3.055-0.106c-0.071,0.699-0.195,2.386-0.373,5.062
			c-0.131,2.593-0.344,6.401-0.64,11.421h-8.597c-0.096-2.392-0.273-6.152-0.533-11.279c-0.118-1.776-0.243-3.511-0.373-5.204
			l-2.807,0.106l-2.54,0.267L97.145,2.129H119.241z"/>
	</g>
</g>
</svg>
