<?xml version="1.0" encoding="utf-8"?>
<!-- Generator: Adobe Illustrator 16.0.0, SVG Export Plug-In . SVG Version: 6.00 Build 0)  -->
<!DOCTYPE svg PUBLIC "-//W3C//DTD SVG 1.1//EN" "http://www.w3.org/Graphics/SVG/1.1/DTD/svg11.dtd">
<svg version="1.1" xmlns="http://www.w3.org/2000/svg" xmlns:xlink="http://www.w3.org/1999/xlink" x="0px" y="0px" width="120px"
	 height="32px" viewBox="0 0 120 32" enable-background="new 0 0 120 32" xml:space="preserve">
<g id="Layer_1">
	<g>
		<g>
			<path fill="#FFCCCC" stroke="#000000" stroke-width="1.0428" d="M33.666,2.129c-0.166,2.392-0.396,6.566-0.692,12.522
				c-0.178,4.382-0.326,9.42-0.444,15.116c-1.551-1.22-3.914-3.038-7.087-5.453c-1.374-0.959-3.422-2.398-6.146-4.316l-0.178,9.414
				h-5.719c-0.095-2.404-0.314-6.939-0.657-13.606c-0.296-5.4-0.598-9.958-0.906-13.677h8.917l6.607,6.252
				c0-1.433-0.024-2.558-0.071-3.375c-0.036-0.722-0.106-1.681-0.213-2.877H33.666z"/>
			<path fill="#FFCCCC" stroke="#000000" stroke-width="1.0428" d="M59.852,15.185c0,4.18-1.078,7.715-3.234,10.604
				c-2.262,3.02-5.156,4.529-8.686,4.529c-3.635,0-6.578-1.521-8.827-4.565c-2.12-2.865-3.18-6.388-3.18-10.568
				c0-4.464,1.155-7.969,3.464-10.516c2.179-2.392,5.027-3.588,8.543-3.588c3.459,0,6.277,1.202,8.455,3.606
				C58.697,7.245,59.852,10.744,59.852,15.185z M51.307,18.311c0-3.292-1.113-4.938-3.339-4.938c-2.167,0-3.251,1.658-3.251,4.974
				c0,1.326,0.285,2.564,0.854,3.712c0.639,1.291,1.426,1.936,2.361,1.936c0.912,0,1.717-0.657,2.416-1.972
				C50.988,20.828,51.307,19.59,51.307,18.311z"/>
			<path fill="#FFCCCC" stroke="#000000" stroke-width="1.0428" d="M86.374,15.984c0,4.275-1.327,7.638-3.979,10.089
				c-2.735,2.546-6.59,3.819-11.563,3.819c-3.197,0-5.666-0.16-7.406-0.479l-0.479-13.197c-0.154-3.387-0.433-8.058-0.835-14.015
				c2.569-0.367,5.251-0.551,8.046-0.551c4.985,0,8.888,1.161,11.706,3.481C84.869,7.618,86.374,11.236,86.374,15.984z
				 M79.091,18.169c0-1.741-0.563-3.025-1.688-3.854c-0.936-0.687-2.131-1-3.588-0.941L73.566,24.51
				c1.516-0.095,2.754-0.586,3.713-1.474C78.487,21.935,79.091,20.313,79.091,18.169z"/>
			<path fill="#FFCCCC" stroke="#000000" stroke-width="1.0428" d="M107.302,2.129l-0.764,11.244
				c-0.438-0.071-1.386-0.195-2.842-0.373c-0.995-0.095-2.085-0.154-3.269-0.178l-0.267,3.393c1.303,0.035,3.429,0.006,6.377-0.089
				c-0.131,0.438-0.338,1.255-0.622,2.451c-0.166,0.722-0.313,1.557-0.443,2.504c-0.344-0.083-1.202-0.189-2.576-0.32
				c-0.64-0.036-1.587-0.047-2.842-0.036l-0.178,3.961c0.889-0.012,2.522-0.089,4.902-0.231c0.45-0.036,1.19-0.178,2.221-0.426
				c-0.095,0.367-0.314,1.25-0.657,2.646c-0.166,0.722-0.367,1.634-0.604,2.735H89.842l-0.516-13.926
				C89.231,12.302,89,7.849,88.634,2.129H107.302z"/>
		</g>
	</g>
</g>
<g id="Layer_2" display="none">
	<line display="inline" fill="none" stroke="#000000" x1="60.275" y1="16.498" x2="60.275" y2="-6.502"/>
</g>
</svg>
