<?xml version="1.0" encoding="utf-8"?>
<!-- Generator: Adobe Illustrator 16.0.0, SVG Export Plug-In . SVG Version: 6.00 Build 0)  -->
<!DOCTYPE svg PUBLIC "-//W3C//DTD SVG 1.1//EN" "http://www.w3.org/Graphics/SVG/1.1/DTD/svg11.dtd">
<svg version="1.1" xmlns="http://www.w3.org/2000/svg" xmlns:xlink="http://www.w3.org/1999/xlink" x="0px" y="0px" width="120px"
	 height="32px" viewBox="0 0 120 32" enable-background="new 0 0 120 32" xml:space="preserve">
<g id="Layer_1">
	<g>
		<g>
			<path fill="#FFCCCC" stroke="#000000" stroke-width="1.0428" d="M35.175,11.117c0,2.132-0.509,3.973-1.527,5.524
				c-0.865,1.303-1.942,2.226-3.233,2.771c0.829,0.355,1.504,0.941,2.025,1.758s0.782,1.688,0.782,2.611
				c0,2.298-1.226,3.979-3.677,5.045c-1.895,0.829-4.381,1.243-7.46,1.243c-2.653,0-5.5-0.219-8.544-0.657
				c-0.083-2.759-0.254-7.259-0.515-13.5c-0.177-3.351-0.444-7.945-0.799-13.784c2.25-0.438,5.098-0.657,8.544-0.657
				C30.374,1.472,35.175,4.688,35.175,11.117z M27.36,22.894c0-1.374-0.983-2.06-2.949-2.06c-0.201,0-0.408,0.012-0.622,0.035
				l-0.106,4.352C26.134,25.327,27.36,24.552,27.36,22.894z M27.946,14.457c0-0.912-0.367-1.61-1.101-2.096
				c-0.663-0.438-1.534-0.646-2.611-0.622l-0.267,5.347C26.62,17.18,27.946,16.304,27.946,14.457z"/>
			<path fill="#FFCCCC" stroke="#000000" stroke-width="1.0428" d="M58.98,29.413h-9.716l-0.657-2.362
				c-0.273,0.106-0.953,0.468-2.043,1.083c-0.699,0.45-1.475,1.048-2.326,1.794l-1.014-2.149c-0.201-0.426-0.49-1.024-0.869-1.794
				l-0.96,3.428h-5.151c0.758-2.925,1.93-7.75,3.517-14.477c0.971-4.5,1.781-8.769,2.434-12.807h10.676
				c0.33,1.859,1.236,6.188,2.717,12.984C56.404,18.667,57.535,23.433,58.98,29.413z M47.772,23.586
				c-0.202-0.627-0.557-1.646-1.065-3.055c-0.309-0.781-0.775-1.859-1.404-3.232c-0.271,0.687-0.698,1.812-1.278,3.375
				c-0.319,0.9-0.698,2.126-1.137,3.677c0.355,0,1.161-0.071,2.415-0.213C46.061,24.031,46.885,23.847,47.772,23.586z"/>
			<path fill="#FFCCCC" stroke="#000000" stroke-width="1.0428" d="M80.619,13.302C79.968,13.101,79.133,13,78.114,13
				c-1.895,0-3.434,0.498-4.618,1.492c-1.338,1.113-2.007,2.718-2.007,4.813c0,1.634,0.53,2.975,1.59,4.023
				c1.06,1.048,2.448,1.572,4.165,1.572c1.173,0,2.285-0.29,3.34-0.87c-0.119,0.485-0.32,1.379-0.604,2.682
				c-0.166,0.864-0.325,1.765-0.479,2.7c-1.326,0.509-3.025,0.764-5.098,0.764c-3.754,0-6.963-1.261-9.627-3.783
				c-2.89-2.747-4.334-6.324-4.334-10.729c0-4.073,1.243-7.365,3.729-9.876c2.652-2.676,6.317-4.014,10.995-4.014
				c2.25,0,3.878,0.13,4.885,0.391L80.619,13.302z"/>
			<path fill="#FFCCCC" stroke="#000000" stroke-width="1.0428" d="M108.899,3.55c-0.651,1.208-1.983,3.754-3.996,7.638
				c-1.102,2.144-2.617,5.003-4.548,8.579c0.166,0.261,1.125,1.356,2.878,3.286c1.03,1.101,2.492,2.504,4.388,4.209
				c-0.794,0.344-2.091,0.9-3.891,1.67c-1.007,0.45-2.422,1.107-4.245,1.972c-0.45-0.545-1.374-1.818-2.771-3.819
				c-0.782-1.184-1.534-2.445-2.256-3.784h-0.071l-0.178,6.11h-9.822L83.908,15.22c-0.131-3.102-0.409-7.466-0.835-13.091h12.362
				l-0.692,11.972h0.124c0.497-1.397,1.297-3.701,2.398-6.91c0.449-1.397,1.029-3.315,1.74-5.755l5.026,1.101
				C105.667,2.894,107.289,3.231,108.899,3.55z"/>
		</g>
	</g>
	<g>
		<line fill="none" stroke="#000000" x1="11.275" y1="-56.502" x2="11.275" y2="-20.502"/>
		<line fill="none" stroke="#000000" x1="-43.225" y1="-3.002" x2="-7.225" y2="-3.002"/>
		<line fill="none" stroke="#000000" x1="-43.225" y1="80.998" x2="-7.225" y2="80.998"/>
		<line fill="none" stroke="#000000" x1="11.275" y1="134.498" x2="11.275" y2="98.498"/>
		<line fill="none" stroke="#000000" x1="110.275" y1="-56.502" x2="110.275" y2="-20.502"/>
		<line fill="none" stroke="#000000" x1="164.775" y1="-3.002" x2="128.775" y2="-3.002"/>
		<line fill="none" stroke="#000000" x1="164.775" y1="80.998" x2="128.775" y2="80.998"/>
		<line fill="none" stroke="#000000" x1="110.275" y1="134.498" x2="110.275" y2="98.498"/>
	</g>
</g>
<g id="Layer_2" display="none">
	<line display="inline" fill="none" stroke="#000000" x1="60.275" y1="16.498" x2="60.275" y2="-51.502"/>
</g>
</svg>
