<?xml version="1.0" encoding="utf-8"?>
<!-- Generator: Adobe Illustrator 16.0.0, SVG Export Plug-In . SVG Version: 6.00 Build 0)  -->
<!DOCTYPE svg PUBLIC "-//W3C//DTD SVG 1.1//EN" "http://www.w3.org/Graphics/SVG/1.1/DTD/svg11.dtd">
<svg version="1.1" id="Layer_1" xmlns="http://www.w3.org/2000/svg" xmlns:xlink="http://www.w3.org/1999/xlink" x="0px" y="0px"
	 width="200px" height="200px" viewBox="0 0 200 200" enable-background="new 0 0 200 200" xml:space="preserve">
<path fill="#FFFFFF" d="M101,5.667l83.241,47.084v94.19L101,194.023L17.759,146.94V52.75L101,5.667z"/>
<path fill="#8ED6FB" d="M169.38,143.692l-65.627,37.124v-28.909l40.89-22.498L169.38,143.692L169.38,143.692z M173.874,139.626V62
	L149.87,75.873v49.902L173.874,139.626z M32.364,143.692l65.625,37.124v-28.909l-40.911-22.498L32.364,143.692z M27.869,139.626V62
	l24.004,13.873v49.902L27.869,139.626z M30.686,56.966l67.303-38.072v27.941L54.863,70.56l-0.345,0.194L30.686,56.966z
	 M171.057,56.966l-67.304-38.072v27.941l43.127,23.703l0.343,0.193L171.057,56.966L171.057,56.966z"/>
<path fill="#1C78C0" d="M97.989,145.327l-40.352-22.198V79.186l40.352,23.295V145.327z M103.753,145.327l40.352-22.177V79.186
	l-40.352,23.295V145.327z M60.369,74.109l40.502-22.262l40.502,22.262L100.871,97.49L60.369,74.109z"/>
</svg>
