<?xml version="1.0" encoding="utf-8"?>
<!-- Generator: Adobe Illustrator 16.0.0, SVG Export Plug-In . SVG Version: 6.00 Build 0)  -->
<!DOCTYPE svg PUBLIC "-//W3C//DTD SVG 1.1//EN" "http://www.w3.org/Graphics/SVG/1.1/DTD/svg11.dtd">
<svg version="1.1" id="Layer_1" xmlns="http://www.w3.org/2000/svg" xmlns:xlink="http://www.w3.org/1999/xlink" x="0px" y="0px"
	 width="200px" height="200px" viewBox="0 0 200 200" enable-background="new 0 0 200 200" xml:space="preserve">
<path fill="#32373C" d="M100,15.092c11.456,0,22.568,2.243,33.024,6.666c5.027,2.125,9.876,4.758,14.411,7.822
	c4.494,3.036,8.72,6.523,12.562,10.364c3.841,3.841,7.328,8.067,10.364,12.561c3.063,4.535,5.695,9.384,7.821,14.411
	c4.423,10.458,6.666,21.569,6.666,33.025c0,11.458-2.243,22.569-6.666,33.026c-2.126,5.026-4.758,9.875-7.821,14.411
	c-3.036,4.494-6.523,8.72-10.364,12.561c-3.842,3.842-8.067,7.328-12.562,10.364c-4.535,3.063-9.384,5.695-14.411,7.822
	c-10.456,4.423-21.568,6.665-33.024,6.665c-11.457,0-22.568-2.242-33.025-6.665c-5.026-2.127-9.875-4.759-14.411-7.822
	c-4.493-3.036-8.72-6.522-12.561-10.364c-3.84-3.841-7.328-8.066-10.364-12.561c-3.064-4.536-5.696-9.385-7.822-14.411
	c-4.422-10.457-6.666-21.568-6.666-33.026c0-11.456,2.243-22.567,6.666-33.025c2.126-5.026,4.758-9.875,7.822-14.411
	c3.036-4.494,6.523-8.72,10.364-12.561c3.841-3.841,8.068-7.328,12.561-10.364c4.536-3.064,9.385-5.696,14.411-7.822
	C77.432,17.335,88.543,15.092,100,15.092 M100,9.677c-49.852,0-90.265,40.413-90.265,90.264c0,49.852,40.413,90.265,90.265,90.265
	s90.264-40.413,90.264-90.265C190.264,50.09,149.852,9.677,100,9.677"/>
<path fill="#32373C" d="M24.779,99.939c0,29.772,17.301,55.503,42.396,67.696L31.293,69.327
	C27.12,78.681,24.779,89.033,24.779,99.939 M150.78,96.145c0-9.299-3.341-15.735-6.202-20.744
	c-3.813-6.199-7.388-11.444-7.388-17.642c0-6.914,5.241-13.35,12.631-13.35c0.333,0,0.65,0.041,0.975,0.062
	c-13.384-12.262-31.213-19.75-50.796-19.75c-26.28,0-49.398,13.484-62.849,33.902c1.767,0.057,3.431,0.091,4.841,0.091
	c7.866,0,20.048-0.956,20.048-0.956c4.052-0.237,4.532,5.719,0.48,6.198c0,0-4.076,0.478-8.608,0.715l27.39,81.478l16.464-49.369
	L86.049,64.672c-4.053-0.237-7.89-0.715-7.89-0.715c-4.055-0.239-3.58-6.435,0.477-6.198c0,0,12.419,0.956,19.81,0.956
	c7.866,0,20.051-0.956,20.051-0.956c4.054-0.237,4.532,5.719,0.479,6.198c0,0-4.08,0.478-8.608,0.715l27.185,80.857l7.76-24.589
	C148.76,110.195,150.78,102.581,150.78,96.145 M101.32,106.519l-22.571,65.578c6.741,1.983,13.868,3.064,21.251,3.064
	c8.76,0,17.162-1.511,24.981-4.265c-0.202-0.32-0.388-0.663-0.541-1.035L101.32,106.519z M166.009,63.853
	c0.322,2.396,0.505,4.966,0.505,7.734c0,7.63-1.43,16.211-5.722,26.942l-22.974,66.424c22.363-13.037,37.401-37.265,37.401-65.014
	C175.22,86.86,171.879,74.567,166.009,63.853"/>
</svg>
